%TF.GenerationSoftware,KiCad,Pcbnew,7.0.1*%
%TF.CreationDate,2023-06-05T22:57:53+02:00*%
%TF.ProjectId,AxisPCB-STM32F411,41786973-5043-4422-9d53-544d33324634,1*%
%TF.SameCoordinates,Original*%
%TF.FileFunction,Drillmap*%
%TF.FilePolarity,Positive*%
%FSLAX45Y45*%
G04 Gerber Fmt 4.5, Leading zero omitted, Abs format (unit mm)*
G04 Created by KiCad (PCBNEW 7.0.1) date 2023-06-05 22:57:53*
%MOMM*%
%LPD*%
G01*
G04 APERTURE LIST*
%ADD10C,0.038100*%
%ADD11C,0.200000*%
%ADD12C,0.030000*%
%ADD13C,0.033020*%
%ADD14C,0.090000*%
%ADD15C,0.100000*%
%ADD16C,0.132000*%
%ADD17C,0.320000*%
G04 APERTURE END LIST*
D10*
X11430000Y-2540000D02*
X16002000Y-2540000D01*
X16002000Y-9690100D01*
X11430000Y-9690100D01*
X11430000Y-2540000D01*
D11*
D12*
X15619300Y-6750100D02*
X15649300Y-6780100D01*
X15649300Y-6750100D02*
X15619300Y-6780100D01*
X15619300Y-6855100D02*
X15649300Y-6885100D01*
X15649300Y-6855100D02*
X15619300Y-6885100D01*
X15724300Y-6750100D02*
X15754300Y-6780100D01*
X15754300Y-6750100D02*
X15724300Y-6780100D01*
X15724300Y-6855100D02*
X15754300Y-6885100D01*
X15754300Y-6855100D02*
X15724300Y-6885100D01*
D13*
X11586210Y-7213600D02*
G75*
G03*
X11586210Y-7213600I-16510J0D01*
G01*
X11586210Y-7340600D02*
G75*
G03*
X11586210Y-7340600I-16510J0D01*
G01*
X11586210Y-7594600D02*
G75*
G03*
X11586210Y-7594600I-16510J0D01*
G01*
X11713210Y-6057900D02*
G75*
G03*
X11713210Y-6057900I-16510J0D01*
G01*
X11878310Y-6146800D02*
G75*
G03*
X11878310Y-6146800I-16510J0D01*
G01*
X11903710Y-5537200D02*
G75*
G03*
X11903710Y-5537200I-16510J0D01*
G01*
X11903710Y-6395720D02*
G75*
G03*
X11903710Y-6395720I-16510J0D01*
G01*
X11929110Y-7086600D02*
G75*
G03*
X11929110Y-7086600I-16510J0D01*
G01*
X11929110Y-7213600D02*
G75*
G03*
X11929110Y-7213600I-16510J0D01*
G01*
X11929110Y-7340600D02*
G75*
G03*
X11929110Y-7340600I-16510J0D01*
G01*
X11929110Y-7594600D02*
G75*
G03*
X11929110Y-7594600I-16510J0D01*
G01*
X12081510Y-5537200D02*
G75*
G03*
X12081510Y-5537200I-16510J0D01*
G01*
X12172950Y-6085840D02*
G75*
G03*
X12172950Y-6085840I-16510J0D01*
G01*
X12386310Y-4394200D02*
G75*
G03*
X12386310Y-4394200I-16510J0D01*
G01*
X12386310Y-6985000D02*
G75*
G03*
X12386310Y-6985000I-16510J0D01*
G01*
X12391390Y-7950200D02*
G75*
G03*
X12391390Y-7950200I-16510J0D01*
G01*
X12424410Y-8839200D02*
G75*
G03*
X12424410Y-8839200I-16510J0D01*
G01*
X12449810Y-7467600D02*
G75*
G03*
X12449810Y-7467600I-16510J0D01*
G01*
X12500610Y-7950200D02*
G75*
G03*
X12500610Y-7950200I-16510J0D01*
G01*
X12514932Y-4785073D02*
G75*
G03*
X12514932Y-4785073I-16510J0D01*
G01*
X12533510Y-6832600D02*
G75*
G03*
X12533510Y-6832600I-16510J0D01*
G01*
X12561570Y-5232400D02*
G75*
G03*
X12561570Y-5232400I-16510J0D01*
G01*
X12579350Y-7142480D02*
G75*
G03*
X12579350Y-7142480I-16510J0D01*
G01*
X12589510Y-7950200D02*
G75*
G03*
X12589510Y-7950200I-16510J0D01*
G01*
X12640310Y-7061200D02*
G75*
G03*
X12640310Y-7061200I-16510J0D01*
G01*
X12691110Y-4673600D02*
G75*
G03*
X12691110Y-4673600I-16510J0D01*
G01*
X12691110Y-5232400D02*
G75*
G03*
X12691110Y-5232400I-16510J0D01*
G01*
X12691110Y-7150100D02*
G75*
G03*
X12691110Y-7150100I-16510J0D01*
G01*
X12691110Y-7950200D02*
G75*
G03*
X12691110Y-7950200I-16510J0D01*
G01*
X12716510Y-5633720D02*
G75*
G03*
X12716510Y-5633720I-16510J0D01*
G01*
X12716510Y-9232900D02*
G75*
G03*
X12716510Y-9232900I-16510J0D01*
G01*
X12741910Y-4775200D02*
G75*
G03*
X12741910Y-4775200I-16510J0D01*
G01*
X12741910Y-5745480D02*
G75*
G03*
X12741910Y-5745480I-16510J0D01*
G01*
X12767310Y-6639560D02*
G75*
G03*
X12767310Y-6639560I-16510J0D01*
G01*
X12772390Y-6731000D02*
G75*
G03*
X12772390Y-6731000I-16510J0D01*
G01*
X12792710Y-5557520D02*
G75*
G03*
X12792710Y-5557520I-16510J0D01*
G01*
X12792710Y-7909560D02*
G75*
G03*
X12792710Y-7909560I-16510J0D01*
G01*
X12802870Y-6497320D02*
G75*
G03*
X12802870Y-6497320I-16510J0D01*
G01*
X12805410Y-7287310D02*
G75*
G03*
X12805410Y-7287310I-16510J0D01*
G01*
X12820910Y-4584700D02*
G75*
G03*
X12820910Y-4584700I-16510J0D01*
G01*
X12843510Y-7493000D02*
G75*
G03*
X12843510Y-7493000I-16510J0D01*
G01*
X12856210Y-4914900D02*
G75*
G03*
X12856210Y-4914900I-16510J0D01*
G01*
X12891135Y-4759325D02*
G75*
G03*
X12891135Y-4759325I-16510J0D01*
G01*
X12894310Y-5410200D02*
G75*
G03*
X12894310Y-5410200I-16510J0D01*
G01*
X12909550Y-6685280D02*
G75*
G03*
X12909550Y-6685280I-16510J0D01*
G01*
X12914630Y-5283200D02*
G75*
G03*
X12914630Y-5283200I-16510J0D01*
G01*
X12943970Y-6147940D02*
G75*
G03*
X12943970Y-6147940I-16510J0D01*
G01*
X12945110Y-6908800D02*
G75*
G03*
X12945110Y-6908800I-16510J0D01*
G01*
X12945110Y-7467600D02*
G75*
G03*
X12945110Y-7467600I-16510J0D01*
G01*
X12955270Y-5562600D02*
G75*
G03*
X12955270Y-5562600I-16510J0D01*
G01*
X12964160Y-4451350D02*
G75*
G03*
X12964160Y-4451350I-16510J0D01*
G01*
X12970510Y-4848910D02*
G75*
G03*
X12970510Y-4848910I-16510J0D01*
G01*
X12995910Y-4978400D02*
G75*
G03*
X12995910Y-4978400I-16510J0D01*
G01*
X12995910Y-9423400D02*
G75*
G03*
X12995910Y-9423400I-16510J0D01*
G01*
X13026390Y-5323840D02*
G75*
G03*
X13026390Y-5323840I-16510J0D01*
G01*
X13026390Y-5770880D02*
G75*
G03*
X13026390Y-5770880I-16510J0D01*
G01*
X13031470Y-4536440D02*
G75*
G03*
X13031470Y-4536440I-16510J0D01*
G01*
X13045050Y-4312920D02*
G75*
G03*
X13045050Y-4312920I-16510J0D01*
G01*
X13046710Y-5501640D02*
G75*
G03*
X13046710Y-5501640I-16510J0D01*
G01*
X13148310Y-5747970D02*
G75*
G03*
X13148310Y-5747970I-16510J0D01*
G01*
X13173710Y-7569200D02*
G75*
G03*
X13173710Y-7569200I-16510J0D01*
G01*
X13201700Y-5638800D02*
G75*
G03*
X13201700Y-5638800I-16510J0D01*
G01*
X13260070Y-5796280D02*
G75*
G03*
X13260070Y-5796280I-16510J0D01*
G01*
X13308280Y-5440680D02*
G75*
G03*
X13308280Y-5440680I-16510J0D01*
G01*
X13326110Y-5623560D02*
G75*
G03*
X13326110Y-5623560I-16510J0D01*
G01*
X13331190Y-4897120D02*
G75*
G03*
X13331190Y-4897120I-16510J0D01*
G01*
X13336270Y-5344160D02*
G75*
G03*
X13336270Y-5344160I-16510J0D01*
G01*
X13362190Y-4795520D02*
G75*
G03*
X13362190Y-4795520I-16510J0D01*
G01*
X13392150Y-5496560D02*
G75*
G03*
X13392150Y-5496560I-16510J0D01*
G01*
X13417550Y-6075680D02*
G75*
G03*
X13417550Y-6075680I-16510J0D01*
G01*
X13442950Y-4561840D02*
G75*
G03*
X13442950Y-4561840I-16510J0D01*
G01*
X13453110Y-8864600D02*
G75*
G03*
X13453110Y-8864600I-16510J0D01*
G01*
X13453110Y-9245600D02*
G75*
G03*
X13453110Y-9245600I-16510J0D01*
G01*
X13478510Y-7335520D02*
G75*
G03*
X13478510Y-7335520I-16510J0D01*
G01*
X13479030Y-4676090D02*
G75*
G03*
X13479030Y-4676090I-16510J0D01*
G01*
X13516610Y-6337300D02*
G75*
G03*
X13516610Y-6337300I-16510J0D01*
G01*
X13534390Y-7203440D02*
G75*
G03*
X13534390Y-7203440I-16510J0D01*
G01*
X13544550Y-6156960D02*
G75*
G03*
X13544550Y-6156960I-16510J0D01*
G01*
X13549630Y-5496560D02*
G75*
G03*
X13549630Y-5496560I-16510J0D01*
G01*
X13554450Y-5803640D02*
G75*
G03*
X13554450Y-5803640I-16510J0D01*
G01*
X13555230Y-4622800D02*
G75*
G03*
X13555230Y-4622800I-16510J0D01*
G01*
X13569950Y-9108440D02*
G75*
G03*
X13569950Y-9108440I-16510J0D01*
G01*
X13575030Y-5242560D02*
G75*
G03*
X13575030Y-5242560I-16510J0D01*
G01*
X13605510Y-8686800D02*
G75*
G03*
X13605510Y-8686800I-16510J0D01*
G01*
X13630910Y-9448800D02*
G75*
G03*
X13630910Y-9448800I-16510J0D01*
G01*
X13646150Y-5847080D02*
G75*
G03*
X13646150Y-5847080I-16510J0D01*
G01*
X13656830Y-4914900D02*
G75*
G03*
X13656830Y-4914900I-16510J0D01*
G01*
X13661390Y-5674360D02*
G75*
G03*
X13661390Y-5674360I-16510J0D01*
G01*
X13676630Y-4643120D02*
G75*
G03*
X13676630Y-4643120I-16510J0D01*
G01*
X13676630Y-5532120D02*
G75*
G03*
X13676630Y-5532120I-16510J0D01*
G01*
X13676630Y-6964680D02*
G75*
G03*
X13676630Y-6964680I-16510J0D01*
G01*
X13689330Y-8920480D02*
G75*
G03*
X13689330Y-8920480I-16510J0D01*
G01*
X13732510Y-8534400D02*
G75*
G03*
X13732510Y-8534400I-16510J0D01*
G01*
X13742670Y-5755640D02*
G75*
G03*
X13742670Y-5755640I-16510J0D01*
G01*
X13757910Y-4927600D02*
G75*
G03*
X13757910Y-4927600I-16510J0D01*
G01*
X13793470Y-6045200D02*
G75*
G03*
X13793470Y-6045200I-16510J0D01*
G01*
X13803630Y-5608320D02*
G75*
G03*
X13803630Y-5608320I-16510J0D01*
G01*
X13852165Y-4921972D02*
G75*
G03*
X13852165Y-4921972I-16510J0D01*
G01*
X13854430Y-4658360D02*
G75*
G03*
X13854430Y-4658360I-16510J0D01*
G01*
X13859510Y-8382000D02*
G75*
G03*
X13859510Y-8382000I-16510J0D01*
G01*
X13872730Y-4546600D02*
G75*
G03*
X13872730Y-4546600I-16510J0D01*
G01*
X13897610Y-9537700D02*
G75*
G03*
X13897610Y-9537700I-16510J0D01*
G01*
X13917930Y-6365240D02*
G75*
G03*
X13917930Y-6365240I-16510J0D01*
G01*
X13922592Y-5758598D02*
G75*
G03*
X13922592Y-5758598I-16510J0D01*
G01*
X13935710Y-6705600D02*
G75*
G03*
X13935710Y-6705600I-16510J0D01*
G01*
X13948410Y-5600700D02*
G75*
G03*
X13948410Y-5600700I-16510J0D01*
G01*
X13973810Y-8242300D02*
G75*
G03*
X13973810Y-8242300I-16510J0D01*
G01*
X13981430Y-4480560D02*
G75*
G03*
X13981430Y-4480560I-16510J0D01*
G01*
X13981430Y-4663440D02*
G75*
G03*
X13981430Y-4663440I-16510J0D01*
G01*
X13989000Y-6995160D02*
G75*
G03*
X13989000Y-6995160I-16510J0D01*
G01*
X14037310Y-6680200D02*
G75*
G03*
X14037310Y-6680200I-16510J0D01*
G01*
X14037830Y-5499100D02*
G75*
G03*
X14037830Y-5499100I-16510J0D01*
G01*
X14050010Y-5257800D02*
G75*
G03*
X14050010Y-5257800I-16510J0D01*
G01*
X14060690Y-4795520D02*
G75*
G03*
X14060690Y-4795520I-16510J0D01*
G01*
X14093190Y-4874310D02*
G75*
G03*
X14093190Y-4874310I-16510J0D01*
G01*
X14126210Y-9017000D02*
G75*
G03*
X14126210Y-9017000I-16510J0D01*
G01*
X14128750Y-5948680D02*
G75*
G03*
X14128750Y-5948680I-16510J0D01*
G01*
X14138910Y-5791200D02*
G75*
G03*
X14138910Y-5791200I-16510J0D01*
G01*
X14138910Y-9538000D02*
G75*
G03*
X14138910Y-9538000I-16510J0D01*
G01*
X14164310Y-8788400D02*
G75*
G03*
X14164310Y-8788400I-16510J0D01*
G01*
X14169390Y-8003540D02*
G75*
G03*
X14169390Y-8003540I-16510J0D01*
G01*
X14215110Y-5867400D02*
G75*
G03*
X14215110Y-5867400I-16510J0D01*
G01*
X14286230Y-8435340D02*
G75*
G03*
X14286230Y-8435340I-16510J0D01*
G01*
X14306550Y-5928360D02*
G75*
G03*
X14306550Y-5928360I-16510J0D01*
G01*
X14316710Y-5689600D02*
G75*
G03*
X14316710Y-5689600I-16510J0D01*
G01*
X14337030Y-4414520D02*
G75*
G03*
X14337030Y-4414520I-16510J0D01*
G01*
X14395450Y-8008620D02*
G75*
G03*
X14395450Y-8008620I-16510J0D01*
G01*
X14413230Y-5516880D02*
G75*
G03*
X14413230Y-5516880I-16510J0D01*
G01*
X14418310Y-6121400D02*
G75*
G03*
X14418310Y-6121400I-16510J0D01*
G01*
X14418310Y-6248400D02*
G75*
G03*
X14418310Y-6248400I-16510J0D01*
G01*
X14418310Y-6375400D02*
G75*
G03*
X14418310Y-6375400I-16510J0D01*
G01*
X14418310Y-6527800D02*
G75*
G03*
X14418310Y-6527800I-16510J0D01*
G01*
X14418310Y-6680200D02*
G75*
G03*
X14418310Y-6680200I-16510J0D01*
G01*
X14418310Y-6832600D02*
G75*
G03*
X14418310Y-6832600I-16510J0D01*
G01*
X14418310Y-7010400D02*
G75*
G03*
X14418310Y-7010400I-16510J0D01*
G01*
X14418310Y-7162800D02*
G75*
G03*
X14418310Y-7162800I-16510J0D01*
G01*
X14418310Y-7289800D02*
G75*
G03*
X14418310Y-7289800I-16510J0D01*
G01*
X14418310Y-7442200D02*
G75*
G03*
X14418310Y-7442200I-16510J0D01*
G01*
X14418310Y-7594600D02*
G75*
G03*
X14418310Y-7594600I-16510J0D01*
G01*
X14418310Y-7721600D02*
G75*
G03*
X14418310Y-7721600I-16510J0D01*
G01*
X14418310Y-7848600D02*
G75*
G03*
X14418310Y-7848600I-16510J0D01*
G01*
X14423390Y-4485640D02*
G75*
G03*
X14423390Y-4485640I-16510J0D01*
G01*
X14465220Y-4946960D02*
G75*
G03*
X14465220Y-4946960I-16510J0D01*
G01*
X14466266Y-4808270D02*
G75*
G03*
X14466266Y-4808270I-16510J0D01*
G01*
X14494510Y-6045200D02*
G75*
G03*
X14494510Y-6045200I-16510J0D01*
G01*
X14532610Y-7289800D02*
G75*
G03*
X14532610Y-7289800I-16510J0D01*
G01*
X14583410Y-4724400D02*
G75*
G03*
X14583410Y-4724400I-16510J0D01*
G01*
X14583410Y-4838700D02*
G75*
G03*
X14583410Y-4838700I-16510J0D01*
G01*
X14611350Y-4942840D02*
G75*
G03*
X14611350Y-4942840I-16510J0D01*
G01*
X14616430Y-7993380D02*
G75*
G03*
X14616430Y-7993380I-16510J0D01*
G01*
X14646910Y-5537200D02*
G75*
G03*
X14646910Y-5537200I-16510J0D01*
G01*
X14646910Y-6299200D02*
G75*
G03*
X14646910Y-6299200I-16510J0D01*
G01*
X14646910Y-7289800D02*
G75*
G03*
X14646910Y-7289800I-16510J0D01*
G01*
X14659610Y-5041900D02*
G75*
G03*
X14659610Y-5041900I-16510J0D01*
G01*
X14672310Y-6108700D02*
G75*
G03*
X14672310Y-6108700I-16510J0D01*
G01*
X14685010Y-4711700D02*
G75*
G03*
X14685010Y-4711700I-16510J0D01*
G01*
X14707870Y-8435340D02*
G75*
G03*
X14707870Y-8435340I-16510J0D01*
G01*
X14761210Y-7289800D02*
G75*
G03*
X14761210Y-7289800I-16510J0D01*
G01*
X14799310Y-6223000D02*
G75*
G03*
X14799310Y-6223000I-16510J0D01*
G01*
X14834870Y-8003540D02*
G75*
G03*
X14834870Y-8003540I-16510J0D01*
G01*
X14875510Y-5247640D02*
G75*
G03*
X14875510Y-5247640I-16510J0D01*
G01*
X14875510Y-7289800D02*
G75*
G03*
X14875510Y-7289800I-16510J0D01*
G01*
X14888210Y-6223000D02*
G75*
G03*
X14888210Y-6223000I-16510J0D01*
G01*
X14913610Y-7772400D02*
G75*
G03*
X14913610Y-7772400I-16510J0D01*
G01*
X14977110Y-6223000D02*
G75*
G03*
X14977110Y-6223000I-16510J0D01*
G01*
X14989810Y-7289800D02*
G75*
G03*
X14989810Y-7289800I-16510J0D01*
G01*
X15093950Y-3459480D02*
G75*
G03*
X15093950Y-3459480I-16510J0D01*
G01*
X15104110Y-7289800D02*
G75*
G03*
X15104110Y-7289800I-16510J0D01*
G01*
X15129510Y-4470400D02*
G75*
G03*
X15129510Y-4470400I-16510J0D01*
G01*
X15129510Y-5435600D02*
G75*
G03*
X15129510Y-5435600I-16510J0D01*
G01*
X15154910Y-6324600D02*
G75*
G03*
X15154910Y-6324600I-16510J0D01*
G01*
X15167610Y-7416800D02*
G75*
G03*
X15167610Y-7416800I-16510J0D01*
G01*
X15281910Y-8547100D02*
G75*
G03*
X15281910Y-8547100I-16510J0D01*
G01*
X15294610Y-8763000D02*
G75*
G03*
X15294610Y-8763000I-16510J0D01*
G01*
X15345410Y-5448300D02*
G75*
G03*
X15345410Y-5448300I-16510J0D01*
G01*
X15347510Y-6426440D02*
G75*
G03*
X15347510Y-6426440I-16510J0D01*
G01*
X15393430Y-6797280D02*
G75*
G03*
X15393430Y-6797280I-16510J0D01*
G01*
X15447010Y-7251700D02*
G75*
G03*
X15447010Y-7251700I-16510J0D01*
G01*
X15463542Y-6696688D02*
G75*
G03*
X15463542Y-6696688I-16510J0D01*
G01*
X15469630Y-6360400D02*
G75*
G03*
X15469630Y-6360400I-16510J0D01*
G01*
X15469630Y-6924280D02*
G75*
G03*
X15469630Y-6924280I-16510J0D01*
G01*
X15525510Y-6634720D02*
G75*
G03*
X15525510Y-6634720I-16510J0D01*
G01*
X15548610Y-4292600D02*
G75*
G03*
X15548610Y-4292600I-16510J0D01*
G01*
X15548610Y-4406900D02*
G75*
G03*
X15548610Y-4406900I-16510J0D01*
G01*
X15548610Y-4546600D02*
G75*
G03*
X15548610Y-4546600I-16510J0D01*
G01*
X15548610Y-4749800D02*
G75*
G03*
X15548610Y-4749800I-16510J0D01*
G01*
X15718550Y-6563600D02*
G75*
G03*
X15718550Y-6563600I-16510J0D01*
G01*
X15726410Y-7073900D02*
G75*
G03*
X15726410Y-7073900I-16510J0D01*
G01*
X15736570Y-8547100D02*
G75*
G03*
X15736570Y-8547100I-16510J0D01*
G01*
X15741650Y-8763000D02*
G75*
G03*
X15741650Y-8763000I-16510J0D01*
G01*
X15759430Y-8209280D02*
G75*
G03*
X15759430Y-8209280I-16510J0D01*
G01*
X15764510Y-7599680D02*
G75*
G03*
X15764510Y-7599680I-16510J0D01*
G01*
X15777210Y-5524500D02*
G75*
G03*
X15777210Y-5524500I-16510J0D01*
G01*
X15777210Y-5803900D02*
G75*
G03*
X15777210Y-5803900I-16510J0D01*
G01*
X15784830Y-6410960D02*
G75*
G03*
X15784830Y-6410960I-16510J0D01*
G01*
X15789910Y-3500120D02*
G75*
G03*
X15789910Y-3500120I-16510J0D01*
G01*
X15789910Y-6083300D02*
G75*
G03*
X15789910Y-6083300I-16510J0D01*
G01*
X15797390Y-6583160D02*
G75*
G03*
X15797390Y-6583160I-16510J0D01*
G01*
X15797602Y-7401560D02*
G75*
G03*
X15797602Y-7401560I-16510J0D01*
G01*
X15822930Y-6299200D02*
G75*
G03*
X15822930Y-6299200I-16510J0D01*
G01*
X15858490Y-8676640D02*
G75*
G03*
X15858490Y-8676640I-16510J0D01*
G01*
X15861030Y-6655040D02*
G75*
G03*
X15861030Y-6655040I-16510J0D01*
G01*
X15864890Y-6959600D02*
G75*
G03*
X15864890Y-6959600I-16510J0D01*
G01*
X15916910Y-7391400D02*
G75*
G03*
X15916910Y-7391400I-16510J0D01*
G01*
X15927070Y-6830060D02*
G75*
G03*
X15927070Y-6830060I-16510J0D01*
G01*
D10*
X12204700Y-4057650D02*
X12204700Y-4095750D01*
X12185650Y-4076700D02*
X12223750Y-4076700D01*
X12204700Y-4210050D02*
X12204700Y-4248150D01*
X12185650Y-4229100D02*
X12223750Y-4229100D01*
X14942820Y-4758690D02*
X14942820Y-4796790D01*
X14923770Y-4777740D02*
X14961870Y-4777740D01*
X14988752Y-5642398D02*
X14988752Y-5680498D01*
X14969702Y-5661448D02*
X15007802Y-5661448D01*
X15240000Y-5797550D02*
X15240000Y-5835650D01*
X15220950Y-5816600D02*
X15259050Y-5816600D01*
X15351760Y-4225290D02*
X15351760Y-4263390D01*
X15332710Y-4244340D02*
X15370810Y-4244340D01*
X15468600Y-3813810D02*
X15468600Y-3851910D01*
X15449550Y-3832860D02*
X15487650Y-3832860D01*
X15532100Y-5149850D02*
X15532100Y-5187950D01*
X15513050Y-5168900D02*
X15551150Y-5168900D01*
X15532100Y-5480050D02*
X15532100Y-5518150D01*
X15513050Y-5499100D02*
X15551150Y-5499100D01*
X15532100Y-5797550D02*
X15532100Y-5835650D01*
X15513050Y-5816600D02*
X15551150Y-5816600D01*
X15615920Y-3666490D02*
X15615920Y-3704590D01*
X15596870Y-3685540D02*
X15634970Y-3685540D01*
X15618460Y-4113530D02*
X15618460Y-4151630D01*
X15599410Y-4132580D02*
X15637510Y-4132580D01*
D14*
X12350320Y-9404420D02*
X12350320Y-9340780D01*
X12286680Y-9340780D01*
X12286680Y-9404420D01*
X12350320Y-9404420D01*
X12604320Y-9404420D02*
X12604320Y-9340780D01*
X12540680Y-9340780D01*
X12540680Y-9404420D01*
X12604320Y-9404420D01*
D15*
X11705248Y-8480260D02*
X11755248Y-8430260D01*
X11705248Y-8380260D01*
X11655248Y-8430260D01*
X11705248Y-8480260D01*
X11709400Y-4495000D02*
X11759400Y-4445000D01*
X11709400Y-4395000D01*
X11659400Y-4445000D01*
X11709400Y-4495000D01*
X11709400Y-4749000D02*
X11759400Y-4699000D01*
X11709400Y-4649000D01*
X11659400Y-4699000D01*
X11709400Y-4749000D01*
X11709400Y-5003000D02*
X11759400Y-4953000D01*
X11709400Y-4903000D01*
X11659400Y-4953000D01*
X11709400Y-5003000D01*
X11709400Y-5257000D02*
X11759400Y-5207000D01*
X11709400Y-5157000D01*
X11659400Y-5207000D01*
X11709400Y-5257000D01*
X12160000Y-4495000D02*
X12210000Y-4445000D01*
X12160000Y-4395000D01*
X12110000Y-4445000D01*
X12160000Y-4495000D01*
X12160000Y-4749000D02*
X12210000Y-4699000D01*
X12160000Y-4649000D01*
X12110000Y-4699000D01*
X12160000Y-4749000D01*
X12160000Y-5003000D02*
X12210000Y-4953000D01*
X12160000Y-4903000D01*
X12110000Y-4953000D01*
X12160000Y-5003000D01*
X12160000Y-5257000D02*
X12210000Y-5207000D01*
X12160000Y-5157000D01*
X12110000Y-5207000D01*
X12160000Y-5257000D01*
X12205248Y-8480260D02*
X12255248Y-8430260D01*
X12205248Y-8380260D01*
X12155248Y-8430260D01*
X12205248Y-8480260D01*
X12573000Y-2767800D02*
X12623000Y-2717800D01*
X12573000Y-2667800D01*
X12523000Y-2717800D01*
X12573000Y-2767800D01*
X12573000Y-3021800D02*
X12623000Y-2971800D01*
X12573000Y-2921800D01*
X12523000Y-2971800D01*
X12573000Y-3021800D01*
X12573000Y-3275800D02*
X12623000Y-3225800D01*
X12573000Y-3175800D01*
X12523000Y-3225800D01*
X12573000Y-3275800D01*
X12573000Y-3529800D02*
X12623000Y-3479800D01*
X12573000Y-3429800D01*
X12523000Y-3479800D01*
X12573000Y-3529800D01*
X12573000Y-3783800D02*
X12623000Y-3733800D01*
X12573000Y-3683800D01*
X12523000Y-3733800D01*
X12573000Y-3783800D01*
X12573000Y-4037800D02*
X12623000Y-3987800D01*
X12573000Y-3937800D01*
X12523000Y-3987800D01*
X12573000Y-4037800D01*
X12573000Y-4291800D02*
X12623000Y-4241800D01*
X12573000Y-4191800D01*
X12523000Y-4241800D01*
X12573000Y-4291800D01*
X12573000Y-4545800D02*
X12623000Y-4495800D01*
X12573000Y-4445800D01*
X12523000Y-4495800D01*
X12573000Y-4545800D01*
X14859000Y-2767800D02*
X14909000Y-2717800D01*
X14859000Y-2667800D01*
X14809000Y-2717800D01*
X14859000Y-2767800D01*
X14859000Y-3021800D02*
X14909000Y-2971800D01*
X14859000Y-2921800D01*
X14809000Y-2971800D01*
X14859000Y-3021800D01*
X14859000Y-3275800D02*
X14909000Y-3225800D01*
X14859000Y-3175800D01*
X14809000Y-3225800D01*
X14859000Y-3275800D01*
X14859000Y-3529800D02*
X14909000Y-3479800D01*
X14859000Y-3429800D01*
X14809000Y-3479800D01*
X14859000Y-3529800D01*
X14859000Y-3783800D02*
X14909000Y-3733800D01*
X14859000Y-3683800D01*
X14809000Y-3733800D01*
X14859000Y-3783800D01*
X14859000Y-4037800D02*
X14909000Y-3987800D01*
X14859000Y-3937800D01*
X14809000Y-3987800D01*
X14859000Y-4037800D01*
X14859000Y-4291800D02*
X14909000Y-4241800D01*
X14859000Y-4191800D01*
X14809000Y-4241800D01*
X14859000Y-4291800D01*
X14859000Y-4545800D02*
X14909000Y-4495800D01*
X14859000Y-4445800D01*
X14809000Y-4495800D01*
X14859000Y-4545800D01*
X15215332Y-7924000D02*
X15265332Y-7874000D01*
X15215332Y-7824000D01*
X15165332Y-7874000D01*
X15215332Y-7924000D01*
X15303500Y-4495000D02*
X15353500Y-4445000D01*
X15303500Y-4395000D01*
X15253500Y-4445000D01*
X15303500Y-4495000D01*
X15303500Y-4749000D02*
X15353500Y-4699000D01*
X15303500Y-4649000D01*
X15253500Y-4699000D01*
X15303500Y-4749000D01*
X15303500Y-5003000D02*
X15353500Y-4953000D01*
X15303500Y-4903000D01*
X15253500Y-4953000D01*
X15303500Y-5003000D01*
X15303500Y-5257000D02*
X15353500Y-5207000D01*
X15303500Y-5157000D01*
X15253500Y-5207000D01*
X15303500Y-5257000D01*
X15715332Y-7924000D02*
X15765332Y-7874000D01*
X15715332Y-7824000D01*
X15665332Y-7874000D01*
X15715332Y-7924000D01*
X15748000Y-4495000D02*
X15798000Y-4445000D01*
X15748000Y-4395000D01*
X15698000Y-4445000D01*
X15748000Y-4495000D01*
X15748000Y-4749000D02*
X15798000Y-4699000D01*
X15748000Y-4649000D01*
X15698000Y-4699000D01*
X15748000Y-4749000D01*
X15748000Y-5003000D02*
X15798000Y-4953000D01*
X15748000Y-4903000D01*
X15698000Y-4953000D01*
X15748000Y-5003000D01*
X15748000Y-5257000D02*
X15798000Y-5207000D01*
X15748000Y-5157000D01*
X15698000Y-5207000D01*
X15748000Y-5257000D01*
D16*
X14376800Y-8976400D02*
X14508800Y-9108400D01*
X14508800Y-8976400D02*
X14376800Y-9108400D01*
X14508800Y-9042400D02*
G75*
G03*
X14508800Y-9042400I-66000J0D01*
G01*
X14876800Y-8976400D02*
X15008800Y-9108400D01*
X15008800Y-8976400D02*
X14876800Y-9108400D01*
X15008800Y-9042400D02*
G75*
G03*
X15008800Y-9042400I-66000J0D01*
G01*
D17*
X11651000Y-2888000D02*
X11971000Y-3208000D01*
X11971000Y-2888000D02*
X11651000Y-3208000D01*
X11811000Y-2888000D02*
X11811000Y-3208000D01*
X11651000Y-3048000D02*
X11971000Y-3048000D01*
X11651000Y-9111000D02*
X11971000Y-9431000D01*
X11971000Y-9111000D02*
X11651000Y-9431000D01*
X11811000Y-9111000D02*
X11811000Y-9431000D01*
X11651000Y-9271000D02*
X11971000Y-9271000D01*
X15461000Y-2888000D02*
X15781000Y-3208000D01*
X15781000Y-2888000D02*
X15461000Y-3208000D01*
X15621000Y-2888000D02*
X15621000Y-3208000D01*
X15461000Y-3048000D02*
X15781000Y-3048000D01*
X15461000Y-9111000D02*
X15781000Y-9431000D01*
X15781000Y-9111000D02*
X15461000Y-9431000D01*
X15621000Y-9111000D02*
X15621000Y-9431000D01*
X15461000Y-9271000D02*
X15781000Y-9271000D01*
D11*
X11675714Y-10004529D02*
X11675714Y-9804529D01*
X11675714Y-9804529D02*
X11723333Y-9804529D01*
X11723333Y-9804529D02*
X11751904Y-9814053D01*
X11751904Y-9814053D02*
X11770952Y-9833100D01*
X11770952Y-9833100D02*
X11780476Y-9852148D01*
X11780476Y-9852148D02*
X11790000Y-9890243D01*
X11790000Y-9890243D02*
X11790000Y-9918815D01*
X11790000Y-9918815D02*
X11780476Y-9956910D01*
X11780476Y-9956910D02*
X11770952Y-9975957D01*
X11770952Y-9975957D02*
X11751904Y-9995005D01*
X11751904Y-9995005D02*
X11723333Y-10004529D01*
X11723333Y-10004529D02*
X11675714Y-10004529D01*
X11875714Y-10004529D02*
X11875714Y-9871195D01*
X11875714Y-9909291D02*
X11885238Y-9890243D01*
X11885238Y-9890243D02*
X11894762Y-9880719D01*
X11894762Y-9880719D02*
X11913809Y-9871195D01*
X11913809Y-9871195D02*
X11932857Y-9871195D01*
X11999523Y-10004529D02*
X11999523Y-9871195D01*
X11999523Y-9804529D02*
X11990000Y-9814053D01*
X11990000Y-9814053D02*
X11999523Y-9823576D01*
X11999523Y-9823576D02*
X12009047Y-9814053D01*
X12009047Y-9814053D02*
X11999523Y-9804529D01*
X11999523Y-9804529D02*
X11999523Y-9823576D01*
X12123333Y-10004529D02*
X12104285Y-9995005D01*
X12104285Y-9995005D02*
X12094762Y-9975957D01*
X12094762Y-9975957D02*
X12094762Y-9804529D01*
X12228095Y-10004529D02*
X12209047Y-9995005D01*
X12209047Y-9995005D02*
X12199523Y-9975957D01*
X12199523Y-9975957D02*
X12199523Y-9804529D01*
X12456666Y-10004529D02*
X12456666Y-9804529D01*
X12456666Y-9804529D02*
X12523333Y-9947386D01*
X12523333Y-9947386D02*
X12590000Y-9804529D01*
X12590000Y-9804529D02*
X12590000Y-10004529D01*
X12770952Y-10004529D02*
X12770952Y-9899767D01*
X12770952Y-9899767D02*
X12761428Y-9880719D01*
X12761428Y-9880719D02*
X12742381Y-9871195D01*
X12742381Y-9871195D02*
X12704285Y-9871195D01*
X12704285Y-9871195D02*
X12685238Y-9880719D01*
X12770952Y-9995005D02*
X12751904Y-10004529D01*
X12751904Y-10004529D02*
X12704285Y-10004529D01*
X12704285Y-10004529D02*
X12685238Y-9995005D01*
X12685238Y-9995005D02*
X12675714Y-9975957D01*
X12675714Y-9975957D02*
X12675714Y-9956910D01*
X12675714Y-9956910D02*
X12685238Y-9937862D01*
X12685238Y-9937862D02*
X12704285Y-9928338D01*
X12704285Y-9928338D02*
X12751904Y-9928338D01*
X12751904Y-9928338D02*
X12770952Y-9918815D01*
X12866190Y-9871195D02*
X12866190Y-10071195D01*
X12866190Y-9880719D02*
X12885238Y-9871195D01*
X12885238Y-9871195D02*
X12923333Y-9871195D01*
X12923333Y-9871195D02*
X12942381Y-9880719D01*
X12942381Y-9880719D02*
X12951904Y-9890243D01*
X12951904Y-9890243D02*
X12961428Y-9909291D01*
X12961428Y-9909291D02*
X12961428Y-9966434D01*
X12961428Y-9966434D02*
X12951904Y-9985481D01*
X12951904Y-9985481D02*
X12942381Y-9995005D01*
X12942381Y-9995005D02*
X12923333Y-10004529D01*
X12923333Y-10004529D02*
X12885238Y-10004529D01*
X12885238Y-10004529D02*
X12866190Y-9995005D01*
X13047143Y-9985481D02*
X13056666Y-9995005D01*
X13056666Y-9995005D02*
X13047143Y-10004529D01*
X13047143Y-10004529D02*
X13037619Y-9995005D01*
X13037619Y-9995005D02*
X13047143Y-9985481D01*
X13047143Y-9985481D02*
X13047143Y-10004529D01*
X13047143Y-9880719D02*
X13056666Y-9890243D01*
X13056666Y-9890243D02*
X13047143Y-9899767D01*
X13047143Y-9899767D02*
X13037619Y-9890243D01*
X13037619Y-9890243D02*
X13047143Y-9880719D01*
X13047143Y-9880719D02*
X13047143Y-9899767D01*
D12*
X11398095Y-10317005D02*
X11428095Y-10347005D01*
X11428095Y-10317005D02*
X11398095Y-10347005D01*
D11*
X11713809Y-10224529D02*
X11732857Y-10224529D01*
X11732857Y-10224529D02*
X11751904Y-10234053D01*
X11751904Y-10234053D02*
X11761428Y-10243576D01*
X11761428Y-10243576D02*
X11770952Y-10262624D01*
X11770952Y-10262624D02*
X11780476Y-10300719D01*
X11780476Y-10300719D02*
X11780476Y-10348338D01*
X11780476Y-10348338D02*
X11770952Y-10386434D01*
X11770952Y-10386434D02*
X11761428Y-10405481D01*
X11761428Y-10405481D02*
X11751904Y-10415005D01*
X11751904Y-10415005D02*
X11732857Y-10424529D01*
X11732857Y-10424529D02*
X11713809Y-10424529D01*
X11713809Y-10424529D02*
X11694762Y-10415005D01*
X11694762Y-10415005D02*
X11685238Y-10405481D01*
X11685238Y-10405481D02*
X11675714Y-10386434D01*
X11675714Y-10386434D02*
X11666190Y-10348338D01*
X11666190Y-10348338D02*
X11666190Y-10300719D01*
X11666190Y-10300719D02*
X11675714Y-10262624D01*
X11675714Y-10262624D02*
X11685238Y-10243576D01*
X11685238Y-10243576D02*
X11694762Y-10234053D01*
X11694762Y-10234053D02*
X11713809Y-10224529D01*
X11866190Y-10405481D02*
X11875714Y-10415005D01*
X11875714Y-10415005D02*
X11866190Y-10424529D01*
X11866190Y-10424529D02*
X11856666Y-10415005D01*
X11856666Y-10415005D02*
X11866190Y-10405481D01*
X11866190Y-10405481D02*
X11866190Y-10424529D01*
X11942381Y-10224529D02*
X12066190Y-10224529D01*
X12066190Y-10224529D02*
X11999523Y-10300719D01*
X11999523Y-10300719D02*
X12028095Y-10300719D01*
X12028095Y-10300719D02*
X12047143Y-10310243D01*
X12047143Y-10310243D02*
X12056666Y-10319767D01*
X12056666Y-10319767D02*
X12066190Y-10338815D01*
X12066190Y-10338815D02*
X12066190Y-10386434D01*
X12066190Y-10386434D02*
X12056666Y-10405481D01*
X12056666Y-10405481D02*
X12047143Y-10415005D01*
X12047143Y-10415005D02*
X12028095Y-10424529D01*
X12028095Y-10424529D02*
X11970952Y-10424529D01*
X11970952Y-10424529D02*
X11951904Y-10415005D01*
X11951904Y-10415005D02*
X11942381Y-10405481D01*
X12190000Y-10224529D02*
X12209047Y-10224529D01*
X12209047Y-10224529D02*
X12228095Y-10234053D01*
X12228095Y-10234053D02*
X12237619Y-10243576D01*
X12237619Y-10243576D02*
X12247143Y-10262624D01*
X12247143Y-10262624D02*
X12256666Y-10300719D01*
X12256666Y-10300719D02*
X12256666Y-10348338D01*
X12256666Y-10348338D02*
X12247143Y-10386434D01*
X12247143Y-10386434D02*
X12237619Y-10405481D01*
X12237619Y-10405481D02*
X12228095Y-10415005D01*
X12228095Y-10415005D02*
X12209047Y-10424529D01*
X12209047Y-10424529D02*
X12190000Y-10424529D01*
X12190000Y-10424529D02*
X12170952Y-10415005D01*
X12170952Y-10415005D02*
X12161428Y-10405481D01*
X12161428Y-10405481D02*
X12151904Y-10386434D01*
X12151904Y-10386434D02*
X12142381Y-10348338D01*
X12142381Y-10348338D02*
X12142381Y-10300719D01*
X12142381Y-10300719D02*
X12151904Y-10262624D01*
X12151904Y-10262624D02*
X12161428Y-10243576D01*
X12161428Y-10243576D02*
X12170952Y-10234053D01*
X12170952Y-10234053D02*
X12190000Y-10224529D01*
X12380476Y-10224529D02*
X12399524Y-10224529D01*
X12399524Y-10224529D02*
X12418571Y-10234053D01*
X12418571Y-10234053D02*
X12428095Y-10243576D01*
X12428095Y-10243576D02*
X12437619Y-10262624D01*
X12437619Y-10262624D02*
X12447143Y-10300719D01*
X12447143Y-10300719D02*
X12447143Y-10348338D01*
X12447143Y-10348338D02*
X12437619Y-10386434D01*
X12437619Y-10386434D02*
X12428095Y-10405481D01*
X12428095Y-10405481D02*
X12418571Y-10415005D01*
X12418571Y-10415005D02*
X12399524Y-10424529D01*
X12399524Y-10424529D02*
X12380476Y-10424529D01*
X12380476Y-10424529D02*
X12361428Y-10415005D01*
X12361428Y-10415005D02*
X12351904Y-10405481D01*
X12351904Y-10405481D02*
X12342381Y-10386434D01*
X12342381Y-10386434D02*
X12332857Y-10348338D01*
X12332857Y-10348338D02*
X12332857Y-10300719D01*
X12332857Y-10300719D02*
X12342381Y-10262624D01*
X12342381Y-10262624D02*
X12351904Y-10243576D01*
X12351904Y-10243576D02*
X12361428Y-10234053D01*
X12361428Y-10234053D02*
X12380476Y-10224529D01*
X12532857Y-10424529D02*
X12532857Y-10291195D01*
X12532857Y-10310243D02*
X12542381Y-10300719D01*
X12542381Y-10300719D02*
X12561428Y-10291195D01*
X12561428Y-10291195D02*
X12590000Y-10291195D01*
X12590000Y-10291195D02*
X12609047Y-10300719D01*
X12609047Y-10300719D02*
X12618571Y-10319767D01*
X12618571Y-10319767D02*
X12618571Y-10424529D01*
X12618571Y-10319767D02*
X12628095Y-10300719D01*
X12628095Y-10300719D02*
X12647143Y-10291195D01*
X12647143Y-10291195D02*
X12675714Y-10291195D01*
X12675714Y-10291195D02*
X12694762Y-10300719D01*
X12694762Y-10300719D02*
X12704285Y-10319767D01*
X12704285Y-10319767D02*
X12704285Y-10424529D01*
X12799524Y-10424529D02*
X12799524Y-10291195D01*
X12799524Y-10310243D02*
X12809047Y-10300719D01*
X12809047Y-10300719D02*
X12828095Y-10291195D01*
X12828095Y-10291195D02*
X12856666Y-10291195D01*
X12856666Y-10291195D02*
X12875714Y-10300719D01*
X12875714Y-10300719D02*
X12885238Y-10319767D01*
X12885238Y-10319767D02*
X12885238Y-10424529D01*
X12885238Y-10319767D02*
X12894762Y-10300719D01*
X12894762Y-10300719D02*
X12913809Y-10291195D01*
X12913809Y-10291195D02*
X12942381Y-10291195D01*
X12942381Y-10291195D02*
X12961428Y-10300719D01*
X12961428Y-10300719D02*
X12970952Y-10319767D01*
X12970952Y-10319767D02*
X12970952Y-10424529D01*
X13361428Y-10215005D02*
X13190000Y-10472148D01*
X13618571Y-10224529D02*
X13637619Y-10224529D01*
X13637619Y-10224529D02*
X13656667Y-10234053D01*
X13656667Y-10234053D02*
X13666190Y-10243576D01*
X13666190Y-10243576D02*
X13675714Y-10262624D01*
X13675714Y-10262624D02*
X13685238Y-10300719D01*
X13685238Y-10300719D02*
X13685238Y-10348338D01*
X13685238Y-10348338D02*
X13675714Y-10386434D01*
X13675714Y-10386434D02*
X13666190Y-10405481D01*
X13666190Y-10405481D02*
X13656667Y-10415005D01*
X13656667Y-10415005D02*
X13637619Y-10424529D01*
X13637619Y-10424529D02*
X13618571Y-10424529D01*
X13618571Y-10424529D02*
X13599524Y-10415005D01*
X13599524Y-10415005D02*
X13590000Y-10405481D01*
X13590000Y-10405481D02*
X13580476Y-10386434D01*
X13580476Y-10386434D02*
X13570952Y-10348338D01*
X13570952Y-10348338D02*
X13570952Y-10300719D01*
X13570952Y-10300719D02*
X13580476Y-10262624D01*
X13580476Y-10262624D02*
X13590000Y-10243576D01*
X13590000Y-10243576D02*
X13599524Y-10234053D01*
X13599524Y-10234053D02*
X13618571Y-10224529D01*
X13770952Y-10405481D02*
X13780476Y-10415005D01*
X13780476Y-10415005D02*
X13770952Y-10424529D01*
X13770952Y-10424529D02*
X13761428Y-10415005D01*
X13761428Y-10415005D02*
X13770952Y-10405481D01*
X13770952Y-10405481D02*
X13770952Y-10424529D01*
X13904286Y-10224529D02*
X13923333Y-10224529D01*
X13923333Y-10224529D02*
X13942381Y-10234053D01*
X13942381Y-10234053D02*
X13951905Y-10243576D01*
X13951905Y-10243576D02*
X13961428Y-10262624D01*
X13961428Y-10262624D02*
X13970952Y-10300719D01*
X13970952Y-10300719D02*
X13970952Y-10348338D01*
X13970952Y-10348338D02*
X13961428Y-10386434D01*
X13961428Y-10386434D02*
X13951905Y-10405481D01*
X13951905Y-10405481D02*
X13942381Y-10415005D01*
X13942381Y-10415005D02*
X13923333Y-10424529D01*
X13923333Y-10424529D02*
X13904286Y-10424529D01*
X13904286Y-10424529D02*
X13885238Y-10415005D01*
X13885238Y-10415005D02*
X13875714Y-10405481D01*
X13875714Y-10405481D02*
X13866190Y-10386434D01*
X13866190Y-10386434D02*
X13856667Y-10348338D01*
X13856667Y-10348338D02*
X13856667Y-10300719D01*
X13856667Y-10300719D02*
X13866190Y-10262624D01*
X13866190Y-10262624D02*
X13875714Y-10243576D01*
X13875714Y-10243576D02*
X13885238Y-10234053D01*
X13885238Y-10234053D02*
X13904286Y-10224529D01*
X14161428Y-10424529D02*
X14047143Y-10424529D01*
X14104286Y-10424529D02*
X14104286Y-10224529D01*
X14104286Y-10224529D02*
X14085238Y-10253100D01*
X14085238Y-10253100D02*
X14066190Y-10272148D01*
X14066190Y-10272148D02*
X14047143Y-10281672D01*
X14351905Y-10424529D02*
X14237619Y-10424529D01*
X14294762Y-10424529D02*
X14294762Y-10224529D01*
X14294762Y-10224529D02*
X14275714Y-10253100D01*
X14275714Y-10253100D02*
X14256667Y-10272148D01*
X14256667Y-10272148D02*
X14237619Y-10281672D01*
X14466190Y-10310243D02*
X14447143Y-10300719D01*
X14447143Y-10300719D02*
X14437619Y-10291195D01*
X14437619Y-10291195D02*
X14428095Y-10272148D01*
X14428095Y-10272148D02*
X14428095Y-10262624D01*
X14428095Y-10262624D02*
X14437619Y-10243576D01*
X14437619Y-10243576D02*
X14447143Y-10234053D01*
X14447143Y-10234053D02*
X14466190Y-10224529D01*
X14466190Y-10224529D02*
X14504286Y-10224529D01*
X14504286Y-10224529D02*
X14523333Y-10234053D01*
X14523333Y-10234053D02*
X14532857Y-10243576D01*
X14532857Y-10243576D02*
X14542381Y-10262624D01*
X14542381Y-10262624D02*
X14542381Y-10272148D01*
X14542381Y-10272148D02*
X14532857Y-10291195D01*
X14532857Y-10291195D02*
X14523333Y-10300719D01*
X14523333Y-10300719D02*
X14504286Y-10310243D01*
X14504286Y-10310243D02*
X14466190Y-10310243D01*
X14466190Y-10310243D02*
X14447143Y-10319767D01*
X14447143Y-10319767D02*
X14437619Y-10329291D01*
X14437619Y-10329291D02*
X14428095Y-10348338D01*
X14428095Y-10348338D02*
X14428095Y-10386434D01*
X14428095Y-10386434D02*
X14437619Y-10405481D01*
X14437619Y-10405481D02*
X14447143Y-10415005D01*
X14447143Y-10415005D02*
X14466190Y-10424529D01*
X14466190Y-10424529D02*
X14504286Y-10424529D01*
X14504286Y-10424529D02*
X14523333Y-10415005D01*
X14523333Y-10415005D02*
X14532857Y-10405481D01*
X14532857Y-10405481D02*
X14542381Y-10386434D01*
X14542381Y-10386434D02*
X14542381Y-10348338D01*
X14542381Y-10348338D02*
X14532857Y-10329291D01*
X14532857Y-10329291D02*
X14523333Y-10319767D01*
X14523333Y-10319767D02*
X14504286Y-10310243D01*
X14618571Y-10224529D02*
X14618571Y-10262624D01*
X14694762Y-10224529D02*
X14694762Y-10262624D01*
X14990000Y-10500719D02*
X14980476Y-10491195D01*
X14980476Y-10491195D02*
X14961429Y-10462624D01*
X14961429Y-10462624D02*
X14951905Y-10443576D01*
X14951905Y-10443576D02*
X14942381Y-10415005D01*
X14942381Y-10415005D02*
X14932857Y-10367386D01*
X14932857Y-10367386D02*
X14932857Y-10329291D01*
X14932857Y-10329291D02*
X14942381Y-10281672D01*
X14942381Y-10281672D02*
X14951905Y-10253100D01*
X14951905Y-10253100D02*
X14961429Y-10234053D01*
X14961429Y-10234053D02*
X14980476Y-10205481D01*
X14980476Y-10205481D02*
X14990000Y-10195957D01*
X15151905Y-10291195D02*
X15151905Y-10424529D01*
X15104286Y-10215005D02*
X15056667Y-10357862D01*
X15056667Y-10357862D02*
X15180476Y-10357862D01*
X15409048Y-10424529D02*
X15409048Y-10224529D01*
X15494762Y-10424529D02*
X15494762Y-10319767D01*
X15494762Y-10319767D02*
X15485238Y-10300719D01*
X15485238Y-10300719D02*
X15466191Y-10291195D01*
X15466191Y-10291195D02*
X15437619Y-10291195D01*
X15437619Y-10291195D02*
X15418571Y-10300719D01*
X15418571Y-10300719D02*
X15409048Y-10310243D01*
X15618571Y-10424529D02*
X15599524Y-10415005D01*
X15599524Y-10415005D02*
X15590000Y-10405481D01*
X15590000Y-10405481D02*
X15580476Y-10386434D01*
X15580476Y-10386434D02*
X15580476Y-10329291D01*
X15580476Y-10329291D02*
X15590000Y-10310243D01*
X15590000Y-10310243D02*
X15599524Y-10300719D01*
X15599524Y-10300719D02*
X15618571Y-10291195D01*
X15618571Y-10291195D02*
X15647143Y-10291195D01*
X15647143Y-10291195D02*
X15666191Y-10300719D01*
X15666191Y-10300719D02*
X15675714Y-10310243D01*
X15675714Y-10310243D02*
X15685238Y-10329291D01*
X15685238Y-10329291D02*
X15685238Y-10386434D01*
X15685238Y-10386434D02*
X15675714Y-10405481D01*
X15675714Y-10405481D02*
X15666191Y-10415005D01*
X15666191Y-10415005D02*
X15647143Y-10424529D01*
X15647143Y-10424529D02*
X15618571Y-10424529D01*
X15799524Y-10424529D02*
X15780476Y-10415005D01*
X15780476Y-10415005D02*
X15770952Y-10395957D01*
X15770952Y-10395957D02*
X15770952Y-10224529D01*
X15951905Y-10415005D02*
X15932857Y-10424529D01*
X15932857Y-10424529D02*
X15894762Y-10424529D01*
X15894762Y-10424529D02*
X15875714Y-10415005D01*
X15875714Y-10415005D02*
X15866191Y-10395957D01*
X15866191Y-10395957D02*
X15866191Y-10319767D01*
X15866191Y-10319767D02*
X15875714Y-10300719D01*
X15875714Y-10300719D02*
X15894762Y-10291195D01*
X15894762Y-10291195D02*
X15932857Y-10291195D01*
X15932857Y-10291195D02*
X15951905Y-10300719D01*
X15951905Y-10300719D02*
X15961429Y-10319767D01*
X15961429Y-10319767D02*
X15961429Y-10338815D01*
X15961429Y-10338815D02*
X15866191Y-10357862D01*
X16037619Y-10415005D02*
X16056667Y-10424529D01*
X16056667Y-10424529D02*
X16094762Y-10424529D01*
X16094762Y-10424529D02*
X16113810Y-10415005D01*
X16113810Y-10415005D02*
X16123333Y-10395957D01*
X16123333Y-10395957D02*
X16123333Y-10386434D01*
X16123333Y-10386434D02*
X16113810Y-10367386D01*
X16113810Y-10367386D02*
X16094762Y-10357862D01*
X16094762Y-10357862D02*
X16066191Y-10357862D01*
X16066191Y-10357862D02*
X16047143Y-10348338D01*
X16047143Y-10348338D02*
X16037619Y-10329291D01*
X16037619Y-10329291D02*
X16037619Y-10319767D01*
X16037619Y-10319767D02*
X16047143Y-10300719D01*
X16047143Y-10300719D02*
X16066191Y-10291195D01*
X16066191Y-10291195D02*
X16094762Y-10291195D01*
X16094762Y-10291195D02*
X16113810Y-10300719D01*
X16190000Y-10500719D02*
X16199524Y-10491195D01*
X16199524Y-10491195D02*
X16218572Y-10462624D01*
X16218572Y-10462624D02*
X16228095Y-10443576D01*
X16228095Y-10443576D02*
X16237619Y-10415005D01*
X16237619Y-10415005D02*
X16247143Y-10367386D01*
X16247143Y-10367386D02*
X16247143Y-10329291D01*
X16247143Y-10329291D02*
X16237619Y-10281672D01*
X16237619Y-10281672D02*
X16228095Y-10253100D01*
X16228095Y-10253100D02*
X16218572Y-10234053D01*
X16218572Y-10234053D02*
X16199524Y-10205481D01*
X16199524Y-10205481D02*
X16190000Y-10195957D01*
D13*
X11428095Y-10596005D02*
G75*
G03*
X11428095Y-10596005I-16510J0D01*
G01*
D11*
X11713809Y-10488529D02*
X11732857Y-10488529D01*
X11732857Y-10488529D02*
X11751904Y-10498053D01*
X11751904Y-10498053D02*
X11761428Y-10507576D01*
X11761428Y-10507576D02*
X11770952Y-10526624D01*
X11770952Y-10526624D02*
X11780476Y-10564719D01*
X11780476Y-10564719D02*
X11780476Y-10612338D01*
X11780476Y-10612338D02*
X11770952Y-10650434D01*
X11770952Y-10650434D02*
X11761428Y-10669481D01*
X11761428Y-10669481D02*
X11751904Y-10679005D01*
X11751904Y-10679005D02*
X11732857Y-10688529D01*
X11732857Y-10688529D02*
X11713809Y-10688529D01*
X11713809Y-10688529D02*
X11694762Y-10679005D01*
X11694762Y-10679005D02*
X11685238Y-10669481D01*
X11685238Y-10669481D02*
X11675714Y-10650434D01*
X11675714Y-10650434D02*
X11666190Y-10612338D01*
X11666190Y-10612338D02*
X11666190Y-10564719D01*
X11666190Y-10564719D02*
X11675714Y-10526624D01*
X11675714Y-10526624D02*
X11685238Y-10507576D01*
X11685238Y-10507576D02*
X11694762Y-10498053D01*
X11694762Y-10498053D02*
X11713809Y-10488529D01*
X11866190Y-10669481D02*
X11875714Y-10679005D01*
X11875714Y-10679005D02*
X11866190Y-10688529D01*
X11866190Y-10688529D02*
X11856666Y-10679005D01*
X11856666Y-10679005D02*
X11866190Y-10669481D01*
X11866190Y-10669481D02*
X11866190Y-10688529D01*
X11942381Y-10488529D02*
X12066190Y-10488529D01*
X12066190Y-10488529D02*
X11999523Y-10564719D01*
X11999523Y-10564719D02*
X12028095Y-10564719D01*
X12028095Y-10564719D02*
X12047143Y-10574243D01*
X12047143Y-10574243D02*
X12056666Y-10583767D01*
X12056666Y-10583767D02*
X12066190Y-10602815D01*
X12066190Y-10602815D02*
X12066190Y-10650434D01*
X12066190Y-10650434D02*
X12056666Y-10669481D01*
X12056666Y-10669481D02*
X12047143Y-10679005D01*
X12047143Y-10679005D02*
X12028095Y-10688529D01*
X12028095Y-10688529D02*
X11970952Y-10688529D01*
X11970952Y-10688529D02*
X11951904Y-10679005D01*
X11951904Y-10679005D02*
X11942381Y-10669481D01*
X12132857Y-10488529D02*
X12256666Y-10488529D01*
X12256666Y-10488529D02*
X12190000Y-10564719D01*
X12190000Y-10564719D02*
X12218571Y-10564719D01*
X12218571Y-10564719D02*
X12237619Y-10574243D01*
X12237619Y-10574243D02*
X12247143Y-10583767D01*
X12247143Y-10583767D02*
X12256666Y-10602815D01*
X12256666Y-10602815D02*
X12256666Y-10650434D01*
X12256666Y-10650434D02*
X12247143Y-10669481D01*
X12247143Y-10669481D02*
X12237619Y-10679005D01*
X12237619Y-10679005D02*
X12218571Y-10688529D01*
X12218571Y-10688529D02*
X12161428Y-10688529D01*
X12161428Y-10688529D02*
X12142381Y-10679005D01*
X12142381Y-10679005D02*
X12132857Y-10669481D01*
X12380476Y-10488529D02*
X12399524Y-10488529D01*
X12399524Y-10488529D02*
X12418571Y-10498053D01*
X12418571Y-10498053D02*
X12428095Y-10507576D01*
X12428095Y-10507576D02*
X12437619Y-10526624D01*
X12437619Y-10526624D02*
X12447143Y-10564719D01*
X12447143Y-10564719D02*
X12447143Y-10612338D01*
X12447143Y-10612338D02*
X12437619Y-10650434D01*
X12437619Y-10650434D02*
X12428095Y-10669481D01*
X12428095Y-10669481D02*
X12418571Y-10679005D01*
X12418571Y-10679005D02*
X12399524Y-10688529D01*
X12399524Y-10688529D02*
X12380476Y-10688529D01*
X12380476Y-10688529D02*
X12361428Y-10679005D01*
X12361428Y-10679005D02*
X12351904Y-10669481D01*
X12351904Y-10669481D02*
X12342381Y-10650434D01*
X12342381Y-10650434D02*
X12332857Y-10612338D01*
X12332857Y-10612338D02*
X12332857Y-10564719D01*
X12332857Y-10564719D02*
X12342381Y-10526624D01*
X12342381Y-10526624D02*
X12351904Y-10507576D01*
X12351904Y-10507576D02*
X12361428Y-10498053D01*
X12361428Y-10498053D02*
X12380476Y-10488529D01*
X12532857Y-10688529D02*
X12532857Y-10555195D01*
X12532857Y-10574243D02*
X12542381Y-10564719D01*
X12542381Y-10564719D02*
X12561428Y-10555195D01*
X12561428Y-10555195D02*
X12590000Y-10555195D01*
X12590000Y-10555195D02*
X12609047Y-10564719D01*
X12609047Y-10564719D02*
X12618571Y-10583767D01*
X12618571Y-10583767D02*
X12618571Y-10688529D01*
X12618571Y-10583767D02*
X12628095Y-10564719D01*
X12628095Y-10564719D02*
X12647143Y-10555195D01*
X12647143Y-10555195D02*
X12675714Y-10555195D01*
X12675714Y-10555195D02*
X12694762Y-10564719D01*
X12694762Y-10564719D02*
X12704285Y-10583767D01*
X12704285Y-10583767D02*
X12704285Y-10688529D01*
X12799524Y-10688529D02*
X12799524Y-10555195D01*
X12799524Y-10574243D02*
X12809047Y-10564719D01*
X12809047Y-10564719D02*
X12828095Y-10555195D01*
X12828095Y-10555195D02*
X12856666Y-10555195D01*
X12856666Y-10555195D02*
X12875714Y-10564719D01*
X12875714Y-10564719D02*
X12885238Y-10583767D01*
X12885238Y-10583767D02*
X12885238Y-10688529D01*
X12885238Y-10583767D02*
X12894762Y-10564719D01*
X12894762Y-10564719D02*
X12913809Y-10555195D01*
X12913809Y-10555195D02*
X12942381Y-10555195D01*
X12942381Y-10555195D02*
X12961428Y-10564719D01*
X12961428Y-10564719D02*
X12970952Y-10583767D01*
X12970952Y-10583767D02*
X12970952Y-10688529D01*
X13361428Y-10479005D02*
X13190000Y-10736148D01*
X13618571Y-10488529D02*
X13637619Y-10488529D01*
X13637619Y-10488529D02*
X13656667Y-10498053D01*
X13656667Y-10498053D02*
X13666190Y-10507576D01*
X13666190Y-10507576D02*
X13675714Y-10526624D01*
X13675714Y-10526624D02*
X13685238Y-10564719D01*
X13685238Y-10564719D02*
X13685238Y-10612338D01*
X13685238Y-10612338D02*
X13675714Y-10650434D01*
X13675714Y-10650434D02*
X13666190Y-10669481D01*
X13666190Y-10669481D02*
X13656667Y-10679005D01*
X13656667Y-10679005D02*
X13637619Y-10688529D01*
X13637619Y-10688529D02*
X13618571Y-10688529D01*
X13618571Y-10688529D02*
X13599524Y-10679005D01*
X13599524Y-10679005D02*
X13590000Y-10669481D01*
X13590000Y-10669481D02*
X13580476Y-10650434D01*
X13580476Y-10650434D02*
X13570952Y-10612338D01*
X13570952Y-10612338D02*
X13570952Y-10564719D01*
X13570952Y-10564719D02*
X13580476Y-10526624D01*
X13580476Y-10526624D02*
X13590000Y-10507576D01*
X13590000Y-10507576D02*
X13599524Y-10498053D01*
X13599524Y-10498053D02*
X13618571Y-10488529D01*
X13770952Y-10669481D02*
X13780476Y-10679005D01*
X13780476Y-10679005D02*
X13770952Y-10688529D01*
X13770952Y-10688529D02*
X13761428Y-10679005D01*
X13761428Y-10679005D02*
X13770952Y-10669481D01*
X13770952Y-10669481D02*
X13770952Y-10688529D01*
X13904286Y-10488529D02*
X13923333Y-10488529D01*
X13923333Y-10488529D02*
X13942381Y-10498053D01*
X13942381Y-10498053D02*
X13951905Y-10507576D01*
X13951905Y-10507576D02*
X13961428Y-10526624D01*
X13961428Y-10526624D02*
X13970952Y-10564719D01*
X13970952Y-10564719D02*
X13970952Y-10612338D01*
X13970952Y-10612338D02*
X13961428Y-10650434D01*
X13961428Y-10650434D02*
X13951905Y-10669481D01*
X13951905Y-10669481D02*
X13942381Y-10679005D01*
X13942381Y-10679005D02*
X13923333Y-10688529D01*
X13923333Y-10688529D02*
X13904286Y-10688529D01*
X13904286Y-10688529D02*
X13885238Y-10679005D01*
X13885238Y-10679005D02*
X13875714Y-10669481D01*
X13875714Y-10669481D02*
X13866190Y-10650434D01*
X13866190Y-10650434D02*
X13856667Y-10612338D01*
X13856667Y-10612338D02*
X13856667Y-10564719D01*
X13856667Y-10564719D02*
X13866190Y-10526624D01*
X13866190Y-10526624D02*
X13875714Y-10507576D01*
X13875714Y-10507576D02*
X13885238Y-10498053D01*
X13885238Y-10498053D02*
X13904286Y-10488529D01*
X14161428Y-10688529D02*
X14047143Y-10688529D01*
X14104286Y-10688529D02*
X14104286Y-10488529D01*
X14104286Y-10488529D02*
X14085238Y-10517100D01*
X14085238Y-10517100D02*
X14066190Y-10536148D01*
X14066190Y-10536148D02*
X14047143Y-10545672D01*
X14228095Y-10488529D02*
X14351905Y-10488529D01*
X14351905Y-10488529D02*
X14285238Y-10564719D01*
X14285238Y-10564719D02*
X14313809Y-10564719D01*
X14313809Y-10564719D02*
X14332857Y-10574243D01*
X14332857Y-10574243D02*
X14342381Y-10583767D01*
X14342381Y-10583767D02*
X14351905Y-10602815D01*
X14351905Y-10602815D02*
X14351905Y-10650434D01*
X14351905Y-10650434D02*
X14342381Y-10669481D01*
X14342381Y-10669481D02*
X14332857Y-10679005D01*
X14332857Y-10679005D02*
X14313809Y-10688529D01*
X14313809Y-10688529D02*
X14256667Y-10688529D01*
X14256667Y-10688529D02*
X14237619Y-10679005D01*
X14237619Y-10679005D02*
X14228095Y-10669481D01*
X14475714Y-10488529D02*
X14494762Y-10488529D01*
X14494762Y-10488529D02*
X14513809Y-10498053D01*
X14513809Y-10498053D02*
X14523333Y-10507576D01*
X14523333Y-10507576D02*
X14532857Y-10526624D01*
X14532857Y-10526624D02*
X14542381Y-10564719D01*
X14542381Y-10564719D02*
X14542381Y-10612338D01*
X14542381Y-10612338D02*
X14532857Y-10650434D01*
X14532857Y-10650434D02*
X14523333Y-10669481D01*
X14523333Y-10669481D02*
X14513809Y-10679005D01*
X14513809Y-10679005D02*
X14494762Y-10688529D01*
X14494762Y-10688529D02*
X14475714Y-10688529D01*
X14475714Y-10688529D02*
X14456667Y-10679005D01*
X14456667Y-10679005D02*
X14447143Y-10669481D01*
X14447143Y-10669481D02*
X14437619Y-10650434D01*
X14437619Y-10650434D02*
X14428095Y-10612338D01*
X14428095Y-10612338D02*
X14428095Y-10564719D01*
X14428095Y-10564719D02*
X14437619Y-10526624D01*
X14437619Y-10526624D02*
X14447143Y-10507576D01*
X14447143Y-10507576D02*
X14456667Y-10498053D01*
X14456667Y-10498053D02*
X14475714Y-10488529D01*
X14618571Y-10488529D02*
X14618571Y-10526624D01*
X14694762Y-10488529D02*
X14694762Y-10526624D01*
X14990000Y-10764719D02*
X14980476Y-10755195D01*
X14980476Y-10755195D02*
X14961429Y-10726624D01*
X14961429Y-10726624D02*
X14951905Y-10707576D01*
X14951905Y-10707576D02*
X14942381Y-10679005D01*
X14942381Y-10679005D02*
X14932857Y-10631386D01*
X14932857Y-10631386D02*
X14932857Y-10593291D01*
X14932857Y-10593291D02*
X14942381Y-10545672D01*
X14942381Y-10545672D02*
X14951905Y-10517100D01*
X14951905Y-10517100D02*
X14961429Y-10498053D01*
X14961429Y-10498053D02*
X14980476Y-10469481D01*
X14980476Y-10469481D02*
X14990000Y-10459957D01*
X15056667Y-10507576D02*
X15066190Y-10498053D01*
X15066190Y-10498053D02*
X15085238Y-10488529D01*
X15085238Y-10488529D02*
X15132857Y-10488529D01*
X15132857Y-10488529D02*
X15151905Y-10498053D01*
X15151905Y-10498053D02*
X15161429Y-10507576D01*
X15161429Y-10507576D02*
X15170952Y-10526624D01*
X15170952Y-10526624D02*
X15170952Y-10545672D01*
X15170952Y-10545672D02*
X15161429Y-10574243D01*
X15161429Y-10574243D02*
X15047143Y-10688529D01*
X15047143Y-10688529D02*
X15170952Y-10688529D01*
X15294762Y-10488529D02*
X15313810Y-10488529D01*
X15313810Y-10488529D02*
X15332857Y-10498053D01*
X15332857Y-10498053D02*
X15342381Y-10507576D01*
X15342381Y-10507576D02*
X15351905Y-10526624D01*
X15351905Y-10526624D02*
X15361429Y-10564719D01*
X15361429Y-10564719D02*
X15361429Y-10612338D01*
X15361429Y-10612338D02*
X15351905Y-10650434D01*
X15351905Y-10650434D02*
X15342381Y-10669481D01*
X15342381Y-10669481D02*
X15332857Y-10679005D01*
X15332857Y-10679005D02*
X15313810Y-10688529D01*
X15313810Y-10688529D02*
X15294762Y-10688529D01*
X15294762Y-10688529D02*
X15275714Y-10679005D01*
X15275714Y-10679005D02*
X15266190Y-10669481D01*
X15266190Y-10669481D02*
X15256667Y-10650434D01*
X15256667Y-10650434D02*
X15247143Y-10612338D01*
X15247143Y-10612338D02*
X15247143Y-10564719D01*
X15247143Y-10564719D02*
X15256667Y-10526624D01*
X15256667Y-10526624D02*
X15266190Y-10507576D01*
X15266190Y-10507576D02*
X15275714Y-10498053D01*
X15275714Y-10498053D02*
X15294762Y-10488529D01*
X15542381Y-10488529D02*
X15447143Y-10488529D01*
X15447143Y-10488529D02*
X15437619Y-10583767D01*
X15437619Y-10583767D02*
X15447143Y-10574243D01*
X15447143Y-10574243D02*
X15466190Y-10564719D01*
X15466190Y-10564719D02*
X15513810Y-10564719D01*
X15513810Y-10564719D02*
X15532857Y-10574243D01*
X15532857Y-10574243D02*
X15542381Y-10583767D01*
X15542381Y-10583767D02*
X15551905Y-10602815D01*
X15551905Y-10602815D02*
X15551905Y-10650434D01*
X15551905Y-10650434D02*
X15542381Y-10669481D01*
X15542381Y-10669481D02*
X15532857Y-10679005D01*
X15532857Y-10679005D02*
X15513810Y-10688529D01*
X15513810Y-10688529D02*
X15466190Y-10688529D01*
X15466190Y-10688529D02*
X15447143Y-10679005D01*
X15447143Y-10679005D02*
X15437619Y-10669481D01*
X15790000Y-10688529D02*
X15790000Y-10488529D01*
X15875714Y-10688529D02*
X15875714Y-10583767D01*
X15875714Y-10583767D02*
X15866191Y-10564719D01*
X15866191Y-10564719D02*
X15847143Y-10555195D01*
X15847143Y-10555195D02*
X15818571Y-10555195D01*
X15818571Y-10555195D02*
X15799524Y-10564719D01*
X15799524Y-10564719D02*
X15790000Y-10574243D01*
X15999524Y-10688529D02*
X15980476Y-10679005D01*
X15980476Y-10679005D02*
X15970952Y-10669481D01*
X15970952Y-10669481D02*
X15961429Y-10650434D01*
X15961429Y-10650434D02*
X15961429Y-10593291D01*
X15961429Y-10593291D02*
X15970952Y-10574243D01*
X15970952Y-10574243D02*
X15980476Y-10564719D01*
X15980476Y-10564719D02*
X15999524Y-10555195D01*
X15999524Y-10555195D02*
X16028095Y-10555195D01*
X16028095Y-10555195D02*
X16047143Y-10564719D01*
X16047143Y-10564719D02*
X16056667Y-10574243D01*
X16056667Y-10574243D02*
X16066191Y-10593291D01*
X16066191Y-10593291D02*
X16066191Y-10650434D01*
X16066191Y-10650434D02*
X16056667Y-10669481D01*
X16056667Y-10669481D02*
X16047143Y-10679005D01*
X16047143Y-10679005D02*
X16028095Y-10688529D01*
X16028095Y-10688529D02*
X15999524Y-10688529D01*
X16180476Y-10688529D02*
X16161429Y-10679005D01*
X16161429Y-10679005D02*
X16151905Y-10659957D01*
X16151905Y-10659957D02*
X16151905Y-10488529D01*
X16332857Y-10679005D02*
X16313810Y-10688529D01*
X16313810Y-10688529D02*
X16275714Y-10688529D01*
X16275714Y-10688529D02*
X16256667Y-10679005D01*
X16256667Y-10679005D02*
X16247143Y-10659957D01*
X16247143Y-10659957D02*
X16247143Y-10583767D01*
X16247143Y-10583767D02*
X16256667Y-10564719D01*
X16256667Y-10564719D02*
X16275714Y-10555195D01*
X16275714Y-10555195D02*
X16313810Y-10555195D01*
X16313810Y-10555195D02*
X16332857Y-10564719D01*
X16332857Y-10564719D02*
X16342381Y-10583767D01*
X16342381Y-10583767D02*
X16342381Y-10602815D01*
X16342381Y-10602815D02*
X16247143Y-10621862D01*
X16418572Y-10679005D02*
X16437619Y-10688529D01*
X16437619Y-10688529D02*
X16475714Y-10688529D01*
X16475714Y-10688529D02*
X16494762Y-10679005D01*
X16494762Y-10679005D02*
X16504286Y-10659957D01*
X16504286Y-10659957D02*
X16504286Y-10650434D01*
X16504286Y-10650434D02*
X16494762Y-10631386D01*
X16494762Y-10631386D02*
X16475714Y-10621862D01*
X16475714Y-10621862D02*
X16447143Y-10621862D01*
X16447143Y-10621862D02*
X16428095Y-10612338D01*
X16428095Y-10612338D02*
X16418572Y-10593291D01*
X16418572Y-10593291D02*
X16418572Y-10583767D01*
X16418572Y-10583767D02*
X16428095Y-10564719D01*
X16428095Y-10564719D02*
X16447143Y-10555195D01*
X16447143Y-10555195D02*
X16475714Y-10555195D01*
X16475714Y-10555195D02*
X16494762Y-10564719D01*
X16570953Y-10764719D02*
X16580476Y-10755195D01*
X16580476Y-10755195D02*
X16599524Y-10726624D01*
X16599524Y-10726624D02*
X16609048Y-10707576D01*
X16609048Y-10707576D02*
X16618572Y-10679005D01*
X16618572Y-10679005D02*
X16628095Y-10631386D01*
X16628095Y-10631386D02*
X16628095Y-10593291D01*
X16628095Y-10593291D02*
X16618572Y-10545672D01*
X16618572Y-10545672D02*
X16609048Y-10517100D01*
X16609048Y-10517100D02*
X16599524Y-10498053D01*
X16599524Y-10498053D02*
X16580476Y-10469481D01*
X16580476Y-10469481D02*
X16570953Y-10459957D01*
D10*
X11409045Y-10840955D02*
X11409045Y-10879055D01*
X11389995Y-10860005D02*
X11428095Y-10860005D01*
D11*
X11713809Y-10752529D02*
X11732857Y-10752529D01*
X11732857Y-10752529D02*
X11751904Y-10762053D01*
X11751904Y-10762053D02*
X11761428Y-10771576D01*
X11761428Y-10771576D02*
X11770952Y-10790624D01*
X11770952Y-10790624D02*
X11780476Y-10828719D01*
X11780476Y-10828719D02*
X11780476Y-10876338D01*
X11780476Y-10876338D02*
X11770952Y-10914434D01*
X11770952Y-10914434D02*
X11761428Y-10933481D01*
X11761428Y-10933481D02*
X11751904Y-10943005D01*
X11751904Y-10943005D02*
X11732857Y-10952529D01*
X11732857Y-10952529D02*
X11713809Y-10952529D01*
X11713809Y-10952529D02*
X11694762Y-10943005D01*
X11694762Y-10943005D02*
X11685238Y-10933481D01*
X11685238Y-10933481D02*
X11675714Y-10914434D01*
X11675714Y-10914434D02*
X11666190Y-10876338D01*
X11666190Y-10876338D02*
X11666190Y-10828719D01*
X11666190Y-10828719D02*
X11675714Y-10790624D01*
X11675714Y-10790624D02*
X11685238Y-10771576D01*
X11685238Y-10771576D02*
X11694762Y-10762053D01*
X11694762Y-10762053D02*
X11713809Y-10752529D01*
X11866190Y-10933481D02*
X11875714Y-10943005D01*
X11875714Y-10943005D02*
X11866190Y-10952529D01*
X11866190Y-10952529D02*
X11856666Y-10943005D01*
X11856666Y-10943005D02*
X11866190Y-10933481D01*
X11866190Y-10933481D02*
X11866190Y-10952529D01*
X11942381Y-10752529D02*
X12066190Y-10752529D01*
X12066190Y-10752529D02*
X11999523Y-10828719D01*
X11999523Y-10828719D02*
X12028095Y-10828719D01*
X12028095Y-10828719D02*
X12047143Y-10838243D01*
X12047143Y-10838243D02*
X12056666Y-10847767D01*
X12056666Y-10847767D02*
X12066190Y-10866815D01*
X12066190Y-10866815D02*
X12066190Y-10914434D01*
X12066190Y-10914434D02*
X12056666Y-10933481D01*
X12056666Y-10933481D02*
X12047143Y-10943005D01*
X12047143Y-10943005D02*
X12028095Y-10952529D01*
X12028095Y-10952529D02*
X11970952Y-10952529D01*
X11970952Y-10952529D02*
X11951904Y-10943005D01*
X11951904Y-10943005D02*
X11942381Y-10933481D01*
X12180476Y-10838243D02*
X12161428Y-10828719D01*
X12161428Y-10828719D02*
X12151904Y-10819195D01*
X12151904Y-10819195D02*
X12142381Y-10800148D01*
X12142381Y-10800148D02*
X12142381Y-10790624D01*
X12142381Y-10790624D02*
X12151904Y-10771576D01*
X12151904Y-10771576D02*
X12161428Y-10762053D01*
X12161428Y-10762053D02*
X12180476Y-10752529D01*
X12180476Y-10752529D02*
X12218571Y-10752529D01*
X12218571Y-10752529D02*
X12237619Y-10762053D01*
X12237619Y-10762053D02*
X12247143Y-10771576D01*
X12247143Y-10771576D02*
X12256666Y-10790624D01*
X12256666Y-10790624D02*
X12256666Y-10800148D01*
X12256666Y-10800148D02*
X12247143Y-10819195D01*
X12247143Y-10819195D02*
X12237619Y-10828719D01*
X12237619Y-10828719D02*
X12218571Y-10838243D01*
X12218571Y-10838243D02*
X12180476Y-10838243D01*
X12180476Y-10838243D02*
X12161428Y-10847767D01*
X12161428Y-10847767D02*
X12151904Y-10857291D01*
X12151904Y-10857291D02*
X12142381Y-10876338D01*
X12142381Y-10876338D02*
X12142381Y-10914434D01*
X12142381Y-10914434D02*
X12151904Y-10933481D01*
X12151904Y-10933481D02*
X12161428Y-10943005D01*
X12161428Y-10943005D02*
X12180476Y-10952529D01*
X12180476Y-10952529D02*
X12218571Y-10952529D01*
X12218571Y-10952529D02*
X12237619Y-10943005D01*
X12237619Y-10943005D02*
X12247143Y-10933481D01*
X12247143Y-10933481D02*
X12256666Y-10914434D01*
X12256666Y-10914434D02*
X12256666Y-10876338D01*
X12256666Y-10876338D02*
X12247143Y-10857291D01*
X12247143Y-10857291D02*
X12237619Y-10847767D01*
X12237619Y-10847767D02*
X12218571Y-10838243D01*
X12447143Y-10952529D02*
X12332857Y-10952529D01*
X12390000Y-10952529D02*
X12390000Y-10752529D01*
X12390000Y-10752529D02*
X12370952Y-10781100D01*
X12370952Y-10781100D02*
X12351904Y-10800148D01*
X12351904Y-10800148D02*
X12332857Y-10809672D01*
X12532857Y-10952529D02*
X12532857Y-10819195D01*
X12532857Y-10838243D02*
X12542381Y-10828719D01*
X12542381Y-10828719D02*
X12561428Y-10819195D01*
X12561428Y-10819195D02*
X12590000Y-10819195D01*
X12590000Y-10819195D02*
X12609047Y-10828719D01*
X12609047Y-10828719D02*
X12618571Y-10847767D01*
X12618571Y-10847767D02*
X12618571Y-10952529D01*
X12618571Y-10847767D02*
X12628095Y-10828719D01*
X12628095Y-10828719D02*
X12647143Y-10819195D01*
X12647143Y-10819195D02*
X12675714Y-10819195D01*
X12675714Y-10819195D02*
X12694762Y-10828719D01*
X12694762Y-10828719D02*
X12704285Y-10847767D01*
X12704285Y-10847767D02*
X12704285Y-10952529D01*
X12799524Y-10952529D02*
X12799524Y-10819195D01*
X12799524Y-10838243D02*
X12809047Y-10828719D01*
X12809047Y-10828719D02*
X12828095Y-10819195D01*
X12828095Y-10819195D02*
X12856666Y-10819195D01*
X12856666Y-10819195D02*
X12875714Y-10828719D01*
X12875714Y-10828719D02*
X12885238Y-10847767D01*
X12885238Y-10847767D02*
X12885238Y-10952529D01*
X12885238Y-10847767D02*
X12894762Y-10828719D01*
X12894762Y-10828719D02*
X12913809Y-10819195D01*
X12913809Y-10819195D02*
X12942381Y-10819195D01*
X12942381Y-10819195D02*
X12961428Y-10828719D01*
X12961428Y-10828719D02*
X12970952Y-10847767D01*
X12970952Y-10847767D02*
X12970952Y-10952529D01*
X13361428Y-10743005D02*
X13190000Y-11000148D01*
X13618571Y-10752529D02*
X13637619Y-10752529D01*
X13637619Y-10752529D02*
X13656667Y-10762053D01*
X13656667Y-10762053D02*
X13666190Y-10771576D01*
X13666190Y-10771576D02*
X13675714Y-10790624D01*
X13675714Y-10790624D02*
X13685238Y-10828719D01*
X13685238Y-10828719D02*
X13685238Y-10876338D01*
X13685238Y-10876338D02*
X13675714Y-10914434D01*
X13675714Y-10914434D02*
X13666190Y-10933481D01*
X13666190Y-10933481D02*
X13656667Y-10943005D01*
X13656667Y-10943005D02*
X13637619Y-10952529D01*
X13637619Y-10952529D02*
X13618571Y-10952529D01*
X13618571Y-10952529D02*
X13599524Y-10943005D01*
X13599524Y-10943005D02*
X13590000Y-10933481D01*
X13590000Y-10933481D02*
X13580476Y-10914434D01*
X13580476Y-10914434D02*
X13570952Y-10876338D01*
X13570952Y-10876338D02*
X13570952Y-10828719D01*
X13570952Y-10828719D02*
X13580476Y-10790624D01*
X13580476Y-10790624D02*
X13590000Y-10771576D01*
X13590000Y-10771576D02*
X13599524Y-10762053D01*
X13599524Y-10762053D02*
X13618571Y-10752529D01*
X13770952Y-10933481D02*
X13780476Y-10943005D01*
X13780476Y-10943005D02*
X13770952Y-10952529D01*
X13770952Y-10952529D02*
X13761428Y-10943005D01*
X13761428Y-10943005D02*
X13770952Y-10933481D01*
X13770952Y-10933481D02*
X13770952Y-10952529D01*
X13904286Y-10752529D02*
X13923333Y-10752529D01*
X13923333Y-10752529D02*
X13942381Y-10762053D01*
X13942381Y-10762053D02*
X13951905Y-10771576D01*
X13951905Y-10771576D02*
X13961428Y-10790624D01*
X13961428Y-10790624D02*
X13970952Y-10828719D01*
X13970952Y-10828719D02*
X13970952Y-10876338D01*
X13970952Y-10876338D02*
X13961428Y-10914434D01*
X13961428Y-10914434D02*
X13951905Y-10933481D01*
X13951905Y-10933481D02*
X13942381Y-10943005D01*
X13942381Y-10943005D02*
X13923333Y-10952529D01*
X13923333Y-10952529D02*
X13904286Y-10952529D01*
X13904286Y-10952529D02*
X13885238Y-10943005D01*
X13885238Y-10943005D02*
X13875714Y-10933481D01*
X13875714Y-10933481D02*
X13866190Y-10914434D01*
X13866190Y-10914434D02*
X13856667Y-10876338D01*
X13856667Y-10876338D02*
X13856667Y-10828719D01*
X13856667Y-10828719D02*
X13866190Y-10790624D01*
X13866190Y-10790624D02*
X13875714Y-10771576D01*
X13875714Y-10771576D02*
X13885238Y-10762053D01*
X13885238Y-10762053D02*
X13904286Y-10752529D01*
X14161428Y-10952529D02*
X14047143Y-10952529D01*
X14104286Y-10952529D02*
X14104286Y-10752529D01*
X14104286Y-10752529D02*
X14085238Y-10781100D01*
X14085238Y-10781100D02*
X14066190Y-10800148D01*
X14066190Y-10800148D02*
X14047143Y-10809672D01*
X14342381Y-10752529D02*
X14247143Y-10752529D01*
X14247143Y-10752529D02*
X14237619Y-10847767D01*
X14237619Y-10847767D02*
X14247143Y-10838243D01*
X14247143Y-10838243D02*
X14266190Y-10828719D01*
X14266190Y-10828719D02*
X14313809Y-10828719D01*
X14313809Y-10828719D02*
X14332857Y-10838243D01*
X14332857Y-10838243D02*
X14342381Y-10847767D01*
X14342381Y-10847767D02*
X14351905Y-10866815D01*
X14351905Y-10866815D02*
X14351905Y-10914434D01*
X14351905Y-10914434D02*
X14342381Y-10933481D01*
X14342381Y-10933481D02*
X14332857Y-10943005D01*
X14332857Y-10943005D02*
X14313809Y-10952529D01*
X14313809Y-10952529D02*
X14266190Y-10952529D01*
X14266190Y-10952529D02*
X14247143Y-10943005D01*
X14247143Y-10943005D02*
X14237619Y-10933481D01*
X14475714Y-10752529D02*
X14494762Y-10752529D01*
X14494762Y-10752529D02*
X14513809Y-10762053D01*
X14513809Y-10762053D02*
X14523333Y-10771576D01*
X14523333Y-10771576D02*
X14532857Y-10790624D01*
X14532857Y-10790624D02*
X14542381Y-10828719D01*
X14542381Y-10828719D02*
X14542381Y-10876338D01*
X14542381Y-10876338D02*
X14532857Y-10914434D01*
X14532857Y-10914434D02*
X14523333Y-10933481D01*
X14523333Y-10933481D02*
X14513809Y-10943005D01*
X14513809Y-10943005D02*
X14494762Y-10952529D01*
X14494762Y-10952529D02*
X14475714Y-10952529D01*
X14475714Y-10952529D02*
X14456667Y-10943005D01*
X14456667Y-10943005D02*
X14447143Y-10933481D01*
X14447143Y-10933481D02*
X14437619Y-10914434D01*
X14437619Y-10914434D02*
X14428095Y-10876338D01*
X14428095Y-10876338D02*
X14428095Y-10828719D01*
X14428095Y-10828719D02*
X14437619Y-10790624D01*
X14437619Y-10790624D02*
X14447143Y-10771576D01*
X14447143Y-10771576D02*
X14456667Y-10762053D01*
X14456667Y-10762053D02*
X14475714Y-10752529D01*
X14618571Y-10752529D02*
X14618571Y-10790624D01*
X14694762Y-10752529D02*
X14694762Y-10790624D01*
X14990000Y-11028719D02*
X14980476Y-11019195D01*
X14980476Y-11019195D02*
X14961429Y-10990624D01*
X14961429Y-10990624D02*
X14951905Y-10971576D01*
X14951905Y-10971576D02*
X14942381Y-10943005D01*
X14942381Y-10943005D02*
X14932857Y-10895386D01*
X14932857Y-10895386D02*
X14932857Y-10857291D01*
X14932857Y-10857291D02*
X14942381Y-10809672D01*
X14942381Y-10809672D02*
X14951905Y-10781100D01*
X14951905Y-10781100D02*
X14961429Y-10762053D01*
X14961429Y-10762053D02*
X14980476Y-10733481D01*
X14980476Y-10733481D02*
X14990000Y-10723957D01*
X15170952Y-10952529D02*
X15056667Y-10952529D01*
X15113809Y-10952529D02*
X15113809Y-10752529D01*
X15113809Y-10752529D02*
X15094762Y-10781100D01*
X15094762Y-10781100D02*
X15075714Y-10800148D01*
X15075714Y-10800148D02*
X15056667Y-10809672D01*
X15247143Y-10771576D02*
X15256667Y-10762053D01*
X15256667Y-10762053D02*
X15275714Y-10752529D01*
X15275714Y-10752529D02*
X15323333Y-10752529D01*
X15323333Y-10752529D02*
X15342381Y-10762053D01*
X15342381Y-10762053D02*
X15351905Y-10771576D01*
X15351905Y-10771576D02*
X15361429Y-10790624D01*
X15361429Y-10790624D02*
X15361429Y-10809672D01*
X15361429Y-10809672D02*
X15351905Y-10838243D01*
X15351905Y-10838243D02*
X15237619Y-10952529D01*
X15237619Y-10952529D02*
X15361429Y-10952529D01*
X15599524Y-10952529D02*
X15599524Y-10752529D01*
X15685238Y-10952529D02*
X15685238Y-10847767D01*
X15685238Y-10847767D02*
X15675714Y-10828719D01*
X15675714Y-10828719D02*
X15656667Y-10819195D01*
X15656667Y-10819195D02*
X15628095Y-10819195D01*
X15628095Y-10819195D02*
X15609048Y-10828719D01*
X15609048Y-10828719D02*
X15599524Y-10838243D01*
X15809048Y-10952529D02*
X15790000Y-10943005D01*
X15790000Y-10943005D02*
X15780476Y-10933481D01*
X15780476Y-10933481D02*
X15770952Y-10914434D01*
X15770952Y-10914434D02*
X15770952Y-10857291D01*
X15770952Y-10857291D02*
X15780476Y-10838243D01*
X15780476Y-10838243D02*
X15790000Y-10828719D01*
X15790000Y-10828719D02*
X15809048Y-10819195D01*
X15809048Y-10819195D02*
X15837619Y-10819195D01*
X15837619Y-10819195D02*
X15856667Y-10828719D01*
X15856667Y-10828719D02*
X15866191Y-10838243D01*
X15866191Y-10838243D02*
X15875714Y-10857291D01*
X15875714Y-10857291D02*
X15875714Y-10914434D01*
X15875714Y-10914434D02*
X15866191Y-10933481D01*
X15866191Y-10933481D02*
X15856667Y-10943005D01*
X15856667Y-10943005D02*
X15837619Y-10952529D01*
X15837619Y-10952529D02*
X15809048Y-10952529D01*
X15990000Y-10952529D02*
X15970952Y-10943005D01*
X15970952Y-10943005D02*
X15961429Y-10923957D01*
X15961429Y-10923957D02*
X15961429Y-10752529D01*
X16142381Y-10943005D02*
X16123333Y-10952529D01*
X16123333Y-10952529D02*
X16085238Y-10952529D01*
X16085238Y-10952529D02*
X16066191Y-10943005D01*
X16066191Y-10943005D02*
X16056667Y-10923957D01*
X16056667Y-10923957D02*
X16056667Y-10847767D01*
X16056667Y-10847767D02*
X16066191Y-10828719D01*
X16066191Y-10828719D02*
X16085238Y-10819195D01*
X16085238Y-10819195D02*
X16123333Y-10819195D01*
X16123333Y-10819195D02*
X16142381Y-10828719D01*
X16142381Y-10828719D02*
X16151905Y-10847767D01*
X16151905Y-10847767D02*
X16151905Y-10866815D01*
X16151905Y-10866815D02*
X16056667Y-10885862D01*
X16228095Y-10943005D02*
X16247143Y-10952529D01*
X16247143Y-10952529D02*
X16285238Y-10952529D01*
X16285238Y-10952529D02*
X16304286Y-10943005D01*
X16304286Y-10943005D02*
X16313810Y-10923957D01*
X16313810Y-10923957D02*
X16313810Y-10914434D01*
X16313810Y-10914434D02*
X16304286Y-10895386D01*
X16304286Y-10895386D02*
X16285238Y-10885862D01*
X16285238Y-10885862D02*
X16256667Y-10885862D01*
X16256667Y-10885862D02*
X16237619Y-10876338D01*
X16237619Y-10876338D02*
X16228095Y-10857291D01*
X16228095Y-10857291D02*
X16228095Y-10847767D01*
X16228095Y-10847767D02*
X16237619Y-10828719D01*
X16237619Y-10828719D02*
X16256667Y-10819195D01*
X16256667Y-10819195D02*
X16285238Y-10819195D01*
X16285238Y-10819195D02*
X16304286Y-10828719D01*
X16380476Y-11028719D02*
X16390000Y-11019195D01*
X16390000Y-11019195D02*
X16409048Y-10990624D01*
X16409048Y-10990624D02*
X16418572Y-10971576D01*
X16418572Y-10971576D02*
X16428095Y-10943005D01*
X16428095Y-10943005D02*
X16437619Y-10895386D01*
X16437619Y-10895386D02*
X16437619Y-10857291D01*
X16437619Y-10857291D02*
X16428095Y-10809672D01*
X16428095Y-10809672D02*
X16418572Y-10781100D01*
X16418572Y-10781100D02*
X16409048Y-10762053D01*
X16409048Y-10762053D02*
X16390000Y-10733481D01*
X16390000Y-10733481D02*
X16380476Y-10723957D01*
D14*
X11414915Y-11155825D02*
X11414915Y-11092185D01*
X11351275Y-11092185D01*
X11351275Y-11155825D01*
X11414915Y-11155825D01*
D11*
X11713809Y-11016529D02*
X11732857Y-11016529D01*
X11732857Y-11016529D02*
X11751904Y-11026053D01*
X11751904Y-11026053D02*
X11761428Y-11035576D01*
X11761428Y-11035576D02*
X11770952Y-11054624D01*
X11770952Y-11054624D02*
X11780476Y-11092719D01*
X11780476Y-11092719D02*
X11780476Y-11140338D01*
X11780476Y-11140338D02*
X11770952Y-11178434D01*
X11770952Y-11178434D02*
X11761428Y-11197481D01*
X11761428Y-11197481D02*
X11751904Y-11207005D01*
X11751904Y-11207005D02*
X11732857Y-11216529D01*
X11732857Y-11216529D02*
X11713809Y-11216529D01*
X11713809Y-11216529D02*
X11694762Y-11207005D01*
X11694762Y-11207005D02*
X11685238Y-11197481D01*
X11685238Y-11197481D02*
X11675714Y-11178434D01*
X11675714Y-11178434D02*
X11666190Y-11140338D01*
X11666190Y-11140338D02*
X11666190Y-11092719D01*
X11666190Y-11092719D02*
X11675714Y-11054624D01*
X11675714Y-11054624D02*
X11685238Y-11035576D01*
X11685238Y-11035576D02*
X11694762Y-11026053D01*
X11694762Y-11026053D02*
X11713809Y-11016529D01*
X11866190Y-11197481D02*
X11875714Y-11207005D01*
X11875714Y-11207005D02*
X11866190Y-11216529D01*
X11866190Y-11216529D02*
X11856666Y-11207005D01*
X11856666Y-11207005D02*
X11866190Y-11197481D01*
X11866190Y-11197481D02*
X11866190Y-11216529D01*
X11970952Y-11216529D02*
X12009047Y-11216529D01*
X12009047Y-11216529D02*
X12028095Y-11207005D01*
X12028095Y-11207005D02*
X12037619Y-11197481D01*
X12037619Y-11197481D02*
X12056666Y-11168910D01*
X12056666Y-11168910D02*
X12066190Y-11130815D01*
X12066190Y-11130815D02*
X12066190Y-11054624D01*
X12066190Y-11054624D02*
X12056666Y-11035576D01*
X12056666Y-11035576D02*
X12047143Y-11026053D01*
X12047143Y-11026053D02*
X12028095Y-11016529D01*
X12028095Y-11016529D02*
X11990000Y-11016529D01*
X11990000Y-11016529D02*
X11970952Y-11026053D01*
X11970952Y-11026053D02*
X11961428Y-11035576D01*
X11961428Y-11035576D02*
X11951904Y-11054624D01*
X11951904Y-11054624D02*
X11951904Y-11102243D01*
X11951904Y-11102243D02*
X11961428Y-11121291D01*
X11961428Y-11121291D02*
X11970952Y-11130815D01*
X11970952Y-11130815D02*
X11990000Y-11140338D01*
X11990000Y-11140338D02*
X12028095Y-11140338D01*
X12028095Y-11140338D02*
X12047143Y-11130815D01*
X12047143Y-11130815D02*
X12056666Y-11121291D01*
X12056666Y-11121291D02*
X12066190Y-11102243D01*
X12190000Y-11016529D02*
X12209047Y-11016529D01*
X12209047Y-11016529D02*
X12228095Y-11026053D01*
X12228095Y-11026053D02*
X12237619Y-11035576D01*
X12237619Y-11035576D02*
X12247143Y-11054624D01*
X12247143Y-11054624D02*
X12256666Y-11092719D01*
X12256666Y-11092719D02*
X12256666Y-11140338D01*
X12256666Y-11140338D02*
X12247143Y-11178434D01*
X12247143Y-11178434D02*
X12237619Y-11197481D01*
X12237619Y-11197481D02*
X12228095Y-11207005D01*
X12228095Y-11207005D02*
X12209047Y-11216529D01*
X12209047Y-11216529D02*
X12190000Y-11216529D01*
X12190000Y-11216529D02*
X12170952Y-11207005D01*
X12170952Y-11207005D02*
X12161428Y-11197481D01*
X12161428Y-11197481D02*
X12151904Y-11178434D01*
X12151904Y-11178434D02*
X12142381Y-11140338D01*
X12142381Y-11140338D02*
X12142381Y-11092719D01*
X12142381Y-11092719D02*
X12151904Y-11054624D01*
X12151904Y-11054624D02*
X12161428Y-11035576D01*
X12161428Y-11035576D02*
X12170952Y-11026053D01*
X12170952Y-11026053D02*
X12190000Y-11016529D01*
X12380476Y-11016529D02*
X12399524Y-11016529D01*
X12399524Y-11016529D02*
X12418571Y-11026053D01*
X12418571Y-11026053D02*
X12428095Y-11035576D01*
X12428095Y-11035576D02*
X12437619Y-11054624D01*
X12437619Y-11054624D02*
X12447143Y-11092719D01*
X12447143Y-11092719D02*
X12447143Y-11140338D01*
X12447143Y-11140338D02*
X12437619Y-11178434D01*
X12437619Y-11178434D02*
X12428095Y-11197481D01*
X12428095Y-11197481D02*
X12418571Y-11207005D01*
X12418571Y-11207005D02*
X12399524Y-11216529D01*
X12399524Y-11216529D02*
X12380476Y-11216529D01*
X12380476Y-11216529D02*
X12361428Y-11207005D01*
X12361428Y-11207005D02*
X12351904Y-11197481D01*
X12351904Y-11197481D02*
X12342381Y-11178434D01*
X12342381Y-11178434D02*
X12332857Y-11140338D01*
X12332857Y-11140338D02*
X12332857Y-11092719D01*
X12332857Y-11092719D02*
X12342381Y-11054624D01*
X12342381Y-11054624D02*
X12351904Y-11035576D01*
X12351904Y-11035576D02*
X12361428Y-11026053D01*
X12361428Y-11026053D02*
X12380476Y-11016529D01*
X12532857Y-11216529D02*
X12532857Y-11083195D01*
X12532857Y-11102243D02*
X12542381Y-11092719D01*
X12542381Y-11092719D02*
X12561428Y-11083195D01*
X12561428Y-11083195D02*
X12590000Y-11083195D01*
X12590000Y-11083195D02*
X12609047Y-11092719D01*
X12609047Y-11092719D02*
X12618571Y-11111767D01*
X12618571Y-11111767D02*
X12618571Y-11216529D01*
X12618571Y-11111767D02*
X12628095Y-11092719D01*
X12628095Y-11092719D02*
X12647143Y-11083195D01*
X12647143Y-11083195D02*
X12675714Y-11083195D01*
X12675714Y-11083195D02*
X12694762Y-11092719D01*
X12694762Y-11092719D02*
X12704285Y-11111767D01*
X12704285Y-11111767D02*
X12704285Y-11216529D01*
X12799524Y-11216529D02*
X12799524Y-11083195D01*
X12799524Y-11102243D02*
X12809047Y-11092719D01*
X12809047Y-11092719D02*
X12828095Y-11083195D01*
X12828095Y-11083195D02*
X12856666Y-11083195D01*
X12856666Y-11083195D02*
X12875714Y-11092719D01*
X12875714Y-11092719D02*
X12885238Y-11111767D01*
X12885238Y-11111767D02*
X12885238Y-11216529D01*
X12885238Y-11111767D02*
X12894762Y-11092719D01*
X12894762Y-11092719D02*
X12913809Y-11083195D01*
X12913809Y-11083195D02*
X12942381Y-11083195D01*
X12942381Y-11083195D02*
X12961428Y-11092719D01*
X12961428Y-11092719D02*
X12970952Y-11111767D01*
X12970952Y-11111767D02*
X12970952Y-11216529D01*
X13361428Y-11007005D02*
X13190000Y-11264148D01*
X13618571Y-11016529D02*
X13637619Y-11016529D01*
X13637619Y-11016529D02*
X13656667Y-11026053D01*
X13656667Y-11026053D02*
X13666190Y-11035576D01*
X13666190Y-11035576D02*
X13675714Y-11054624D01*
X13675714Y-11054624D02*
X13685238Y-11092719D01*
X13685238Y-11092719D02*
X13685238Y-11140338D01*
X13685238Y-11140338D02*
X13675714Y-11178434D01*
X13675714Y-11178434D02*
X13666190Y-11197481D01*
X13666190Y-11197481D02*
X13656667Y-11207005D01*
X13656667Y-11207005D02*
X13637619Y-11216529D01*
X13637619Y-11216529D02*
X13618571Y-11216529D01*
X13618571Y-11216529D02*
X13599524Y-11207005D01*
X13599524Y-11207005D02*
X13590000Y-11197481D01*
X13590000Y-11197481D02*
X13580476Y-11178434D01*
X13580476Y-11178434D02*
X13570952Y-11140338D01*
X13570952Y-11140338D02*
X13570952Y-11092719D01*
X13570952Y-11092719D02*
X13580476Y-11054624D01*
X13580476Y-11054624D02*
X13590000Y-11035576D01*
X13590000Y-11035576D02*
X13599524Y-11026053D01*
X13599524Y-11026053D02*
X13618571Y-11016529D01*
X13770952Y-11197481D02*
X13780476Y-11207005D01*
X13780476Y-11207005D02*
X13770952Y-11216529D01*
X13770952Y-11216529D02*
X13761428Y-11207005D01*
X13761428Y-11207005D02*
X13770952Y-11197481D01*
X13770952Y-11197481D02*
X13770952Y-11216529D01*
X13904286Y-11016529D02*
X13923333Y-11016529D01*
X13923333Y-11016529D02*
X13942381Y-11026053D01*
X13942381Y-11026053D02*
X13951905Y-11035576D01*
X13951905Y-11035576D02*
X13961428Y-11054624D01*
X13961428Y-11054624D02*
X13970952Y-11092719D01*
X13970952Y-11092719D02*
X13970952Y-11140338D01*
X13970952Y-11140338D02*
X13961428Y-11178434D01*
X13961428Y-11178434D02*
X13951905Y-11197481D01*
X13951905Y-11197481D02*
X13942381Y-11207005D01*
X13942381Y-11207005D02*
X13923333Y-11216529D01*
X13923333Y-11216529D02*
X13904286Y-11216529D01*
X13904286Y-11216529D02*
X13885238Y-11207005D01*
X13885238Y-11207005D02*
X13875714Y-11197481D01*
X13875714Y-11197481D02*
X13866190Y-11178434D01*
X13866190Y-11178434D02*
X13856667Y-11140338D01*
X13856667Y-11140338D02*
X13856667Y-11092719D01*
X13856667Y-11092719D02*
X13866190Y-11054624D01*
X13866190Y-11054624D02*
X13875714Y-11035576D01*
X13875714Y-11035576D02*
X13885238Y-11026053D01*
X13885238Y-11026053D02*
X13904286Y-11016529D01*
X14037619Y-11016529D02*
X14161428Y-11016529D01*
X14161428Y-11016529D02*
X14094762Y-11092719D01*
X14094762Y-11092719D02*
X14123333Y-11092719D01*
X14123333Y-11092719D02*
X14142381Y-11102243D01*
X14142381Y-11102243D02*
X14151905Y-11111767D01*
X14151905Y-11111767D02*
X14161428Y-11130815D01*
X14161428Y-11130815D02*
X14161428Y-11178434D01*
X14161428Y-11178434D02*
X14151905Y-11197481D01*
X14151905Y-11197481D02*
X14142381Y-11207005D01*
X14142381Y-11207005D02*
X14123333Y-11216529D01*
X14123333Y-11216529D02*
X14066190Y-11216529D01*
X14066190Y-11216529D02*
X14047143Y-11207005D01*
X14047143Y-11207005D02*
X14037619Y-11197481D01*
X14342381Y-11016529D02*
X14247143Y-11016529D01*
X14247143Y-11016529D02*
X14237619Y-11111767D01*
X14237619Y-11111767D02*
X14247143Y-11102243D01*
X14247143Y-11102243D02*
X14266190Y-11092719D01*
X14266190Y-11092719D02*
X14313809Y-11092719D01*
X14313809Y-11092719D02*
X14332857Y-11102243D01*
X14332857Y-11102243D02*
X14342381Y-11111767D01*
X14342381Y-11111767D02*
X14351905Y-11130815D01*
X14351905Y-11130815D02*
X14351905Y-11178434D01*
X14351905Y-11178434D02*
X14342381Y-11197481D01*
X14342381Y-11197481D02*
X14332857Y-11207005D01*
X14332857Y-11207005D02*
X14313809Y-11216529D01*
X14313809Y-11216529D02*
X14266190Y-11216529D01*
X14266190Y-11216529D02*
X14247143Y-11207005D01*
X14247143Y-11207005D02*
X14237619Y-11197481D01*
X14523333Y-11083195D02*
X14523333Y-11216529D01*
X14475714Y-11007005D02*
X14428095Y-11149862D01*
X14428095Y-11149862D02*
X14551905Y-11149862D01*
X14618571Y-11016529D02*
X14618571Y-11054624D01*
X14694762Y-11016529D02*
X14694762Y-11054624D01*
X14990000Y-11292719D02*
X14980476Y-11283195D01*
X14980476Y-11283195D02*
X14961429Y-11254624D01*
X14961429Y-11254624D02*
X14951905Y-11235576D01*
X14951905Y-11235576D02*
X14942381Y-11207005D01*
X14942381Y-11207005D02*
X14932857Y-11159386D01*
X14932857Y-11159386D02*
X14932857Y-11121291D01*
X14932857Y-11121291D02*
X14942381Y-11073672D01*
X14942381Y-11073672D02*
X14951905Y-11045100D01*
X14951905Y-11045100D02*
X14961429Y-11026053D01*
X14961429Y-11026053D02*
X14980476Y-10997481D01*
X14980476Y-10997481D02*
X14990000Y-10987957D01*
X15056667Y-11035576D02*
X15066190Y-11026053D01*
X15066190Y-11026053D02*
X15085238Y-11016529D01*
X15085238Y-11016529D02*
X15132857Y-11016529D01*
X15132857Y-11016529D02*
X15151905Y-11026053D01*
X15151905Y-11026053D02*
X15161429Y-11035576D01*
X15161429Y-11035576D02*
X15170952Y-11054624D01*
X15170952Y-11054624D02*
X15170952Y-11073672D01*
X15170952Y-11073672D02*
X15161429Y-11102243D01*
X15161429Y-11102243D02*
X15047143Y-11216529D01*
X15047143Y-11216529D02*
X15170952Y-11216529D01*
X15409048Y-11216529D02*
X15409048Y-11016529D01*
X15494762Y-11216529D02*
X15494762Y-11111767D01*
X15494762Y-11111767D02*
X15485238Y-11092719D01*
X15485238Y-11092719D02*
X15466191Y-11083195D01*
X15466191Y-11083195D02*
X15437619Y-11083195D01*
X15437619Y-11083195D02*
X15418571Y-11092719D01*
X15418571Y-11092719D02*
X15409048Y-11102243D01*
X15618571Y-11216529D02*
X15599524Y-11207005D01*
X15599524Y-11207005D02*
X15590000Y-11197481D01*
X15590000Y-11197481D02*
X15580476Y-11178434D01*
X15580476Y-11178434D02*
X15580476Y-11121291D01*
X15580476Y-11121291D02*
X15590000Y-11102243D01*
X15590000Y-11102243D02*
X15599524Y-11092719D01*
X15599524Y-11092719D02*
X15618571Y-11083195D01*
X15618571Y-11083195D02*
X15647143Y-11083195D01*
X15647143Y-11083195D02*
X15666191Y-11092719D01*
X15666191Y-11092719D02*
X15675714Y-11102243D01*
X15675714Y-11102243D02*
X15685238Y-11121291D01*
X15685238Y-11121291D02*
X15685238Y-11178434D01*
X15685238Y-11178434D02*
X15675714Y-11197481D01*
X15675714Y-11197481D02*
X15666191Y-11207005D01*
X15666191Y-11207005D02*
X15647143Y-11216529D01*
X15647143Y-11216529D02*
X15618571Y-11216529D01*
X15799524Y-11216529D02*
X15780476Y-11207005D01*
X15780476Y-11207005D02*
X15770952Y-11187957D01*
X15770952Y-11187957D02*
X15770952Y-11016529D01*
X15951905Y-11207005D02*
X15932857Y-11216529D01*
X15932857Y-11216529D02*
X15894762Y-11216529D01*
X15894762Y-11216529D02*
X15875714Y-11207005D01*
X15875714Y-11207005D02*
X15866191Y-11187957D01*
X15866191Y-11187957D02*
X15866191Y-11111767D01*
X15866191Y-11111767D02*
X15875714Y-11092719D01*
X15875714Y-11092719D02*
X15894762Y-11083195D01*
X15894762Y-11083195D02*
X15932857Y-11083195D01*
X15932857Y-11083195D02*
X15951905Y-11092719D01*
X15951905Y-11092719D02*
X15961429Y-11111767D01*
X15961429Y-11111767D02*
X15961429Y-11130815D01*
X15961429Y-11130815D02*
X15866191Y-11149862D01*
X16037619Y-11207005D02*
X16056667Y-11216529D01*
X16056667Y-11216529D02*
X16094762Y-11216529D01*
X16094762Y-11216529D02*
X16113810Y-11207005D01*
X16113810Y-11207005D02*
X16123333Y-11187957D01*
X16123333Y-11187957D02*
X16123333Y-11178434D01*
X16123333Y-11178434D02*
X16113810Y-11159386D01*
X16113810Y-11159386D02*
X16094762Y-11149862D01*
X16094762Y-11149862D02*
X16066191Y-11149862D01*
X16066191Y-11149862D02*
X16047143Y-11140338D01*
X16047143Y-11140338D02*
X16037619Y-11121291D01*
X16037619Y-11121291D02*
X16037619Y-11111767D01*
X16037619Y-11111767D02*
X16047143Y-11092719D01*
X16047143Y-11092719D02*
X16066191Y-11083195D01*
X16066191Y-11083195D02*
X16094762Y-11083195D01*
X16094762Y-11083195D02*
X16113810Y-11092719D01*
X16190000Y-11292719D02*
X16199524Y-11283195D01*
X16199524Y-11283195D02*
X16218572Y-11254624D01*
X16218572Y-11254624D02*
X16228095Y-11235576D01*
X16228095Y-11235576D02*
X16237619Y-11207005D01*
X16237619Y-11207005D02*
X16247143Y-11159386D01*
X16247143Y-11159386D02*
X16247143Y-11121291D01*
X16247143Y-11121291D02*
X16237619Y-11073672D01*
X16237619Y-11073672D02*
X16228095Y-11045100D01*
X16228095Y-11045100D02*
X16218572Y-11026053D01*
X16218572Y-11026053D02*
X16199524Y-10997481D01*
X16199524Y-10997481D02*
X16190000Y-10987957D01*
D15*
X11378095Y-11438005D02*
X11428095Y-11388005D01*
X11378095Y-11338005D01*
X11328095Y-11388005D01*
X11378095Y-11438005D01*
D11*
X11780476Y-11480529D02*
X11666190Y-11480529D01*
X11723333Y-11480529D02*
X11723333Y-11280529D01*
X11723333Y-11280529D02*
X11704285Y-11309100D01*
X11704285Y-11309100D02*
X11685238Y-11328148D01*
X11685238Y-11328148D02*
X11666190Y-11337672D01*
X11866190Y-11461481D02*
X11875714Y-11471005D01*
X11875714Y-11471005D02*
X11866190Y-11480529D01*
X11866190Y-11480529D02*
X11856666Y-11471005D01*
X11856666Y-11471005D02*
X11866190Y-11461481D01*
X11866190Y-11461481D02*
X11866190Y-11480529D01*
X11999523Y-11280529D02*
X12018571Y-11280529D01*
X12018571Y-11280529D02*
X12037619Y-11290053D01*
X12037619Y-11290053D02*
X12047143Y-11299576D01*
X12047143Y-11299576D02*
X12056666Y-11318624D01*
X12056666Y-11318624D02*
X12066190Y-11356719D01*
X12066190Y-11356719D02*
X12066190Y-11404338D01*
X12066190Y-11404338D02*
X12056666Y-11442433D01*
X12056666Y-11442433D02*
X12047143Y-11461481D01*
X12047143Y-11461481D02*
X12037619Y-11471005D01*
X12037619Y-11471005D02*
X12018571Y-11480529D01*
X12018571Y-11480529D02*
X11999523Y-11480529D01*
X11999523Y-11480529D02*
X11980476Y-11471005D01*
X11980476Y-11471005D02*
X11970952Y-11461481D01*
X11970952Y-11461481D02*
X11961428Y-11442433D01*
X11961428Y-11442433D02*
X11951904Y-11404338D01*
X11951904Y-11404338D02*
X11951904Y-11356719D01*
X11951904Y-11356719D02*
X11961428Y-11318624D01*
X11961428Y-11318624D02*
X11970952Y-11299576D01*
X11970952Y-11299576D02*
X11980476Y-11290053D01*
X11980476Y-11290053D02*
X11999523Y-11280529D01*
X12190000Y-11280529D02*
X12209047Y-11280529D01*
X12209047Y-11280529D02*
X12228095Y-11290053D01*
X12228095Y-11290053D02*
X12237619Y-11299576D01*
X12237619Y-11299576D02*
X12247143Y-11318624D01*
X12247143Y-11318624D02*
X12256666Y-11356719D01*
X12256666Y-11356719D02*
X12256666Y-11404338D01*
X12256666Y-11404338D02*
X12247143Y-11442433D01*
X12247143Y-11442433D02*
X12237619Y-11461481D01*
X12237619Y-11461481D02*
X12228095Y-11471005D01*
X12228095Y-11471005D02*
X12209047Y-11480529D01*
X12209047Y-11480529D02*
X12190000Y-11480529D01*
X12190000Y-11480529D02*
X12170952Y-11471005D01*
X12170952Y-11471005D02*
X12161428Y-11461481D01*
X12161428Y-11461481D02*
X12151904Y-11442433D01*
X12151904Y-11442433D02*
X12142381Y-11404338D01*
X12142381Y-11404338D02*
X12142381Y-11356719D01*
X12142381Y-11356719D02*
X12151904Y-11318624D01*
X12151904Y-11318624D02*
X12161428Y-11299576D01*
X12161428Y-11299576D02*
X12170952Y-11290053D01*
X12170952Y-11290053D02*
X12190000Y-11280529D01*
X12380476Y-11280529D02*
X12399524Y-11280529D01*
X12399524Y-11280529D02*
X12418571Y-11290053D01*
X12418571Y-11290053D02*
X12428095Y-11299576D01*
X12428095Y-11299576D02*
X12437619Y-11318624D01*
X12437619Y-11318624D02*
X12447143Y-11356719D01*
X12447143Y-11356719D02*
X12447143Y-11404338D01*
X12447143Y-11404338D02*
X12437619Y-11442433D01*
X12437619Y-11442433D02*
X12428095Y-11461481D01*
X12428095Y-11461481D02*
X12418571Y-11471005D01*
X12418571Y-11471005D02*
X12399524Y-11480529D01*
X12399524Y-11480529D02*
X12380476Y-11480529D01*
X12380476Y-11480529D02*
X12361428Y-11471005D01*
X12361428Y-11471005D02*
X12351904Y-11461481D01*
X12351904Y-11461481D02*
X12342381Y-11442433D01*
X12342381Y-11442433D02*
X12332857Y-11404338D01*
X12332857Y-11404338D02*
X12332857Y-11356719D01*
X12332857Y-11356719D02*
X12342381Y-11318624D01*
X12342381Y-11318624D02*
X12351904Y-11299576D01*
X12351904Y-11299576D02*
X12361428Y-11290053D01*
X12361428Y-11290053D02*
X12380476Y-11280529D01*
X12532857Y-11480529D02*
X12532857Y-11347195D01*
X12532857Y-11366243D02*
X12542381Y-11356719D01*
X12542381Y-11356719D02*
X12561428Y-11347195D01*
X12561428Y-11347195D02*
X12590000Y-11347195D01*
X12590000Y-11347195D02*
X12609047Y-11356719D01*
X12609047Y-11356719D02*
X12618571Y-11375767D01*
X12618571Y-11375767D02*
X12618571Y-11480529D01*
X12618571Y-11375767D02*
X12628095Y-11356719D01*
X12628095Y-11356719D02*
X12647143Y-11347195D01*
X12647143Y-11347195D02*
X12675714Y-11347195D01*
X12675714Y-11347195D02*
X12694762Y-11356719D01*
X12694762Y-11356719D02*
X12704285Y-11375767D01*
X12704285Y-11375767D02*
X12704285Y-11480529D01*
X12799524Y-11480529D02*
X12799524Y-11347195D01*
X12799524Y-11366243D02*
X12809047Y-11356719D01*
X12809047Y-11356719D02*
X12828095Y-11347195D01*
X12828095Y-11347195D02*
X12856666Y-11347195D01*
X12856666Y-11347195D02*
X12875714Y-11356719D01*
X12875714Y-11356719D02*
X12885238Y-11375767D01*
X12885238Y-11375767D02*
X12885238Y-11480529D01*
X12885238Y-11375767D02*
X12894762Y-11356719D01*
X12894762Y-11356719D02*
X12913809Y-11347195D01*
X12913809Y-11347195D02*
X12942381Y-11347195D01*
X12942381Y-11347195D02*
X12961428Y-11356719D01*
X12961428Y-11356719D02*
X12970952Y-11375767D01*
X12970952Y-11375767D02*
X12970952Y-11480529D01*
X13361428Y-11271005D02*
X13190000Y-11528148D01*
X13618571Y-11280529D02*
X13637619Y-11280529D01*
X13637619Y-11280529D02*
X13656667Y-11290053D01*
X13656667Y-11290053D02*
X13666190Y-11299576D01*
X13666190Y-11299576D02*
X13675714Y-11318624D01*
X13675714Y-11318624D02*
X13685238Y-11356719D01*
X13685238Y-11356719D02*
X13685238Y-11404338D01*
X13685238Y-11404338D02*
X13675714Y-11442433D01*
X13675714Y-11442433D02*
X13666190Y-11461481D01*
X13666190Y-11461481D02*
X13656667Y-11471005D01*
X13656667Y-11471005D02*
X13637619Y-11480529D01*
X13637619Y-11480529D02*
X13618571Y-11480529D01*
X13618571Y-11480529D02*
X13599524Y-11471005D01*
X13599524Y-11471005D02*
X13590000Y-11461481D01*
X13590000Y-11461481D02*
X13580476Y-11442433D01*
X13580476Y-11442433D02*
X13570952Y-11404338D01*
X13570952Y-11404338D02*
X13570952Y-11356719D01*
X13570952Y-11356719D02*
X13580476Y-11318624D01*
X13580476Y-11318624D02*
X13590000Y-11299576D01*
X13590000Y-11299576D02*
X13599524Y-11290053D01*
X13599524Y-11290053D02*
X13618571Y-11280529D01*
X13770952Y-11461481D02*
X13780476Y-11471005D01*
X13780476Y-11471005D02*
X13770952Y-11480529D01*
X13770952Y-11480529D02*
X13761428Y-11471005D01*
X13761428Y-11471005D02*
X13770952Y-11461481D01*
X13770952Y-11461481D02*
X13770952Y-11480529D01*
X13904286Y-11280529D02*
X13923333Y-11280529D01*
X13923333Y-11280529D02*
X13942381Y-11290053D01*
X13942381Y-11290053D02*
X13951905Y-11299576D01*
X13951905Y-11299576D02*
X13961428Y-11318624D01*
X13961428Y-11318624D02*
X13970952Y-11356719D01*
X13970952Y-11356719D02*
X13970952Y-11404338D01*
X13970952Y-11404338D02*
X13961428Y-11442433D01*
X13961428Y-11442433D02*
X13951905Y-11461481D01*
X13951905Y-11461481D02*
X13942381Y-11471005D01*
X13942381Y-11471005D02*
X13923333Y-11480529D01*
X13923333Y-11480529D02*
X13904286Y-11480529D01*
X13904286Y-11480529D02*
X13885238Y-11471005D01*
X13885238Y-11471005D02*
X13875714Y-11461481D01*
X13875714Y-11461481D02*
X13866190Y-11442433D01*
X13866190Y-11442433D02*
X13856667Y-11404338D01*
X13856667Y-11404338D02*
X13856667Y-11356719D01*
X13856667Y-11356719D02*
X13866190Y-11318624D01*
X13866190Y-11318624D02*
X13875714Y-11299576D01*
X13875714Y-11299576D02*
X13885238Y-11290053D01*
X13885238Y-11290053D02*
X13904286Y-11280529D01*
X14037619Y-11280529D02*
X14161428Y-11280529D01*
X14161428Y-11280529D02*
X14094762Y-11356719D01*
X14094762Y-11356719D02*
X14123333Y-11356719D01*
X14123333Y-11356719D02*
X14142381Y-11366243D01*
X14142381Y-11366243D02*
X14151905Y-11375767D01*
X14151905Y-11375767D02*
X14161428Y-11394814D01*
X14161428Y-11394814D02*
X14161428Y-11442433D01*
X14161428Y-11442433D02*
X14151905Y-11461481D01*
X14151905Y-11461481D02*
X14142381Y-11471005D01*
X14142381Y-11471005D02*
X14123333Y-11480529D01*
X14123333Y-11480529D02*
X14066190Y-11480529D01*
X14066190Y-11480529D02*
X14047143Y-11471005D01*
X14047143Y-11471005D02*
X14037619Y-11461481D01*
X14256667Y-11480529D02*
X14294762Y-11480529D01*
X14294762Y-11480529D02*
X14313809Y-11471005D01*
X14313809Y-11471005D02*
X14323333Y-11461481D01*
X14323333Y-11461481D02*
X14342381Y-11432910D01*
X14342381Y-11432910D02*
X14351905Y-11394814D01*
X14351905Y-11394814D02*
X14351905Y-11318624D01*
X14351905Y-11318624D02*
X14342381Y-11299576D01*
X14342381Y-11299576D02*
X14332857Y-11290053D01*
X14332857Y-11290053D02*
X14313809Y-11280529D01*
X14313809Y-11280529D02*
X14275714Y-11280529D01*
X14275714Y-11280529D02*
X14256667Y-11290053D01*
X14256667Y-11290053D02*
X14247143Y-11299576D01*
X14247143Y-11299576D02*
X14237619Y-11318624D01*
X14237619Y-11318624D02*
X14237619Y-11366243D01*
X14237619Y-11366243D02*
X14247143Y-11385291D01*
X14247143Y-11385291D02*
X14256667Y-11394814D01*
X14256667Y-11394814D02*
X14275714Y-11404338D01*
X14275714Y-11404338D02*
X14313809Y-11404338D01*
X14313809Y-11404338D02*
X14332857Y-11394814D01*
X14332857Y-11394814D02*
X14342381Y-11385291D01*
X14342381Y-11385291D02*
X14351905Y-11366243D01*
X14523333Y-11347195D02*
X14523333Y-11480529D01*
X14475714Y-11271005D02*
X14428095Y-11413862D01*
X14428095Y-11413862D02*
X14551905Y-11413862D01*
X14618571Y-11280529D02*
X14618571Y-11318624D01*
X14694762Y-11280529D02*
X14694762Y-11318624D01*
X14990000Y-11556719D02*
X14980476Y-11547195D01*
X14980476Y-11547195D02*
X14961429Y-11518624D01*
X14961429Y-11518624D02*
X14951905Y-11499576D01*
X14951905Y-11499576D02*
X14942381Y-11471005D01*
X14942381Y-11471005D02*
X14932857Y-11423386D01*
X14932857Y-11423386D02*
X14932857Y-11385291D01*
X14932857Y-11385291D02*
X14942381Y-11337672D01*
X14942381Y-11337672D02*
X14951905Y-11309100D01*
X14951905Y-11309100D02*
X14961429Y-11290053D01*
X14961429Y-11290053D02*
X14980476Y-11261481D01*
X14980476Y-11261481D02*
X14990000Y-11251957D01*
X15047143Y-11280529D02*
X15170952Y-11280529D01*
X15170952Y-11280529D02*
X15104286Y-11356719D01*
X15104286Y-11356719D02*
X15132857Y-11356719D01*
X15132857Y-11356719D02*
X15151905Y-11366243D01*
X15151905Y-11366243D02*
X15161429Y-11375767D01*
X15161429Y-11375767D02*
X15170952Y-11394814D01*
X15170952Y-11394814D02*
X15170952Y-11442433D01*
X15170952Y-11442433D02*
X15161429Y-11461481D01*
X15161429Y-11461481D02*
X15151905Y-11471005D01*
X15151905Y-11471005D02*
X15132857Y-11480529D01*
X15132857Y-11480529D02*
X15075714Y-11480529D01*
X15075714Y-11480529D02*
X15056667Y-11471005D01*
X15056667Y-11471005D02*
X15047143Y-11461481D01*
X15342381Y-11280529D02*
X15304286Y-11280529D01*
X15304286Y-11280529D02*
X15285238Y-11290053D01*
X15285238Y-11290053D02*
X15275714Y-11299576D01*
X15275714Y-11299576D02*
X15256667Y-11328148D01*
X15256667Y-11328148D02*
X15247143Y-11366243D01*
X15247143Y-11366243D02*
X15247143Y-11442433D01*
X15247143Y-11442433D02*
X15256667Y-11461481D01*
X15256667Y-11461481D02*
X15266190Y-11471005D01*
X15266190Y-11471005D02*
X15285238Y-11480529D01*
X15285238Y-11480529D02*
X15323333Y-11480529D01*
X15323333Y-11480529D02*
X15342381Y-11471005D01*
X15342381Y-11471005D02*
X15351905Y-11461481D01*
X15351905Y-11461481D02*
X15361429Y-11442433D01*
X15361429Y-11442433D02*
X15361429Y-11394814D01*
X15361429Y-11394814D02*
X15351905Y-11375767D01*
X15351905Y-11375767D02*
X15342381Y-11366243D01*
X15342381Y-11366243D02*
X15323333Y-11356719D01*
X15323333Y-11356719D02*
X15285238Y-11356719D01*
X15285238Y-11356719D02*
X15266190Y-11366243D01*
X15266190Y-11366243D02*
X15256667Y-11375767D01*
X15256667Y-11375767D02*
X15247143Y-11394814D01*
X15599524Y-11480529D02*
X15599524Y-11280529D01*
X15685238Y-11480529D02*
X15685238Y-11375767D01*
X15685238Y-11375767D02*
X15675714Y-11356719D01*
X15675714Y-11356719D02*
X15656667Y-11347195D01*
X15656667Y-11347195D02*
X15628095Y-11347195D01*
X15628095Y-11347195D02*
X15609048Y-11356719D01*
X15609048Y-11356719D02*
X15599524Y-11366243D01*
X15809048Y-11480529D02*
X15790000Y-11471005D01*
X15790000Y-11471005D02*
X15780476Y-11461481D01*
X15780476Y-11461481D02*
X15770952Y-11442433D01*
X15770952Y-11442433D02*
X15770952Y-11385291D01*
X15770952Y-11385291D02*
X15780476Y-11366243D01*
X15780476Y-11366243D02*
X15790000Y-11356719D01*
X15790000Y-11356719D02*
X15809048Y-11347195D01*
X15809048Y-11347195D02*
X15837619Y-11347195D01*
X15837619Y-11347195D02*
X15856667Y-11356719D01*
X15856667Y-11356719D02*
X15866191Y-11366243D01*
X15866191Y-11366243D02*
X15875714Y-11385291D01*
X15875714Y-11385291D02*
X15875714Y-11442433D01*
X15875714Y-11442433D02*
X15866191Y-11461481D01*
X15866191Y-11461481D02*
X15856667Y-11471005D01*
X15856667Y-11471005D02*
X15837619Y-11480529D01*
X15837619Y-11480529D02*
X15809048Y-11480529D01*
X15990000Y-11480529D02*
X15970952Y-11471005D01*
X15970952Y-11471005D02*
X15961429Y-11451957D01*
X15961429Y-11451957D02*
X15961429Y-11280529D01*
X16142381Y-11471005D02*
X16123333Y-11480529D01*
X16123333Y-11480529D02*
X16085238Y-11480529D01*
X16085238Y-11480529D02*
X16066191Y-11471005D01*
X16066191Y-11471005D02*
X16056667Y-11451957D01*
X16056667Y-11451957D02*
X16056667Y-11375767D01*
X16056667Y-11375767D02*
X16066191Y-11356719D01*
X16066191Y-11356719D02*
X16085238Y-11347195D01*
X16085238Y-11347195D02*
X16123333Y-11347195D01*
X16123333Y-11347195D02*
X16142381Y-11356719D01*
X16142381Y-11356719D02*
X16151905Y-11375767D01*
X16151905Y-11375767D02*
X16151905Y-11394814D01*
X16151905Y-11394814D02*
X16056667Y-11413862D01*
X16228095Y-11471005D02*
X16247143Y-11480529D01*
X16247143Y-11480529D02*
X16285238Y-11480529D01*
X16285238Y-11480529D02*
X16304286Y-11471005D01*
X16304286Y-11471005D02*
X16313810Y-11451957D01*
X16313810Y-11451957D02*
X16313810Y-11442433D01*
X16313810Y-11442433D02*
X16304286Y-11423386D01*
X16304286Y-11423386D02*
X16285238Y-11413862D01*
X16285238Y-11413862D02*
X16256667Y-11413862D01*
X16256667Y-11413862D02*
X16237619Y-11404338D01*
X16237619Y-11404338D02*
X16228095Y-11385291D01*
X16228095Y-11385291D02*
X16228095Y-11375767D01*
X16228095Y-11375767D02*
X16237619Y-11356719D01*
X16237619Y-11356719D02*
X16256667Y-11347195D01*
X16256667Y-11347195D02*
X16285238Y-11347195D01*
X16285238Y-11347195D02*
X16304286Y-11356719D01*
X16380476Y-11556719D02*
X16390000Y-11547195D01*
X16390000Y-11547195D02*
X16409048Y-11518624D01*
X16409048Y-11518624D02*
X16418572Y-11499576D01*
X16418572Y-11499576D02*
X16428095Y-11471005D01*
X16428095Y-11471005D02*
X16437619Y-11423386D01*
X16437619Y-11423386D02*
X16437619Y-11385291D01*
X16437619Y-11385291D02*
X16428095Y-11337672D01*
X16428095Y-11337672D02*
X16418572Y-11309100D01*
X16418572Y-11309100D02*
X16409048Y-11290053D01*
X16409048Y-11290053D02*
X16390000Y-11261481D01*
X16390000Y-11261481D02*
X16380476Y-11251957D01*
D16*
X11296095Y-11586005D02*
X11428095Y-11718005D01*
X11428095Y-11586005D02*
X11296095Y-11718005D01*
X11428095Y-11652005D02*
G75*
G03*
X11428095Y-11652005I-66000J0D01*
G01*
D11*
X11780476Y-11744529D02*
X11666190Y-11744529D01*
X11723333Y-11744529D02*
X11723333Y-11544529D01*
X11723333Y-11544529D02*
X11704285Y-11573100D01*
X11704285Y-11573100D02*
X11685238Y-11592148D01*
X11685238Y-11592148D02*
X11666190Y-11601672D01*
X11866190Y-11725481D02*
X11875714Y-11735005D01*
X11875714Y-11735005D02*
X11866190Y-11744529D01*
X11866190Y-11744529D02*
X11856666Y-11735005D01*
X11856666Y-11735005D02*
X11866190Y-11725481D01*
X11866190Y-11725481D02*
X11866190Y-11744529D01*
X11942381Y-11544529D02*
X12066190Y-11544529D01*
X12066190Y-11544529D02*
X11999523Y-11620719D01*
X11999523Y-11620719D02*
X12028095Y-11620719D01*
X12028095Y-11620719D02*
X12047143Y-11630243D01*
X12047143Y-11630243D02*
X12056666Y-11639767D01*
X12056666Y-11639767D02*
X12066190Y-11658814D01*
X12066190Y-11658814D02*
X12066190Y-11706433D01*
X12066190Y-11706433D02*
X12056666Y-11725481D01*
X12056666Y-11725481D02*
X12047143Y-11735005D01*
X12047143Y-11735005D02*
X12028095Y-11744529D01*
X12028095Y-11744529D02*
X11970952Y-11744529D01*
X11970952Y-11744529D02*
X11951904Y-11735005D01*
X11951904Y-11735005D02*
X11942381Y-11725481D01*
X12142381Y-11563576D02*
X12151904Y-11554053D01*
X12151904Y-11554053D02*
X12170952Y-11544529D01*
X12170952Y-11544529D02*
X12218571Y-11544529D01*
X12218571Y-11544529D02*
X12237619Y-11554053D01*
X12237619Y-11554053D02*
X12247143Y-11563576D01*
X12247143Y-11563576D02*
X12256666Y-11582624D01*
X12256666Y-11582624D02*
X12256666Y-11601672D01*
X12256666Y-11601672D02*
X12247143Y-11630243D01*
X12247143Y-11630243D02*
X12132857Y-11744529D01*
X12132857Y-11744529D02*
X12256666Y-11744529D01*
X12380476Y-11544529D02*
X12399524Y-11544529D01*
X12399524Y-11544529D02*
X12418571Y-11554053D01*
X12418571Y-11554053D02*
X12428095Y-11563576D01*
X12428095Y-11563576D02*
X12437619Y-11582624D01*
X12437619Y-11582624D02*
X12447143Y-11620719D01*
X12447143Y-11620719D02*
X12447143Y-11668338D01*
X12447143Y-11668338D02*
X12437619Y-11706433D01*
X12437619Y-11706433D02*
X12428095Y-11725481D01*
X12428095Y-11725481D02*
X12418571Y-11735005D01*
X12418571Y-11735005D02*
X12399524Y-11744529D01*
X12399524Y-11744529D02*
X12380476Y-11744529D01*
X12380476Y-11744529D02*
X12361428Y-11735005D01*
X12361428Y-11735005D02*
X12351904Y-11725481D01*
X12351904Y-11725481D02*
X12342381Y-11706433D01*
X12342381Y-11706433D02*
X12332857Y-11668338D01*
X12332857Y-11668338D02*
X12332857Y-11620719D01*
X12332857Y-11620719D02*
X12342381Y-11582624D01*
X12342381Y-11582624D02*
X12351904Y-11563576D01*
X12351904Y-11563576D02*
X12361428Y-11554053D01*
X12361428Y-11554053D02*
X12380476Y-11544529D01*
X12532857Y-11744529D02*
X12532857Y-11611195D01*
X12532857Y-11630243D02*
X12542381Y-11620719D01*
X12542381Y-11620719D02*
X12561428Y-11611195D01*
X12561428Y-11611195D02*
X12590000Y-11611195D01*
X12590000Y-11611195D02*
X12609047Y-11620719D01*
X12609047Y-11620719D02*
X12618571Y-11639767D01*
X12618571Y-11639767D02*
X12618571Y-11744529D01*
X12618571Y-11639767D02*
X12628095Y-11620719D01*
X12628095Y-11620719D02*
X12647143Y-11611195D01*
X12647143Y-11611195D02*
X12675714Y-11611195D01*
X12675714Y-11611195D02*
X12694762Y-11620719D01*
X12694762Y-11620719D02*
X12704285Y-11639767D01*
X12704285Y-11639767D02*
X12704285Y-11744529D01*
X12799524Y-11744529D02*
X12799524Y-11611195D01*
X12799524Y-11630243D02*
X12809047Y-11620719D01*
X12809047Y-11620719D02*
X12828095Y-11611195D01*
X12828095Y-11611195D02*
X12856666Y-11611195D01*
X12856666Y-11611195D02*
X12875714Y-11620719D01*
X12875714Y-11620719D02*
X12885238Y-11639767D01*
X12885238Y-11639767D02*
X12885238Y-11744529D01*
X12885238Y-11639767D02*
X12894762Y-11620719D01*
X12894762Y-11620719D02*
X12913809Y-11611195D01*
X12913809Y-11611195D02*
X12942381Y-11611195D01*
X12942381Y-11611195D02*
X12961428Y-11620719D01*
X12961428Y-11620719D02*
X12970952Y-11639767D01*
X12970952Y-11639767D02*
X12970952Y-11744529D01*
X13361428Y-11535005D02*
X13190000Y-11792148D01*
X13618571Y-11544529D02*
X13637619Y-11544529D01*
X13637619Y-11544529D02*
X13656667Y-11554053D01*
X13656667Y-11554053D02*
X13666190Y-11563576D01*
X13666190Y-11563576D02*
X13675714Y-11582624D01*
X13675714Y-11582624D02*
X13685238Y-11620719D01*
X13685238Y-11620719D02*
X13685238Y-11668338D01*
X13685238Y-11668338D02*
X13675714Y-11706433D01*
X13675714Y-11706433D02*
X13666190Y-11725481D01*
X13666190Y-11725481D02*
X13656667Y-11735005D01*
X13656667Y-11735005D02*
X13637619Y-11744529D01*
X13637619Y-11744529D02*
X13618571Y-11744529D01*
X13618571Y-11744529D02*
X13599524Y-11735005D01*
X13599524Y-11735005D02*
X13590000Y-11725481D01*
X13590000Y-11725481D02*
X13580476Y-11706433D01*
X13580476Y-11706433D02*
X13570952Y-11668338D01*
X13570952Y-11668338D02*
X13570952Y-11620719D01*
X13570952Y-11620719D02*
X13580476Y-11582624D01*
X13580476Y-11582624D02*
X13590000Y-11563576D01*
X13590000Y-11563576D02*
X13599524Y-11554053D01*
X13599524Y-11554053D02*
X13618571Y-11544529D01*
X13770952Y-11725481D02*
X13780476Y-11735005D01*
X13780476Y-11735005D02*
X13770952Y-11744529D01*
X13770952Y-11744529D02*
X13761428Y-11735005D01*
X13761428Y-11735005D02*
X13770952Y-11725481D01*
X13770952Y-11725481D02*
X13770952Y-11744529D01*
X13904286Y-11544529D02*
X13923333Y-11544529D01*
X13923333Y-11544529D02*
X13942381Y-11554053D01*
X13942381Y-11554053D02*
X13951905Y-11563576D01*
X13951905Y-11563576D02*
X13961428Y-11582624D01*
X13961428Y-11582624D02*
X13970952Y-11620719D01*
X13970952Y-11620719D02*
X13970952Y-11668338D01*
X13970952Y-11668338D02*
X13961428Y-11706433D01*
X13961428Y-11706433D02*
X13951905Y-11725481D01*
X13951905Y-11725481D02*
X13942381Y-11735005D01*
X13942381Y-11735005D02*
X13923333Y-11744529D01*
X13923333Y-11744529D02*
X13904286Y-11744529D01*
X13904286Y-11744529D02*
X13885238Y-11735005D01*
X13885238Y-11735005D02*
X13875714Y-11725481D01*
X13875714Y-11725481D02*
X13866190Y-11706433D01*
X13866190Y-11706433D02*
X13856667Y-11668338D01*
X13856667Y-11668338D02*
X13856667Y-11620719D01*
X13856667Y-11620719D02*
X13866190Y-11582624D01*
X13866190Y-11582624D02*
X13875714Y-11563576D01*
X13875714Y-11563576D02*
X13885238Y-11554053D01*
X13885238Y-11554053D02*
X13904286Y-11544529D01*
X14151905Y-11544529D02*
X14056667Y-11544529D01*
X14056667Y-11544529D02*
X14047143Y-11639767D01*
X14047143Y-11639767D02*
X14056667Y-11630243D01*
X14056667Y-11630243D02*
X14075714Y-11620719D01*
X14075714Y-11620719D02*
X14123333Y-11620719D01*
X14123333Y-11620719D02*
X14142381Y-11630243D01*
X14142381Y-11630243D02*
X14151905Y-11639767D01*
X14151905Y-11639767D02*
X14161428Y-11658814D01*
X14161428Y-11658814D02*
X14161428Y-11706433D01*
X14161428Y-11706433D02*
X14151905Y-11725481D01*
X14151905Y-11725481D02*
X14142381Y-11735005D01*
X14142381Y-11735005D02*
X14123333Y-11744529D01*
X14123333Y-11744529D02*
X14075714Y-11744529D01*
X14075714Y-11744529D02*
X14056667Y-11735005D01*
X14056667Y-11735005D02*
X14047143Y-11725481D01*
X14237619Y-11563576D02*
X14247143Y-11554053D01*
X14247143Y-11554053D02*
X14266190Y-11544529D01*
X14266190Y-11544529D02*
X14313809Y-11544529D01*
X14313809Y-11544529D02*
X14332857Y-11554053D01*
X14332857Y-11554053D02*
X14342381Y-11563576D01*
X14342381Y-11563576D02*
X14351905Y-11582624D01*
X14351905Y-11582624D02*
X14351905Y-11601672D01*
X14351905Y-11601672D02*
X14342381Y-11630243D01*
X14342381Y-11630243D02*
X14228095Y-11744529D01*
X14228095Y-11744529D02*
X14351905Y-11744529D01*
X14475714Y-11544529D02*
X14494762Y-11544529D01*
X14494762Y-11544529D02*
X14513809Y-11554053D01*
X14513809Y-11554053D02*
X14523333Y-11563576D01*
X14523333Y-11563576D02*
X14532857Y-11582624D01*
X14532857Y-11582624D02*
X14542381Y-11620719D01*
X14542381Y-11620719D02*
X14542381Y-11668338D01*
X14542381Y-11668338D02*
X14532857Y-11706433D01*
X14532857Y-11706433D02*
X14523333Y-11725481D01*
X14523333Y-11725481D02*
X14513809Y-11735005D01*
X14513809Y-11735005D02*
X14494762Y-11744529D01*
X14494762Y-11744529D02*
X14475714Y-11744529D01*
X14475714Y-11744529D02*
X14456667Y-11735005D01*
X14456667Y-11735005D02*
X14447143Y-11725481D01*
X14447143Y-11725481D02*
X14437619Y-11706433D01*
X14437619Y-11706433D02*
X14428095Y-11668338D01*
X14428095Y-11668338D02*
X14428095Y-11620719D01*
X14428095Y-11620719D02*
X14437619Y-11582624D01*
X14437619Y-11582624D02*
X14447143Y-11563576D01*
X14447143Y-11563576D02*
X14456667Y-11554053D01*
X14456667Y-11554053D02*
X14475714Y-11544529D01*
X14618571Y-11544529D02*
X14618571Y-11582624D01*
X14694762Y-11544529D02*
X14694762Y-11582624D01*
X14990000Y-11820719D02*
X14980476Y-11811195D01*
X14980476Y-11811195D02*
X14961429Y-11782624D01*
X14961429Y-11782624D02*
X14951905Y-11763576D01*
X14951905Y-11763576D02*
X14942381Y-11735005D01*
X14942381Y-11735005D02*
X14932857Y-11687386D01*
X14932857Y-11687386D02*
X14932857Y-11649291D01*
X14932857Y-11649291D02*
X14942381Y-11601672D01*
X14942381Y-11601672D02*
X14951905Y-11573100D01*
X14951905Y-11573100D02*
X14961429Y-11554053D01*
X14961429Y-11554053D02*
X14980476Y-11525481D01*
X14980476Y-11525481D02*
X14990000Y-11515957D01*
X15056667Y-11563576D02*
X15066190Y-11554053D01*
X15066190Y-11554053D02*
X15085238Y-11544529D01*
X15085238Y-11544529D02*
X15132857Y-11544529D01*
X15132857Y-11544529D02*
X15151905Y-11554053D01*
X15151905Y-11554053D02*
X15161429Y-11563576D01*
X15161429Y-11563576D02*
X15170952Y-11582624D01*
X15170952Y-11582624D02*
X15170952Y-11601672D01*
X15170952Y-11601672D02*
X15161429Y-11630243D01*
X15161429Y-11630243D02*
X15047143Y-11744529D01*
X15047143Y-11744529D02*
X15170952Y-11744529D01*
X15409048Y-11744529D02*
X15409048Y-11544529D01*
X15494762Y-11744529D02*
X15494762Y-11639767D01*
X15494762Y-11639767D02*
X15485238Y-11620719D01*
X15485238Y-11620719D02*
X15466191Y-11611195D01*
X15466191Y-11611195D02*
X15437619Y-11611195D01*
X15437619Y-11611195D02*
X15418571Y-11620719D01*
X15418571Y-11620719D02*
X15409048Y-11630243D01*
X15618571Y-11744529D02*
X15599524Y-11735005D01*
X15599524Y-11735005D02*
X15590000Y-11725481D01*
X15590000Y-11725481D02*
X15580476Y-11706433D01*
X15580476Y-11706433D02*
X15580476Y-11649291D01*
X15580476Y-11649291D02*
X15590000Y-11630243D01*
X15590000Y-11630243D02*
X15599524Y-11620719D01*
X15599524Y-11620719D02*
X15618571Y-11611195D01*
X15618571Y-11611195D02*
X15647143Y-11611195D01*
X15647143Y-11611195D02*
X15666191Y-11620719D01*
X15666191Y-11620719D02*
X15675714Y-11630243D01*
X15675714Y-11630243D02*
X15685238Y-11649291D01*
X15685238Y-11649291D02*
X15685238Y-11706433D01*
X15685238Y-11706433D02*
X15675714Y-11725481D01*
X15675714Y-11725481D02*
X15666191Y-11735005D01*
X15666191Y-11735005D02*
X15647143Y-11744529D01*
X15647143Y-11744529D02*
X15618571Y-11744529D01*
X15799524Y-11744529D02*
X15780476Y-11735005D01*
X15780476Y-11735005D02*
X15770952Y-11715957D01*
X15770952Y-11715957D02*
X15770952Y-11544529D01*
X15951905Y-11735005D02*
X15932857Y-11744529D01*
X15932857Y-11744529D02*
X15894762Y-11744529D01*
X15894762Y-11744529D02*
X15875714Y-11735005D01*
X15875714Y-11735005D02*
X15866191Y-11715957D01*
X15866191Y-11715957D02*
X15866191Y-11639767D01*
X15866191Y-11639767D02*
X15875714Y-11620719D01*
X15875714Y-11620719D02*
X15894762Y-11611195D01*
X15894762Y-11611195D02*
X15932857Y-11611195D01*
X15932857Y-11611195D02*
X15951905Y-11620719D01*
X15951905Y-11620719D02*
X15961429Y-11639767D01*
X15961429Y-11639767D02*
X15961429Y-11658814D01*
X15961429Y-11658814D02*
X15866191Y-11677862D01*
X16037619Y-11735005D02*
X16056667Y-11744529D01*
X16056667Y-11744529D02*
X16094762Y-11744529D01*
X16094762Y-11744529D02*
X16113810Y-11735005D01*
X16113810Y-11735005D02*
X16123333Y-11715957D01*
X16123333Y-11715957D02*
X16123333Y-11706433D01*
X16123333Y-11706433D02*
X16113810Y-11687386D01*
X16113810Y-11687386D02*
X16094762Y-11677862D01*
X16094762Y-11677862D02*
X16066191Y-11677862D01*
X16066191Y-11677862D02*
X16047143Y-11668338D01*
X16047143Y-11668338D02*
X16037619Y-11649291D01*
X16037619Y-11649291D02*
X16037619Y-11639767D01*
X16037619Y-11639767D02*
X16047143Y-11620719D01*
X16047143Y-11620719D02*
X16066191Y-11611195D01*
X16066191Y-11611195D02*
X16094762Y-11611195D01*
X16094762Y-11611195D02*
X16113810Y-11620719D01*
X16190000Y-11820719D02*
X16199524Y-11811195D01*
X16199524Y-11811195D02*
X16218572Y-11782624D01*
X16218572Y-11782624D02*
X16228095Y-11763576D01*
X16228095Y-11763576D02*
X16237619Y-11735005D01*
X16237619Y-11735005D02*
X16247143Y-11687386D01*
X16247143Y-11687386D02*
X16247143Y-11649291D01*
X16247143Y-11649291D02*
X16237619Y-11601672D01*
X16237619Y-11601672D02*
X16228095Y-11573100D01*
X16228095Y-11573100D02*
X16218572Y-11554053D01*
X16218572Y-11554053D02*
X16199524Y-11525481D01*
X16199524Y-11525481D02*
X16190000Y-11515957D01*
X11228095Y-11816005D02*
X11428095Y-12016005D01*
X11428095Y-11816005D02*
X11228095Y-12016005D01*
X11328095Y-11816005D02*
X11328095Y-12016005D01*
X11228095Y-11916005D02*
X11428095Y-11916005D01*
X11656666Y-11808529D02*
X11780476Y-11808529D01*
X11780476Y-11808529D02*
X11713809Y-11884719D01*
X11713809Y-11884719D02*
X11742381Y-11884719D01*
X11742381Y-11884719D02*
X11761428Y-11894243D01*
X11761428Y-11894243D02*
X11770952Y-11903767D01*
X11770952Y-11903767D02*
X11780476Y-11922814D01*
X11780476Y-11922814D02*
X11780476Y-11970433D01*
X11780476Y-11970433D02*
X11770952Y-11989481D01*
X11770952Y-11989481D02*
X11761428Y-11999005D01*
X11761428Y-11999005D02*
X11742381Y-12008529D01*
X11742381Y-12008529D02*
X11685238Y-12008529D01*
X11685238Y-12008529D02*
X11666190Y-11999005D01*
X11666190Y-11999005D02*
X11656666Y-11989481D01*
X11866190Y-11989481D02*
X11875714Y-11999005D01*
X11875714Y-11999005D02*
X11866190Y-12008529D01*
X11866190Y-12008529D02*
X11856666Y-11999005D01*
X11856666Y-11999005D02*
X11866190Y-11989481D01*
X11866190Y-11989481D02*
X11866190Y-12008529D01*
X11951904Y-11827576D02*
X11961428Y-11818053D01*
X11961428Y-11818053D02*
X11980476Y-11808529D01*
X11980476Y-11808529D02*
X12028095Y-11808529D01*
X12028095Y-11808529D02*
X12047143Y-11818053D01*
X12047143Y-11818053D02*
X12056666Y-11827576D01*
X12056666Y-11827576D02*
X12066190Y-11846624D01*
X12066190Y-11846624D02*
X12066190Y-11865672D01*
X12066190Y-11865672D02*
X12056666Y-11894243D01*
X12056666Y-11894243D02*
X11942381Y-12008529D01*
X11942381Y-12008529D02*
X12066190Y-12008529D01*
X12190000Y-11808529D02*
X12209047Y-11808529D01*
X12209047Y-11808529D02*
X12228095Y-11818053D01*
X12228095Y-11818053D02*
X12237619Y-11827576D01*
X12237619Y-11827576D02*
X12247143Y-11846624D01*
X12247143Y-11846624D02*
X12256666Y-11884719D01*
X12256666Y-11884719D02*
X12256666Y-11932338D01*
X12256666Y-11932338D02*
X12247143Y-11970433D01*
X12247143Y-11970433D02*
X12237619Y-11989481D01*
X12237619Y-11989481D02*
X12228095Y-11999005D01*
X12228095Y-11999005D02*
X12209047Y-12008529D01*
X12209047Y-12008529D02*
X12190000Y-12008529D01*
X12190000Y-12008529D02*
X12170952Y-11999005D01*
X12170952Y-11999005D02*
X12161428Y-11989481D01*
X12161428Y-11989481D02*
X12151904Y-11970433D01*
X12151904Y-11970433D02*
X12142381Y-11932338D01*
X12142381Y-11932338D02*
X12142381Y-11884719D01*
X12142381Y-11884719D02*
X12151904Y-11846624D01*
X12151904Y-11846624D02*
X12161428Y-11827576D01*
X12161428Y-11827576D02*
X12170952Y-11818053D01*
X12170952Y-11818053D02*
X12190000Y-11808529D01*
X12380476Y-11808529D02*
X12399524Y-11808529D01*
X12399524Y-11808529D02*
X12418571Y-11818053D01*
X12418571Y-11818053D02*
X12428095Y-11827576D01*
X12428095Y-11827576D02*
X12437619Y-11846624D01*
X12437619Y-11846624D02*
X12447143Y-11884719D01*
X12447143Y-11884719D02*
X12447143Y-11932338D01*
X12447143Y-11932338D02*
X12437619Y-11970433D01*
X12437619Y-11970433D02*
X12428095Y-11989481D01*
X12428095Y-11989481D02*
X12418571Y-11999005D01*
X12418571Y-11999005D02*
X12399524Y-12008529D01*
X12399524Y-12008529D02*
X12380476Y-12008529D01*
X12380476Y-12008529D02*
X12361428Y-11999005D01*
X12361428Y-11999005D02*
X12351904Y-11989481D01*
X12351904Y-11989481D02*
X12342381Y-11970433D01*
X12342381Y-11970433D02*
X12332857Y-11932338D01*
X12332857Y-11932338D02*
X12332857Y-11884719D01*
X12332857Y-11884719D02*
X12342381Y-11846624D01*
X12342381Y-11846624D02*
X12351904Y-11827576D01*
X12351904Y-11827576D02*
X12361428Y-11818053D01*
X12361428Y-11818053D02*
X12380476Y-11808529D01*
X12532857Y-12008529D02*
X12532857Y-11875195D01*
X12532857Y-11894243D02*
X12542381Y-11884719D01*
X12542381Y-11884719D02*
X12561428Y-11875195D01*
X12561428Y-11875195D02*
X12590000Y-11875195D01*
X12590000Y-11875195D02*
X12609047Y-11884719D01*
X12609047Y-11884719D02*
X12618571Y-11903767D01*
X12618571Y-11903767D02*
X12618571Y-12008529D01*
X12618571Y-11903767D02*
X12628095Y-11884719D01*
X12628095Y-11884719D02*
X12647143Y-11875195D01*
X12647143Y-11875195D02*
X12675714Y-11875195D01*
X12675714Y-11875195D02*
X12694762Y-11884719D01*
X12694762Y-11884719D02*
X12704285Y-11903767D01*
X12704285Y-11903767D02*
X12704285Y-12008529D01*
X12799524Y-12008529D02*
X12799524Y-11875195D01*
X12799524Y-11894243D02*
X12809047Y-11884719D01*
X12809047Y-11884719D02*
X12828095Y-11875195D01*
X12828095Y-11875195D02*
X12856666Y-11875195D01*
X12856666Y-11875195D02*
X12875714Y-11884719D01*
X12875714Y-11884719D02*
X12885238Y-11903767D01*
X12885238Y-11903767D02*
X12885238Y-12008529D01*
X12885238Y-11903767D02*
X12894762Y-11884719D01*
X12894762Y-11884719D02*
X12913809Y-11875195D01*
X12913809Y-11875195D02*
X12942381Y-11875195D01*
X12942381Y-11875195D02*
X12961428Y-11884719D01*
X12961428Y-11884719D02*
X12970952Y-11903767D01*
X12970952Y-11903767D02*
X12970952Y-12008529D01*
X13361428Y-11799005D02*
X13190000Y-12056148D01*
X13618571Y-11808529D02*
X13637619Y-11808529D01*
X13637619Y-11808529D02*
X13656667Y-11818053D01*
X13656667Y-11818053D02*
X13666190Y-11827576D01*
X13666190Y-11827576D02*
X13675714Y-11846624D01*
X13675714Y-11846624D02*
X13685238Y-11884719D01*
X13685238Y-11884719D02*
X13685238Y-11932338D01*
X13685238Y-11932338D02*
X13675714Y-11970433D01*
X13675714Y-11970433D02*
X13666190Y-11989481D01*
X13666190Y-11989481D02*
X13656667Y-11999005D01*
X13656667Y-11999005D02*
X13637619Y-12008529D01*
X13637619Y-12008529D02*
X13618571Y-12008529D01*
X13618571Y-12008529D02*
X13599524Y-11999005D01*
X13599524Y-11999005D02*
X13590000Y-11989481D01*
X13590000Y-11989481D02*
X13580476Y-11970433D01*
X13580476Y-11970433D02*
X13570952Y-11932338D01*
X13570952Y-11932338D02*
X13570952Y-11884719D01*
X13570952Y-11884719D02*
X13580476Y-11846624D01*
X13580476Y-11846624D02*
X13590000Y-11827576D01*
X13590000Y-11827576D02*
X13599524Y-11818053D01*
X13599524Y-11818053D02*
X13618571Y-11808529D01*
X13770952Y-11989481D02*
X13780476Y-11999005D01*
X13780476Y-11999005D02*
X13770952Y-12008529D01*
X13770952Y-12008529D02*
X13761428Y-11999005D01*
X13761428Y-11999005D02*
X13770952Y-11989481D01*
X13770952Y-11989481D02*
X13770952Y-12008529D01*
X13970952Y-12008529D02*
X13856667Y-12008529D01*
X13913809Y-12008529D02*
X13913809Y-11808529D01*
X13913809Y-11808529D02*
X13894762Y-11837100D01*
X13894762Y-11837100D02*
X13875714Y-11856148D01*
X13875714Y-11856148D02*
X13856667Y-11865672D01*
X14047143Y-11827576D02*
X14056667Y-11818053D01*
X14056667Y-11818053D02*
X14075714Y-11808529D01*
X14075714Y-11808529D02*
X14123333Y-11808529D01*
X14123333Y-11808529D02*
X14142381Y-11818053D01*
X14142381Y-11818053D02*
X14151905Y-11827576D01*
X14151905Y-11827576D02*
X14161428Y-11846624D01*
X14161428Y-11846624D02*
X14161428Y-11865672D01*
X14161428Y-11865672D02*
X14151905Y-11894243D01*
X14151905Y-11894243D02*
X14037619Y-12008529D01*
X14037619Y-12008529D02*
X14161428Y-12008529D01*
X14332857Y-11808529D02*
X14294762Y-11808529D01*
X14294762Y-11808529D02*
X14275714Y-11818053D01*
X14275714Y-11818053D02*
X14266190Y-11827576D01*
X14266190Y-11827576D02*
X14247143Y-11856148D01*
X14247143Y-11856148D02*
X14237619Y-11894243D01*
X14237619Y-11894243D02*
X14237619Y-11970433D01*
X14237619Y-11970433D02*
X14247143Y-11989481D01*
X14247143Y-11989481D02*
X14256667Y-11999005D01*
X14256667Y-11999005D02*
X14275714Y-12008529D01*
X14275714Y-12008529D02*
X14313809Y-12008529D01*
X14313809Y-12008529D02*
X14332857Y-11999005D01*
X14332857Y-11999005D02*
X14342381Y-11989481D01*
X14342381Y-11989481D02*
X14351905Y-11970433D01*
X14351905Y-11970433D02*
X14351905Y-11922814D01*
X14351905Y-11922814D02*
X14342381Y-11903767D01*
X14342381Y-11903767D02*
X14332857Y-11894243D01*
X14332857Y-11894243D02*
X14313809Y-11884719D01*
X14313809Y-11884719D02*
X14275714Y-11884719D01*
X14275714Y-11884719D02*
X14256667Y-11894243D01*
X14256667Y-11894243D02*
X14247143Y-11903767D01*
X14247143Y-11903767D02*
X14237619Y-11922814D01*
X14475714Y-11808529D02*
X14494762Y-11808529D01*
X14494762Y-11808529D02*
X14513809Y-11818053D01*
X14513809Y-11818053D02*
X14523333Y-11827576D01*
X14523333Y-11827576D02*
X14532857Y-11846624D01*
X14532857Y-11846624D02*
X14542381Y-11884719D01*
X14542381Y-11884719D02*
X14542381Y-11932338D01*
X14542381Y-11932338D02*
X14532857Y-11970433D01*
X14532857Y-11970433D02*
X14523333Y-11989481D01*
X14523333Y-11989481D02*
X14513809Y-11999005D01*
X14513809Y-11999005D02*
X14494762Y-12008529D01*
X14494762Y-12008529D02*
X14475714Y-12008529D01*
X14475714Y-12008529D02*
X14456667Y-11999005D01*
X14456667Y-11999005D02*
X14447143Y-11989481D01*
X14447143Y-11989481D02*
X14437619Y-11970433D01*
X14437619Y-11970433D02*
X14428095Y-11932338D01*
X14428095Y-11932338D02*
X14428095Y-11884719D01*
X14428095Y-11884719D02*
X14437619Y-11846624D01*
X14437619Y-11846624D02*
X14447143Y-11827576D01*
X14447143Y-11827576D02*
X14456667Y-11818053D01*
X14456667Y-11818053D02*
X14475714Y-11808529D01*
X14618571Y-11808529D02*
X14618571Y-11846624D01*
X14694762Y-11808529D02*
X14694762Y-11846624D01*
X14990000Y-12084719D02*
X14980476Y-12075195D01*
X14980476Y-12075195D02*
X14961429Y-12046624D01*
X14961429Y-12046624D02*
X14951905Y-12027576D01*
X14951905Y-12027576D02*
X14942381Y-11999005D01*
X14942381Y-11999005D02*
X14932857Y-11951386D01*
X14932857Y-11951386D02*
X14932857Y-11913291D01*
X14932857Y-11913291D02*
X14942381Y-11865672D01*
X14942381Y-11865672D02*
X14951905Y-11837100D01*
X14951905Y-11837100D02*
X14961429Y-11818053D01*
X14961429Y-11818053D02*
X14980476Y-11789481D01*
X14980476Y-11789481D02*
X14990000Y-11779957D01*
X15151905Y-11875195D02*
X15151905Y-12008529D01*
X15104286Y-11799005D02*
X15056667Y-11941862D01*
X15056667Y-11941862D02*
X15180476Y-11941862D01*
X15409048Y-12008529D02*
X15409048Y-11808529D01*
X15494762Y-12008529D02*
X15494762Y-11903767D01*
X15494762Y-11903767D02*
X15485238Y-11884719D01*
X15485238Y-11884719D02*
X15466191Y-11875195D01*
X15466191Y-11875195D02*
X15437619Y-11875195D01*
X15437619Y-11875195D02*
X15418571Y-11884719D01*
X15418571Y-11884719D02*
X15409048Y-11894243D01*
X15618571Y-12008529D02*
X15599524Y-11999005D01*
X15599524Y-11999005D02*
X15590000Y-11989481D01*
X15590000Y-11989481D02*
X15580476Y-11970433D01*
X15580476Y-11970433D02*
X15580476Y-11913291D01*
X15580476Y-11913291D02*
X15590000Y-11894243D01*
X15590000Y-11894243D02*
X15599524Y-11884719D01*
X15599524Y-11884719D02*
X15618571Y-11875195D01*
X15618571Y-11875195D02*
X15647143Y-11875195D01*
X15647143Y-11875195D02*
X15666191Y-11884719D01*
X15666191Y-11884719D02*
X15675714Y-11894243D01*
X15675714Y-11894243D02*
X15685238Y-11913291D01*
X15685238Y-11913291D02*
X15685238Y-11970433D01*
X15685238Y-11970433D02*
X15675714Y-11989481D01*
X15675714Y-11989481D02*
X15666191Y-11999005D01*
X15666191Y-11999005D02*
X15647143Y-12008529D01*
X15647143Y-12008529D02*
X15618571Y-12008529D01*
X15799524Y-12008529D02*
X15780476Y-11999005D01*
X15780476Y-11999005D02*
X15770952Y-11979957D01*
X15770952Y-11979957D02*
X15770952Y-11808529D01*
X15951905Y-11999005D02*
X15932857Y-12008529D01*
X15932857Y-12008529D02*
X15894762Y-12008529D01*
X15894762Y-12008529D02*
X15875714Y-11999005D01*
X15875714Y-11999005D02*
X15866191Y-11979957D01*
X15866191Y-11979957D02*
X15866191Y-11903767D01*
X15866191Y-11903767D02*
X15875714Y-11884719D01*
X15875714Y-11884719D02*
X15894762Y-11875195D01*
X15894762Y-11875195D02*
X15932857Y-11875195D01*
X15932857Y-11875195D02*
X15951905Y-11884719D01*
X15951905Y-11884719D02*
X15961429Y-11903767D01*
X15961429Y-11903767D02*
X15961429Y-11922814D01*
X15961429Y-11922814D02*
X15866191Y-11941862D01*
X16037619Y-11999005D02*
X16056667Y-12008529D01*
X16056667Y-12008529D02*
X16094762Y-12008529D01*
X16094762Y-12008529D02*
X16113810Y-11999005D01*
X16113810Y-11999005D02*
X16123333Y-11979957D01*
X16123333Y-11979957D02*
X16123333Y-11970433D01*
X16123333Y-11970433D02*
X16113810Y-11951386D01*
X16113810Y-11951386D02*
X16094762Y-11941862D01*
X16094762Y-11941862D02*
X16066191Y-11941862D01*
X16066191Y-11941862D02*
X16047143Y-11932338D01*
X16047143Y-11932338D02*
X16037619Y-11913291D01*
X16037619Y-11913291D02*
X16037619Y-11903767D01*
X16037619Y-11903767D02*
X16047143Y-11884719D01*
X16047143Y-11884719D02*
X16066191Y-11875195D01*
X16066191Y-11875195D02*
X16094762Y-11875195D01*
X16094762Y-11875195D02*
X16113810Y-11884719D01*
X16190000Y-12084719D02*
X16199524Y-12075195D01*
X16199524Y-12075195D02*
X16218572Y-12046624D01*
X16218572Y-12046624D02*
X16228095Y-12027576D01*
X16228095Y-12027576D02*
X16237619Y-11999005D01*
X16237619Y-11999005D02*
X16247143Y-11951386D01*
X16247143Y-11951386D02*
X16247143Y-11913291D01*
X16247143Y-11913291D02*
X16237619Y-11865672D01*
X16237619Y-11865672D02*
X16228095Y-11837100D01*
X16228095Y-11837100D02*
X16218572Y-11818053D01*
X16218572Y-11818053D02*
X16199524Y-11789481D01*
X16199524Y-11789481D02*
X16190000Y-11779957D01*
M02*
