%TF.GenerationSoftware,KiCad,Pcbnew,7.0.1*%
%TF.CreationDate,2023-06-05T22:57:50+02:00*%
%TF.ProjectId,AxisPCB-STM32F411,41786973-5043-4422-9d53-544d33324634,1*%
%TF.SameCoordinates,Original*%
%TF.FileFunction,Copper,L3,Inr*%
%TF.FilePolarity,Positive*%
%FSLAX46Y46*%
G04 Gerber Fmt 4.6, Leading zero omitted, Abs format (unit mm)*
G04 Created by KiCad (PCBNEW 7.0.1) date 2023-06-05 22:57:50*
%MOMM*%
%LPD*%
G01*
G04 APERTURE LIST*
%TA.AperFunction,ComponentPad*%
%ADD10C,3.600000*%
%TD*%
%TA.AperFunction,ComponentPad*%
%ADD11R,1.980000X3.960000*%
%TD*%
%TA.AperFunction,ComponentPad*%
%ADD12O,1.980000X3.960000*%
%TD*%
%TA.AperFunction,ComponentPad*%
%ADD13R,2.000000X2.000000*%
%TD*%
%TA.AperFunction,ComponentPad*%
%ADD14C,2.000000*%
%TD*%
%TA.AperFunction,ComponentPad*%
%ADD15R,1.700000X1.700000*%
%TD*%
%TA.AperFunction,ComponentPad*%
%ADD16O,1.700000X1.700000*%
%TD*%
%TA.AperFunction,ComponentPad*%
%ADD17O,2.000000X1.600000*%
%TD*%
%TA.AperFunction,ComponentPad*%
%ADD18R,1.800000X1.800000*%
%TD*%
%TA.AperFunction,ComponentPad*%
%ADD19C,1.800000*%
%TD*%
%TA.AperFunction,ComponentPad*%
%ADD20C,0.500000*%
%TD*%
%TA.AperFunction,ViaPad*%
%ADD21C,0.685800*%
%TD*%
%TA.AperFunction,ViaPad*%
%ADD22C,0.889000*%
%TD*%
G04 APERTURE END LIST*
D10*
X156210000Y-30480000D03*
D11*
X144428000Y-90424000D03*
D12*
X149428000Y-90424000D03*
D13*
X152153323Y-78740000D03*
D14*
X157153323Y-78740000D03*
D15*
X121600000Y-44450000D03*
D16*
X121600000Y-46990000D03*
X121600000Y-49530000D03*
X121600000Y-52070000D03*
D10*
X156210000Y-92710000D03*
D13*
X125730000Y-27178000D03*
D17*
X125730000Y-29718000D03*
X125730000Y-32258000D03*
X125730000Y-34798000D03*
X125730000Y-37338000D03*
X125730000Y-39878000D03*
X125730000Y-42418000D03*
X125730000Y-44958000D03*
X148590000Y-44958000D03*
X148590000Y-42418000D03*
X148590000Y-39878000D03*
X148590000Y-37338000D03*
X148590000Y-34798000D03*
X148590000Y-32258000D03*
X148590000Y-29718000D03*
X148590000Y-27178000D03*
D15*
X157480000Y-44450000D03*
D16*
X157480000Y-46990000D03*
X157480000Y-49530000D03*
X157480000Y-52070000D03*
D15*
X117094000Y-44450000D03*
D16*
X117094000Y-46990000D03*
X117094000Y-49530000D03*
X117094000Y-52070000D03*
D18*
X123185000Y-93726000D03*
D19*
X125725000Y-93726000D03*
D20*
X156343000Y-68701000D03*
X157393000Y-68701000D03*
X156343000Y-67651000D03*
X157393000Y-67651000D03*
D13*
X122052477Y-84302600D03*
D14*
X117052477Y-84302600D03*
D10*
X118110000Y-92710000D03*
X118110000Y-30480000D03*
D15*
X153035000Y-44450000D03*
D16*
X153035000Y-46990000D03*
X153035000Y-49530000D03*
X153035000Y-52070000D03*
D21*
X145161000Y-72898000D03*
X146304000Y-72898000D03*
X140335000Y-52578000D03*
X119126000Y-72136000D03*
X115697000Y-72136000D03*
X129274600Y-61479400D03*
X137769600Y-60452000D03*
X136601200Y-69646800D03*
X134620000Y-73355200D03*
X131572000Y-75692000D03*
X125628400Y-71424800D03*
X127889000Y-72873100D03*
X129286000Y-69088000D03*
X128930400Y-66852800D03*
X127863600Y-64973200D03*
X135001000Y-63373000D03*
X134010400Y-60756800D03*
X150774400Y-34594800D03*
X157734000Y-35001200D03*
X157480000Y-75996800D03*
X157429200Y-82092800D03*
X121564400Y-60858400D03*
X127762000Y-55575200D03*
X134264400Y-45618400D03*
X143967200Y-55168800D03*
X142900400Y-59283600D03*
X141122400Y-59486800D03*
X139319000Y-56007000D03*
X133096000Y-56235600D03*
X132917700Y-54406800D03*
X128981200Y-52832000D03*
X128778000Y-54102000D03*
X133197600Y-53441600D03*
X137261600Y-57556400D03*
X137871200Y-56083200D03*
X135331200Y-54965600D03*
X129387600Y-55626000D03*
X133756400Y-54965600D03*
X130302000Y-55016400D03*
X135585200Y-52425600D03*
X130098800Y-53238400D03*
X127000000Y-56337200D03*
X136601200Y-55321200D03*
X139649200Y-46634400D03*
X140766800Y-48743100D03*
X130285402Y-43129200D03*
X130149600Y-45364400D03*
X144068800Y-44856400D03*
X139649200Y-44805600D03*
X139060818Y-57585982D03*
X136296400Y-58470800D03*
X130098800Y-57708800D03*
X132435600Y-57962800D03*
X127508000Y-66395600D03*
X131851900Y-56388000D03*
X127558800Y-67310000D03*
X131318000Y-57479700D03*
X136601200Y-46431200D03*
X126746000Y-52324000D03*
X128044000Y-45847000D03*
X129476500Y-44513500D03*
X129540000Y-48489100D03*
X136403200Y-49149000D03*
X129794000Y-49784000D03*
X128397000Y-49149000D03*
X133146800Y-48971200D03*
X134625200Y-46760900D03*
X128746250Y-47593250D03*
X127254000Y-47752000D03*
X135387200Y-46228000D03*
D22*
X155321000Y-51689000D03*
D21*
X155321000Y-47498000D03*
X151511000Y-74168000D03*
X148971000Y-77724000D03*
X139573000Y-82423000D03*
X127000000Y-92329000D03*
X123748800Y-79502000D03*
X124841000Y-79502000D03*
X124079000Y-88392000D03*
X124333000Y-74676000D03*
X127762000Y-79095600D03*
X125730000Y-79502000D03*
X126746000Y-79502000D03*
X126746000Y-71501000D03*
X116967000Y-60579000D03*
X118618000Y-61468000D03*
X118872000Y-63957200D03*
X126746000Y-46736000D03*
X123698000Y-43942000D03*
X136144000Y-94488000D03*
X141478000Y-87884000D03*
X138430000Y-83820000D03*
X137160000Y-85344000D03*
X135890000Y-86868000D03*
X134366000Y-88646000D03*
X134366000Y-92456000D03*
X150876000Y-72898000D03*
X149733000Y-72898000D03*
X148590000Y-72898000D03*
X147447000Y-72898000D03*
X146304000Y-62992000D03*
X146558000Y-61087000D03*
X151130000Y-44704000D03*
X128270000Y-74930000D03*
X126238000Y-70612000D03*
X119126000Y-70866000D03*
X123698000Y-69850000D03*
X143205200Y-44145200D03*
X137414000Y-49276000D03*
X144497563Y-48082700D03*
X144487097Y-49469599D03*
X138356550Y-49219716D03*
X136448800Y-56743600D03*
X141224000Y-57912000D03*
X138379200Y-46583600D03*
X145948400Y-49428400D03*
X145669000Y-47244000D03*
X146431000Y-50419000D03*
X145669000Y-48387000D03*
X138562200Y-45466000D03*
X146685000Y-47117000D03*
X141986000Y-58674000D03*
X135280400Y-61569600D03*
X120650000Y-55372000D03*
X118872000Y-55372000D03*
X139192000Y-67056000D03*
X129286000Y-74676000D03*
X115697000Y-75946000D03*
X115697000Y-73406000D03*
X119126000Y-73406000D03*
X119126000Y-75946000D03*
X125170000Y-68326000D03*
X146304000Y-55372000D03*
X143002000Y-56896000D03*
X140208000Y-66802000D03*
X151384000Y-63246000D03*
X144018000Y-78486000D03*
X144018000Y-77216000D03*
X144018000Y-75946000D03*
X144018000Y-74422000D03*
X144018000Y-72898000D03*
X144018000Y-71628000D03*
X144018000Y-70104000D03*
X144018000Y-68326000D03*
X144018000Y-66802000D03*
X144018000Y-65278000D03*
X144018000Y-63754000D03*
X144018000Y-62484000D03*
X144018000Y-61214000D03*
X144780000Y-60452000D03*
X149606000Y-62230000D03*
X147828000Y-62230000D03*
X148717000Y-62230000D03*
D22*
X152400000Y-58166000D03*
X149887523Y-56614477D03*
X122047000Y-40767000D03*
D21*
X157607000Y-55245000D03*
D22*
X154686000Y-38328600D03*
D21*
X135379400Y-58036400D03*
D22*
X156159200Y-36855400D03*
D21*
X140213200Y-54991000D03*
X135178800Y-72034400D03*
X141224000Y-95380000D03*
X138811000Y-95377000D03*
X125450600Y-52324000D03*
X159004000Y-73914000D03*
X157810923Y-74015600D03*
X129794000Y-94234000D03*
X154531200Y-63604000D03*
X157607000Y-58039000D03*
X127254000Y-57454800D03*
D22*
X122047000Y-42291000D03*
D21*
X154305000Y-72517000D03*
X148183600Y-80035400D03*
X145999200Y-79933800D03*
X143789400Y-80086200D03*
X155090000Y-66347200D03*
X148590000Y-52476400D03*
X159105600Y-68300600D03*
X151130000Y-54356000D03*
X153289000Y-54483000D03*
X154470319Y-66966881D03*
X157020400Y-65636000D03*
X157734000Y-60833000D03*
X157200600Y-85471000D03*
X157251400Y-87630000D03*
X141097000Y-90170000D03*
X158445200Y-66550400D03*
X139014200Y-63652400D03*
X140441800Y-47955200D03*
X133456800Y-47955200D03*
X141528800Y-80035400D03*
X139724900Y-69951600D03*
X157683200Y-64109600D03*
X153769200Y-67972800D03*
X146913600Y-84353400D03*
X136728200Y-89204800D03*
X152781000Y-87630000D03*
X157099000Y-70739000D03*
X135534400Y-91084400D03*
X152654000Y-85471000D03*
X142697200Y-84353400D03*
X157808800Y-65831600D03*
X158419800Y-86766400D03*
D22*
X155321000Y-54991000D03*
D21*
X155321000Y-45466000D03*
X155321000Y-44069000D03*
D22*
X153517600Y-42443400D03*
X155321000Y-58166000D03*
X149428200Y-47777400D03*
D21*
X155321000Y-42926000D03*
D22*
X156184600Y-41325800D03*
D21*
X124984217Y-47850730D03*
X158064200Y-62992000D03*
X153310000Y-64264400D03*
X154531200Y-69242800D03*
X158483800Y-69596000D03*
%TA.AperFunction,Conductor*%
G36*
X159457459Y-26254884D02*
G01*
X159502875Y-26300275D01*
X159519500Y-26362295D01*
X159519500Y-96142152D01*
X159502899Y-96204132D01*
X159457541Y-96249516D01*
X159395570Y-96266152D01*
X115008135Y-96291329D01*
X114946145Y-96274762D01*
X114900735Y-96229427D01*
X114884065Y-96167464D01*
X114882077Y-94340027D01*
X116833523Y-94340027D01*
X116913482Y-94405079D01*
X117155439Y-94552216D01*
X117415176Y-94665036D01*
X117687864Y-94741440D01*
X117968408Y-94780000D01*
X118251592Y-94780000D01*
X118532135Y-94741440D01*
X118804823Y-94665036D01*
X118835629Y-94651655D01*
X122024500Y-94651655D01*
X122039614Y-94727640D01*
X122039614Y-94727641D01*
X122039615Y-94727642D01*
X122097190Y-94813810D01*
X122183358Y-94871385D01*
X122221351Y-94878942D01*
X122259345Y-94886500D01*
X122259346Y-94886500D01*
X124110654Y-94886500D01*
X124110655Y-94886500D01*
X124135983Y-94881461D01*
X124186642Y-94871385D01*
X124272810Y-94813810D01*
X124330385Y-94727642D01*
X124345500Y-94651654D01*
X124345500Y-94007107D01*
X124359364Y-93950133D01*
X124397856Y-93905899D01*
X124452368Y-93884296D01*
X124510712Y-93890156D01*
X124559840Y-93922167D01*
X124588766Y-93973172D01*
X124638230Y-94147018D01*
X124734093Y-94339539D01*
X124734462Y-94340027D01*
X124863706Y-94511173D01*
X125022646Y-94656067D01*
X125205504Y-94769288D01*
X125406053Y-94846981D01*
X125617464Y-94886500D01*
X125832534Y-94886500D01*
X125832536Y-94886500D01*
X126043947Y-94846981D01*
X126244496Y-94769288D01*
X126427354Y-94656067D01*
X126586294Y-94511173D01*
X126715538Y-94340027D01*
X154933523Y-94340027D01*
X155013482Y-94405079D01*
X155255439Y-94552216D01*
X155515176Y-94665036D01*
X155787864Y-94741440D01*
X156068408Y-94780000D01*
X156351592Y-94780000D01*
X156632135Y-94741440D01*
X156904823Y-94665036D01*
X157164560Y-94552216D01*
X157406518Y-94405079D01*
X157486474Y-94340027D01*
X156210000Y-93063553D01*
X154933523Y-94340027D01*
X126715538Y-94340027D01*
X126715904Y-94339542D01*
X126715904Y-94339540D01*
X126715906Y-94339539D01*
X126764033Y-94242885D01*
X126811770Y-94147017D01*
X126870628Y-93940155D01*
X126890472Y-93726000D01*
X126870628Y-93511845D01*
X126811770Y-93304983D01*
X126794243Y-93269784D01*
X126715906Y-93112460D01*
X126586295Y-92940828D01*
X126427353Y-92795932D01*
X126288566Y-92709999D01*
X154135162Y-92709999D01*
X154154488Y-92992526D01*
X154212103Y-93269784D01*
X154306934Y-93536613D01*
X154437220Y-93788055D01*
X154578394Y-93988052D01*
X155856447Y-92710001D01*
X155856447Y-92710000D01*
X156563553Y-92710000D01*
X157841604Y-93988051D01*
X157982781Y-93788052D01*
X158113065Y-93536613D01*
X158207896Y-93269784D01*
X158265511Y-92992526D01*
X158284837Y-92709999D01*
X158265511Y-92427473D01*
X158207896Y-92150215D01*
X158113065Y-91883386D01*
X157982779Y-91631944D01*
X157841605Y-91431947D01*
X156563553Y-92710000D01*
X155856447Y-92710000D01*
X154578394Y-91431946D01*
X154437220Y-91631943D01*
X154306934Y-91883386D01*
X154212103Y-92150215D01*
X154154488Y-92427473D01*
X154135162Y-92709999D01*
X126288566Y-92709999D01*
X126244496Y-92682712D01*
X126158469Y-92649385D01*
X126043947Y-92605019D01*
X125832536Y-92565500D01*
X125617464Y-92565500D01*
X125406053Y-92605018D01*
X125406053Y-92605019D01*
X125205503Y-92682712D01*
X125022646Y-92795932D01*
X124863704Y-92940828D01*
X124734093Y-93112460D01*
X124638230Y-93304981D01*
X124588766Y-93478828D01*
X124559840Y-93529833D01*
X124510712Y-93561844D01*
X124452368Y-93567704D01*
X124397856Y-93546101D01*
X124359364Y-93501867D01*
X124345500Y-93444893D01*
X124345500Y-92800345D01*
X124330385Y-92724359D01*
X124330385Y-92724358D01*
X124272810Y-92638190D01*
X124186642Y-92580615D01*
X124186641Y-92580614D01*
X124186640Y-92580614D01*
X124110655Y-92565500D01*
X124110654Y-92565500D01*
X122259346Y-92565500D01*
X122259345Y-92565500D01*
X122183359Y-92580614D01*
X122097190Y-92638190D01*
X122039614Y-92724359D01*
X122024500Y-92800345D01*
X122024500Y-94651655D01*
X118835629Y-94651655D01*
X119064560Y-94552216D01*
X119306518Y-94405079D01*
X119386475Y-94340027D01*
X118110000Y-93063553D01*
X116833523Y-94340027D01*
X114882077Y-94340027D01*
X114880303Y-92709999D01*
X116035162Y-92709999D01*
X116054488Y-92992526D01*
X116112103Y-93269784D01*
X116206934Y-93536613D01*
X116337220Y-93788055D01*
X116478394Y-93988052D01*
X117756447Y-92710001D01*
X117756447Y-92710000D01*
X118463553Y-92710000D01*
X119741604Y-93988051D01*
X119882781Y-93788052D01*
X120013065Y-93536613D01*
X120107896Y-93269784D01*
X120165511Y-92992526D01*
X120184837Y-92709999D01*
X120165660Y-92429655D01*
X143177500Y-92429655D01*
X143192614Y-92505640D01*
X143192614Y-92505641D01*
X143192615Y-92505642D01*
X143250190Y-92591810D01*
X143336358Y-92649385D01*
X143347705Y-92651642D01*
X143412345Y-92664500D01*
X143412346Y-92664500D01*
X145443654Y-92664500D01*
X145443655Y-92664500D01*
X145468983Y-92659461D01*
X145519642Y-92649385D01*
X145605810Y-92591810D01*
X145663385Y-92505642D01*
X145678500Y-92429654D01*
X145678500Y-90674000D01*
X148168000Y-90674000D01*
X148168000Y-91470584D01*
X148183238Y-91639894D01*
X148243576Y-91858522D01*
X148341980Y-92062862D01*
X148475297Y-92246356D01*
X148639226Y-92403089D01*
X148828513Y-92528035D01*
X149037062Y-92617174D01*
X149177999Y-92649342D01*
X149178000Y-92649343D01*
X149178000Y-90674000D01*
X149678000Y-90674000D01*
X149678000Y-92651642D01*
X149709510Y-92647373D01*
X149925211Y-92577288D01*
X150124939Y-92469810D01*
X150302257Y-92328404D01*
X150451481Y-92157604D01*
X150567809Y-91962903D01*
X150647504Y-91750559D01*
X150688000Y-91527404D01*
X150688000Y-91079971D01*
X154933523Y-91079971D01*
X156210000Y-92356447D01*
X156210001Y-92356447D01*
X157486475Y-91079971D01*
X157406517Y-91014920D01*
X157164560Y-90867783D01*
X156904823Y-90754963D01*
X156632135Y-90678559D01*
X156351592Y-90640000D01*
X156068408Y-90640000D01*
X155787864Y-90678559D01*
X155515176Y-90754963D01*
X155255439Y-90867783D01*
X155013483Y-91014920D01*
X154933523Y-91079971D01*
X150688000Y-91079971D01*
X150688000Y-90674000D01*
X149678000Y-90674000D01*
X149178000Y-90674000D01*
X148168000Y-90674000D01*
X145678500Y-90674000D01*
X145678500Y-90174000D01*
X148168000Y-90174000D01*
X149178000Y-90174000D01*
X149178000Y-88198657D01*
X149678000Y-88198657D01*
X149678000Y-90174000D01*
X150688000Y-90174000D01*
X150688000Y-89377416D01*
X150672761Y-89208105D01*
X150612423Y-88989477D01*
X150514019Y-88785137D01*
X150380702Y-88601643D01*
X150216773Y-88444910D01*
X150027486Y-88319964D01*
X149818937Y-88230825D01*
X149678000Y-88198657D01*
X149178000Y-88198657D01*
X149178000Y-88196357D01*
X149146489Y-88200626D01*
X148930788Y-88270711D01*
X148731060Y-88378189D01*
X148553742Y-88519595D01*
X148404518Y-88690395D01*
X148288190Y-88885096D01*
X148208495Y-89097440D01*
X148168000Y-89320596D01*
X148168000Y-90174000D01*
X145678500Y-90174000D01*
X145678500Y-88418346D01*
X145663385Y-88342358D01*
X145605810Y-88256190D01*
X145519642Y-88198615D01*
X145519641Y-88198614D01*
X145519640Y-88198614D01*
X145443655Y-88183500D01*
X145443654Y-88183500D01*
X143412346Y-88183500D01*
X143412345Y-88183500D01*
X143336359Y-88198614D01*
X143250190Y-88256190D01*
X143192614Y-88342359D01*
X143177500Y-88418345D01*
X143177500Y-92429655D01*
X120165660Y-92429655D01*
X120165511Y-92427473D01*
X120107896Y-92150215D01*
X120013065Y-91883386D01*
X119882779Y-91631944D01*
X119741605Y-91431947D01*
X118463553Y-92710000D01*
X117756447Y-92710000D01*
X116478394Y-91431946D01*
X116337220Y-91631943D01*
X116206934Y-91883386D01*
X116112103Y-92150215D01*
X116054488Y-92427473D01*
X116035162Y-92709999D01*
X114880303Y-92709999D01*
X114878529Y-91079971D01*
X116833523Y-91079971D01*
X118110000Y-92356447D01*
X118110001Y-92356447D01*
X119382047Y-91084399D01*
X134925792Y-91084399D01*
X134946531Y-91241919D01*
X135007329Y-91388701D01*
X135007330Y-91388703D01*
X135007331Y-91388704D01*
X135104050Y-91514750D01*
X135230096Y-91611469D01*
X135376881Y-91672269D01*
X135534400Y-91693007D01*
X135691919Y-91672269D01*
X135838704Y-91611469D01*
X135964750Y-91514750D01*
X136061469Y-91388704D01*
X136122269Y-91241919D01*
X136143007Y-91084400D01*
X136122269Y-90926881D01*
X136061469Y-90780097D01*
X136013109Y-90717073D01*
X135964751Y-90654051D01*
X135964750Y-90654050D01*
X135838704Y-90557331D01*
X135838703Y-90557330D01*
X135838701Y-90557329D01*
X135691919Y-90496531D01*
X135534399Y-90475792D01*
X135376880Y-90496531D01*
X135230096Y-90557331D01*
X135104049Y-90654049D01*
X135007331Y-90780096D01*
X134946531Y-90926880D01*
X134925792Y-91084399D01*
X119382047Y-91084399D01*
X119386475Y-91079971D01*
X119306517Y-91014920D01*
X119064560Y-90867783D01*
X118804823Y-90754963D01*
X118532135Y-90678559D01*
X118251592Y-90640000D01*
X117968408Y-90640000D01*
X117687864Y-90678559D01*
X117415176Y-90754963D01*
X117155439Y-90867783D01*
X116913483Y-91014920D01*
X116833523Y-91079971D01*
X114878529Y-91079971D01*
X114876489Y-89204799D01*
X136119592Y-89204799D01*
X136140331Y-89362319D01*
X136201129Y-89509101D01*
X136201130Y-89509103D01*
X136201131Y-89509104D01*
X136297850Y-89635150D01*
X136423896Y-89731869D01*
X136570681Y-89792669D01*
X136728200Y-89813407D01*
X136885719Y-89792669D01*
X137032504Y-89731869D01*
X137158550Y-89635150D01*
X137255269Y-89509104D01*
X137316069Y-89362319D01*
X137336807Y-89204800D01*
X137316069Y-89047281D01*
X137255269Y-88900497D01*
X137206909Y-88837473D01*
X137158551Y-88774451D01*
X137158550Y-88774450D01*
X137032504Y-88677731D01*
X137032503Y-88677730D01*
X137032501Y-88677729D01*
X136885719Y-88616931D01*
X136728199Y-88596192D01*
X136570680Y-88616931D01*
X136423896Y-88677731D01*
X136297849Y-88774449D01*
X136201131Y-88900496D01*
X136140331Y-89047280D01*
X136119592Y-89204799D01*
X114876489Y-89204799D01*
X114874775Y-87629999D01*
X152172392Y-87629999D01*
X152193131Y-87787519D01*
X152253929Y-87934301D01*
X152253930Y-87934303D01*
X152253931Y-87934304D01*
X152350650Y-88060350D01*
X152476696Y-88157069D01*
X152623481Y-88217869D01*
X152781000Y-88238607D01*
X152938519Y-88217869D01*
X153085304Y-88157069D01*
X153211350Y-88060350D01*
X153308069Y-87934304D01*
X153368869Y-87787519D01*
X153389607Y-87630000D01*
X153368869Y-87472481D01*
X153308069Y-87325697D01*
X153211350Y-87199650D01*
X153085304Y-87102931D01*
X153085303Y-87102930D01*
X153085301Y-87102929D01*
X152938519Y-87042131D01*
X152780999Y-87021392D01*
X152623480Y-87042131D01*
X152476696Y-87102931D01*
X152350649Y-87199649D01*
X152253931Y-87325696D01*
X152193131Y-87472480D01*
X152172392Y-87629999D01*
X114874775Y-87629999D01*
X114873835Y-86766399D01*
X157811192Y-86766399D01*
X157831931Y-86923919D01*
X157892729Y-87070701D01*
X157892730Y-87070703D01*
X157892731Y-87070704D01*
X157989450Y-87196750D01*
X158115496Y-87293469D01*
X158262281Y-87354269D01*
X158419800Y-87375007D01*
X158577319Y-87354269D01*
X158724104Y-87293469D01*
X158850150Y-87196750D01*
X158946869Y-87070704D01*
X159007669Y-86923919D01*
X159028407Y-86766400D01*
X159007669Y-86608881D01*
X158946869Y-86462097D01*
X158850150Y-86336050D01*
X158724104Y-86239331D01*
X158724103Y-86239330D01*
X158724101Y-86239329D01*
X158577319Y-86178531D01*
X158419799Y-86157792D01*
X158262280Y-86178531D01*
X158115496Y-86239331D01*
X157989449Y-86336049D01*
X157892731Y-86462096D01*
X157831931Y-86608880D01*
X157811192Y-86766399D01*
X114873835Y-86766399D01*
X114872305Y-85360084D01*
X116348544Y-85360084D01*
X116415050Y-85406652D01*
X116616450Y-85500567D01*
X116831103Y-85558083D01*
X117052476Y-85577451D01*
X117273850Y-85558083D01*
X117488503Y-85500567D01*
X117689900Y-85406653D01*
X117756408Y-85360084D01*
X117724579Y-85328255D01*
X120791977Y-85328255D01*
X120807091Y-85404240D01*
X120807091Y-85404241D01*
X120807092Y-85404242D01*
X120864667Y-85490410D01*
X120950835Y-85547985D01*
X120988828Y-85555542D01*
X121026822Y-85563100D01*
X121026823Y-85563100D01*
X123078131Y-85563100D01*
X123078132Y-85563100D01*
X123103460Y-85558061D01*
X123154119Y-85547985D01*
X123240287Y-85490410D01*
X123253257Y-85470999D01*
X152045392Y-85470999D01*
X152066131Y-85628519D01*
X152126929Y-85775301D01*
X152126930Y-85775303D01*
X152126931Y-85775304D01*
X152223650Y-85901350D01*
X152349696Y-85998069D01*
X152496481Y-86058869D01*
X152654000Y-86079607D01*
X152811519Y-86058869D01*
X152958304Y-85998069D01*
X153084350Y-85901350D01*
X153181069Y-85775304D01*
X153241869Y-85628519D01*
X153262607Y-85471000D01*
X153241869Y-85313481D01*
X153181069Y-85166697D01*
X153084350Y-85040650D01*
X152958304Y-84943931D01*
X152958303Y-84943930D01*
X152958301Y-84943929D01*
X152811519Y-84883131D01*
X152653999Y-84862392D01*
X152496480Y-84883131D01*
X152349696Y-84943931D01*
X152223649Y-85040649D01*
X152126931Y-85166696D01*
X152066131Y-85313480D01*
X152045392Y-85470999D01*
X123253257Y-85470999D01*
X123297862Y-85404242D01*
X123312977Y-85328254D01*
X123312977Y-84353399D01*
X142088592Y-84353399D01*
X142109331Y-84510919D01*
X142170129Y-84657701D01*
X142170130Y-84657703D01*
X142170131Y-84657704D01*
X142266850Y-84783750D01*
X142392896Y-84880469D01*
X142392897Y-84880469D01*
X142392898Y-84880470D01*
X142426150Y-84894243D01*
X142539681Y-84941269D01*
X142697200Y-84962007D01*
X142854719Y-84941269D01*
X143001504Y-84880469D01*
X143127550Y-84783750D01*
X143224269Y-84657704D01*
X143285069Y-84510919D01*
X143305807Y-84353400D01*
X143305807Y-84353399D01*
X146304992Y-84353399D01*
X146325731Y-84510919D01*
X146386529Y-84657701D01*
X146386530Y-84657703D01*
X146386531Y-84657704D01*
X146483250Y-84783750D01*
X146609296Y-84880469D01*
X146609297Y-84880469D01*
X146609298Y-84880470D01*
X146642550Y-84894243D01*
X146756081Y-84941269D01*
X146913600Y-84962007D01*
X147071119Y-84941269D01*
X147217904Y-84880469D01*
X147343950Y-84783750D01*
X147440669Y-84657704D01*
X147501469Y-84510919D01*
X147522207Y-84353400D01*
X147501469Y-84195881D01*
X147440669Y-84049097D01*
X147392309Y-83986073D01*
X147343951Y-83923051D01*
X147343950Y-83923050D01*
X147217904Y-83826331D01*
X147217903Y-83826330D01*
X147217901Y-83826329D01*
X147071119Y-83765531D01*
X146913599Y-83744792D01*
X146756080Y-83765531D01*
X146609296Y-83826331D01*
X146483249Y-83923049D01*
X146386531Y-84049096D01*
X146325731Y-84195880D01*
X146304992Y-84353399D01*
X143305807Y-84353399D01*
X143285069Y-84195881D01*
X143224269Y-84049097D01*
X143175909Y-83986073D01*
X143127551Y-83923051D01*
X143127550Y-83923050D01*
X143001504Y-83826331D01*
X143001503Y-83826330D01*
X143001501Y-83826329D01*
X142854719Y-83765531D01*
X142697199Y-83744792D01*
X142539680Y-83765531D01*
X142392896Y-83826331D01*
X142266849Y-83923049D01*
X142170131Y-84049096D01*
X142109331Y-84195880D01*
X142088592Y-84353399D01*
X123312977Y-84353399D01*
X123312977Y-83276946D01*
X123297862Y-83200958D01*
X123240287Y-83114790D01*
X123154119Y-83057215D01*
X123154118Y-83057214D01*
X123154117Y-83057214D01*
X123078132Y-83042100D01*
X123078131Y-83042100D01*
X121026823Y-83042100D01*
X121026822Y-83042100D01*
X120950836Y-83057214D01*
X120864667Y-83114790D01*
X120807091Y-83200959D01*
X120791977Y-83276945D01*
X120791977Y-85328255D01*
X117724579Y-85328255D01*
X117052478Y-84656153D01*
X117052477Y-84656153D01*
X116348544Y-85360084D01*
X114872305Y-85360084D01*
X114871154Y-84302599D01*
X115777625Y-84302599D01*
X115796993Y-84523973D01*
X115854509Y-84738626D01*
X115948424Y-84940027D01*
X115994990Y-85006530D01*
X115994992Y-85006531D01*
X116698923Y-84302601D01*
X117406030Y-84302601D01*
X118109961Y-85006531D01*
X118156530Y-84940023D01*
X118250444Y-84738626D01*
X118307960Y-84523973D01*
X118327328Y-84302599D01*
X118307960Y-84081226D01*
X118250444Y-83866573D01*
X118156529Y-83665173D01*
X118109961Y-83598668D01*
X118109961Y-83598667D01*
X117406030Y-84302600D01*
X117406030Y-84302601D01*
X116698923Y-84302601D01*
X116698923Y-84302600D01*
X115994991Y-83598668D01*
X115948423Y-83665175D01*
X115854509Y-83866573D01*
X115796993Y-84081226D01*
X115777625Y-84302599D01*
X114871154Y-84302599D01*
X114870003Y-83245114D01*
X116348544Y-83245114D01*
X117052475Y-83949046D01*
X117052476Y-83949046D01*
X117756408Y-83245114D01*
X117756407Y-83245113D01*
X117689904Y-83198547D01*
X117488503Y-83104632D01*
X117273850Y-83047116D01*
X117052477Y-83027748D01*
X116831103Y-83047116D01*
X116616450Y-83104632D01*
X116415052Y-83198546D01*
X116348544Y-83245114D01*
X114870003Y-83245114D01*
X114865930Y-79501999D01*
X124232392Y-79501999D01*
X124253131Y-79659519D01*
X124313929Y-79806301D01*
X124313930Y-79806303D01*
X124313931Y-79806304D01*
X124410650Y-79932350D01*
X124536696Y-80029069D01*
X124683481Y-80089869D01*
X124841000Y-80110607D01*
X124998519Y-80089869D01*
X125145304Y-80029069D01*
X125271350Y-79932350D01*
X125368069Y-79806304D01*
X125428869Y-79659519D01*
X125449607Y-79502000D01*
X125449607Y-79501999D01*
X126137392Y-79501999D01*
X126158131Y-79659519D01*
X126218929Y-79806301D01*
X126218930Y-79806303D01*
X126218931Y-79806304D01*
X126315650Y-79932350D01*
X126441696Y-80029069D01*
X126588481Y-80089869D01*
X126746000Y-80110607D01*
X126903519Y-80089869D01*
X127050304Y-80029069D01*
X127176350Y-79932350D01*
X127273069Y-79806304D01*
X127289906Y-79765655D01*
X150892823Y-79765655D01*
X150907937Y-79841640D01*
X150907937Y-79841641D01*
X150907938Y-79841642D01*
X150965513Y-79927810D01*
X151051681Y-79985385D01*
X151089675Y-79992942D01*
X151127668Y-80000500D01*
X151127669Y-80000500D01*
X153178977Y-80000500D01*
X153178978Y-80000500D01*
X153204306Y-79995461D01*
X153254965Y-79985385D01*
X153341133Y-79927810D01*
X153398708Y-79841642D01*
X153407492Y-79797484D01*
X156449390Y-79797484D01*
X156515896Y-79844052D01*
X156717296Y-79937967D01*
X156931949Y-79995483D01*
X157153323Y-80014851D01*
X157374696Y-79995483D01*
X157589349Y-79937967D01*
X157790746Y-79844053D01*
X157857254Y-79797484D01*
X157153324Y-79093553D01*
X157153323Y-79093553D01*
X156449390Y-79797484D01*
X153407492Y-79797484D01*
X153413823Y-79765654D01*
X153413823Y-78740000D01*
X155878471Y-78740000D01*
X155897839Y-78961373D01*
X155955355Y-79176026D01*
X156049270Y-79377427D01*
X156095836Y-79443930D01*
X156095838Y-79443931D01*
X156799769Y-78740001D01*
X157506876Y-78740001D01*
X158210807Y-79443931D01*
X158257376Y-79377423D01*
X158351290Y-79176026D01*
X158408806Y-78961373D01*
X158428174Y-78740000D01*
X158408806Y-78518626D01*
X158351290Y-78303973D01*
X158257375Y-78102573D01*
X158210807Y-78036068D01*
X158210807Y-78036067D01*
X157506876Y-78740000D01*
X157506876Y-78740001D01*
X156799769Y-78740001D01*
X156799769Y-78739999D01*
X156095837Y-78036067D01*
X156049269Y-78102575D01*
X155955355Y-78303973D01*
X155897839Y-78518626D01*
X155878471Y-78740000D01*
X153413823Y-78740000D01*
X153413823Y-77714346D01*
X153407491Y-77682514D01*
X156449391Y-77682514D01*
X157153323Y-78386446D01*
X157153324Y-78386446D01*
X157857254Y-77682515D01*
X157857253Y-77682513D01*
X157790750Y-77635947D01*
X157589349Y-77542032D01*
X157374696Y-77484516D01*
X157153323Y-77465148D01*
X156931949Y-77484516D01*
X156717296Y-77542032D01*
X156515898Y-77635946D01*
X156449391Y-77682514D01*
X153407491Y-77682514D01*
X153398708Y-77638358D01*
X153341133Y-77552190D01*
X153254965Y-77494615D01*
X153254964Y-77494614D01*
X153254963Y-77494614D01*
X153178978Y-77479500D01*
X153178977Y-77479500D01*
X151127669Y-77479500D01*
X151127668Y-77479500D01*
X151051682Y-77494614D01*
X150965513Y-77552190D01*
X150907937Y-77638359D01*
X150892823Y-77714345D01*
X150892823Y-79765655D01*
X127289906Y-79765655D01*
X127333869Y-79659519D01*
X127354607Y-79502000D01*
X127333869Y-79344481D01*
X127273069Y-79197697D01*
X127176350Y-79071650D01*
X127050304Y-78974931D01*
X127050303Y-78974930D01*
X127050301Y-78974929D01*
X126903519Y-78914131D01*
X126745999Y-78893392D01*
X126588480Y-78914131D01*
X126441696Y-78974931D01*
X126315649Y-79071649D01*
X126218931Y-79197696D01*
X126158131Y-79344480D01*
X126137392Y-79501999D01*
X125449607Y-79501999D01*
X125428869Y-79344481D01*
X125368069Y-79197697D01*
X125271350Y-79071650D01*
X125145304Y-78974931D01*
X125145303Y-78974930D01*
X125145301Y-78974929D01*
X124998519Y-78914131D01*
X124840999Y-78893392D01*
X124683480Y-78914131D01*
X124536696Y-78974931D01*
X124410649Y-79071649D01*
X124313931Y-79197696D01*
X124253131Y-79344480D01*
X124232392Y-79501999D01*
X114865930Y-79501999D01*
X114860679Y-74675999D01*
X128677392Y-74675999D01*
X128698131Y-74833519D01*
X128758929Y-74980301D01*
X128758930Y-74980303D01*
X128758931Y-74980304D01*
X128855650Y-75106350D01*
X128981696Y-75203069D01*
X129128481Y-75263869D01*
X129286000Y-75284607D01*
X129443519Y-75263869D01*
X129590304Y-75203069D01*
X129716350Y-75106350D01*
X129813069Y-74980304D01*
X129873869Y-74833519D01*
X129894607Y-74676000D01*
X129873869Y-74518481D01*
X129813069Y-74371697D01*
X129716350Y-74245650D01*
X129590304Y-74148931D01*
X129590303Y-74148930D01*
X129590301Y-74148929D01*
X129443519Y-74088131D01*
X129285999Y-74067392D01*
X129128480Y-74088131D01*
X128981696Y-74148931D01*
X128855649Y-74245649D01*
X128758931Y-74371696D01*
X128698131Y-74518480D01*
X128677392Y-74675999D01*
X114860679Y-74675999D01*
X114857224Y-71500999D01*
X126137392Y-71500999D01*
X126158131Y-71658519D01*
X126218929Y-71805301D01*
X126218930Y-71805303D01*
X126218931Y-71805304D01*
X126315650Y-71931350D01*
X126441696Y-72028069D01*
X126588481Y-72088869D01*
X126746000Y-72109607D01*
X126903519Y-72088869D01*
X127050304Y-72028069D01*
X127176350Y-71931350D01*
X127273069Y-71805304D01*
X127333869Y-71658519D01*
X127354607Y-71501000D01*
X127333869Y-71343481D01*
X127273069Y-71196697D01*
X127176350Y-71070650D01*
X127050304Y-70973931D01*
X127050303Y-70973930D01*
X127050301Y-70973929D01*
X126903519Y-70913131D01*
X126745999Y-70892392D01*
X126588480Y-70913131D01*
X126441696Y-70973931D01*
X126315649Y-71070649D01*
X126218931Y-71196696D01*
X126158131Y-71343480D01*
X126137392Y-71500999D01*
X114857224Y-71500999D01*
X114856533Y-70865999D01*
X118517392Y-70865999D01*
X118538131Y-71023519D01*
X118598929Y-71170301D01*
X118598930Y-71170303D01*
X118598931Y-71170304D01*
X118695650Y-71296350D01*
X118821696Y-71393069D01*
X118968481Y-71453869D01*
X119126000Y-71474607D01*
X119283519Y-71453869D01*
X119430304Y-71393069D01*
X119556350Y-71296350D01*
X119653069Y-71170304D01*
X119713869Y-71023519D01*
X119734607Y-70866000D01*
X119717887Y-70738999D01*
X156490392Y-70738999D01*
X156511131Y-70896519D01*
X156571929Y-71043301D01*
X156571930Y-71043303D01*
X156571931Y-71043304D01*
X156668650Y-71169350D01*
X156794696Y-71266069D01*
X156941481Y-71326869D01*
X157099000Y-71347607D01*
X157256519Y-71326869D01*
X157403304Y-71266069D01*
X157529350Y-71169350D01*
X157626069Y-71043304D01*
X157686869Y-70896519D01*
X157707607Y-70739000D01*
X157686869Y-70581481D01*
X157626069Y-70434697D01*
X157529350Y-70308650D01*
X157403304Y-70211931D01*
X157403303Y-70211930D01*
X157403301Y-70211929D01*
X157256519Y-70151131D01*
X157098999Y-70130392D01*
X156941480Y-70151131D01*
X156794696Y-70211931D01*
X156668649Y-70308649D01*
X156571931Y-70434696D01*
X156511131Y-70581480D01*
X156490392Y-70738999D01*
X119717887Y-70738999D01*
X119713869Y-70708481D01*
X119653069Y-70561697D01*
X119604709Y-70498673D01*
X119556351Y-70435651D01*
X119556350Y-70435650D01*
X119430304Y-70338931D01*
X119430303Y-70338930D01*
X119430301Y-70338929D01*
X119283519Y-70278131D01*
X119125999Y-70257392D01*
X118968480Y-70278131D01*
X118821696Y-70338931D01*
X118695649Y-70435649D01*
X118598931Y-70561696D01*
X118538131Y-70708480D01*
X118517392Y-70865999D01*
X114856533Y-70865999D01*
X114855427Y-69849999D01*
X123089392Y-69849999D01*
X123110131Y-70007519D01*
X123170929Y-70154301D01*
X123170930Y-70154303D01*
X123170931Y-70154304D01*
X123267650Y-70280350D01*
X123393696Y-70377069D01*
X123540481Y-70437869D01*
X123698000Y-70458607D01*
X123855519Y-70437869D01*
X124002304Y-70377069D01*
X124128350Y-70280350D01*
X124225069Y-70154304D01*
X124285869Y-70007519D01*
X124306607Y-69850000D01*
X124285869Y-69692481D01*
X124225069Y-69545697D01*
X124176709Y-69482673D01*
X124128351Y-69419651D01*
X124128350Y-69419650D01*
X124002304Y-69322931D01*
X124002303Y-69322930D01*
X124002301Y-69322929D01*
X123855519Y-69262131D01*
X123708686Y-69242799D01*
X153922592Y-69242799D01*
X153943331Y-69400319D01*
X154004129Y-69547101D01*
X154004130Y-69547103D01*
X154004131Y-69547104D01*
X154100850Y-69673150D01*
X154226896Y-69769869D01*
X154373681Y-69830669D01*
X154531200Y-69851407D01*
X154688719Y-69830669D01*
X154835504Y-69769869D01*
X154961550Y-69673150D01*
X155058269Y-69547104D01*
X155119069Y-69400319D01*
X155139807Y-69242800D01*
X155119069Y-69085281D01*
X155058269Y-68938497D01*
X154980194Y-68836747D01*
X154961551Y-68812451D01*
X154961550Y-68812450D01*
X154835504Y-68715731D01*
X154835503Y-68715730D01*
X154835501Y-68715729D01*
X154688719Y-68654931D01*
X154531199Y-68634192D01*
X154373680Y-68654931D01*
X154226896Y-68715731D01*
X154100849Y-68812449D01*
X154004131Y-68938496D01*
X153943331Y-69085280D01*
X153922592Y-69242799D01*
X123708686Y-69242799D01*
X123697999Y-69241392D01*
X123540480Y-69262131D01*
X123393696Y-69322931D01*
X123267649Y-69419649D01*
X123170931Y-69545696D01*
X123110131Y-69692480D01*
X123089392Y-69849999D01*
X114855427Y-69849999D01*
X114851668Y-66395599D01*
X126899392Y-66395599D01*
X126920131Y-66553119D01*
X126980929Y-66699901D01*
X126980930Y-66699903D01*
X126980931Y-66699904D01*
X127052257Y-66792858D01*
X127065730Y-66810415D01*
X127088415Y-66859063D01*
X127088415Y-66912740D01*
X127065730Y-66961388D01*
X127031731Y-67005696D01*
X126970931Y-67152480D01*
X126950192Y-67309999D01*
X126970931Y-67467519D01*
X127031729Y-67614301D01*
X127031730Y-67614303D01*
X127031731Y-67614304D01*
X127128450Y-67740350D01*
X127254496Y-67837069D01*
X127401281Y-67897869D01*
X127538060Y-67915876D01*
X127558799Y-67918607D01*
X127558799Y-67918606D01*
X127558800Y-67918607D01*
X127716319Y-67897869D01*
X127863104Y-67837069D01*
X127989150Y-67740350D01*
X128085869Y-67614304D01*
X128146669Y-67467519D01*
X128167407Y-67310000D01*
X128146669Y-67152481D01*
X128106705Y-67055999D01*
X138583392Y-67055999D01*
X138604131Y-67213519D01*
X138664929Y-67360301D01*
X138664930Y-67360303D01*
X138664931Y-67360304D01*
X138761650Y-67486350D01*
X138887696Y-67583069D01*
X139034481Y-67643869D01*
X139171261Y-67661876D01*
X139191999Y-67664607D01*
X139191999Y-67664606D01*
X139192000Y-67664607D01*
X139349519Y-67643869D01*
X139496304Y-67583069D01*
X139622350Y-67486350D01*
X139719069Y-67360304D01*
X139779869Y-67213519D01*
X139800607Y-67056000D01*
X139783887Y-66929000D01*
X155575000Y-66929000D01*
X155575000Y-69342000D01*
X157935894Y-69342000D01*
X157895931Y-69438480D01*
X157875192Y-69595999D01*
X157895931Y-69753519D01*
X157956729Y-69900301D01*
X157956730Y-69900303D01*
X157956731Y-69900304D01*
X158053450Y-70026350D01*
X158179496Y-70123069D01*
X158326281Y-70183869D01*
X158483800Y-70204607D01*
X158641319Y-70183869D01*
X158788104Y-70123069D01*
X158914150Y-70026350D01*
X159010869Y-69900304D01*
X159071669Y-69753519D01*
X159092407Y-69596000D01*
X159071669Y-69438481D01*
X159010869Y-69291697D01*
X158914150Y-69165650D01*
X158788104Y-69068931D01*
X158788103Y-69068930D01*
X158788101Y-69068929D01*
X158641319Y-69008131D01*
X158483799Y-68987392D01*
X158326280Y-69008131D01*
X158179496Y-69068931D01*
X158053449Y-69165649D01*
X157988000Y-69250945D01*
X157988000Y-66929000D01*
X155575000Y-66929000D01*
X139783887Y-66929000D01*
X139779869Y-66898481D01*
X139719069Y-66751697D01*
X139622350Y-66625650D01*
X139496304Y-66528931D01*
X139496303Y-66528930D01*
X139496301Y-66528929D01*
X139349519Y-66468131D01*
X139191999Y-66447392D01*
X139034480Y-66468131D01*
X138887696Y-66528931D01*
X138761649Y-66625649D01*
X138664931Y-66751696D01*
X138604131Y-66898480D01*
X138583392Y-67055999D01*
X128106705Y-67055999D01*
X128085869Y-67005697D01*
X128001066Y-66895180D01*
X127978384Y-66846536D01*
X127978385Y-66792858D01*
X128001070Y-66744212D01*
X128035069Y-66699904D01*
X128095869Y-66553119D01*
X128116607Y-66395600D01*
X128095869Y-66238081D01*
X128035069Y-66091297D01*
X127938350Y-65965250D01*
X127812304Y-65868531D01*
X127812303Y-65868530D01*
X127812301Y-65868529D01*
X127723142Y-65831599D01*
X157200192Y-65831599D01*
X157220931Y-65989119D01*
X157281729Y-66135901D01*
X157281730Y-66135903D01*
X157281731Y-66135904D01*
X157378450Y-66261950D01*
X157504496Y-66358669D01*
X157651281Y-66419469D01*
X157788061Y-66437476D01*
X157808799Y-66440207D01*
X157808799Y-66440206D01*
X157808800Y-66440207D01*
X157966319Y-66419469D01*
X158113104Y-66358669D01*
X158239150Y-66261950D01*
X158335869Y-66135904D01*
X158396669Y-65989119D01*
X158417407Y-65831600D01*
X158396669Y-65674081D01*
X158335869Y-65527297D01*
X158239150Y-65401250D01*
X158113104Y-65304531D01*
X158113103Y-65304530D01*
X158113101Y-65304529D01*
X157966319Y-65243731D01*
X157808799Y-65222992D01*
X157651280Y-65243731D01*
X157504496Y-65304531D01*
X157378449Y-65401249D01*
X157281731Y-65527296D01*
X157220931Y-65674080D01*
X157200192Y-65831599D01*
X127723142Y-65831599D01*
X127665519Y-65807731D01*
X127507999Y-65786992D01*
X127350480Y-65807731D01*
X127203696Y-65868531D01*
X127077649Y-65965249D01*
X126980931Y-66091296D01*
X126920131Y-66238080D01*
X126899392Y-66395599D01*
X114851668Y-66395599D01*
X114849349Y-64264399D01*
X152701392Y-64264399D01*
X152722131Y-64421919D01*
X152782929Y-64568701D01*
X152782930Y-64568703D01*
X152782931Y-64568704D01*
X152879650Y-64694750D01*
X153005696Y-64791469D01*
X153152481Y-64852269D01*
X153289260Y-64870276D01*
X153309999Y-64873007D01*
X153309999Y-64873006D01*
X153310000Y-64873007D01*
X153467519Y-64852269D01*
X153614304Y-64791469D01*
X153740350Y-64694750D01*
X153837069Y-64568704D01*
X153897869Y-64421919D01*
X153918607Y-64264400D01*
X153897869Y-64106881D01*
X153837069Y-63960097D01*
X153740350Y-63834050D01*
X153614304Y-63737331D01*
X153614303Y-63737330D01*
X153614301Y-63737329D01*
X153467519Y-63676531D01*
X153309999Y-63655792D01*
X153152480Y-63676531D01*
X153005696Y-63737331D01*
X152879649Y-63834049D01*
X152782931Y-63960096D01*
X152722131Y-64106880D01*
X152701392Y-64264399D01*
X114849349Y-64264399D01*
X114847964Y-62991999D01*
X157455592Y-62991999D01*
X157476331Y-63149519D01*
X157537129Y-63296301D01*
X157537130Y-63296303D01*
X157537131Y-63296304D01*
X157633850Y-63422350D01*
X157759896Y-63519069D01*
X157906681Y-63579869D01*
X158064200Y-63600607D01*
X158221719Y-63579869D01*
X158368504Y-63519069D01*
X158494550Y-63422350D01*
X158591269Y-63296304D01*
X158652069Y-63149519D01*
X158672807Y-62992000D01*
X158652069Y-62834481D01*
X158591269Y-62687697D01*
X158494550Y-62561650D01*
X158368504Y-62464931D01*
X158368503Y-62464930D01*
X158368501Y-62464929D01*
X158221719Y-62404131D01*
X158064199Y-62383392D01*
X157906680Y-62404131D01*
X157759896Y-62464931D01*
X157633849Y-62561649D01*
X157537131Y-62687696D01*
X157476331Y-62834480D01*
X157455592Y-62991999D01*
X114847964Y-62991999D01*
X114847135Y-62229999D01*
X147219392Y-62229999D01*
X147240131Y-62387519D01*
X147300929Y-62534301D01*
X147300930Y-62534303D01*
X147300931Y-62534304D01*
X147397650Y-62660350D01*
X147523696Y-62757069D01*
X147670481Y-62817869D01*
X147828000Y-62838607D01*
X147985519Y-62817869D01*
X148132304Y-62757069D01*
X148197017Y-62707412D01*
X148245661Y-62684729D01*
X148299339Y-62684729D01*
X148347982Y-62707412D01*
X148412696Y-62757069D01*
X148559481Y-62817869D01*
X148717000Y-62838607D01*
X148874519Y-62817869D01*
X149021304Y-62757069D01*
X149086017Y-62707412D01*
X149134661Y-62684729D01*
X149188339Y-62684729D01*
X149236982Y-62707412D01*
X149301696Y-62757069D01*
X149448481Y-62817869D01*
X149606000Y-62838607D01*
X149763519Y-62817869D01*
X149910304Y-62757069D01*
X150036350Y-62660350D01*
X150133069Y-62534304D01*
X150193869Y-62387519D01*
X150214607Y-62230000D01*
X150193869Y-62072481D01*
X150133069Y-61925697D01*
X150084709Y-61862673D01*
X150036351Y-61799651D01*
X150036350Y-61799650D01*
X149910304Y-61702931D01*
X149910303Y-61702930D01*
X149910301Y-61702929D01*
X149763519Y-61642131D01*
X149605999Y-61621392D01*
X149448480Y-61642131D01*
X149301696Y-61702931D01*
X149236984Y-61752585D01*
X149188336Y-61775269D01*
X149134660Y-61775269D01*
X149086013Y-61752584D01*
X149021304Y-61702931D01*
X149021303Y-61702930D01*
X149021301Y-61702929D01*
X148874519Y-61642131D01*
X148716999Y-61621392D01*
X148559480Y-61642131D01*
X148412696Y-61702931D01*
X148347984Y-61752585D01*
X148299336Y-61775269D01*
X148245660Y-61775269D01*
X148197013Y-61752584D01*
X148132304Y-61702931D01*
X148132303Y-61702930D01*
X148132301Y-61702929D01*
X147985519Y-61642131D01*
X147827999Y-61621392D01*
X147670480Y-61642131D01*
X147523696Y-61702931D01*
X147397649Y-61799649D01*
X147300931Y-61925696D01*
X147240131Y-62072480D01*
X147219392Y-62229999D01*
X114847135Y-62229999D01*
X114846306Y-61467999D01*
X118009392Y-61467999D01*
X118030131Y-61625519D01*
X118090929Y-61772301D01*
X118090930Y-61772303D01*
X118090931Y-61772304D01*
X118187650Y-61898350D01*
X118313696Y-61995069D01*
X118460481Y-62055869D01*
X118618000Y-62076607D01*
X118775519Y-62055869D01*
X118922304Y-61995069D01*
X119048350Y-61898350D01*
X119145069Y-61772304D01*
X119205869Y-61625519D01*
X119225106Y-61479399D01*
X128665992Y-61479399D01*
X128686731Y-61636919D01*
X128747529Y-61783701D01*
X128747530Y-61783703D01*
X128747531Y-61783704D01*
X128844250Y-61909750D01*
X128970296Y-62006469D01*
X129117081Y-62067269D01*
X129274600Y-62088007D01*
X129432119Y-62067269D01*
X129578904Y-62006469D01*
X129704950Y-61909750D01*
X129801669Y-61783704D01*
X129862469Y-61636919D01*
X129871332Y-61569599D01*
X134671792Y-61569599D01*
X134692531Y-61727119D01*
X134753329Y-61873901D01*
X134753330Y-61873903D01*
X134753331Y-61873904D01*
X134850050Y-61999950D01*
X134976096Y-62096669D01*
X135122881Y-62157469D01*
X135280400Y-62178207D01*
X135437919Y-62157469D01*
X135584704Y-62096669D01*
X135710750Y-61999950D01*
X135807469Y-61873904D01*
X135868269Y-61727119D01*
X135889007Y-61569600D01*
X135868269Y-61412081D01*
X135807469Y-61265297D01*
X135710750Y-61139250D01*
X135584704Y-61042531D01*
X135584703Y-61042530D01*
X135584701Y-61042529D01*
X135437919Y-60981731D01*
X135280399Y-60960992D01*
X135122880Y-60981731D01*
X134976096Y-61042531D01*
X134850049Y-61139249D01*
X134753331Y-61265296D01*
X134692531Y-61412080D01*
X134671792Y-61569599D01*
X129871332Y-61569599D01*
X129883207Y-61479400D01*
X129862469Y-61321881D01*
X129801669Y-61175097D01*
X129704950Y-61049050D01*
X129578904Y-60952331D01*
X129578903Y-60952330D01*
X129578901Y-60952329D01*
X129432119Y-60891531D01*
X129274599Y-60870792D01*
X129117080Y-60891531D01*
X128970296Y-60952331D01*
X128844249Y-61049049D01*
X128747531Y-61175096D01*
X128686731Y-61321880D01*
X128665992Y-61479399D01*
X119225106Y-61479399D01*
X119226607Y-61468000D01*
X119205869Y-61310481D01*
X119145069Y-61163697D01*
X119057097Y-61049049D01*
X119048351Y-61037651D01*
X119048350Y-61037650D01*
X118922304Y-60940931D01*
X118922303Y-60940930D01*
X118922301Y-60940929D01*
X118775519Y-60880131D01*
X118617999Y-60859392D01*
X118460480Y-60880131D01*
X118313696Y-60940931D01*
X118187649Y-61037649D01*
X118090931Y-61163696D01*
X118030131Y-61310480D01*
X118009392Y-61467999D01*
X114846306Y-61467999D01*
X114843044Y-58470799D01*
X135687792Y-58470799D01*
X135708531Y-58628319D01*
X135769329Y-58775101D01*
X135769330Y-58775103D01*
X135769331Y-58775104D01*
X135866050Y-58901150D01*
X135992096Y-58997869D01*
X136138881Y-59058669D01*
X136296400Y-59079407D01*
X136453919Y-59058669D01*
X136600704Y-58997869D01*
X136726750Y-58901150D01*
X136823469Y-58775104D01*
X136884269Y-58628319D01*
X136905007Y-58470800D01*
X136884269Y-58313281D01*
X136823469Y-58166497D01*
X136747549Y-58067556D01*
X136726751Y-58040451D01*
X136726750Y-58040450D01*
X136600704Y-57943731D01*
X136600703Y-57943730D01*
X136600701Y-57943729D01*
X136453919Y-57882931D01*
X136296399Y-57862192D01*
X136138880Y-57882931D01*
X135992096Y-57943731D01*
X135866049Y-58040449D01*
X135769331Y-58166496D01*
X135708531Y-58313280D01*
X135687792Y-58470799D01*
X114843044Y-58470799D01*
X114841966Y-57479699D01*
X130709392Y-57479699D01*
X130730131Y-57637219D01*
X130790929Y-57784001D01*
X130790930Y-57784003D01*
X130790931Y-57784004D01*
X130887650Y-57910050D01*
X131013696Y-58006769D01*
X131160481Y-58067569D01*
X131318000Y-58088307D01*
X131475519Y-58067569D01*
X131622304Y-58006769D01*
X131748350Y-57910050D01*
X131845069Y-57784004D01*
X131905869Y-57637219D01*
X131912615Y-57585981D01*
X138452210Y-57585981D01*
X138472949Y-57743501D01*
X138533747Y-57890283D01*
X138533748Y-57890285D01*
X138533749Y-57890286D01*
X138630468Y-58016332D01*
X138756514Y-58113051D01*
X138903299Y-58173851D01*
X139060818Y-58194589D01*
X139218337Y-58173851D01*
X139365122Y-58113051D01*
X139491168Y-58016332D01*
X139571226Y-57911999D01*
X140615392Y-57911999D01*
X140636131Y-58069519D01*
X140696929Y-58216301D01*
X140696930Y-58216303D01*
X140696931Y-58216304D01*
X140793650Y-58342350D01*
X140919696Y-58439069D01*
X141066481Y-58499869D01*
X141224000Y-58520607D01*
X141240433Y-58518443D01*
X141296473Y-58523962D01*
X141344297Y-58553699D01*
X141374036Y-58601522D01*
X141379556Y-58657566D01*
X141377392Y-58673998D01*
X141398131Y-58831519D01*
X141458929Y-58978301D01*
X141458930Y-58978303D01*
X141458931Y-58978304D01*
X141555650Y-59104350D01*
X141681696Y-59201069D01*
X141828481Y-59261869D01*
X141986000Y-59282607D01*
X142143519Y-59261869D01*
X142290304Y-59201069D01*
X142416350Y-59104350D01*
X142513069Y-58978304D01*
X142573869Y-58831519D01*
X142594607Y-58674000D01*
X142573869Y-58516481D01*
X142513069Y-58369697D01*
X142416350Y-58243650D01*
X142315154Y-58165999D01*
X151689821Y-58165999D01*
X151699250Y-58243650D01*
X151710458Y-58335957D01*
X151712883Y-58342350D01*
X151771168Y-58496035D01*
X151785280Y-58516480D01*
X151868424Y-58636935D01*
X151996573Y-58750465D01*
X152148167Y-58830028D01*
X152314398Y-58871000D01*
X152485601Y-58871000D01*
X152485602Y-58871000D01*
X152651833Y-58830028D01*
X152803427Y-58750465D01*
X152931576Y-58636935D01*
X153028831Y-58496036D01*
X153089542Y-58335957D01*
X153110178Y-58166000D01*
X153110178Y-58165999D01*
X154610821Y-58165999D01*
X154620250Y-58243650D01*
X154631458Y-58335957D01*
X154633883Y-58342350D01*
X154692168Y-58496035D01*
X154706280Y-58516480D01*
X154789424Y-58636935D01*
X154917573Y-58750465D01*
X155069167Y-58830028D01*
X155235398Y-58871000D01*
X155406601Y-58871000D01*
X155406602Y-58871000D01*
X155572833Y-58830028D01*
X155724427Y-58750465D01*
X155852576Y-58636935D01*
X155949831Y-58496036D01*
X156010542Y-58335957D01*
X156031178Y-58166000D01*
X156010542Y-57996043D01*
X155949831Y-57835964D01*
X155852576Y-57695065D01*
X155724427Y-57581535D01*
X155724425Y-57581534D01*
X155724424Y-57581533D01*
X155572834Y-57501972D01*
X155482467Y-57479699D01*
X155406602Y-57461000D01*
X155235398Y-57461000D01*
X155179987Y-57474657D01*
X155069165Y-57501972D01*
X154917575Y-57581533D01*
X154789423Y-57695066D01*
X154692168Y-57835964D01*
X154631458Y-57996043D01*
X154610821Y-58165999D01*
X153110178Y-58165999D01*
X153089542Y-57996043D01*
X153028831Y-57835964D01*
X152931576Y-57695065D01*
X152803427Y-57581535D01*
X152803425Y-57581534D01*
X152803424Y-57581533D01*
X152651834Y-57501972D01*
X152561467Y-57479699D01*
X152485602Y-57461000D01*
X152314398Y-57461000D01*
X152258987Y-57474657D01*
X152148165Y-57501972D01*
X151996575Y-57581533D01*
X151868423Y-57695066D01*
X151771168Y-57835964D01*
X151710458Y-57996043D01*
X151689821Y-58165999D01*
X142315154Y-58165999D01*
X142290304Y-58146931D01*
X142290303Y-58146930D01*
X142290301Y-58146929D01*
X142143519Y-58086131D01*
X141985998Y-58065392D01*
X141969566Y-58067556D01*
X141913522Y-58062036D01*
X141865699Y-58032297D01*
X141835962Y-57984473D01*
X141830443Y-57928433D01*
X141832607Y-57912000D01*
X141811869Y-57754481D01*
X141751069Y-57607697D01*
X141654350Y-57481650D01*
X141528304Y-57384931D01*
X141528303Y-57384930D01*
X141528301Y-57384929D01*
X141381519Y-57324131D01*
X141223999Y-57303392D01*
X141066480Y-57324131D01*
X140919696Y-57384931D01*
X140793649Y-57481649D01*
X140696931Y-57607696D01*
X140636131Y-57754480D01*
X140615392Y-57911999D01*
X139571226Y-57911999D01*
X139587887Y-57890286D01*
X139648687Y-57743501D01*
X139669425Y-57585982D01*
X139648687Y-57428463D01*
X139587887Y-57281679D01*
X139506334Y-57175397D01*
X139491169Y-57155633D01*
X139491168Y-57155632D01*
X139365122Y-57058913D01*
X139365121Y-57058912D01*
X139365119Y-57058911D01*
X139218337Y-56998113D01*
X139060817Y-56977374D01*
X138903298Y-56998113D01*
X138756514Y-57058913D01*
X138630467Y-57155631D01*
X138533749Y-57281678D01*
X138472949Y-57428462D01*
X138452210Y-57585981D01*
X131912615Y-57585981D01*
X131926607Y-57479700D01*
X131905869Y-57322181D01*
X131845069Y-57175397D01*
X131838822Y-57160315D01*
X131841481Y-57159213D01*
X131827276Y-57124928D01*
X131835650Y-57061286D01*
X131874725Y-57010359D01*
X131934027Y-56985794D01*
X132009419Y-56975869D01*
X132156204Y-56915069D01*
X132282250Y-56818350D01*
X132378969Y-56692304D01*
X132439769Y-56545519D01*
X132460507Y-56388000D01*
X132439769Y-56230481D01*
X132378969Y-56083697D01*
X132330609Y-56020673D01*
X132282251Y-55957651D01*
X132282250Y-55957650D01*
X132156204Y-55860931D01*
X132156203Y-55860930D01*
X132156201Y-55860929D01*
X132009419Y-55800131D01*
X131851899Y-55779392D01*
X131694380Y-55800131D01*
X131547596Y-55860931D01*
X131421549Y-55957649D01*
X131324831Y-56083696D01*
X131264031Y-56230480D01*
X131243292Y-56387999D01*
X131264031Y-56545519D01*
X131331078Y-56707387D01*
X131328418Y-56708488D01*
X131342623Y-56742777D01*
X131334246Y-56806416D01*
X131295172Y-56857340D01*
X131235871Y-56881905D01*
X131160480Y-56891831D01*
X131013696Y-56952631D01*
X130887649Y-57049349D01*
X130790931Y-57175396D01*
X130730131Y-57322180D01*
X130709392Y-57479699D01*
X114841966Y-57479699D01*
X114840723Y-56337199D01*
X126391392Y-56337199D01*
X126412131Y-56494719D01*
X126472929Y-56641501D01*
X126472930Y-56641503D01*
X126472931Y-56641504D01*
X126569650Y-56767550D01*
X126695696Y-56864269D01*
X126695697Y-56864269D01*
X126695698Y-56864270D01*
X126728950Y-56878043D01*
X126842481Y-56925069D01*
X127000000Y-56945807D01*
X127157519Y-56925069D01*
X127304304Y-56864269D01*
X127430350Y-56767550D01*
X127527069Y-56641504D01*
X127587869Y-56494719D01*
X127608607Y-56337200D01*
X127587869Y-56179681D01*
X127527069Y-56032897D01*
X127461882Y-55947943D01*
X127430351Y-55906851D01*
X127430350Y-55906850D01*
X127304304Y-55810131D01*
X127304303Y-55810130D01*
X127304301Y-55810129D01*
X127157519Y-55749331D01*
X126999999Y-55728592D01*
X126842480Y-55749331D01*
X126695696Y-55810131D01*
X126569649Y-55906849D01*
X126472931Y-56032896D01*
X126412131Y-56179680D01*
X126391392Y-56337199D01*
X114840723Y-56337199D01*
X114839286Y-55016399D01*
X129693392Y-55016399D01*
X129714131Y-55173919D01*
X129774929Y-55320701D01*
X129774930Y-55320703D01*
X129774931Y-55320704D01*
X129871650Y-55446750D01*
X129997696Y-55543469D01*
X130144481Y-55604269D01*
X130302000Y-55625007D01*
X130459519Y-55604269D01*
X130606304Y-55543469D01*
X130732350Y-55446750D01*
X130829069Y-55320704D01*
X130889869Y-55173919D01*
X130910607Y-55016400D01*
X130903919Y-54965599D01*
X133147792Y-54965599D01*
X133168531Y-55123119D01*
X133229329Y-55269901D01*
X133229330Y-55269903D01*
X133229331Y-55269904D01*
X133326050Y-55395950D01*
X133452096Y-55492669D01*
X133452097Y-55492669D01*
X133452098Y-55492670D01*
X133485350Y-55506443D01*
X133598881Y-55553469D01*
X133756400Y-55574207D01*
X133913919Y-55553469D01*
X134060704Y-55492669D01*
X134186750Y-55395950D01*
X134283469Y-55269904D01*
X134344269Y-55123119D01*
X134365007Y-54965600D01*
X134365007Y-54965599D01*
X134722592Y-54965599D01*
X134743331Y-55123119D01*
X134804129Y-55269901D01*
X134804130Y-55269903D01*
X134804131Y-55269904D01*
X134900850Y-55395950D01*
X135026896Y-55492669D01*
X135026897Y-55492669D01*
X135026898Y-55492670D01*
X135060150Y-55506443D01*
X135173681Y-55553469D01*
X135331200Y-55574207D01*
X135488719Y-55553469D01*
X135635504Y-55492669D01*
X135761550Y-55395950D01*
X135784918Y-55365496D01*
X135829908Y-55329063D01*
X135886538Y-55317025D01*
X135942460Y-55332009D01*
X135985484Y-55370748D01*
X136006232Y-55424797D01*
X136013331Y-55478719D01*
X136074129Y-55625501D01*
X136074130Y-55625503D01*
X136074131Y-55625504D01*
X136170850Y-55751550D01*
X136296896Y-55848269D01*
X136431250Y-55903920D01*
X136482172Y-55942993D01*
X136506736Y-56002294D01*
X136498359Y-56065932D01*
X136459284Y-56116855D01*
X136399984Y-56141419D01*
X136291280Y-56155731D01*
X136144496Y-56216531D01*
X136018449Y-56313249D01*
X135921731Y-56439296D01*
X135860931Y-56586080D01*
X135840192Y-56743599D01*
X135860931Y-56901119D01*
X135921729Y-57047901D01*
X135921730Y-57047903D01*
X135921731Y-57047904D01*
X136018450Y-57173950D01*
X136144496Y-57270669D01*
X136291281Y-57331469D01*
X136428060Y-57349476D01*
X136448799Y-57352207D01*
X136448799Y-57352206D01*
X136448800Y-57352207D01*
X136606319Y-57331469D01*
X136753104Y-57270669D01*
X136879150Y-57173950D01*
X136975869Y-57047904D01*
X137036669Y-56901119D01*
X137057407Y-56743600D01*
X137036669Y-56586081D01*
X136975869Y-56439297D01*
X136927509Y-56376273D01*
X136879151Y-56313251D01*
X136879150Y-56313250D01*
X136753104Y-56216531D01*
X136753103Y-56216530D01*
X136753101Y-56216529D01*
X136618750Y-56160880D01*
X136567827Y-56121806D01*
X136551835Y-56083199D01*
X137262592Y-56083199D01*
X137283331Y-56240719D01*
X137344129Y-56387501D01*
X137344130Y-56387503D01*
X137344131Y-56387504D01*
X137440850Y-56513550D01*
X137566896Y-56610269D01*
X137713681Y-56671069D01*
X137871200Y-56691807D01*
X138028719Y-56671069D01*
X138165345Y-56614477D01*
X149177344Y-56614477D01*
X149192923Y-56742777D01*
X149197981Y-56784434D01*
X149210844Y-56818350D01*
X149258691Y-56944512D01*
X149258692Y-56944513D01*
X149355947Y-57085412D01*
X149484096Y-57198942D01*
X149635690Y-57278505D01*
X149801921Y-57319477D01*
X149973124Y-57319477D01*
X149973125Y-57319477D01*
X150139356Y-57278505D01*
X150290950Y-57198942D01*
X150419099Y-57085412D01*
X150516354Y-56944513D01*
X150577065Y-56784434D01*
X150597701Y-56614477D01*
X150577065Y-56444520D01*
X150516354Y-56284441D01*
X150419099Y-56143542D01*
X150290950Y-56030012D01*
X150290948Y-56030011D01*
X150290947Y-56030010D01*
X150139357Y-55950449D01*
X150055608Y-55929807D01*
X149973125Y-55909477D01*
X149801921Y-55909477D01*
X149746510Y-55923134D01*
X149635688Y-55950449D01*
X149484098Y-56030010D01*
X149355946Y-56143543D01*
X149258691Y-56284441D01*
X149197981Y-56444520D01*
X149177344Y-56614477D01*
X138165345Y-56614477D01*
X138175504Y-56610269D01*
X138301550Y-56513550D01*
X138398269Y-56387504D01*
X138459069Y-56240719D01*
X138479807Y-56083200D01*
X138459069Y-55925681D01*
X138398269Y-55778897D01*
X138303221Y-55655028D01*
X138301551Y-55652851D01*
X138301550Y-55652850D01*
X138175504Y-55556131D01*
X138175503Y-55556130D01*
X138175501Y-55556129D01*
X138028719Y-55495331D01*
X137871199Y-55474592D01*
X137713680Y-55495331D01*
X137566896Y-55556131D01*
X137440849Y-55652849D01*
X137344131Y-55778896D01*
X137283331Y-55925680D01*
X137262592Y-56083199D01*
X136551835Y-56083199D01*
X136543263Y-56062505D01*
X136551641Y-55998867D01*
X136590715Y-55947943D01*
X136650015Y-55923380D01*
X136758719Y-55909069D01*
X136905504Y-55848269D01*
X137031550Y-55751550D01*
X137128269Y-55625504D01*
X137189069Y-55478719D01*
X137209807Y-55321200D01*
X137209785Y-55321036D01*
X137207076Y-55300461D01*
X137189069Y-55163681D01*
X137128269Y-55016897D01*
X137108398Y-54991000D01*
X154610821Y-54991000D01*
X154631458Y-55160956D01*
X154692168Y-55321035D01*
X154735811Y-55384264D01*
X154789424Y-55461935D01*
X154917573Y-55575465D01*
X155069167Y-55655028D01*
X155235398Y-55696000D01*
X155406601Y-55696000D01*
X155406602Y-55696000D01*
X155572833Y-55655028D01*
X155724427Y-55575465D01*
X155852576Y-55461935D01*
X155949831Y-55321036D01*
X156010542Y-55160957D01*
X156031178Y-54991000D01*
X156010542Y-54821043D01*
X155949831Y-54660964D01*
X155852576Y-54520065D01*
X155724427Y-54406535D01*
X155724425Y-54406534D01*
X155724424Y-54406533D01*
X155572834Y-54326972D01*
X155489717Y-54306486D01*
X155406602Y-54286000D01*
X155235398Y-54286000D01*
X155179987Y-54299657D01*
X155069165Y-54326972D01*
X154917575Y-54406533D01*
X154789423Y-54520066D01*
X154692168Y-54660964D01*
X154631458Y-54821043D01*
X154610821Y-54991000D01*
X137108398Y-54991000D01*
X137031550Y-54890850D01*
X136905504Y-54794131D01*
X136905503Y-54794130D01*
X136905501Y-54794129D01*
X136758719Y-54733331D01*
X136601199Y-54712592D01*
X136443680Y-54733331D01*
X136296896Y-54794131D01*
X136170850Y-54890849D01*
X136147481Y-54921304D01*
X136102488Y-54957737D01*
X136045859Y-54969773D01*
X135989937Y-54954789D01*
X135946914Y-54916049D01*
X135926167Y-54862002D01*
X135919069Y-54808081D01*
X135858269Y-54661297D01*
X135761550Y-54535250D01*
X135635504Y-54438531D01*
X135635503Y-54438530D01*
X135635501Y-54438529D01*
X135488719Y-54377731D01*
X135331199Y-54356992D01*
X135173680Y-54377731D01*
X135026896Y-54438531D01*
X134900849Y-54535249D01*
X134804131Y-54661296D01*
X134743331Y-54808080D01*
X134722592Y-54965599D01*
X134365007Y-54965599D01*
X134344269Y-54808081D01*
X134283469Y-54661297D01*
X134186750Y-54535250D01*
X134060704Y-54438531D01*
X134060703Y-54438530D01*
X134060701Y-54438529D01*
X133913919Y-54377731D01*
X133756399Y-54356992D01*
X133598880Y-54377731D01*
X133452096Y-54438531D01*
X133326049Y-54535249D01*
X133229331Y-54661296D01*
X133168531Y-54808080D01*
X133147792Y-54965599D01*
X130903919Y-54965599D01*
X130889869Y-54858881D01*
X130829069Y-54712097D01*
X130732350Y-54586050D01*
X130606304Y-54489331D01*
X130606303Y-54489330D01*
X130606301Y-54489329D01*
X130459519Y-54428531D01*
X130301999Y-54407792D01*
X130144480Y-54428531D01*
X129997696Y-54489331D01*
X129871649Y-54586049D01*
X129774931Y-54712096D01*
X129714131Y-54858880D01*
X129693392Y-55016399D01*
X114839286Y-55016399D01*
X114838291Y-54101999D01*
X128169392Y-54101999D01*
X128190131Y-54259519D01*
X128250929Y-54406301D01*
X128250930Y-54406303D01*
X128250931Y-54406304D01*
X128347650Y-54532350D01*
X128473696Y-54629069D01*
X128620481Y-54689869D01*
X128757261Y-54707876D01*
X128777999Y-54710607D01*
X128777999Y-54710606D01*
X128778000Y-54710607D01*
X128935519Y-54689869D01*
X129082304Y-54629069D01*
X129208350Y-54532350D01*
X129305069Y-54406304D01*
X129365869Y-54259519D01*
X129386607Y-54102000D01*
X129365869Y-53944481D01*
X129305069Y-53797697D01*
X129208350Y-53671650D01*
X129082304Y-53574931D01*
X129082303Y-53574930D01*
X129082301Y-53574929D01*
X128935519Y-53514131D01*
X128777999Y-53493392D01*
X128620480Y-53514131D01*
X128473696Y-53574931D01*
X128347649Y-53671649D01*
X128250931Y-53797696D01*
X128190131Y-53944480D01*
X128169392Y-54101999D01*
X114838291Y-54101999D01*
X114837351Y-53238399D01*
X129490192Y-53238399D01*
X129510931Y-53395919D01*
X129571729Y-53542701D01*
X129571730Y-53542703D01*
X129571731Y-53542704D01*
X129668450Y-53668750D01*
X129794496Y-53765469D01*
X129941281Y-53826269D01*
X130098800Y-53847007D01*
X130256319Y-53826269D01*
X130403104Y-53765469D01*
X130529150Y-53668750D01*
X130625869Y-53542704D01*
X130667748Y-53441599D01*
X132588992Y-53441599D01*
X132609731Y-53599119D01*
X132670529Y-53745901D01*
X132670530Y-53745903D01*
X132670531Y-53745904D01*
X132767250Y-53871950D01*
X132893296Y-53968669D01*
X133040081Y-54029469D01*
X133197600Y-54050207D01*
X133355119Y-54029469D01*
X133501904Y-53968669D01*
X133627950Y-53871950D01*
X133724669Y-53745904D01*
X133785469Y-53599119D01*
X133806207Y-53441600D01*
X133785469Y-53284081D01*
X133724669Y-53137297D01*
X133676309Y-53074273D01*
X133627951Y-53011251D01*
X133627950Y-53011250D01*
X133501904Y-52914531D01*
X133501903Y-52914530D01*
X133501901Y-52914529D01*
X133355119Y-52853731D01*
X133197599Y-52832992D01*
X133040080Y-52853731D01*
X132893296Y-52914531D01*
X132767249Y-53011249D01*
X132670531Y-53137296D01*
X132609731Y-53284080D01*
X132588992Y-53441599D01*
X130667748Y-53441599D01*
X130686669Y-53395919D01*
X130707407Y-53238400D01*
X130686669Y-53080881D01*
X130625869Y-52934097D01*
X130564202Y-52853731D01*
X130529151Y-52808051D01*
X130529150Y-52808050D01*
X130403104Y-52711331D01*
X130403103Y-52711330D01*
X130403101Y-52711329D01*
X130256319Y-52650531D01*
X130098799Y-52629792D01*
X129941280Y-52650531D01*
X129794496Y-52711331D01*
X129668449Y-52808049D01*
X129571731Y-52934096D01*
X129510931Y-53080880D01*
X129490192Y-53238399D01*
X114837351Y-53238399D01*
X114836352Y-52320000D01*
X116000678Y-52320000D01*
X116045156Y-52476324D01*
X116137674Y-52662127D01*
X116262764Y-52827773D01*
X116416155Y-52967606D01*
X116592633Y-53076877D01*
X116786183Y-53151859D01*
X116844000Y-53162667D01*
X116844000Y-52320000D01*
X117344000Y-52320000D01*
X117344000Y-53162667D01*
X117401816Y-53151859D01*
X117595366Y-53076877D01*
X117771844Y-52967606D01*
X117925235Y-52827773D01*
X118050325Y-52662127D01*
X118142843Y-52476324D01*
X118187321Y-52320000D01*
X120506678Y-52320000D01*
X120551156Y-52476324D01*
X120643674Y-52662127D01*
X120768764Y-52827773D01*
X120922155Y-52967606D01*
X121098633Y-53076877D01*
X121292183Y-53151859D01*
X121350000Y-53162667D01*
X121350000Y-52320000D01*
X121850000Y-52320000D01*
X121850000Y-53162667D01*
X121907816Y-53151859D01*
X122101366Y-53076877D01*
X122277844Y-52967606D01*
X122431235Y-52827773D01*
X122556325Y-52662127D01*
X122648843Y-52476324D01*
X122663276Y-52425599D01*
X134976592Y-52425599D01*
X134997331Y-52583119D01*
X135058129Y-52729901D01*
X135058130Y-52729903D01*
X135058131Y-52729904D01*
X135154850Y-52855950D01*
X135280896Y-52952669D01*
X135427681Y-53013469D01*
X135585200Y-53034207D01*
X135742719Y-53013469D01*
X135889504Y-52952669D01*
X136015550Y-52855950D01*
X136112269Y-52729904D01*
X136173069Y-52583119D01*
X136173743Y-52577999D01*
X139726392Y-52577999D01*
X139747131Y-52735519D01*
X139807929Y-52882301D01*
X139807930Y-52882303D01*
X139807931Y-52882304D01*
X139904650Y-53008350D01*
X140030696Y-53105069D01*
X140177481Y-53165869D01*
X140335000Y-53186607D01*
X140492519Y-53165869D01*
X140639304Y-53105069D01*
X140765350Y-53008350D01*
X140862069Y-52882304D01*
X140922869Y-52735519D01*
X140943607Y-52578000D01*
X140922869Y-52420481D01*
X140881248Y-52320000D01*
X151941678Y-52320000D01*
X151986156Y-52476324D01*
X152078674Y-52662127D01*
X152203764Y-52827773D01*
X152357155Y-52967606D01*
X152533633Y-53076877D01*
X152727183Y-53151859D01*
X152785000Y-53162667D01*
X152785000Y-52320000D01*
X153285000Y-52320000D01*
X153285000Y-53162667D01*
X153342816Y-53151859D01*
X153536366Y-53076877D01*
X153712844Y-52967606D01*
X153866235Y-52827773D01*
X153991325Y-52662127D01*
X154083843Y-52476324D01*
X154128321Y-52320000D01*
X153285000Y-52320000D01*
X152785000Y-52320000D01*
X151941678Y-52320000D01*
X140881248Y-52320000D01*
X140862069Y-52273697D01*
X140765350Y-52147650D01*
X140639304Y-52050931D01*
X140639303Y-52050930D01*
X140639301Y-52050929D01*
X140492519Y-51990131D01*
X140334999Y-51969392D01*
X140177480Y-51990131D01*
X140030696Y-52050931D01*
X139904649Y-52147649D01*
X139807931Y-52273696D01*
X139747131Y-52420480D01*
X139726392Y-52577999D01*
X136173743Y-52577999D01*
X136193807Y-52425600D01*
X136173069Y-52268081D01*
X136112269Y-52121297D01*
X136015550Y-51995250D01*
X135889504Y-51898531D01*
X135889503Y-51898530D01*
X135889501Y-51898529D01*
X135742719Y-51837731D01*
X135608038Y-51819999D01*
X151941678Y-51819999D01*
X151941679Y-51820000D01*
X152785000Y-51820000D01*
X152785000Y-50977333D01*
X153285000Y-50977333D01*
X153285000Y-51820000D01*
X154128321Y-51820000D01*
X154128321Y-51819999D01*
X154091049Y-51689000D01*
X154610821Y-51689000D01*
X154631458Y-51858956D01*
X154692168Y-52019035D01*
X154692169Y-52019036D01*
X154789424Y-52159935D01*
X154917573Y-52273465D01*
X155069167Y-52353028D01*
X155235398Y-52394000D01*
X155406601Y-52394000D01*
X155406602Y-52394000D01*
X155572833Y-52353028D01*
X155635762Y-52320000D01*
X156386678Y-52320000D01*
X156431156Y-52476324D01*
X156523674Y-52662127D01*
X156648764Y-52827773D01*
X156802155Y-52967606D01*
X156978633Y-53076877D01*
X157172183Y-53151859D01*
X157230000Y-53162667D01*
X157230000Y-52320000D01*
X157730000Y-52320000D01*
X157730000Y-53162667D01*
X157787816Y-53151859D01*
X157981366Y-53076877D01*
X158157844Y-52967606D01*
X158311235Y-52827773D01*
X158436325Y-52662127D01*
X158528843Y-52476324D01*
X158573321Y-52320000D01*
X157730000Y-52320000D01*
X157230000Y-52320000D01*
X156386678Y-52320000D01*
X155635762Y-52320000D01*
X155724427Y-52273465D01*
X155852576Y-52159935D01*
X155949831Y-52019036D01*
X156010542Y-51858957D01*
X156015272Y-51819999D01*
X156386678Y-51819999D01*
X156386679Y-51820000D01*
X157230000Y-51820000D01*
X157230000Y-50977333D01*
X157730000Y-50977333D01*
X157730000Y-51820000D01*
X158573321Y-51820000D01*
X158573321Y-51819999D01*
X158528843Y-51663675D01*
X158436325Y-51477872D01*
X158311235Y-51312226D01*
X158157844Y-51172393D01*
X157981366Y-51063122D01*
X157787816Y-50988140D01*
X157730000Y-50977333D01*
X157230000Y-50977333D01*
X157172183Y-50988140D01*
X156978633Y-51063122D01*
X156802155Y-51172393D01*
X156648764Y-51312226D01*
X156523674Y-51477872D01*
X156431156Y-51663675D01*
X156386678Y-51819999D01*
X156015272Y-51819999D01*
X156031178Y-51689000D01*
X156010542Y-51519043D01*
X155949831Y-51358964D01*
X155852576Y-51218065D01*
X155724427Y-51104535D01*
X155724425Y-51104534D01*
X155724424Y-51104533D01*
X155572834Y-51024972D01*
X155489717Y-51004485D01*
X155406602Y-50984000D01*
X155235398Y-50984000D01*
X155179987Y-50997657D01*
X155069165Y-51024972D01*
X154917575Y-51104533D01*
X154789423Y-51218066D01*
X154692168Y-51358964D01*
X154631458Y-51519043D01*
X154610821Y-51689000D01*
X154091049Y-51689000D01*
X154083843Y-51663675D01*
X153991325Y-51477872D01*
X153866235Y-51312226D01*
X153712844Y-51172393D01*
X153536366Y-51063122D01*
X153342816Y-50988140D01*
X153285000Y-50977333D01*
X152785000Y-50977333D01*
X152727183Y-50988140D01*
X152533633Y-51063122D01*
X152357155Y-51172393D01*
X152203764Y-51312226D01*
X152078674Y-51477872D01*
X151986156Y-51663675D01*
X151941678Y-51819999D01*
X135608038Y-51819999D01*
X135585199Y-51816992D01*
X135427680Y-51837731D01*
X135280896Y-51898531D01*
X135154849Y-51995249D01*
X135058131Y-52121296D01*
X134997331Y-52268080D01*
X134976592Y-52425599D01*
X122663276Y-52425599D01*
X122693321Y-52320000D01*
X121850000Y-52320000D01*
X121350000Y-52320000D01*
X120506678Y-52320000D01*
X118187321Y-52320000D01*
X117344000Y-52320000D01*
X116844000Y-52320000D01*
X116000678Y-52320000D01*
X114836352Y-52320000D01*
X114835808Y-51819999D01*
X116000678Y-51819999D01*
X116000679Y-51820000D01*
X116844000Y-51820000D01*
X116844000Y-50977333D01*
X117344000Y-50977333D01*
X117344000Y-51820000D01*
X118187321Y-51820000D01*
X118187321Y-51819999D01*
X120506678Y-51819999D01*
X120506679Y-51820000D01*
X121350000Y-51820000D01*
X121350000Y-50977333D01*
X121850000Y-50977333D01*
X121850000Y-51820000D01*
X122693321Y-51820000D01*
X122693321Y-51819999D01*
X122648843Y-51663675D01*
X122556325Y-51477872D01*
X122431235Y-51312226D01*
X122277844Y-51172393D01*
X122101366Y-51063122D01*
X121907816Y-50988140D01*
X121850000Y-50977333D01*
X121350000Y-50977333D01*
X121292183Y-50988140D01*
X121098633Y-51063122D01*
X120922155Y-51172393D01*
X120768764Y-51312226D01*
X120643674Y-51477872D01*
X120551156Y-51663675D01*
X120506678Y-51819999D01*
X118187321Y-51819999D01*
X118142843Y-51663675D01*
X118050325Y-51477872D01*
X117925235Y-51312226D01*
X117771844Y-51172393D01*
X117595366Y-51063122D01*
X117401816Y-50988140D01*
X117344000Y-50977333D01*
X116844000Y-50977333D01*
X116786183Y-50988140D01*
X116592633Y-51063122D01*
X116416155Y-51172393D01*
X116262764Y-51312226D01*
X116137674Y-51477872D01*
X116045156Y-51663675D01*
X116000678Y-51819999D01*
X114835808Y-51819999D01*
X114833316Y-49529999D01*
X115978743Y-49529999D01*
X115997731Y-49734928D01*
X116054054Y-49932878D01*
X116145786Y-50117104D01*
X116269815Y-50281345D01*
X116421905Y-50419992D01*
X116421907Y-50419993D01*
X116421908Y-50419994D01*
X116596887Y-50528337D01*
X116788795Y-50602683D01*
X116991097Y-50640500D01*
X117196901Y-50640500D01*
X117196903Y-50640500D01*
X117399205Y-50602683D01*
X117591113Y-50528337D01*
X117766092Y-50419994D01*
X117918185Y-50281344D01*
X118042211Y-50117107D01*
X118042211Y-50117105D01*
X118042213Y-50117104D01*
X118088266Y-50024614D01*
X118133946Y-49932877D01*
X118190268Y-49734928D01*
X118209257Y-49530000D01*
X118209257Y-49529999D01*
X120484743Y-49529999D01*
X120503731Y-49734928D01*
X120560054Y-49932878D01*
X120651786Y-50117104D01*
X120775815Y-50281345D01*
X120927905Y-50419992D01*
X120927907Y-50419993D01*
X120927908Y-50419994D01*
X121102887Y-50528337D01*
X121294795Y-50602683D01*
X121497097Y-50640500D01*
X121702901Y-50640500D01*
X121702903Y-50640500D01*
X121905205Y-50602683D01*
X122097113Y-50528337D01*
X122272092Y-50419994D01*
X122273183Y-50418999D01*
X145822392Y-50418999D01*
X145843131Y-50576519D01*
X145903929Y-50723301D01*
X145903930Y-50723303D01*
X145903931Y-50723304D01*
X146000650Y-50849350D01*
X146126696Y-50946069D01*
X146273481Y-51006869D01*
X146431000Y-51027607D01*
X146588519Y-51006869D01*
X146735304Y-50946069D01*
X146861350Y-50849350D01*
X146958069Y-50723304D01*
X147018869Y-50576519D01*
X147039607Y-50419000D01*
X147018869Y-50261481D01*
X146958069Y-50114697D01*
X146867503Y-49996669D01*
X146861351Y-49988651D01*
X146861350Y-49988650D01*
X146735304Y-49891931D01*
X146735303Y-49891930D01*
X146735301Y-49891929D01*
X146588519Y-49831131D01*
X146430999Y-49810392D01*
X146273480Y-49831131D01*
X146126696Y-49891931D01*
X146000649Y-49988649D01*
X145903931Y-50114696D01*
X145843131Y-50261480D01*
X145822392Y-50418999D01*
X122273183Y-50418999D01*
X122424185Y-50281344D01*
X122548211Y-50117107D01*
X122548211Y-50117105D01*
X122548213Y-50117104D01*
X122594266Y-50024614D01*
X122639946Y-49932877D01*
X122682306Y-49783999D01*
X129185392Y-49783999D01*
X129206131Y-49941519D01*
X129266929Y-50088301D01*
X129266930Y-50088303D01*
X129266931Y-50088304D01*
X129363650Y-50214350D01*
X129489696Y-50311069D01*
X129636481Y-50371869D01*
X129794000Y-50392607D01*
X129951519Y-50371869D01*
X130098304Y-50311069D01*
X130224350Y-50214350D01*
X130321069Y-50088304D01*
X130381869Y-49941519D01*
X130402607Y-49784000D01*
X130381869Y-49626481D01*
X130321069Y-49479697D01*
X130261104Y-49401549D01*
X130224351Y-49353651D01*
X130224350Y-49353650D01*
X130098304Y-49256931D01*
X130098303Y-49256930D01*
X130098301Y-49256929D01*
X129951519Y-49196131D01*
X129793999Y-49175392D01*
X129636480Y-49196131D01*
X129489696Y-49256931D01*
X129363649Y-49353649D01*
X129266931Y-49479696D01*
X129206131Y-49626480D01*
X129185392Y-49783999D01*
X122682306Y-49783999D01*
X122696268Y-49734928D01*
X122715257Y-49530000D01*
X122696268Y-49325072D01*
X122692571Y-49312080D01*
X122650807Y-49165295D01*
X122646170Y-49148999D01*
X127788392Y-49148999D01*
X127809131Y-49306519D01*
X127869929Y-49453301D01*
X127869930Y-49453303D01*
X127869931Y-49453304D01*
X127966650Y-49579350D01*
X128092696Y-49676069D01*
X128239481Y-49736869D01*
X128397000Y-49757607D01*
X128554519Y-49736869D01*
X128701304Y-49676069D01*
X128827350Y-49579350D01*
X128924069Y-49453304D01*
X128984869Y-49306519D01*
X129005607Y-49149000D01*
X128984869Y-48991481D01*
X128976468Y-48971199D01*
X132538192Y-48971199D01*
X132558931Y-49128719D01*
X132619729Y-49275501D01*
X132619730Y-49275503D01*
X132619731Y-49275504D01*
X132716450Y-49401550D01*
X132842496Y-49498269D01*
X132989281Y-49559069D01*
X133146800Y-49579807D01*
X133304319Y-49559069D01*
X133451104Y-49498269D01*
X133577150Y-49401550D01*
X133673869Y-49275504D01*
X133726269Y-49148999D01*
X135794592Y-49148999D01*
X135815331Y-49306519D01*
X135876129Y-49453301D01*
X135876130Y-49453303D01*
X135876131Y-49453304D01*
X135972850Y-49579350D01*
X136098896Y-49676069D01*
X136245681Y-49736869D01*
X136403200Y-49757607D01*
X136560719Y-49736869D01*
X136707504Y-49676069D01*
X136833550Y-49579350D01*
X136930269Y-49453304D01*
X136991069Y-49306519D01*
X137002497Y-49219715D01*
X137747942Y-49219715D01*
X137768681Y-49377235D01*
X137829479Y-49524017D01*
X137829480Y-49524019D01*
X137829481Y-49524020D01*
X137926200Y-49650066D01*
X138052246Y-49746785D01*
X138199031Y-49807585D01*
X138356550Y-49828323D01*
X138514069Y-49807585D01*
X138660854Y-49746785D01*
X138786900Y-49650066D01*
X138883619Y-49524020D01*
X138906161Y-49469598D01*
X143878489Y-49469598D01*
X143899228Y-49627118D01*
X143960026Y-49773900D01*
X143960027Y-49773902D01*
X143960028Y-49773903D01*
X144056747Y-49899949D01*
X144182793Y-49996668D01*
X144329578Y-50057468D01*
X144487097Y-50078206D01*
X144644616Y-50057468D01*
X144791401Y-49996668D01*
X144917447Y-49899949D01*
X145014166Y-49773903D01*
X145074966Y-49627118D01*
X145087752Y-49530000D01*
X151919743Y-49530000D01*
X151938731Y-49734928D01*
X151995054Y-49932878D01*
X152086786Y-50117104D01*
X152210815Y-50281345D01*
X152362905Y-50419992D01*
X152362907Y-50419993D01*
X152362908Y-50419994D01*
X152537887Y-50528337D01*
X152729795Y-50602683D01*
X152932097Y-50640500D01*
X153137901Y-50640500D01*
X153137903Y-50640500D01*
X153340205Y-50602683D01*
X153532113Y-50528337D01*
X153707092Y-50419994D01*
X153859185Y-50281344D01*
X153983211Y-50117107D01*
X153983211Y-50117105D01*
X153983213Y-50117104D01*
X154029266Y-50024614D01*
X154074946Y-49932877D01*
X154131268Y-49734928D01*
X154150257Y-49530000D01*
X156364743Y-49530000D01*
X156383731Y-49734928D01*
X156440054Y-49932878D01*
X156531786Y-50117104D01*
X156655815Y-50281345D01*
X156807905Y-50419992D01*
X156807907Y-50419993D01*
X156807908Y-50419994D01*
X156982887Y-50528337D01*
X157174795Y-50602683D01*
X157377097Y-50640500D01*
X157582901Y-50640500D01*
X157582903Y-50640500D01*
X157785205Y-50602683D01*
X157977113Y-50528337D01*
X158152092Y-50419994D01*
X158304185Y-50281344D01*
X158428211Y-50117107D01*
X158428211Y-50117105D01*
X158428213Y-50117104D01*
X158474266Y-50024614D01*
X158519946Y-49932877D01*
X158576268Y-49734928D01*
X158595257Y-49530000D01*
X158576268Y-49325072D01*
X158572571Y-49312080D01*
X158530807Y-49165295D01*
X158519946Y-49127123D01*
X158487617Y-49062197D01*
X158428213Y-48942895D01*
X158304184Y-48778654D01*
X158152094Y-48640007D01*
X157977113Y-48531663D01*
X157849951Y-48482400D01*
X157785205Y-48457317D01*
X157582903Y-48419500D01*
X157377097Y-48419500D01*
X157174794Y-48457317D01*
X157174795Y-48457317D01*
X156982886Y-48531663D01*
X156807905Y-48640007D01*
X156655815Y-48778654D01*
X156531786Y-48942895D01*
X156440054Y-49127121D01*
X156383731Y-49325071D01*
X156364743Y-49530000D01*
X154150257Y-49530000D01*
X154131268Y-49325072D01*
X154127571Y-49312080D01*
X154085807Y-49165295D01*
X154074946Y-49127123D01*
X154042617Y-49062197D01*
X153983213Y-48942895D01*
X153859184Y-48778654D01*
X153707094Y-48640007D01*
X153532113Y-48531663D01*
X153404951Y-48482400D01*
X153340205Y-48457317D01*
X153137903Y-48419500D01*
X152932097Y-48419500D01*
X152729794Y-48457317D01*
X152729795Y-48457317D01*
X152537886Y-48531663D01*
X152362905Y-48640007D01*
X152210815Y-48778654D01*
X152086786Y-48942895D01*
X151995054Y-49127121D01*
X151938731Y-49325071D01*
X151919743Y-49530000D01*
X145087752Y-49530000D01*
X145095704Y-49469599D01*
X145074966Y-49312080D01*
X145014166Y-49165296D01*
X144917447Y-49039249D01*
X144791401Y-48942530D01*
X144791400Y-48942529D01*
X144791398Y-48942528D01*
X144644616Y-48881730D01*
X144487096Y-48860991D01*
X144329577Y-48881730D01*
X144182793Y-48942530D01*
X144056746Y-49039248D01*
X143960028Y-49165295D01*
X143899228Y-49312079D01*
X143878489Y-49469598D01*
X138906161Y-49469598D01*
X138944419Y-49377235D01*
X138965157Y-49219716D01*
X138944419Y-49062197D01*
X138883619Y-48915413D01*
X138786900Y-48789366D01*
X138726604Y-48743099D01*
X140158192Y-48743099D01*
X140178931Y-48900619D01*
X140239729Y-49047401D01*
X140239730Y-49047403D01*
X140239731Y-49047404D01*
X140336450Y-49173450D01*
X140462496Y-49270169D01*
X140462497Y-49270169D01*
X140462498Y-49270170D01*
X140475376Y-49275504D01*
X140609281Y-49330969D01*
X140766800Y-49351707D01*
X140924319Y-49330969D01*
X141071104Y-49270169D01*
X141197150Y-49173450D01*
X141293869Y-49047404D01*
X141354669Y-48900619D01*
X141375407Y-48743100D01*
X141354669Y-48585581D01*
X141293869Y-48438797D01*
X141254123Y-48386999D01*
X145060392Y-48386999D01*
X145081131Y-48544519D01*
X145141929Y-48691301D01*
X145141930Y-48691303D01*
X145141931Y-48691304D01*
X145238650Y-48817350D01*
X145364696Y-48914069D01*
X145364697Y-48914069D01*
X145364698Y-48914070D01*
X145397950Y-48927843D01*
X145511481Y-48974869D01*
X145669000Y-48995607D01*
X145826519Y-48974869D01*
X145973304Y-48914069D01*
X146099350Y-48817350D01*
X146196069Y-48691304D01*
X146256869Y-48544519D01*
X146277607Y-48387000D01*
X146256869Y-48229481D01*
X146196069Y-48082697D01*
X146123664Y-47988337D01*
X146099351Y-47956651D01*
X146099350Y-47956650D01*
X145973304Y-47859931D01*
X145973303Y-47859930D01*
X145973301Y-47859929D01*
X145826519Y-47799131D01*
X145668999Y-47778392D01*
X145511480Y-47799131D01*
X145364696Y-47859931D01*
X145238649Y-47956649D01*
X145141931Y-48082696D01*
X145081131Y-48229480D01*
X145060392Y-48386999D01*
X141254123Y-48386999D01*
X141197150Y-48312750D01*
X141071104Y-48216031D01*
X141071103Y-48216030D01*
X141071101Y-48216029D01*
X140924319Y-48155231D01*
X140766799Y-48134492D01*
X140609280Y-48155231D01*
X140462496Y-48216031D01*
X140336449Y-48312749D01*
X140239731Y-48438796D01*
X140178931Y-48585580D01*
X140158192Y-48743099D01*
X138726604Y-48743099D01*
X138660854Y-48692647D01*
X138660853Y-48692646D01*
X138660851Y-48692645D01*
X138514069Y-48631847D01*
X138356549Y-48611108D01*
X138199030Y-48631847D01*
X138052246Y-48692647D01*
X137926199Y-48789365D01*
X137829481Y-48915412D01*
X137768681Y-49062196D01*
X137747942Y-49219715D01*
X137002497Y-49219715D01*
X137011807Y-49149000D01*
X136991069Y-48991481D01*
X136930269Y-48844697D01*
X136833550Y-48718650D01*
X136707504Y-48621931D01*
X136707503Y-48621930D01*
X136707501Y-48621929D01*
X136560719Y-48561131D01*
X136403199Y-48540392D01*
X136245680Y-48561131D01*
X136098896Y-48621931D01*
X135972849Y-48718649D01*
X135876131Y-48844696D01*
X135815331Y-48991480D01*
X135794592Y-49148999D01*
X133726269Y-49148999D01*
X133734669Y-49128719D01*
X133755407Y-48971200D01*
X133734669Y-48813681D01*
X133673869Y-48666897D01*
X133611473Y-48585581D01*
X133577151Y-48540851D01*
X133577150Y-48540850D01*
X133451104Y-48444131D01*
X133451103Y-48444130D01*
X133451101Y-48444129D01*
X133304319Y-48383331D01*
X133146799Y-48362592D01*
X132989280Y-48383331D01*
X132842496Y-48444131D01*
X132716449Y-48540849D01*
X132619731Y-48666896D01*
X132558931Y-48813680D01*
X132538192Y-48971199D01*
X128976468Y-48971199D01*
X128924069Y-48844697D01*
X128827350Y-48718650D01*
X128701304Y-48621931D01*
X128701303Y-48621930D01*
X128701301Y-48621929D01*
X128554519Y-48561131D01*
X128396999Y-48540392D01*
X128239480Y-48561131D01*
X128092696Y-48621931D01*
X127966649Y-48718649D01*
X127869931Y-48844696D01*
X127809131Y-48991480D01*
X127788392Y-49148999D01*
X122646170Y-49148999D01*
X122639946Y-49127123D01*
X122607617Y-49062197D01*
X122548213Y-48942895D01*
X122424184Y-48778654D01*
X122272094Y-48640007D01*
X122097113Y-48531663D01*
X121969951Y-48482400D01*
X121905205Y-48457317D01*
X121702903Y-48419500D01*
X121497097Y-48419500D01*
X121294794Y-48457317D01*
X121294795Y-48457317D01*
X121102886Y-48531663D01*
X120927905Y-48640007D01*
X120775815Y-48778654D01*
X120651786Y-48942895D01*
X120560054Y-49127121D01*
X120503731Y-49325071D01*
X120484743Y-49529999D01*
X118209257Y-49529999D01*
X118190268Y-49325072D01*
X118186571Y-49312080D01*
X118144807Y-49165295D01*
X118133946Y-49127123D01*
X118101617Y-49062197D01*
X118042213Y-48942895D01*
X117918184Y-48778654D01*
X117766094Y-48640007D01*
X117591113Y-48531663D01*
X117463951Y-48482400D01*
X117399205Y-48457317D01*
X117196903Y-48419500D01*
X116991097Y-48419500D01*
X116788794Y-48457317D01*
X116788795Y-48457317D01*
X116596886Y-48531663D01*
X116421905Y-48640007D01*
X116269815Y-48778654D01*
X116145786Y-48942895D01*
X116054054Y-49127121D01*
X115997731Y-49325071D01*
X115978743Y-49529999D01*
X114833316Y-49529999D01*
X114830552Y-46989999D01*
X115978743Y-46989999D01*
X115997731Y-47194928D01*
X116054054Y-47392878D01*
X116145786Y-47577104D01*
X116269815Y-47741345D01*
X116421905Y-47879992D01*
X116421907Y-47879993D01*
X116421908Y-47879994D01*
X116596887Y-47988337D01*
X116788795Y-48062683D01*
X116991097Y-48100500D01*
X117196901Y-48100500D01*
X117196903Y-48100500D01*
X117399205Y-48062683D01*
X117591113Y-47988337D01*
X117766092Y-47879994D01*
X117918185Y-47741344D01*
X118042211Y-47577107D01*
X118042211Y-47577105D01*
X118042213Y-47577104D01*
X118106649Y-47447697D01*
X118133946Y-47392877D01*
X118190268Y-47194928D01*
X118209257Y-46990000D01*
X118209257Y-46989999D01*
X120484743Y-46989999D01*
X120503731Y-47194928D01*
X120560054Y-47392878D01*
X120651786Y-47577104D01*
X120775815Y-47741345D01*
X120927905Y-47879992D01*
X120927907Y-47879993D01*
X120927908Y-47879994D01*
X121102887Y-47988337D01*
X121294795Y-48062683D01*
X121497097Y-48100500D01*
X121702901Y-48100500D01*
X121702903Y-48100500D01*
X121905205Y-48062683D01*
X122097113Y-47988337D01*
X122272092Y-47879994D01*
X122304194Y-47850729D01*
X124375609Y-47850729D01*
X124396348Y-48008249D01*
X124457146Y-48155031D01*
X124457147Y-48155033D01*
X124457148Y-48155034D01*
X124553867Y-48281080D01*
X124679913Y-48377799D01*
X124679914Y-48377799D01*
X124679915Y-48377800D01*
X124702124Y-48386999D01*
X124826698Y-48438599D01*
X124984217Y-48459337D01*
X125141736Y-48438599D01*
X125288521Y-48377799D01*
X125414567Y-48281080D01*
X125511286Y-48155034D01*
X125572086Y-48008249D01*
X125592824Y-47850730D01*
X125579826Y-47751999D01*
X126645392Y-47751999D01*
X126666131Y-47909519D01*
X126726929Y-48056301D01*
X126726930Y-48056303D01*
X126726931Y-48056304D01*
X126823650Y-48182350D01*
X126949696Y-48279069D01*
X126949697Y-48279069D01*
X126949698Y-48279070D01*
X126954551Y-48281080D01*
X127096481Y-48339869D01*
X127254000Y-48360607D01*
X127411519Y-48339869D01*
X127558304Y-48279069D01*
X127684350Y-48182350D01*
X127781069Y-48056304D01*
X127841869Y-47909519D01*
X127862607Y-47752000D01*
X127841869Y-47594481D01*
X127841359Y-47593249D01*
X128137642Y-47593249D01*
X128158381Y-47750769D01*
X128219179Y-47897551D01*
X128219180Y-47897553D01*
X128219181Y-47897554D01*
X128315900Y-48023600D01*
X128441946Y-48120319D01*
X128588731Y-48181119D01*
X128746250Y-48201857D01*
X128903769Y-48181119D01*
X129050554Y-48120319D01*
X129176600Y-48023600D01*
X129273319Y-47897554D01*
X129323088Y-47777400D01*
X148718021Y-47777400D01*
X148732611Y-47897554D01*
X148738658Y-47947357D01*
X148742183Y-47956651D01*
X148799368Y-48107435D01*
X148799369Y-48107436D01*
X148896624Y-48248335D01*
X149024773Y-48361865D01*
X149176367Y-48441428D01*
X149342598Y-48482400D01*
X149513801Y-48482400D01*
X149513802Y-48482400D01*
X149680033Y-48441428D01*
X149831627Y-48361865D01*
X149959776Y-48248335D01*
X150057031Y-48107436D01*
X150117742Y-47947357D01*
X150138378Y-47777400D01*
X150117742Y-47607443D01*
X150057031Y-47447364D01*
X149959776Y-47306465D01*
X149831627Y-47192935D01*
X149831625Y-47192934D01*
X149831624Y-47192933D01*
X149680034Y-47113372D01*
X149596917Y-47092885D01*
X149513802Y-47072400D01*
X149342598Y-47072400D01*
X149287187Y-47086057D01*
X149176365Y-47113372D01*
X149024775Y-47192933D01*
X148896623Y-47306466D01*
X148799368Y-47447364D01*
X148738658Y-47607443D01*
X148718021Y-47777400D01*
X129323088Y-47777400D01*
X129334119Y-47750769D01*
X129354857Y-47593250D01*
X129334119Y-47435731D01*
X129273319Y-47288947D01*
X129176600Y-47162900D01*
X129050554Y-47066181D01*
X129050553Y-47066180D01*
X129050551Y-47066179D01*
X128903769Y-47005381D01*
X128746249Y-46984642D01*
X128588730Y-47005381D01*
X128441946Y-47066181D01*
X128315899Y-47162899D01*
X128219181Y-47288946D01*
X128158381Y-47435730D01*
X128137642Y-47593249D01*
X127841359Y-47593249D01*
X127781069Y-47447697D01*
X127705158Y-47348768D01*
X127684351Y-47321651D01*
X127684350Y-47321650D01*
X127558304Y-47224931D01*
X127558303Y-47224930D01*
X127558301Y-47224929D01*
X127411519Y-47164131D01*
X127253999Y-47143392D01*
X127096480Y-47164131D01*
X126949696Y-47224931D01*
X126823649Y-47321649D01*
X126726931Y-47447696D01*
X126666131Y-47594480D01*
X126645392Y-47751999D01*
X125579826Y-47751999D01*
X125572086Y-47693211D01*
X125511286Y-47546427D01*
X125435527Y-47447696D01*
X125414568Y-47420381D01*
X125414567Y-47420380D01*
X125288521Y-47323661D01*
X125288520Y-47323660D01*
X125288518Y-47323659D01*
X125141736Y-47262861D01*
X124984216Y-47242122D01*
X124826697Y-47262861D01*
X124679913Y-47323661D01*
X124553866Y-47420379D01*
X124457148Y-47546426D01*
X124396348Y-47693210D01*
X124375609Y-47850729D01*
X122304194Y-47850729D01*
X122424185Y-47741344D01*
X122548211Y-47577107D01*
X122548211Y-47577105D01*
X122548213Y-47577104D01*
X122612649Y-47447697D01*
X122639946Y-47392877D01*
X122696268Y-47194928D01*
X122715257Y-46990000D01*
X122698027Y-46804059D01*
X122696268Y-46785071D01*
X122689390Y-46760899D01*
X134016592Y-46760899D01*
X134037331Y-46918419D01*
X134098129Y-47065201D01*
X134098130Y-47065203D01*
X134098131Y-47065204D01*
X134194850Y-47191250D01*
X134320896Y-47287969D01*
X134320897Y-47287969D01*
X134320898Y-47287970D01*
X134323257Y-47288947D01*
X134467681Y-47348769D01*
X134625200Y-47369507D01*
X134782719Y-47348769D01*
X134929504Y-47287969D01*
X135055550Y-47191250D01*
X135152269Y-47065204D01*
X135213069Y-46918419D01*
X135213069Y-46918418D01*
X135217797Y-46907004D01*
X135248585Y-46863033D01*
X135295072Y-46836195D01*
X135348540Y-46831517D01*
X135387200Y-46836607D01*
X135544719Y-46815869D01*
X135691504Y-46755069D01*
X135817550Y-46658350D01*
X135835928Y-46634399D01*
X139040592Y-46634399D01*
X139061331Y-46791919D01*
X139122129Y-46938701D01*
X139122130Y-46938703D01*
X139122131Y-46938704D01*
X139218850Y-47064750D01*
X139344896Y-47161469D01*
X139344897Y-47161469D01*
X139344898Y-47161470D01*
X139378150Y-47175243D01*
X139491681Y-47222269D01*
X139649200Y-47243007D01*
X139806719Y-47222269D01*
X139953504Y-47161469D01*
X140011458Y-47116999D01*
X146076392Y-47116999D01*
X146097131Y-47274519D01*
X146157929Y-47421301D01*
X146157930Y-47421303D01*
X146157931Y-47421304D01*
X146254650Y-47547350D01*
X146380696Y-47644069D01*
X146527481Y-47704869D01*
X146685000Y-47725607D01*
X146842519Y-47704869D01*
X146989304Y-47644069D01*
X147115350Y-47547350D01*
X147212069Y-47421304D01*
X147272869Y-47274519D01*
X147293607Y-47117000D01*
X147276887Y-46990000D01*
X151919743Y-46990000D01*
X151938731Y-47194928D01*
X151995054Y-47392878D01*
X152086786Y-47577104D01*
X152210815Y-47741345D01*
X152362905Y-47879992D01*
X152362907Y-47879993D01*
X152362908Y-47879994D01*
X152537887Y-47988337D01*
X152729795Y-48062683D01*
X152932097Y-48100500D01*
X153137901Y-48100500D01*
X153137903Y-48100500D01*
X153340205Y-48062683D01*
X153532113Y-47988337D01*
X153707092Y-47879994D01*
X153859185Y-47741344D01*
X153983211Y-47577107D01*
X153983211Y-47577105D01*
X153983213Y-47577104D01*
X154022602Y-47497999D01*
X154712392Y-47497999D01*
X154733131Y-47655519D01*
X154793929Y-47802301D01*
X154793930Y-47802303D01*
X154793931Y-47802304D01*
X154890650Y-47928350D01*
X155016696Y-48025069D01*
X155163481Y-48085869D01*
X155321000Y-48106607D01*
X155478519Y-48085869D01*
X155625304Y-48025069D01*
X155751350Y-47928350D01*
X155848069Y-47802304D01*
X155908869Y-47655519D01*
X155929607Y-47498000D01*
X155908869Y-47340481D01*
X155848069Y-47193697D01*
X155799709Y-47130673D01*
X155751351Y-47067651D01*
X155751350Y-47067650D01*
X155650155Y-46990000D01*
X156364743Y-46990000D01*
X156383731Y-47194928D01*
X156440054Y-47392878D01*
X156531786Y-47577104D01*
X156655815Y-47741345D01*
X156807905Y-47879992D01*
X156807907Y-47879993D01*
X156807908Y-47879994D01*
X156982887Y-47988337D01*
X157174795Y-48062683D01*
X157377097Y-48100500D01*
X157582901Y-48100500D01*
X157582903Y-48100500D01*
X157785205Y-48062683D01*
X157977113Y-47988337D01*
X158152092Y-47879994D01*
X158304185Y-47741344D01*
X158428211Y-47577107D01*
X158428211Y-47577105D01*
X158428213Y-47577104D01*
X158492649Y-47447697D01*
X158519946Y-47392877D01*
X158576268Y-47194928D01*
X158595257Y-46990000D01*
X158577878Y-46802449D01*
X158576268Y-46785071D01*
X158540212Y-46658349D01*
X158519946Y-46587123D01*
X158491070Y-46529131D01*
X158428213Y-46402895D01*
X158304184Y-46238654D01*
X158152094Y-46100007D01*
X157977113Y-45991663D01*
X157977112Y-45991662D01*
X157785205Y-45917317D01*
X157582903Y-45879500D01*
X157377097Y-45879500D01*
X157174794Y-45917317D01*
X157174795Y-45917317D01*
X156982886Y-45991663D01*
X156807905Y-46100007D01*
X156655815Y-46238654D01*
X156531786Y-46402895D01*
X156440054Y-46587121D01*
X156383731Y-46785071D01*
X156364743Y-46990000D01*
X155650155Y-46990000D01*
X155625304Y-46970931D01*
X155625303Y-46970930D01*
X155625301Y-46970929D01*
X155478519Y-46910131D01*
X155320999Y-46889392D01*
X155163480Y-46910131D01*
X155016696Y-46970931D01*
X154890649Y-47067649D01*
X154793931Y-47193696D01*
X154733131Y-47340480D01*
X154712392Y-47497999D01*
X154022602Y-47497999D01*
X154047649Y-47447697D01*
X154074946Y-47392877D01*
X154131268Y-47194928D01*
X154150257Y-46990000D01*
X154132878Y-46802449D01*
X154131268Y-46785071D01*
X154095212Y-46658349D01*
X154074946Y-46587123D01*
X154046070Y-46529131D01*
X153983213Y-46402895D01*
X153859184Y-46238654D01*
X153707094Y-46100007D01*
X153532113Y-45991663D01*
X153532112Y-45991662D01*
X153340205Y-45917317D01*
X153137903Y-45879500D01*
X152932097Y-45879500D01*
X152729794Y-45917317D01*
X152729795Y-45917317D01*
X152537886Y-45991663D01*
X152362905Y-46100007D01*
X152210815Y-46238654D01*
X152086786Y-46402895D01*
X151995054Y-46587121D01*
X151938731Y-46785071D01*
X151919743Y-46990000D01*
X147276887Y-46990000D01*
X147272869Y-46959481D01*
X147212069Y-46812697D01*
X147115350Y-46686650D01*
X146989304Y-46589931D01*
X146989303Y-46589930D01*
X146989301Y-46589929D01*
X146842519Y-46529131D01*
X146684999Y-46508392D01*
X146527480Y-46529131D01*
X146380696Y-46589931D01*
X146254649Y-46686649D01*
X146157931Y-46812696D01*
X146097131Y-46959480D01*
X146076392Y-47116999D01*
X140011458Y-47116999D01*
X140079550Y-47064750D01*
X140176269Y-46938704D01*
X140237069Y-46791919D01*
X140257807Y-46634400D01*
X140237069Y-46476881D01*
X140176269Y-46330097D01*
X140102402Y-46233831D01*
X140079551Y-46204051D01*
X140079550Y-46204050D01*
X139953504Y-46107331D01*
X139953503Y-46107330D01*
X139953501Y-46107329D01*
X139806719Y-46046531D01*
X139649199Y-46025792D01*
X139491680Y-46046531D01*
X139344896Y-46107331D01*
X139218849Y-46204049D01*
X139122131Y-46330096D01*
X139061331Y-46476880D01*
X139040592Y-46634399D01*
X135835928Y-46634399D01*
X135914269Y-46532304D01*
X135975069Y-46385519D01*
X135995807Y-46228000D01*
X135975069Y-46070481D01*
X135914269Y-45923697D01*
X135817550Y-45797650D01*
X135691504Y-45700931D01*
X135691503Y-45700930D01*
X135691501Y-45700929D01*
X135544719Y-45640131D01*
X135387199Y-45619392D01*
X135229680Y-45640131D01*
X135082896Y-45700931D01*
X134956849Y-45797649D01*
X134860130Y-45923696D01*
X134794602Y-46081896D01*
X134763814Y-46125866D01*
X134717328Y-46152704D01*
X134663856Y-46157382D01*
X134625200Y-46152292D01*
X134467680Y-46173031D01*
X134320896Y-46233831D01*
X134194849Y-46330549D01*
X134098131Y-46456596D01*
X134037331Y-46603380D01*
X134016592Y-46760899D01*
X122689390Y-46760899D01*
X122660212Y-46658349D01*
X122639946Y-46587123D01*
X122611070Y-46529131D01*
X122548213Y-46402895D01*
X122424184Y-46238654D01*
X122272094Y-46100007D01*
X122097113Y-45991663D01*
X122097112Y-45991662D01*
X121905205Y-45917317D01*
X121702903Y-45879500D01*
X121497097Y-45879500D01*
X121294794Y-45917317D01*
X121294795Y-45917317D01*
X121102886Y-45991663D01*
X120927905Y-46100007D01*
X120775815Y-46238654D01*
X120651786Y-46402895D01*
X120560054Y-46587121D01*
X120503731Y-46785071D01*
X120484743Y-46989999D01*
X118209257Y-46989999D01*
X118192027Y-46804059D01*
X118190268Y-46785071D01*
X118154212Y-46658349D01*
X118133946Y-46587123D01*
X118105070Y-46529131D01*
X118042213Y-46402895D01*
X117918184Y-46238654D01*
X117766094Y-46100007D01*
X117591113Y-45991663D01*
X117591112Y-45991662D01*
X117399205Y-45917317D01*
X117196903Y-45879500D01*
X116991097Y-45879500D01*
X116788794Y-45917317D01*
X116788795Y-45917317D01*
X116596886Y-45991663D01*
X116421905Y-46100007D01*
X116269815Y-46238654D01*
X116145786Y-46402895D01*
X116054054Y-46587121D01*
X115997731Y-46785071D01*
X115978743Y-46989999D01*
X114830552Y-46989999D01*
X114828741Y-45325655D01*
X115983500Y-45325655D01*
X115998614Y-45401640D01*
X115998614Y-45401641D01*
X115998615Y-45401642D01*
X116056190Y-45487810D01*
X116142358Y-45545385D01*
X116165720Y-45550032D01*
X116218345Y-45560500D01*
X116218346Y-45560500D01*
X117969654Y-45560500D01*
X117969655Y-45560500D01*
X117994983Y-45555461D01*
X118045642Y-45545385D01*
X118131810Y-45487810D01*
X118189385Y-45401642D01*
X118204500Y-45325655D01*
X120489500Y-45325655D01*
X120504614Y-45401640D01*
X120504614Y-45401641D01*
X120504615Y-45401642D01*
X120562190Y-45487810D01*
X120648358Y-45545385D01*
X120671720Y-45550032D01*
X120724345Y-45560500D01*
X120724346Y-45560500D01*
X122475654Y-45560500D01*
X122475655Y-45560500D01*
X122500983Y-45555461D01*
X122551642Y-45545385D01*
X122637810Y-45487810D01*
X122695385Y-45401642D01*
X122710500Y-45325654D01*
X122710500Y-44957999D01*
X124464369Y-44957999D01*
X124484844Y-45165892D01*
X124545486Y-45365801D01*
X124641475Y-45545385D01*
X124643960Y-45550033D01*
X124776485Y-45711515D01*
X124937967Y-45844040D01*
X125122201Y-45942515D01*
X125322106Y-46003155D01*
X125477905Y-46018500D01*
X125982094Y-46018500D01*
X125982095Y-46018500D01*
X126137894Y-46003155D01*
X126337799Y-45942515D01*
X126522033Y-45844040D01*
X126683515Y-45711515D01*
X126816040Y-45550033D01*
X126860957Y-45465999D01*
X137953592Y-45465999D01*
X137974331Y-45623519D01*
X138035129Y-45770301D01*
X138035130Y-45770303D01*
X138035131Y-45770304D01*
X138131850Y-45896350D01*
X138257896Y-45993069D01*
X138404681Y-46053869D01*
X138562200Y-46074607D01*
X138719719Y-46053869D01*
X138866504Y-45993069D01*
X138992550Y-45896350D01*
X139089269Y-45770304D01*
X139150069Y-45623519D01*
X139170807Y-45466000D01*
X139150069Y-45308481D01*
X139089269Y-45161697D01*
X138996325Y-45040570D01*
X138992551Y-45035651D01*
X138992550Y-45035650D01*
X138891355Y-44958000D01*
X147324369Y-44958000D01*
X147344844Y-45165892D01*
X147405486Y-45365801D01*
X147501475Y-45545385D01*
X147503960Y-45550033D01*
X147636485Y-45711515D01*
X147797967Y-45844040D01*
X147982201Y-45942515D01*
X148182106Y-46003155D01*
X148337905Y-46018500D01*
X148842094Y-46018500D01*
X148842095Y-46018500D01*
X148997894Y-46003155D01*
X149197799Y-45942515D01*
X149382033Y-45844040D01*
X149543515Y-45711515D01*
X149676040Y-45550033D01*
X149774515Y-45365799D01*
X149786692Y-45325655D01*
X151924500Y-45325655D01*
X151939614Y-45401640D01*
X151939614Y-45401641D01*
X151939615Y-45401642D01*
X151997190Y-45487810D01*
X152083358Y-45545385D01*
X152106720Y-45550032D01*
X152159345Y-45560500D01*
X152159346Y-45560500D01*
X153910654Y-45560500D01*
X153910655Y-45560500D01*
X153935983Y-45555461D01*
X153986642Y-45545385D01*
X154072810Y-45487810D01*
X154087383Y-45465999D01*
X154712392Y-45465999D01*
X154733131Y-45623519D01*
X154793929Y-45770301D01*
X154793930Y-45770303D01*
X154793931Y-45770304D01*
X154890650Y-45896350D01*
X155016696Y-45993069D01*
X155163481Y-46053869D01*
X155321000Y-46074607D01*
X155478519Y-46053869D01*
X155625304Y-45993069D01*
X155751350Y-45896350D01*
X155848069Y-45770304D01*
X155908869Y-45623519D01*
X155929607Y-45466000D01*
X155911130Y-45325655D01*
X156369500Y-45325655D01*
X156384614Y-45401640D01*
X156384614Y-45401641D01*
X156384615Y-45401642D01*
X156442190Y-45487810D01*
X156528358Y-45545385D01*
X156551720Y-45550032D01*
X156604345Y-45560500D01*
X156604346Y-45560500D01*
X158355654Y-45560500D01*
X158355655Y-45560500D01*
X158380983Y-45555461D01*
X158431642Y-45545385D01*
X158517810Y-45487810D01*
X158575385Y-45401642D01*
X158590500Y-45325654D01*
X158590500Y-43574346D01*
X158587115Y-43557331D01*
X158575385Y-43498359D01*
X158575385Y-43498358D01*
X158517810Y-43412190D01*
X158431642Y-43354615D01*
X158431641Y-43354614D01*
X158431640Y-43354614D01*
X158355655Y-43339500D01*
X158355654Y-43339500D01*
X156604346Y-43339500D01*
X156604345Y-43339500D01*
X156528359Y-43354614D01*
X156442190Y-43412190D01*
X156384614Y-43498359D01*
X156369500Y-43574345D01*
X156369500Y-45325655D01*
X155911130Y-45325655D01*
X155908869Y-45308481D01*
X155848069Y-45161697D01*
X155755125Y-45040570D01*
X155751351Y-45035651D01*
X155751350Y-45035650D01*
X155625304Y-44938931D01*
X155625303Y-44938930D01*
X155625301Y-44938929D01*
X155533696Y-44900986D01*
X155488004Y-44882060D01*
X155441168Y-44848032D01*
X155414884Y-44796447D01*
X155414884Y-44738553D01*
X155441168Y-44686968D01*
X155488004Y-44652939D01*
X155625304Y-44596069D01*
X155751350Y-44499350D01*
X155848069Y-44373304D01*
X155908869Y-44226519D01*
X155929607Y-44069000D01*
X155908869Y-43911481D01*
X155848069Y-43764697D01*
X155809819Y-43714849D01*
X155751349Y-43638648D01*
X155695605Y-43595874D01*
X155659879Y-43552342D01*
X155647092Y-43497498D01*
X155659880Y-43442654D01*
X155695604Y-43399125D01*
X155751350Y-43356350D01*
X155848069Y-43230304D01*
X155908869Y-43083519D01*
X155929607Y-42926000D01*
X155908869Y-42768481D01*
X155848069Y-42621697D01*
X155751350Y-42495650D01*
X155625304Y-42398931D01*
X155625303Y-42398930D01*
X155625301Y-42398929D01*
X155478519Y-42338131D01*
X155320999Y-42317392D01*
X155163480Y-42338131D01*
X155016696Y-42398931D01*
X154890649Y-42495649D01*
X154793931Y-42621696D01*
X154733131Y-42768480D01*
X154712392Y-42925999D01*
X154733131Y-43083519D01*
X154793929Y-43230301D01*
X154793930Y-43230303D01*
X154793931Y-43230304D01*
X154877720Y-43339500D01*
X154890652Y-43356352D01*
X154946394Y-43399125D01*
X154982119Y-43442656D01*
X154994907Y-43497500D01*
X154982119Y-43552344D01*
X154946394Y-43595875D01*
X154890650Y-43638648D01*
X154793931Y-43764696D01*
X154733131Y-43911480D01*
X154712392Y-44068999D01*
X154733131Y-44226519D01*
X154793929Y-44373301D01*
X154793930Y-44373303D01*
X154793931Y-44373304D01*
X154890650Y-44499350D01*
X155016696Y-44596069D01*
X155153993Y-44652939D01*
X155200830Y-44686967D01*
X155227114Y-44738551D01*
X155227114Y-44796445D01*
X155200831Y-44848030D01*
X155153993Y-44882060D01*
X155016696Y-44938930D01*
X154890649Y-45035649D01*
X154793931Y-45161696D01*
X154733131Y-45308480D01*
X154712392Y-45465999D01*
X154087383Y-45465999D01*
X154130385Y-45401642D01*
X154145500Y-45325654D01*
X154145500Y-43574346D01*
X154142115Y-43557331D01*
X154130385Y-43498359D01*
X154130385Y-43498358D01*
X154072810Y-43412190D01*
X153986642Y-43354615D01*
X153986641Y-43354614D01*
X153986640Y-43354614D01*
X153910655Y-43339500D01*
X153910654Y-43339500D01*
X153830345Y-43339500D01*
X153767482Y-43322384D01*
X153721973Y-43275762D01*
X153706381Y-43212504D01*
X153725011Y-43150073D01*
X153772719Y-43105704D01*
X153850463Y-43064899D01*
X153921027Y-43027865D01*
X154049176Y-42914335D01*
X154146431Y-42773436D01*
X154207142Y-42613357D01*
X154227778Y-42443400D01*
X154207142Y-42273443D01*
X154146431Y-42113364D01*
X154049176Y-41972465D01*
X153921027Y-41858935D01*
X153921025Y-41858934D01*
X153921024Y-41858933D01*
X153769434Y-41779372D01*
X153686317Y-41758885D01*
X153603202Y-41738400D01*
X153431998Y-41738400D01*
X153376587Y-41752057D01*
X153265765Y-41779372D01*
X153114175Y-41858933D01*
X152986023Y-41972466D01*
X152888768Y-42113364D01*
X152828058Y-42273443D01*
X152807421Y-42443399D01*
X152828058Y-42613356D01*
X152888768Y-42773435D01*
X152888769Y-42773436D01*
X152986024Y-42914335D01*
X153114173Y-43027865D01*
X153114175Y-43027866D01*
X153262481Y-43105704D01*
X153310189Y-43150073D01*
X153328819Y-43212504D01*
X153313227Y-43275762D01*
X153267718Y-43322384D01*
X153204855Y-43339500D01*
X152159345Y-43339500D01*
X152083359Y-43354614D01*
X151997190Y-43412190D01*
X151939614Y-43498359D01*
X151924500Y-43574345D01*
X151924500Y-45325655D01*
X149786692Y-45325655D01*
X149835155Y-45165894D01*
X149855631Y-44958000D01*
X149835155Y-44750106D01*
X149774515Y-44550201D01*
X149676040Y-44365967D01*
X149543515Y-44204485D01*
X149382033Y-44071960D01*
X149382032Y-44071959D01*
X149197801Y-43973486D01*
X149197800Y-43973485D01*
X149197799Y-43973485D01*
X149097846Y-43943165D01*
X148997892Y-43912844D01*
X148859115Y-43899176D01*
X148842095Y-43897500D01*
X148337905Y-43897500D01*
X148322561Y-43899011D01*
X148182107Y-43912844D01*
X147982198Y-43973486D01*
X147797967Y-44071959D01*
X147636485Y-44204485D01*
X147503959Y-44365967D01*
X147405486Y-44550198D01*
X147344844Y-44750107D01*
X147324369Y-44958000D01*
X138891355Y-44958000D01*
X138866504Y-44938931D01*
X138866503Y-44938930D01*
X138866501Y-44938929D01*
X138719719Y-44878131D01*
X138562199Y-44857392D01*
X138404680Y-44878131D01*
X138257896Y-44938931D01*
X138131849Y-45035649D01*
X138035131Y-45161696D01*
X137974331Y-45308480D01*
X137953592Y-45465999D01*
X126860957Y-45465999D01*
X126914515Y-45365799D01*
X126975155Y-45165894D01*
X126995631Y-44958000D01*
X126975155Y-44750106D01*
X126914515Y-44550201D01*
X126894897Y-44513499D01*
X128867892Y-44513499D01*
X128888631Y-44671019D01*
X128949429Y-44817801D01*
X128949430Y-44817803D01*
X128949431Y-44817804D01*
X129046150Y-44943850D01*
X129172196Y-45040569D01*
X129318981Y-45101369D01*
X129476500Y-45122107D01*
X129634019Y-45101369D01*
X129780804Y-45040569D01*
X129906850Y-44943850D01*
X130003569Y-44817804D01*
X130064369Y-44671019D01*
X130085107Y-44513500D01*
X130064369Y-44355981D01*
X130003569Y-44209197D01*
X129954462Y-44145199D01*
X142596592Y-44145199D01*
X142617331Y-44302719D01*
X142678129Y-44449501D01*
X142678130Y-44449503D01*
X142678131Y-44449504D01*
X142774850Y-44575550D01*
X142900896Y-44672269D01*
X143047681Y-44733069D01*
X143205200Y-44753807D01*
X143362719Y-44733069D01*
X143509504Y-44672269D01*
X143635550Y-44575550D01*
X143732269Y-44449504D01*
X143793069Y-44302719D01*
X143813807Y-44145200D01*
X143793069Y-43987681D01*
X143732269Y-43840897D01*
X143635550Y-43714850D01*
X143509504Y-43618131D01*
X143509503Y-43618130D01*
X143509501Y-43618129D01*
X143362719Y-43557331D01*
X143205199Y-43536592D01*
X143047680Y-43557331D01*
X142900896Y-43618131D01*
X142774849Y-43714849D01*
X142678131Y-43840896D01*
X142617331Y-43987680D01*
X142596592Y-44145199D01*
X129954462Y-44145199D01*
X129906850Y-44083150D01*
X129780804Y-43986431D01*
X129780803Y-43986430D01*
X129780801Y-43986429D01*
X129634019Y-43925631D01*
X129476499Y-43904892D01*
X129318980Y-43925631D01*
X129172196Y-43986431D01*
X129046149Y-44083149D01*
X128949431Y-44209196D01*
X128888631Y-44355980D01*
X128867892Y-44513499D01*
X126894897Y-44513499D01*
X126816040Y-44365967D01*
X126683515Y-44204485D01*
X126522033Y-44071960D01*
X126522032Y-44071959D01*
X126337801Y-43973486D01*
X126337800Y-43973485D01*
X126337799Y-43973485D01*
X126237846Y-43943165D01*
X126137892Y-43912844D01*
X125999115Y-43899176D01*
X125982095Y-43897500D01*
X125477905Y-43897500D01*
X125462561Y-43899011D01*
X125322107Y-43912844D01*
X125122198Y-43973486D01*
X124937967Y-44071959D01*
X124776485Y-44204485D01*
X124643959Y-44365967D01*
X124545486Y-44550198D01*
X124484844Y-44750107D01*
X124464369Y-44957999D01*
X122710500Y-44957999D01*
X122710500Y-43574346D01*
X122707115Y-43557331D01*
X122695385Y-43498359D01*
X122695385Y-43498358D01*
X122637810Y-43412190D01*
X122551642Y-43354615D01*
X122551641Y-43354614D01*
X122551640Y-43354614D01*
X122475655Y-43339500D01*
X122475654Y-43339500D01*
X120724346Y-43339500D01*
X120724345Y-43339500D01*
X120648359Y-43354614D01*
X120562190Y-43412190D01*
X120504614Y-43498359D01*
X120489500Y-43574345D01*
X120489500Y-45325655D01*
X118204500Y-45325655D01*
X118204500Y-45325654D01*
X118204500Y-43574346D01*
X118201115Y-43557331D01*
X118189385Y-43498359D01*
X118189385Y-43498358D01*
X118131810Y-43412190D01*
X118045642Y-43354615D01*
X118045641Y-43354614D01*
X118045640Y-43354614D01*
X117969655Y-43339500D01*
X117969654Y-43339500D01*
X116218346Y-43339500D01*
X116218345Y-43339500D01*
X116142359Y-43354614D01*
X116056190Y-43412190D01*
X115998614Y-43498359D01*
X115983500Y-43574345D01*
X115983500Y-45325655D01*
X114828741Y-45325655D01*
X114825577Y-42417999D01*
X124464369Y-42417999D01*
X124484844Y-42625892D01*
X124515164Y-42725846D01*
X124545485Y-42825799D01*
X124643960Y-43010033D01*
X124776485Y-43171515D01*
X124937967Y-43304040D01*
X125122201Y-43402515D01*
X125322106Y-43463155D01*
X125477905Y-43478500D01*
X125982094Y-43478500D01*
X125982095Y-43478500D01*
X126137894Y-43463155D01*
X126337799Y-43402515D01*
X126522033Y-43304040D01*
X126683515Y-43171515D01*
X126816040Y-43010033D01*
X126914515Y-42825799D01*
X126962382Y-42668000D01*
X147347691Y-42668000D01*
X147396668Y-42829455D01*
X147496022Y-43015334D01*
X147629734Y-43178265D01*
X147792665Y-43311977D01*
X147978548Y-43411334D01*
X148180241Y-43472517D01*
X148337436Y-43488000D01*
X148340000Y-43488000D01*
X148340000Y-42668000D01*
X148840000Y-42668000D01*
X148840000Y-43488000D01*
X148842564Y-43488000D01*
X148999758Y-43472517D01*
X149201451Y-43411334D01*
X149387334Y-43311977D01*
X149550265Y-43178265D01*
X149683977Y-43015334D01*
X149783331Y-42829455D01*
X149832309Y-42668000D01*
X148840000Y-42668000D01*
X148340000Y-42668000D01*
X147347691Y-42668000D01*
X126962382Y-42668000D01*
X126975155Y-42625894D01*
X126995631Y-42418000D01*
X126975155Y-42210106D01*
X126962382Y-42167999D01*
X147347690Y-42167999D01*
X147347691Y-42168000D01*
X148340000Y-42168000D01*
X148340000Y-41348000D01*
X148840000Y-41348000D01*
X148840000Y-42168000D01*
X149832309Y-42168000D01*
X149832309Y-42167999D01*
X149783331Y-42006544D01*
X149683977Y-41820665D01*
X149550265Y-41657734D01*
X149387334Y-41524022D01*
X149201451Y-41424665D01*
X148999758Y-41363482D01*
X148842564Y-41348000D01*
X148840000Y-41348000D01*
X148340000Y-41348000D01*
X148337436Y-41348000D01*
X148180241Y-41363482D01*
X147978548Y-41424665D01*
X147792665Y-41524022D01*
X147629734Y-41657734D01*
X147496022Y-41820665D01*
X147396668Y-42006544D01*
X147347690Y-42167999D01*
X126962382Y-42167999D01*
X126914515Y-42010201D01*
X126816040Y-41825967D01*
X126683515Y-41664485D01*
X126522033Y-41531960D01*
X126522032Y-41531959D01*
X126337801Y-41433486D01*
X126337800Y-41433485D01*
X126337799Y-41433485D01*
X126237846Y-41403164D01*
X126137892Y-41372844D01*
X125999115Y-41359176D01*
X125982095Y-41357500D01*
X125477905Y-41357500D01*
X125462560Y-41359011D01*
X125322107Y-41372844D01*
X125122198Y-41433486D01*
X124937967Y-41531959D01*
X124776485Y-41664485D01*
X124643959Y-41825967D01*
X124545486Y-42010198D01*
X124484844Y-42210107D01*
X124464369Y-42417999D01*
X114825577Y-42417999D01*
X114824389Y-41325800D01*
X155474421Y-41325800D01*
X155495058Y-41495756D01*
X155555768Y-41655835D01*
X155555769Y-41655836D01*
X155653024Y-41796735D01*
X155781173Y-41910265D01*
X155932767Y-41989828D01*
X156098998Y-42030800D01*
X156270201Y-42030800D01*
X156270202Y-42030800D01*
X156436433Y-41989828D01*
X156588027Y-41910265D01*
X156716176Y-41796735D01*
X156813431Y-41655836D01*
X156874142Y-41495757D01*
X156894778Y-41325800D01*
X156874142Y-41155843D01*
X156813431Y-40995764D01*
X156716176Y-40854865D01*
X156588027Y-40741335D01*
X156588025Y-40741334D01*
X156588024Y-40741333D01*
X156436434Y-40661772D01*
X156353317Y-40641285D01*
X156270202Y-40620800D01*
X156098998Y-40620800D01*
X156055525Y-40631515D01*
X155932765Y-40661772D01*
X155781175Y-40741333D01*
X155653023Y-40854866D01*
X155555768Y-40995764D01*
X155495058Y-41155843D01*
X155474421Y-41325800D01*
X114824389Y-41325800D01*
X114822814Y-39877999D01*
X124464369Y-39877999D01*
X124484844Y-40085892D01*
X124484845Y-40085894D01*
X124545485Y-40285799D01*
X124643960Y-40470033D01*
X124776485Y-40631515D01*
X124937967Y-40764040D01*
X125122201Y-40862515D01*
X125322106Y-40923155D01*
X125477905Y-40938500D01*
X125982094Y-40938500D01*
X125982095Y-40938500D01*
X126137894Y-40923155D01*
X126337799Y-40862515D01*
X126522033Y-40764040D01*
X126683515Y-40631515D01*
X126816040Y-40470033D01*
X126914515Y-40285799D01*
X126975155Y-40085894D01*
X126995631Y-39878000D01*
X126995631Y-39877999D01*
X147324369Y-39877999D01*
X147344844Y-40085892D01*
X147344845Y-40085894D01*
X147405485Y-40285799D01*
X147503960Y-40470033D01*
X147636485Y-40631515D01*
X147797967Y-40764040D01*
X147982201Y-40862515D01*
X148182106Y-40923155D01*
X148337905Y-40938500D01*
X148842094Y-40938500D01*
X148842095Y-40938500D01*
X148997894Y-40923155D01*
X149197799Y-40862515D01*
X149382033Y-40764040D01*
X149543515Y-40631515D01*
X149676040Y-40470033D01*
X149774515Y-40285799D01*
X149835155Y-40085894D01*
X149855631Y-39878000D01*
X149835155Y-39670106D01*
X149774515Y-39470201D01*
X149676040Y-39285967D01*
X149543515Y-39124485D01*
X149382033Y-38991960D01*
X149382032Y-38991959D01*
X149197801Y-38893486D01*
X149197800Y-38893485D01*
X149197799Y-38893485D01*
X149097846Y-38863164D01*
X148997892Y-38832844D01*
X148859115Y-38819176D01*
X148842095Y-38817500D01*
X148337905Y-38817500D01*
X148322561Y-38819011D01*
X148182107Y-38832844D01*
X147982198Y-38893486D01*
X147797967Y-38991959D01*
X147636485Y-39124485D01*
X147503959Y-39285967D01*
X147405486Y-39470198D01*
X147344844Y-39670107D01*
X147324369Y-39877999D01*
X126995631Y-39877999D01*
X126975155Y-39670106D01*
X126914515Y-39470201D01*
X126816040Y-39285967D01*
X126683515Y-39124485D01*
X126522033Y-38991960D01*
X126522032Y-38991959D01*
X126337801Y-38893486D01*
X126337800Y-38893485D01*
X126337799Y-38893485D01*
X126237846Y-38863164D01*
X126137892Y-38832844D01*
X125999115Y-38819176D01*
X125982095Y-38817500D01*
X125477905Y-38817500D01*
X125462561Y-38819011D01*
X125322107Y-38832844D01*
X125122198Y-38893486D01*
X124937967Y-38991959D01*
X124776485Y-39124485D01*
X124643959Y-39285967D01*
X124545486Y-39470198D01*
X124484844Y-39670107D01*
X124464369Y-39877999D01*
X114822814Y-39877999D01*
X114820050Y-37337999D01*
X124464369Y-37337999D01*
X124484844Y-37545892D01*
X124484845Y-37545894D01*
X124545485Y-37745799D01*
X124643960Y-37930033D01*
X124776485Y-38091515D01*
X124937967Y-38224040D01*
X125122201Y-38322515D01*
X125322106Y-38383155D01*
X125477905Y-38398500D01*
X125982094Y-38398500D01*
X125982095Y-38398500D01*
X126137894Y-38383155D01*
X126337799Y-38322515D01*
X126522033Y-38224040D01*
X126683515Y-38091515D01*
X126816040Y-37930033D01*
X126914515Y-37745799D01*
X126975155Y-37545894D01*
X126995631Y-37338000D01*
X126995631Y-37337999D01*
X147324369Y-37337999D01*
X147344844Y-37545892D01*
X147344845Y-37545894D01*
X147405485Y-37745799D01*
X147503960Y-37930033D01*
X147636485Y-38091515D01*
X147797967Y-38224040D01*
X147982201Y-38322515D01*
X148182106Y-38383155D01*
X148337905Y-38398500D01*
X148842094Y-38398500D01*
X148842095Y-38398500D01*
X148997894Y-38383155D01*
X149197799Y-38322515D01*
X149382033Y-38224040D01*
X149543515Y-38091515D01*
X149676040Y-37930033D01*
X149774515Y-37745799D01*
X149835155Y-37545894D01*
X149855631Y-37338000D01*
X149835155Y-37130106D01*
X149774515Y-36930201D01*
X149676040Y-36745967D01*
X149543515Y-36584485D01*
X149382033Y-36451960D01*
X149382032Y-36451959D01*
X149197801Y-36353486D01*
X149197800Y-36353485D01*
X149197799Y-36353485D01*
X149097846Y-36323164D01*
X148997892Y-36292844D01*
X148859115Y-36279176D01*
X148842095Y-36277500D01*
X148337905Y-36277500D01*
X148322561Y-36279011D01*
X148182107Y-36292844D01*
X147982198Y-36353486D01*
X147797967Y-36451959D01*
X147636485Y-36584485D01*
X147503959Y-36745967D01*
X147405486Y-36930198D01*
X147344844Y-37130107D01*
X147324369Y-37337999D01*
X126995631Y-37337999D01*
X126975155Y-37130106D01*
X126914515Y-36930201D01*
X126816040Y-36745967D01*
X126683515Y-36584485D01*
X126522033Y-36451960D01*
X126522032Y-36451959D01*
X126337801Y-36353486D01*
X126337800Y-36353485D01*
X126337799Y-36353485D01*
X126237846Y-36323164D01*
X126137892Y-36292844D01*
X125999115Y-36279176D01*
X125982095Y-36277500D01*
X125477905Y-36277500D01*
X125462561Y-36279011D01*
X125322107Y-36292844D01*
X125122198Y-36353486D01*
X124937967Y-36451959D01*
X124776485Y-36584485D01*
X124643959Y-36745967D01*
X124545486Y-36930198D01*
X124484844Y-37130107D01*
X124464369Y-37337999D01*
X114820050Y-37337999D01*
X114817286Y-34797999D01*
X124464369Y-34797999D01*
X124484844Y-35005892D01*
X124484845Y-35005894D01*
X124545485Y-35205799D01*
X124643960Y-35390033D01*
X124776485Y-35551515D01*
X124937967Y-35684040D01*
X125122201Y-35782515D01*
X125322106Y-35843155D01*
X125477905Y-35858500D01*
X125982094Y-35858500D01*
X125982095Y-35858500D01*
X126137894Y-35843155D01*
X126337799Y-35782515D01*
X126522033Y-35684040D01*
X126683515Y-35551515D01*
X126816040Y-35390033D01*
X126914515Y-35205799D01*
X126975155Y-35005894D01*
X126995631Y-34798000D01*
X147324369Y-34798000D01*
X147344844Y-35005892D01*
X147344845Y-35005894D01*
X147405485Y-35205799D01*
X147503960Y-35390033D01*
X147636485Y-35551515D01*
X147797967Y-35684040D01*
X147982201Y-35782515D01*
X148182106Y-35843155D01*
X148337905Y-35858500D01*
X148842094Y-35858500D01*
X148842095Y-35858500D01*
X148997894Y-35843155D01*
X149197799Y-35782515D01*
X149382033Y-35684040D01*
X149543515Y-35551515D01*
X149676040Y-35390033D01*
X149774515Y-35205799D01*
X149835155Y-35005894D01*
X149855631Y-34798000D01*
X149835155Y-34590106D01*
X149774515Y-34390201D01*
X149676040Y-34205967D01*
X149543515Y-34044485D01*
X149382033Y-33911960D01*
X149382032Y-33911959D01*
X149197801Y-33813486D01*
X149197800Y-33813485D01*
X149197799Y-33813485D01*
X149097846Y-33783165D01*
X148997892Y-33752844D01*
X148859115Y-33739176D01*
X148842095Y-33737500D01*
X148337905Y-33737500D01*
X148322560Y-33739011D01*
X148182107Y-33752844D01*
X147982198Y-33813486D01*
X147797967Y-33911959D01*
X147636485Y-34044485D01*
X147503959Y-34205967D01*
X147405486Y-34390198D01*
X147344844Y-34590107D01*
X147324369Y-34798000D01*
X126995631Y-34798000D01*
X126975155Y-34590106D01*
X126914515Y-34390201D01*
X126816040Y-34205967D01*
X126683515Y-34044485D01*
X126522033Y-33911960D01*
X126522032Y-33911959D01*
X126337801Y-33813486D01*
X126337800Y-33813485D01*
X126337799Y-33813485D01*
X126237846Y-33783165D01*
X126137892Y-33752844D01*
X125999115Y-33739176D01*
X125982095Y-33737500D01*
X125477905Y-33737500D01*
X125462560Y-33739011D01*
X125322107Y-33752844D01*
X125122198Y-33813486D01*
X124937967Y-33911959D01*
X124776485Y-34044485D01*
X124643959Y-34205967D01*
X124545486Y-34390198D01*
X124484844Y-34590107D01*
X124464369Y-34797999D01*
X114817286Y-34797999D01*
X114814361Y-32110027D01*
X116833523Y-32110027D01*
X116913482Y-32175079D01*
X117155439Y-32322216D01*
X117415176Y-32435036D01*
X117687864Y-32511440D01*
X117968408Y-32550000D01*
X118251592Y-32550000D01*
X118532135Y-32511440D01*
X118804823Y-32435036D01*
X119064560Y-32322216D01*
X119170161Y-32257999D01*
X124464369Y-32257999D01*
X124484844Y-32465892D01*
X124484845Y-32465894D01*
X124545485Y-32665799D01*
X124643960Y-32850033D01*
X124776485Y-33011515D01*
X124937967Y-33144040D01*
X125122201Y-33242515D01*
X125322106Y-33303155D01*
X125477905Y-33318500D01*
X125982094Y-33318500D01*
X125982095Y-33318500D01*
X126137894Y-33303155D01*
X126337799Y-33242515D01*
X126522033Y-33144040D01*
X126683515Y-33011515D01*
X126816040Y-32850033D01*
X126914515Y-32665799D01*
X126975155Y-32465894D01*
X126995631Y-32258000D01*
X126995631Y-32257999D01*
X147324369Y-32257999D01*
X147344844Y-32465892D01*
X147344845Y-32465894D01*
X147405485Y-32665799D01*
X147503960Y-32850033D01*
X147636485Y-33011515D01*
X147797967Y-33144040D01*
X147982201Y-33242515D01*
X148182106Y-33303155D01*
X148337905Y-33318500D01*
X148842094Y-33318500D01*
X148842095Y-33318500D01*
X148997894Y-33303155D01*
X149197799Y-33242515D01*
X149382033Y-33144040D01*
X149543515Y-33011515D01*
X149676040Y-32850033D01*
X149774515Y-32665799D01*
X149835155Y-32465894D01*
X149855631Y-32258000D01*
X149841057Y-32110027D01*
X154933523Y-32110027D01*
X155013482Y-32175079D01*
X155255439Y-32322216D01*
X155515176Y-32435036D01*
X155787864Y-32511440D01*
X156068408Y-32550000D01*
X156351592Y-32550000D01*
X156632135Y-32511440D01*
X156904823Y-32435036D01*
X157164560Y-32322216D01*
X157406518Y-32175079D01*
X157486474Y-32110027D01*
X156210000Y-30833553D01*
X154933523Y-32110027D01*
X149841057Y-32110027D01*
X149835155Y-32050106D01*
X149774515Y-31850201D01*
X149676040Y-31665967D01*
X149543515Y-31504485D01*
X149382033Y-31371960D01*
X149382032Y-31371959D01*
X149197801Y-31273486D01*
X149197800Y-31273485D01*
X149197799Y-31273485D01*
X149097846Y-31243165D01*
X148997892Y-31212844D01*
X148859115Y-31199176D01*
X148842095Y-31197500D01*
X148337905Y-31197500D01*
X148322561Y-31199011D01*
X148182107Y-31212844D01*
X147982198Y-31273486D01*
X147797967Y-31371959D01*
X147636485Y-31504485D01*
X147503959Y-31665967D01*
X147405486Y-31850198D01*
X147344844Y-32050107D01*
X147324369Y-32257999D01*
X126995631Y-32257999D01*
X126975155Y-32050106D01*
X126914515Y-31850201D01*
X126816040Y-31665967D01*
X126683515Y-31504485D01*
X126522033Y-31371960D01*
X126522032Y-31371959D01*
X126337801Y-31273486D01*
X126337800Y-31273485D01*
X126337799Y-31273485D01*
X126237846Y-31243165D01*
X126137892Y-31212844D01*
X125999115Y-31199176D01*
X125982095Y-31197500D01*
X125477905Y-31197500D01*
X125462561Y-31199011D01*
X125322107Y-31212844D01*
X125122198Y-31273486D01*
X124937967Y-31371959D01*
X124776485Y-31504485D01*
X124643959Y-31665967D01*
X124545486Y-31850198D01*
X124484844Y-32050107D01*
X124464369Y-32257999D01*
X119170161Y-32257999D01*
X119306518Y-32175079D01*
X119386475Y-32110027D01*
X118110000Y-30833553D01*
X116833523Y-32110027D01*
X114814361Y-32110027D01*
X114812587Y-30479999D01*
X116035162Y-30479999D01*
X116054488Y-30762526D01*
X116112103Y-31039784D01*
X116206934Y-31306613D01*
X116337220Y-31558055D01*
X116478394Y-31758052D01*
X117756447Y-30480001D01*
X117756447Y-30480000D01*
X118463553Y-30480000D01*
X119741604Y-31758051D01*
X119882781Y-31558052D01*
X120013065Y-31306613D01*
X120107896Y-31039784D01*
X120165511Y-30762526D01*
X120184837Y-30479999D01*
X120165511Y-30197473D01*
X120107896Y-29920215D01*
X120013065Y-29653386D01*
X119882779Y-29401944D01*
X119741605Y-29201947D01*
X118463553Y-30480000D01*
X117756447Y-30480000D01*
X116478394Y-29201946D01*
X116337220Y-29401943D01*
X116206934Y-29653386D01*
X116112103Y-29920215D01*
X116054488Y-30197473D01*
X116035162Y-30479999D01*
X114812587Y-30479999D01*
X114810813Y-28849971D01*
X116833523Y-28849971D01*
X118110000Y-30126447D01*
X118110001Y-30126447D01*
X119386475Y-28849971D01*
X119306517Y-28784920D01*
X119064560Y-28637783D01*
X118804823Y-28524963D01*
X118532135Y-28448559D01*
X118251592Y-28410000D01*
X117968408Y-28410000D01*
X117687864Y-28448559D01*
X117415176Y-28524963D01*
X117155439Y-28637783D01*
X116913483Y-28784920D01*
X116833523Y-28849971D01*
X114810813Y-28849971D01*
X114808134Y-26387660D01*
X114824690Y-26325627D01*
X114870054Y-26280188D01*
X114932061Y-26263529D01*
X124345430Y-26258187D01*
X124407459Y-26274776D01*
X124452875Y-26320167D01*
X124469500Y-26382187D01*
X124469500Y-28203655D01*
X124484614Y-28279640D01*
X124484614Y-28279641D01*
X124484615Y-28279642D01*
X124542190Y-28365810D01*
X124628358Y-28423385D01*
X124666351Y-28430942D01*
X124704345Y-28438500D01*
X125258698Y-28438500D01*
X125325551Y-28458065D01*
X125371308Y-28510586D01*
X125381529Y-28579490D01*
X125352988Y-28643032D01*
X125294694Y-28681160D01*
X125122201Y-28733485D01*
X125122198Y-28733486D01*
X124937967Y-28831959D01*
X124776485Y-28964485D01*
X124643959Y-29125967D01*
X124545486Y-29310198D01*
X124484844Y-29510107D01*
X124464369Y-29717999D01*
X124484844Y-29925892D01*
X124545486Y-30125801D01*
X124583795Y-30197473D01*
X124643960Y-30310033D01*
X124776485Y-30471515D01*
X124937967Y-30604040D01*
X125122201Y-30702515D01*
X125322106Y-30763155D01*
X125477905Y-30778500D01*
X125982094Y-30778500D01*
X125982095Y-30778500D01*
X126137894Y-30763155D01*
X126337799Y-30702515D01*
X126522033Y-30604040D01*
X126683515Y-30471515D01*
X126816040Y-30310033D01*
X126914515Y-30125799D01*
X126975155Y-29925894D01*
X126995631Y-29718000D01*
X147324369Y-29718000D01*
X147344844Y-29925892D01*
X147405486Y-30125801D01*
X147443795Y-30197473D01*
X147503960Y-30310033D01*
X147636485Y-30471515D01*
X147797967Y-30604040D01*
X147982201Y-30702515D01*
X148182106Y-30763155D01*
X148337905Y-30778500D01*
X148842094Y-30778500D01*
X148842095Y-30778500D01*
X148997894Y-30763155D01*
X149197799Y-30702515D01*
X149382033Y-30604040D01*
X149533176Y-30480000D01*
X154135162Y-30480000D01*
X154154488Y-30762526D01*
X154212103Y-31039784D01*
X154306934Y-31306613D01*
X154437220Y-31558055D01*
X154578394Y-31758052D01*
X155856447Y-30480001D01*
X155856447Y-30480000D01*
X156563553Y-30480000D01*
X157841604Y-31758051D01*
X157982781Y-31558052D01*
X158113065Y-31306613D01*
X158207896Y-31039784D01*
X158265511Y-30762526D01*
X158284837Y-30480000D01*
X158265511Y-30197473D01*
X158207896Y-29920215D01*
X158113065Y-29653386D01*
X157982779Y-29401944D01*
X157841605Y-29201947D01*
X156563553Y-30480000D01*
X155856447Y-30480000D01*
X155856447Y-30479999D01*
X154578394Y-29201946D01*
X154437220Y-29401943D01*
X154306934Y-29653386D01*
X154212103Y-29920215D01*
X154154488Y-30197473D01*
X154135162Y-30480000D01*
X149533176Y-30480000D01*
X149543515Y-30471515D01*
X149676040Y-30310033D01*
X149774515Y-30125799D01*
X149835155Y-29925894D01*
X149855631Y-29718000D01*
X149835155Y-29510106D01*
X149774515Y-29310201D01*
X149676040Y-29125967D01*
X149543515Y-28964485D01*
X149403979Y-28849971D01*
X154933523Y-28849971D01*
X156210000Y-30126447D01*
X156210001Y-30126447D01*
X157486475Y-28849971D01*
X157406517Y-28784920D01*
X157164560Y-28637783D01*
X156904823Y-28524963D01*
X156632135Y-28448559D01*
X156351592Y-28410000D01*
X156068408Y-28410000D01*
X155787864Y-28448559D01*
X155515176Y-28524963D01*
X155255439Y-28637783D01*
X155013483Y-28784920D01*
X154933523Y-28849971D01*
X149403979Y-28849971D01*
X149382033Y-28831960D01*
X149382032Y-28831959D01*
X149197801Y-28733486D01*
X149197800Y-28733485D01*
X149197799Y-28733485D01*
X149097846Y-28703164D01*
X148997892Y-28672844D01*
X148859115Y-28659176D01*
X148842095Y-28657500D01*
X148337905Y-28657500D01*
X148322561Y-28659011D01*
X148182107Y-28672844D01*
X147982198Y-28733486D01*
X147797967Y-28831959D01*
X147636485Y-28964485D01*
X147503959Y-29125967D01*
X147405486Y-29310198D01*
X147344844Y-29510107D01*
X147324369Y-29718000D01*
X126995631Y-29718000D01*
X126975155Y-29510106D01*
X126914515Y-29310201D01*
X126816040Y-29125967D01*
X126683515Y-28964485D01*
X126522033Y-28831960D01*
X126522032Y-28831959D01*
X126337801Y-28733486D01*
X126337800Y-28733485D01*
X126337799Y-28733485D01*
X126165305Y-28681160D01*
X126107012Y-28643032D01*
X126078471Y-28579490D01*
X126088692Y-28510586D01*
X126134449Y-28458065D01*
X126201302Y-28438500D01*
X126755655Y-28438500D01*
X126780983Y-28433461D01*
X126831642Y-28423385D01*
X126917810Y-28365810D01*
X126975385Y-28279642D01*
X126990500Y-28203654D01*
X126990500Y-26380616D01*
X127007101Y-26318636D01*
X127052459Y-26273252D01*
X127114430Y-26256616D01*
X130347543Y-26254780D01*
X147521518Y-26245033D01*
X147587877Y-26264242D01*
X147633662Y-26315983D01*
X147644652Y-26384193D01*
X147617435Y-26447697D01*
X147503959Y-26585967D01*
X147405486Y-26770198D01*
X147344844Y-26970107D01*
X147324369Y-27177999D01*
X147344844Y-27385892D01*
X147344845Y-27385894D01*
X147405485Y-27585799D01*
X147503960Y-27770033D01*
X147636485Y-27931515D01*
X147797967Y-28064040D01*
X147982201Y-28162515D01*
X148182106Y-28223155D01*
X148337905Y-28238500D01*
X148842094Y-28238500D01*
X148842095Y-28238500D01*
X148997894Y-28223155D01*
X149197799Y-28162515D01*
X149382033Y-28064040D01*
X149543515Y-27931515D01*
X149676040Y-27770033D01*
X149774515Y-27585799D01*
X149835155Y-27385894D01*
X149855631Y-27178000D01*
X149835155Y-26970106D01*
X149774515Y-26770201D01*
X149676040Y-26585967D01*
X149561570Y-26446485D01*
X149534358Y-26383016D01*
X149545313Y-26314835D01*
X149591039Y-26263086D01*
X149657347Y-26243821D01*
X159331088Y-26238331D01*
X159395430Y-26238295D01*
X159457459Y-26254884D01*
G37*
%TD.AperFunction*%
%TA.AperFunction,Conductor*%
G36*
X157988000Y-69250945D02*
G01*
X157956730Y-69291697D01*
X157935894Y-69342000D01*
X155575000Y-69342000D01*
X155575000Y-66929000D01*
X157988000Y-66929000D01*
X157988000Y-69250945D01*
G37*
%TD.AperFunction*%
M02*
