%TF.GenerationSoftware,KiCad,Pcbnew,7.0.1*%
%TF.CreationDate,2023-06-05T22:57:53+02:00*%
%TF.ProjectId,AxisPCB-STM32F411,41786973-5043-4422-9d53-544d33324634,1*%
%TF.SameCoordinates,Original*%
%TF.FileFunction,Drillmap*%
%TF.FilePolarity,Positive*%
%FSLAX45Y45*%
G04 Gerber Fmt 4.5, Leading zero omitted, Abs format (unit mm)*
G04 Created by KiCad (PCBNEW 7.0.1) date 2023-06-05 22:57:53*
%MOMM*%
%LPD*%
G01*
G04 APERTURE LIST*
%ADD10C,0.038100*%
%ADD11C,0.200000*%
G04 APERTURE END LIST*
D10*
X11430000Y-2540000D02*
X16002000Y-2540000D01*
X16002000Y-9690100D01*
X11430000Y-9690100D01*
X11430000Y-2540000D01*
D11*
X11675714Y-10004529D02*
X11675714Y-9804529D01*
X11675714Y-9804529D02*
X11723333Y-9804529D01*
X11723333Y-9804529D02*
X11751904Y-9814053D01*
X11751904Y-9814053D02*
X11770952Y-9833100D01*
X11770952Y-9833100D02*
X11780476Y-9852148D01*
X11780476Y-9852148D02*
X11790000Y-9890243D01*
X11790000Y-9890243D02*
X11790000Y-9918815D01*
X11790000Y-9918815D02*
X11780476Y-9956910D01*
X11780476Y-9956910D02*
X11770952Y-9975957D01*
X11770952Y-9975957D02*
X11751904Y-9995005D01*
X11751904Y-9995005D02*
X11723333Y-10004529D01*
X11723333Y-10004529D02*
X11675714Y-10004529D01*
X11875714Y-10004529D02*
X11875714Y-9871195D01*
X11875714Y-9909291D02*
X11885238Y-9890243D01*
X11885238Y-9890243D02*
X11894762Y-9880719D01*
X11894762Y-9880719D02*
X11913809Y-9871195D01*
X11913809Y-9871195D02*
X11932857Y-9871195D01*
X11999523Y-10004529D02*
X11999523Y-9871195D01*
X11999523Y-9804529D02*
X11990000Y-9814053D01*
X11990000Y-9814053D02*
X11999523Y-9823576D01*
X11999523Y-9823576D02*
X12009047Y-9814053D01*
X12009047Y-9814053D02*
X11999523Y-9804529D01*
X11999523Y-9804529D02*
X11999523Y-9823576D01*
X12123333Y-10004529D02*
X12104285Y-9995005D01*
X12104285Y-9995005D02*
X12094762Y-9975957D01*
X12094762Y-9975957D02*
X12094762Y-9804529D01*
X12228095Y-10004529D02*
X12209047Y-9995005D01*
X12209047Y-9995005D02*
X12199523Y-9975957D01*
X12199523Y-9975957D02*
X12199523Y-9804529D01*
X12456666Y-10004529D02*
X12456666Y-9804529D01*
X12456666Y-9804529D02*
X12523333Y-9947386D01*
X12523333Y-9947386D02*
X12590000Y-9804529D01*
X12590000Y-9804529D02*
X12590000Y-10004529D01*
X12770952Y-10004529D02*
X12770952Y-9899767D01*
X12770952Y-9899767D02*
X12761428Y-9880719D01*
X12761428Y-9880719D02*
X12742381Y-9871195D01*
X12742381Y-9871195D02*
X12704285Y-9871195D01*
X12704285Y-9871195D02*
X12685238Y-9880719D01*
X12770952Y-9995005D02*
X12751904Y-10004529D01*
X12751904Y-10004529D02*
X12704285Y-10004529D01*
X12704285Y-10004529D02*
X12685238Y-9995005D01*
X12685238Y-9995005D02*
X12675714Y-9975957D01*
X12675714Y-9975957D02*
X12675714Y-9956910D01*
X12675714Y-9956910D02*
X12685238Y-9937862D01*
X12685238Y-9937862D02*
X12704285Y-9928338D01*
X12704285Y-9928338D02*
X12751904Y-9928338D01*
X12751904Y-9928338D02*
X12770952Y-9918815D01*
X12866190Y-9871195D02*
X12866190Y-10071195D01*
X12866190Y-9880719D02*
X12885238Y-9871195D01*
X12885238Y-9871195D02*
X12923333Y-9871195D01*
X12923333Y-9871195D02*
X12942381Y-9880719D01*
X12942381Y-9880719D02*
X12951904Y-9890243D01*
X12951904Y-9890243D02*
X12961428Y-9909291D01*
X12961428Y-9909291D02*
X12961428Y-9966434D01*
X12961428Y-9966434D02*
X12951904Y-9985481D01*
X12951904Y-9985481D02*
X12942381Y-9995005D01*
X12942381Y-9995005D02*
X12923333Y-10004529D01*
X12923333Y-10004529D02*
X12885238Y-10004529D01*
X12885238Y-10004529D02*
X12866190Y-9995005D01*
X13047143Y-9985481D02*
X13056666Y-9995005D01*
X13056666Y-9995005D02*
X13047143Y-10004529D01*
X13047143Y-10004529D02*
X13037619Y-9995005D01*
X13037619Y-9995005D02*
X13047143Y-9985481D01*
X13047143Y-9985481D02*
X13047143Y-10004529D01*
X13047143Y-9880719D02*
X13056666Y-9890243D01*
X13056666Y-9890243D02*
X13047143Y-9899767D01*
X13047143Y-9899767D02*
X13037619Y-9890243D01*
X13037619Y-9890243D02*
X13047143Y-9880719D01*
X13047143Y-9880719D02*
X13047143Y-9899767D01*
M02*
