%TF.GenerationSoftware,KiCad,Pcbnew,7.0.1*%
%TF.CreationDate,2023-06-05T22:57:50+02:00*%
%TF.ProjectId,AxisPCB-STM32F411,41786973-5043-4422-9d53-544d33324634,1*%
%TF.SameCoordinates,Original*%
%TF.FileFunction,Copper,L1,Top*%
%TF.FilePolarity,Positive*%
%FSLAX46Y46*%
G04 Gerber Fmt 4.6, Leading zero omitted, Abs format (unit mm)*
G04 Created by KiCad (PCBNEW 7.0.1) date 2023-06-05 22:57:50*
%MOMM*%
%LPD*%
G01*
G04 APERTURE LIST*
G04 Aperture macros list*
%AMRoundRect*
0 Rectangle with rounded corners*
0 $1 Rounding radius*
0 $2 $3 $4 $5 $6 $7 $8 $9 X,Y pos of 4 corners*
0 Add a 4 corners polygon primitive as box body*
4,1,4,$2,$3,$4,$5,$6,$7,$8,$9,$2,$3,0*
0 Add four circle primitives for the rounded corners*
1,1,$1+$1,$2,$3*
1,1,$1+$1,$4,$5*
1,1,$1+$1,$6,$7*
1,1,$1+$1,$8,$9*
0 Add four rect primitives between the rounded corners*
20,1,$1+$1,$2,$3,$4,$5,0*
20,1,$1+$1,$4,$5,$6,$7,0*
20,1,$1+$1,$6,$7,$8,$9,0*
20,1,$1+$1,$8,$9,$2,$3,0*%
%AMFreePoly0*
4,1,19,0.500000,-0.750000,0.000000,-0.750000,0.000000,-0.744911,-0.071157,-0.744911,-0.207708,-0.704816,-0.327430,-0.627875,-0.420627,-0.520320,-0.479746,-0.390866,-0.500000,-0.250000,-0.500000,0.250000,-0.479746,0.390866,-0.420627,0.520320,-0.327430,0.627875,-0.207708,0.704816,-0.071157,0.744911,0.000000,0.744911,0.000000,0.750000,0.500000,0.750000,0.500000,-0.750000,0.500000,-0.750000,
$1*%
%AMFreePoly1*
4,1,19,0.000000,0.744911,0.071157,0.744911,0.207708,0.704816,0.327430,0.627875,0.420627,0.520320,0.479746,0.390866,0.500000,0.250000,0.500000,-0.250000,0.479746,-0.390866,0.420627,-0.520320,0.327430,-0.627875,0.207708,-0.704816,0.071157,-0.744911,0.000000,-0.744911,0.000000,-0.750000,-0.500000,-0.750000,-0.500000,0.750000,0.000000,0.750000,0.000000,0.744911,0.000000,0.744911,
$1*%
%AMFreePoly2*
4,1,14,0.289644,0.110355,0.410355,-0.010356,0.425000,-0.045711,0.425000,-0.075000,0.410355,-0.110355,0.375000,-0.125000,-0.375000,-0.125000,-0.410355,-0.110355,-0.425000,-0.075000,-0.425000,0.075000,-0.410355,0.110355,-0.375000,0.125000,0.254289,0.125000,0.289644,0.110355,0.289644,0.110355,$1*%
%AMFreePoly3*
4,1,14,0.410355,0.110355,0.425000,0.075000,0.425000,0.045711,0.410355,0.010356,0.289644,-0.110355,0.254289,-0.125000,-0.375000,-0.125000,-0.410355,-0.110355,-0.425000,-0.075000,-0.425000,0.075000,-0.410355,0.110355,-0.375000,0.125000,0.375000,0.125000,0.410355,0.110355,0.410355,0.110355,$1*%
%AMFreePoly4*
4,1,14,0.110355,0.410355,0.125000,0.375000,0.125000,-0.375000,0.110355,-0.410355,0.075000,-0.425000,-0.075000,-0.425000,-0.110355,-0.410355,-0.125000,-0.375000,-0.125000,0.254289,-0.110355,0.289644,0.010356,0.410355,0.045711,0.425000,0.075000,0.425000,0.110355,0.410355,0.110355,0.410355,$1*%
%AMFreePoly5*
4,1,14,-0.010356,0.410355,0.110355,0.289644,0.125000,0.254289,0.125000,-0.375000,0.110355,-0.410355,0.075000,-0.425000,-0.075000,-0.425000,-0.110355,-0.410355,-0.125000,-0.375000,-0.125000,0.375000,-0.110355,0.410355,-0.075000,0.425000,-0.045711,0.425000,-0.010356,0.410355,-0.010356,0.410355,$1*%
%AMFreePoly6*
4,1,14,0.410355,0.110355,0.425000,0.075000,0.425000,-0.075000,0.410355,-0.110355,0.375000,-0.125000,-0.254289,-0.125000,-0.289644,-0.110355,-0.410355,0.010356,-0.425000,0.045711,-0.425000,0.075000,-0.410355,0.110355,-0.375000,0.125000,0.375000,0.125000,0.410355,0.110355,0.410355,0.110355,$1*%
%AMFreePoly7*
4,1,14,0.410355,0.110355,0.425000,0.075000,0.425000,-0.075000,0.410355,-0.110355,0.375000,-0.125000,-0.375000,-0.125000,-0.410355,-0.110355,-0.425000,-0.075000,-0.425000,-0.045711,-0.410355,-0.010355,-0.289643,0.110355,-0.254289,0.125000,0.375000,0.125000,0.410355,0.110355,0.410355,0.110355,$1*%
%AMFreePoly8*
4,1,14,0.110355,0.410355,0.125000,0.375000,0.125000,-0.254289,0.110355,-0.289644,-0.010356,-0.410355,-0.045711,-0.425000,-0.075000,-0.425000,-0.110355,-0.410355,-0.125000,-0.375000,-0.125000,0.375000,-0.110355,0.410355,-0.075000,0.425000,0.075000,0.425000,0.110355,0.410355,0.110355,0.410355,$1*%
%AMFreePoly9*
4,1,14,0.110355,0.410355,0.125000,0.375000,0.125000,-0.375000,0.110355,-0.410355,0.075000,-0.425000,0.045711,-0.425000,0.010356,-0.410355,-0.110355,-0.289644,-0.125000,-0.254289,-0.125000,0.375000,-0.110355,0.410355,-0.075000,0.425000,0.075000,0.425000,0.110355,0.410355,0.110355,0.410355,$1*%
G04 Aperture macros list end*
%TA.AperFunction,SMDPad,CuDef*%
%ADD10RoundRect,0.140000X0.140000X0.170000X-0.140000X0.170000X-0.140000X-0.170000X0.140000X-0.170000X0*%
%TD*%
%TA.AperFunction,SMDPad,CuDef*%
%ADD11C,1.000000*%
%TD*%
%TA.AperFunction,SMDPad,CuDef*%
%ADD12RoundRect,0.250000X0.475000X-0.250000X0.475000X0.250000X-0.475000X0.250000X-0.475000X-0.250000X0*%
%TD*%
%TA.AperFunction,SMDPad,CuDef*%
%ADD13RoundRect,0.250000X-0.250000X-0.475000X0.250000X-0.475000X0.250000X0.475000X-0.250000X0.475000X0*%
%TD*%
%TA.AperFunction,SMDPad,CuDef*%
%ADD14RoundRect,0.135000X-0.185000X0.135000X-0.185000X-0.135000X0.185000X-0.135000X0.185000X0.135000X0*%
%TD*%
%TA.AperFunction,SMDPad,CuDef*%
%ADD15RoundRect,0.140000X-0.140000X-0.170000X0.140000X-0.170000X0.140000X0.170000X-0.140000X0.170000X0*%
%TD*%
%TA.AperFunction,ConnectorPad*%
%ADD16C,5.600000*%
%TD*%
%TA.AperFunction,ComponentPad*%
%ADD17C,3.600000*%
%TD*%
%TA.AperFunction,SMDPad,CuDef*%
%ADD18RoundRect,0.135000X0.135000X0.185000X-0.135000X0.185000X-0.135000X-0.185000X0.135000X-0.185000X0*%
%TD*%
%TA.AperFunction,SMDPad,CuDef*%
%ADD19RoundRect,0.135000X0.185000X-0.135000X0.185000X0.135000X-0.185000X0.135000X-0.185000X-0.135000X0*%
%TD*%
%TA.AperFunction,SMDPad,CuDef*%
%ADD20RoundRect,0.150000X-0.512500X-0.150000X0.512500X-0.150000X0.512500X0.150000X-0.512500X0.150000X0*%
%TD*%
%TA.AperFunction,SMDPad,CuDef*%
%ADD21RoundRect,0.135000X-0.135000X-0.185000X0.135000X-0.185000X0.135000X0.185000X-0.135000X0.185000X0*%
%TD*%
%TA.AperFunction,ComponentPad*%
%ADD22R,1.980000X3.960000*%
%TD*%
%TA.AperFunction,ComponentPad*%
%ADD23O,1.980000X3.960000*%
%TD*%
%TA.AperFunction,SMDPad,CuDef*%
%ADD24FreePoly0,180.000000*%
%TD*%
%TA.AperFunction,SMDPad,CuDef*%
%ADD25FreePoly1,180.000000*%
%TD*%
%TA.AperFunction,ComponentPad*%
%ADD26R,2.000000X2.000000*%
%TD*%
%TA.AperFunction,ComponentPad*%
%ADD27C,2.000000*%
%TD*%
%TA.AperFunction,SMDPad,CuDef*%
%ADD28R,3.500000X2.350000*%
%TD*%
%TA.AperFunction,SMDPad,CuDef*%
%ADD29RoundRect,0.225000X-0.250000X0.225000X-0.250000X-0.225000X0.250000X-0.225000X0.250000X0.225000X0*%
%TD*%
%TA.AperFunction,ComponentPad*%
%ADD30R,1.700000X1.700000*%
%TD*%
%TA.AperFunction,ComponentPad*%
%ADD31O,1.700000X1.700000*%
%TD*%
%TA.AperFunction,SMDPad,CuDef*%
%ADD32RoundRect,0.140000X0.170000X-0.140000X0.170000X0.140000X-0.170000X0.140000X-0.170000X-0.140000X0*%
%TD*%
%TA.AperFunction,SMDPad,CuDef*%
%ADD33RoundRect,0.150000X0.150000X-0.512500X0.150000X0.512500X-0.150000X0.512500X-0.150000X-0.512500X0*%
%TD*%
%TA.AperFunction,SMDPad,CuDef*%
%ADD34RoundRect,0.140000X-0.170000X0.140000X-0.170000X-0.140000X0.170000X-0.140000X0.170000X0.140000X0*%
%TD*%
%TA.AperFunction,SMDPad,CuDef*%
%ADD35RoundRect,0.075000X0.700000X0.075000X-0.700000X0.075000X-0.700000X-0.075000X0.700000X-0.075000X0*%
%TD*%
%TA.AperFunction,SMDPad,CuDef*%
%ADD36RoundRect,0.075000X0.075000X0.700000X-0.075000X0.700000X-0.075000X-0.700000X0.075000X-0.700000X0*%
%TD*%
%TA.AperFunction,SMDPad,CuDef*%
%ADD37RoundRect,0.100000X-0.100000X0.637500X-0.100000X-0.637500X0.100000X-0.637500X0.100000X0.637500X0*%
%TD*%
%TA.AperFunction,ComponentPad*%
%ADD38O,2.000000X1.600000*%
%TD*%
%TA.AperFunction,SMDPad,CuDef*%
%ADD39R,2.750000X1.000000*%
%TD*%
%TA.AperFunction,SMDPad,CuDef*%
%ADD40RoundRect,0.150000X-0.150000X0.587500X-0.150000X-0.587500X0.150000X-0.587500X0.150000X0.587500X0*%
%TD*%
%TA.AperFunction,SMDPad,CuDef*%
%ADD41R,2.400000X0.740000*%
%TD*%
%TA.AperFunction,ComponentPad*%
%ADD42R,1.800000X1.800000*%
%TD*%
%TA.AperFunction,ComponentPad*%
%ADD43C,1.800000*%
%TD*%
%TA.AperFunction,SMDPad,CuDef*%
%ADD44FreePoly2,90.000000*%
%TD*%
%TA.AperFunction,SMDPad,CuDef*%
%ADD45RoundRect,0.062500X0.062500X-0.362500X0.062500X0.362500X-0.062500X0.362500X-0.062500X-0.362500X0*%
%TD*%
%TA.AperFunction,SMDPad,CuDef*%
%ADD46FreePoly3,90.000000*%
%TD*%
%TA.AperFunction,SMDPad,CuDef*%
%ADD47FreePoly4,90.000000*%
%TD*%
%TA.AperFunction,SMDPad,CuDef*%
%ADD48RoundRect,0.062500X0.362500X-0.062500X0.362500X0.062500X-0.362500X0.062500X-0.362500X-0.062500X0*%
%TD*%
%TA.AperFunction,SMDPad,CuDef*%
%ADD49FreePoly5,90.000000*%
%TD*%
%TA.AperFunction,SMDPad,CuDef*%
%ADD50FreePoly6,90.000000*%
%TD*%
%TA.AperFunction,SMDPad,CuDef*%
%ADD51FreePoly7,90.000000*%
%TD*%
%TA.AperFunction,SMDPad,CuDef*%
%ADD52FreePoly8,90.000000*%
%TD*%
%TA.AperFunction,SMDPad,CuDef*%
%ADD53FreePoly9,90.000000*%
%TD*%
%TA.AperFunction,ComponentPad*%
%ADD54C,0.500000*%
%TD*%
%TA.AperFunction,SMDPad,CuDef*%
%ADD55R,1.550000X1.550000*%
%TD*%
%TA.AperFunction,SMDPad,CuDef*%
%ADD56RoundRect,0.218750X0.218750X0.256250X-0.218750X0.256250X-0.218750X-0.256250X0.218750X-0.256250X0*%
%TD*%
%TA.AperFunction,SMDPad,CuDef*%
%ADD57RoundRect,0.250000X0.300000X-0.300000X0.300000X0.300000X-0.300000X0.300000X-0.300000X-0.300000X0*%
%TD*%
%TA.AperFunction,SMDPad,CuDef*%
%ADD58RoundRect,0.250000X-0.475000X0.250000X-0.475000X-0.250000X0.475000X-0.250000X0.475000X0.250000X0*%
%TD*%
%TA.AperFunction,SMDPad,CuDef*%
%ADD59RoundRect,0.218750X-0.218750X-0.256250X0.218750X-0.256250X0.218750X0.256250X-0.218750X0.256250X0*%
%TD*%
%TA.AperFunction,SMDPad,CuDef*%
%ADD60RoundRect,0.250000X-0.650000X1.000000X-0.650000X-1.000000X0.650000X-1.000000X0.650000X1.000000X0*%
%TD*%
%TA.AperFunction,SMDPad,CuDef*%
%ADD61RoundRect,0.243750X-0.243750X-0.456250X0.243750X-0.456250X0.243750X0.456250X-0.243750X0.456250X0*%
%TD*%
%TA.AperFunction,SMDPad,CuDef*%
%ADD62RoundRect,0.250000X-0.600000X0.400000X-0.600000X-0.400000X0.600000X-0.400000X0.600000X0.400000X0*%
%TD*%
%TA.AperFunction,ViaPad*%
%ADD63C,0.685800*%
%TD*%
%TA.AperFunction,ViaPad*%
%ADD64C,0.889000*%
%TD*%
%TA.AperFunction,Conductor*%
%ADD65C,0.127000*%
%TD*%
%TA.AperFunction,Conductor*%
%ADD66C,0.254000*%
%TD*%
%TA.AperFunction,Conductor*%
%ADD67C,0.508000*%
%TD*%
%TA.AperFunction,Conductor*%
%ADD68C,1.016000*%
%TD*%
%TA.AperFunction,Conductor*%
%ADD69C,0.762000*%
%TD*%
%TA.AperFunction,Conductor*%
%ADD70C,2.032000*%
%TD*%
G04 APERTURE END LIST*
%TA.AperFunction,EtchedComponent*%
G36*
X128916000Y-43607000D02*
G01*
X128416000Y-43607000D01*
X128416000Y-43007000D01*
X128916000Y-43007000D01*
X128916000Y-43607000D01*
G37*
%TD.AperFunction*%
D10*
X129232600Y-57632600D03*
X128272600Y-57632600D03*
D11*
X151765000Y-94488000D03*
X127000000Y-88011000D03*
X151765000Y-27940000D03*
X116332000Y-35433000D03*
D12*
X143789400Y-82951400D03*
X143789400Y-81051400D03*
D10*
X155801000Y-72009000D03*
X154841000Y-72009000D03*
D13*
X118938000Y-41656000D03*
X120838000Y-41656000D03*
X155641000Y-56515000D03*
X157541000Y-56515000D03*
X154244000Y-85471000D03*
X156144000Y-85471000D03*
D10*
X136116000Y-72923400D03*
X135156000Y-72923400D03*
D14*
X147706500Y-57275000D03*
X147706500Y-58295000D03*
D15*
X150551000Y-62230000D03*
X151511000Y-62230000D03*
D14*
X133934200Y-72184800D03*
X133934200Y-73204800D03*
D16*
X156210000Y-30480000D03*
D17*
X156210000Y-30480000D03*
D15*
X137873800Y-69951600D03*
X138833800Y-69951600D03*
D18*
X146306000Y-29972000D03*
X145286000Y-29972000D03*
D19*
X158445200Y-85981000D03*
X158445200Y-84961000D03*
D20*
X145796000Y-57023000D03*
X143521000Y-57973000D03*
X143521000Y-56073000D03*
D21*
X139317000Y-90170000D03*
X140337000Y-90170000D03*
D22*
X144428000Y-90424000D03*
D23*
X149428000Y-90424000D03*
D12*
X153289000Y-57272000D03*
X153289000Y-55372000D03*
D24*
X152542000Y-40894000D03*
D25*
X151242000Y-40894000D03*
D18*
X123446000Y-67564000D03*
X122426000Y-67564000D03*
D15*
X124488000Y-70358000D03*
X125448000Y-70358000D03*
D26*
X152153323Y-78740000D03*
D27*
X157153323Y-78740000D03*
D21*
X156309600Y-64820800D03*
X157329600Y-64820800D03*
D18*
X129288000Y-35052000D03*
X128268000Y-35052000D03*
D28*
X148994000Y-70489800D03*
X148994000Y-64439800D03*
D18*
X129288000Y-37592000D03*
X128268000Y-37592000D03*
D21*
X153310000Y-64874000D03*
X154330000Y-64874000D03*
D12*
X148183600Y-82941200D03*
X148183600Y-81041200D03*
D29*
X153543000Y-69534600D03*
X153543000Y-71084600D03*
D14*
X156360000Y-62840000D03*
X156360000Y-63860000D03*
D30*
X121600000Y-44450000D03*
D31*
X121600000Y-46990000D03*
X121600000Y-49530000D03*
X121600000Y-52070000D03*
D19*
X158445200Y-87602600D03*
X158445200Y-88622600D03*
D12*
X141592200Y-82951400D03*
X141592200Y-81051400D03*
D21*
X145286000Y-27432000D03*
X146306000Y-27432000D03*
X128016000Y-92456000D03*
X129036000Y-92456000D03*
D18*
X122656000Y-64008000D03*
X121636000Y-64008000D03*
X129288000Y-39624000D03*
X128268000Y-39624000D03*
D32*
X141986000Y-57884000D03*
X141986000Y-56924000D03*
D33*
X124526000Y-51175500D03*
X125476000Y-51175500D03*
X126426000Y-51175500D03*
X126426000Y-48900500D03*
X125476000Y-48900500D03*
X124526000Y-48900500D03*
D34*
X139852400Y-62689800D03*
X139852400Y-63649800D03*
D10*
X129006000Y-93726000D03*
X128046000Y-93726000D03*
D17*
X156210000Y-92710000D03*
D16*
X156210000Y-92710000D03*
D34*
X127000000Y-58244800D03*
X127000000Y-59204800D03*
D19*
X155344000Y-64876000D03*
X155344000Y-63856000D03*
D35*
X137628000Y-68774000D03*
X137628000Y-68274000D03*
X137628000Y-67774000D03*
X137628000Y-67274000D03*
X137628000Y-66774000D03*
X137628000Y-66274000D03*
X137628000Y-65774000D03*
X137628000Y-65274000D03*
X137628000Y-64774000D03*
X137628000Y-64274000D03*
X137628000Y-63774000D03*
X137628000Y-63274000D03*
X137628000Y-62774000D03*
X137628000Y-62274000D03*
X137628000Y-61774000D03*
X137628000Y-61274000D03*
D36*
X135703000Y-59349000D03*
X135203000Y-59349000D03*
X134703000Y-59349000D03*
X134203000Y-59349000D03*
X133703000Y-59349000D03*
X133203000Y-59349000D03*
X132703000Y-59349000D03*
X132203000Y-59349000D03*
X131703000Y-59349000D03*
X131203000Y-59349000D03*
X130703000Y-59349000D03*
X130203000Y-59349000D03*
X129703000Y-59349000D03*
X129203000Y-59349000D03*
X128703000Y-59349000D03*
X128203000Y-59349000D03*
D35*
X126278000Y-61274000D03*
X126278000Y-61774000D03*
X126278000Y-62274000D03*
X126278000Y-62774000D03*
X126278000Y-63274000D03*
X126278000Y-63774000D03*
X126278000Y-64274000D03*
X126278000Y-64774000D03*
X126278000Y-65274000D03*
X126278000Y-65774000D03*
X126278000Y-66274000D03*
X126278000Y-66774000D03*
X126278000Y-67274000D03*
X126278000Y-67774000D03*
X126278000Y-68274000D03*
X126278000Y-68774000D03*
D36*
X128203000Y-70699000D03*
X128703000Y-70699000D03*
X129203000Y-70699000D03*
X129703000Y-70699000D03*
X130203000Y-70699000D03*
X130703000Y-70699000D03*
X131203000Y-70699000D03*
X131703000Y-70699000D03*
X132203000Y-70699000D03*
X132703000Y-70699000D03*
X133203000Y-70699000D03*
X133703000Y-70699000D03*
X134203000Y-70699000D03*
X134703000Y-70699000D03*
X135203000Y-70699000D03*
X135703000Y-70699000D03*
D21*
X120652000Y-61468000D03*
X119632000Y-61468000D03*
D12*
X145999200Y-82951400D03*
X145999200Y-81051400D03*
D37*
X139881800Y-53670200D03*
X139231800Y-53670200D03*
X138581800Y-53670200D03*
X137931800Y-53670200D03*
X137281800Y-53670200D03*
X136631800Y-53670200D03*
X135981800Y-53670200D03*
X135331800Y-53670200D03*
X134681800Y-53670200D03*
X134031800Y-53670200D03*
X134031800Y-47945200D03*
X134681800Y-47945200D03*
X135331800Y-47945200D03*
X135981800Y-47945200D03*
X136631800Y-47945200D03*
X137281800Y-47945200D03*
X137931800Y-47945200D03*
X138581800Y-47945200D03*
X139231800Y-47945200D03*
X139881800Y-47945200D03*
D26*
X125730000Y-27178000D03*
D38*
X125730000Y-29718000D03*
X125730000Y-32258000D03*
X125730000Y-34798000D03*
X125730000Y-37338000D03*
X125730000Y-39878000D03*
X125730000Y-42418000D03*
X125730000Y-44958000D03*
X148590000Y-44958000D03*
X148590000Y-42418000D03*
X148590000Y-39878000D03*
X148590000Y-37338000D03*
X148590000Y-34798000D03*
X148590000Y-32258000D03*
X148590000Y-29718000D03*
X148590000Y-27178000D03*
D18*
X125478000Y-75946000D03*
X124458000Y-75946000D03*
D30*
X157480000Y-44450000D03*
D31*
X157480000Y-46990000D03*
X157480000Y-49530000D03*
X157480000Y-52070000D03*
D39*
X116840000Y-55372000D03*
X122600000Y-55372000D03*
X116840000Y-59372000D03*
X122600000Y-59372000D03*
D15*
X153340000Y-65890000D03*
X154300000Y-65890000D03*
D34*
X141102200Y-53241000D03*
X141102200Y-54201000D03*
D18*
X116842000Y-64516000D03*
X115822000Y-64516000D03*
D40*
X137856000Y-89867500D03*
X135956000Y-89867500D03*
X136906000Y-91742500D03*
D18*
X151894000Y-35560000D03*
X150874000Y-35560000D03*
D41*
X117430000Y-69596000D03*
X121330000Y-69596000D03*
X117430000Y-70866000D03*
X121330000Y-70866000D03*
X117430000Y-72136000D03*
X121330000Y-72136000D03*
X117430000Y-73406000D03*
X121330000Y-73406000D03*
X117430000Y-74676000D03*
X121330000Y-74676000D03*
X117430000Y-75946000D03*
X121330000Y-75946000D03*
X117430000Y-77216000D03*
X121330000Y-77216000D03*
D30*
X117094000Y-44450000D03*
D31*
X117094000Y-46990000D03*
X117094000Y-49530000D03*
X117094000Y-52070000D03*
D42*
X123185000Y-93726000D03*
D43*
X125725000Y-93726000D03*
D44*
X155968000Y-69626000D03*
D45*
X156418000Y-69626000D03*
X156868000Y-69626000D03*
X157318000Y-69626000D03*
D46*
X157768000Y-69626000D03*
D47*
X158318000Y-69076000D03*
D48*
X158318000Y-68626000D03*
X158318000Y-68176000D03*
X158318000Y-67726000D03*
D49*
X158318000Y-67276000D03*
D50*
X157768000Y-66726000D03*
D45*
X157318000Y-66726000D03*
X156868000Y-66726000D03*
X156418000Y-66726000D03*
D51*
X155968000Y-66726000D03*
D52*
X155418000Y-67276000D03*
D48*
X155418000Y-67726000D03*
X155418000Y-68176000D03*
X155418000Y-68626000D03*
D53*
X155418000Y-69076000D03*
D54*
X156343000Y-68701000D03*
X157393000Y-68701000D03*
D55*
X156868000Y-68176000D03*
D54*
X156343000Y-67651000D03*
X157393000Y-67651000D03*
D56*
X117348000Y-62992000D03*
X115773000Y-62992000D03*
D18*
X155833000Y-70866000D03*
X154813000Y-70866000D03*
D10*
X129004000Y-45085000D03*
X128044000Y-45085000D03*
D21*
X128016000Y-94996000D03*
X129036000Y-94996000D03*
D13*
X155641000Y-59690000D03*
X157541000Y-59690000D03*
D21*
X124458000Y-77216000D03*
X125478000Y-77216000D03*
D18*
X125478000Y-72263000D03*
X124458000Y-72263000D03*
D14*
X158800800Y-62962600D03*
X158800800Y-63982600D03*
D21*
X115822000Y-67564000D03*
X116842000Y-67564000D03*
D57*
X140081000Y-95380000D03*
X140081000Y-92580000D03*
D18*
X125478000Y-73406000D03*
X124458000Y-73406000D03*
D33*
X147640000Y-51429500D03*
X148590000Y-51429500D03*
X149540000Y-51429500D03*
X149540000Y-49154500D03*
X148590000Y-49154500D03*
X147640000Y-49154500D03*
D32*
X147320000Y-56106000D03*
X147320000Y-55146000D03*
D58*
X158343600Y-71160600D03*
X158343600Y-73060600D03*
D59*
X151358500Y-37084000D03*
X152933500Y-37084000D03*
D12*
X151130000Y-57272000D03*
X151130000Y-55372000D03*
D26*
X122052477Y-84302600D03*
D27*
X117052477Y-84302600D03*
D10*
X117701000Y-61468000D03*
X116741000Y-61468000D03*
D12*
X154686000Y-41336000D03*
X154686000Y-39436000D03*
D21*
X124458000Y-78486000D03*
X125478000Y-78486000D03*
D24*
X129316000Y-43307000D03*
D25*
X128016000Y-43307000D03*
D60*
X157734000Y-36862000D03*
X157734000Y-40862000D03*
D15*
X139220000Y-66040000D03*
X140180000Y-66040000D03*
D13*
X154244000Y-87503000D03*
X156144000Y-87503000D03*
D32*
X124460000Y-69314000D03*
X124460000Y-68354000D03*
D61*
X145842000Y-59852000D03*
X147717000Y-59852000D03*
D56*
X117373500Y-66040000D03*
X115798500Y-66040000D03*
D15*
X134648000Y-57353200D03*
X135608000Y-57353200D03*
D10*
X120622000Y-64008000D03*
X119662000Y-64008000D03*
D17*
X118110000Y-92710000D03*
D16*
X118110000Y-92710000D03*
D17*
X118110000Y-30480000D03*
D16*
X118110000Y-30480000D03*
D30*
X153035000Y-44450000D03*
D31*
X153035000Y-46990000D03*
X153035000Y-49530000D03*
X153035000Y-52070000D03*
D62*
X139954000Y-85118000D03*
X139954000Y-88618000D03*
D18*
X129288000Y-41402000D03*
X128268000Y-41402000D03*
D63*
X145161000Y-72898000D03*
X146304000Y-72898000D03*
X140335000Y-52578000D03*
X119126000Y-72136000D03*
X115697000Y-72136000D03*
X129274600Y-61479400D03*
X137769600Y-60452000D03*
X136601200Y-69646800D03*
X134620000Y-73355200D03*
X131572000Y-75692000D03*
X125628400Y-71424800D03*
X127889000Y-72873100D03*
X129286000Y-69088000D03*
X128930400Y-66852800D03*
X127863600Y-64973200D03*
X135001000Y-63373000D03*
X134010400Y-60756800D03*
X150774400Y-34594800D03*
X157734000Y-35001200D03*
X157480000Y-75996800D03*
X157429200Y-82092800D03*
X121564400Y-60858400D03*
X127762000Y-55575200D03*
X134264400Y-45618400D03*
X143967200Y-55168800D03*
X142900400Y-59283600D03*
X141122400Y-59486800D03*
X139319000Y-56007000D03*
X133096000Y-56235600D03*
X132917700Y-54406800D03*
X128981200Y-52832000D03*
X128778000Y-54102000D03*
X133197600Y-53441600D03*
X137261600Y-57556400D03*
X137871200Y-56083200D03*
X135331200Y-54965600D03*
X129387600Y-55626000D03*
X133756400Y-54965600D03*
X130302000Y-55016400D03*
X135585200Y-52425600D03*
X130098800Y-53238400D03*
X127000000Y-56337200D03*
X136601200Y-55321200D03*
X139649200Y-46634400D03*
X140766800Y-48743100D03*
X130285402Y-43129200D03*
X130149600Y-45364400D03*
X144068800Y-44856400D03*
X139649200Y-44805600D03*
X139060818Y-57585982D03*
X136296400Y-58470800D03*
X130098800Y-57708800D03*
X132435600Y-57962800D03*
X127508000Y-66395600D03*
X131851900Y-56388000D03*
X127558800Y-67310000D03*
X131318000Y-57479700D03*
X136601200Y-46431200D03*
X126746000Y-52324000D03*
X128044000Y-45847000D03*
X129476500Y-44513500D03*
X129540000Y-48489100D03*
X136403200Y-49149000D03*
X129794000Y-49784000D03*
X128397000Y-49149000D03*
X133146800Y-48971200D03*
X134625200Y-46760900D03*
X128746250Y-47593250D03*
X127254000Y-47752000D03*
X135387200Y-46228000D03*
D64*
X155321000Y-51689000D03*
D63*
X155321000Y-47498000D03*
X151511000Y-74168000D03*
X148971000Y-77724000D03*
X139573000Y-82423000D03*
X127000000Y-92329000D03*
X123748800Y-79502000D03*
X124841000Y-79502000D03*
X124079000Y-88392000D03*
X124333000Y-74676000D03*
X127762000Y-79095600D03*
X125730000Y-79502000D03*
X126746000Y-79502000D03*
X126746000Y-71501000D03*
X116967000Y-60579000D03*
X118618000Y-61468000D03*
X118872000Y-63957200D03*
X126746000Y-46736000D03*
X123698000Y-43942000D03*
X136144000Y-94488000D03*
X141478000Y-87884000D03*
X138430000Y-83820000D03*
X137160000Y-85344000D03*
X135890000Y-86868000D03*
X134366000Y-88646000D03*
X134366000Y-92456000D03*
X150876000Y-72898000D03*
X149733000Y-72898000D03*
X148590000Y-72898000D03*
X147447000Y-72898000D03*
X146304000Y-62992000D03*
X146558000Y-61087000D03*
X151130000Y-44704000D03*
X128270000Y-74930000D03*
X126238000Y-70612000D03*
X119126000Y-70866000D03*
X123698000Y-69850000D03*
X143205200Y-44145200D03*
X137414000Y-49276000D03*
X144497563Y-48082700D03*
X144487097Y-49469599D03*
X138356550Y-49219716D03*
X136448800Y-56743600D03*
X141224000Y-57912000D03*
X138379200Y-46583600D03*
X145948400Y-49428400D03*
X145669000Y-47244000D03*
X146431000Y-50419000D03*
X145669000Y-48387000D03*
X138562200Y-45466000D03*
X146685000Y-47117000D03*
X141986000Y-58674000D03*
X135280400Y-61569600D03*
X120650000Y-55372000D03*
X118872000Y-55372000D03*
X139192000Y-67056000D03*
X129286000Y-74676000D03*
X115697000Y-75946000D03*
X115697000Y-73406000D03*
X119126000Y-73406000D03*
X119126000Y-75946000D03*
X125170000Y-68326000D03*
X146304000Y-55372000D03*
X143002000Y-56896000D03*
X140208000Y-66802000D03*
X151384000Y-63246000D03*
X144018000Y-78486000D03*
X144018000Y-77216000D03*
X144018000Y-75946000D03*
X144018000Y-74422000D03*
X144018000Y-72898000D03*
X144018000Y-71628000D03*
X144018000Y-70104000D03*
X144018000Y-68326000D03*
X144018000Y-66802000D03*
X144018000Y-65278000D03*
X144018000Y-63754000D03*
X144018000Y-62484000D03*
X144018000Y-61214000D03*
X144780000Y-60452000D03*
X149606000Y-62230000D03*
X147828000Y-62230000D03*
X148717000Y-62230000D03*
D64*
X152400000Y-58166000D03*
X149887523Y-56614477D03*
X122047000Y-40767000D03*
D63*
X157607000Y-55245000D03*
D64*
X154686000Y-38328600D03*
D63*
X135379400Y-58036400D03*
D64*
X156159200Y-36855400D03*
D63*
X140213200Y-54991000D03*
X135178800Y-72034400D03*
X141224000Y-95380000D03*
X138811000Y-95377000D03*
X125450600Y-52324000D03*
X159004000Y-73914000D03*
X157810923Y-74015600D03*
X129794000Y-94234000D03*
X154531200Y-63604000D03*
X157607000Y-58039000D03*
X127254000Y-57454800D03*
D64*
X122047000Y-42291000D03*
D63*
X154305000Y-72517000D03*
X148183600Y-80035400D03*
X145999200Y-79933800D03*
X143789400Y-80086200D03*
X155090000Y-66347200D03*
X148590000Y-52476400D03*
X159105600Y-68300600D03*
X151130000Y-54356000D03*
X153289000Y-54483000D03*
X154470319Y-66966881D03*
X157020400Y-65636000D03*
X157734000Y-60833000D03*
X157200600Y-85471000D03*
X157251400Y-87630000D03*
X141097000Y-90170000D03*
X158445200Y-66550400D03*
X139014200Y-63652400D03*
X140441800Y-47955200D03*
X133456800Y-47955200D03*
X141528800Y-80035400D03*
X139724900Y-69951600D03*
X157683200Y-64109600D03*
X153769200Y-67972800D03*
X146913600Y-84353400D03*
X136728200Y-89204800D03*
X152781000Y-87630000D03*
X157099000Y-70739000D03*
X135534400Y-91084400D03*
X152654000Y-85471000D03*
X142697200Y-84353400D03*
X157808800Y-65831600D03*
X158419800Y-86766400D03*
D64*
X155321000Y-54991000D03*
D63*
X155321000Y-45466000D03*
X155321000Y-44069000D03*
D64*
X153517600Y-42443400D03*
X155321000Y-58166000D03*
X149428200Y-47777400D03*
D63*
X155321000Y-42926000D03*
D64*
X156184600Y-41325800D03*
D63*
X124984217Y-47850730D03*
X158064200Y-62992000D03*
X153310000Y-64264400D03*
X154531200Y-69242800D03*
X158483800Y-69596000D03*
D65*
X155344000Y-65174000D02*
X155344000Y-64876000D01*
X155956000Y-65786000D02*
X155344000Y-65174000D01*
X155956000Y-66714000D02*
X155956000Y-65786000D01*
X155968000Y-66726000D02*
X155956000Y-66714000D01*
X159258000Y-67462400D02*
X158994400Y-67726000D01*
X158800800Y-63982600D02*
X159258000Y-64439800D01*
X159258000Y-64439800D02*
X159258000Y-67462400D01*
X158994400Y-67726000D02*
X158318000Y-67726000D01*
D66*
X158483800Y-69241800D02*
X158318000Y-69076000D01*
X158483800Y-69596000D02*
X158483800Y-69241800D01*
X156418000Y-69626000D02*
X156418000Y-71674000D01*
X156418000Y-71674000D02*
X156083000Y-72009000D01*
X156083000Y-72009000D02*
X155801000Y-72009000D01*
D65*
X129413000Y-73533000D02*
X131203000Y-71743000D01*
X131203000Y-71743000D02*
X131203000Y-70699000D01*
X125478000Y-73406000D02*
X125605000Y-73533000D01*
X125605000Y-73533000D02*
X129413000Y-73533000D01*
X128203000Y-71441000D02*
X128203000Y-71187000D01*
X127254000Y-72390000D02*
X128203000Y-71441000D01*
X125478000Y-72390000D02*
X127254000Y-72390000D01*
X127635000Y-78486000D02*
X125478000Y-78486000D01*
X133203000Y-72918000D02*
X127635000Y-78486000D01*
X133203000Y-70699000D02*
X133203000Y-72918000D01*
X145161000Y-27432000D02*
X145286000Y-27432000D01*
X141859000Y-54610000D02*
X141859000Y-52578000D01*
X141859000Y-52578000D02*
X141732000Y-52451000D01*
X139060818Y-57408182D02*
X141859000Y-54610000D01*
X141732000Y-52451000D02*
X141732000Y-30861000D01*
X141732000Y-30861000D02*
X145161000Y-27432000D01*
X139060818Y-57585982D02*
X139060818Y-57408182D01*
D67*
X140311000Y-52602000D02*
X140335000Y-52578000D01*
X140311000Y-53241000D02*
X140311000Y-52602000D01*
X140311000Y-53241000D02*
X141102200Y-53241000D01*
X139881800Y-53670200D02*
X140311000Y-53241000D01*
D66*
X117430000Y-75946000D02*
X115697000Y-75946000D01*
X117430000Y-73406000D02*
X115697000Y-73406000D01*
X117430000Y-72136000D02*
X115697000Y-72136000D01*
X117430000Y-72136000D02*
X119126000Y-72136000D01*
D67*
X144018000Y-79857600D02*
X143789400Y-80086200D01*
X144018000Y-78486000D02*
X144018000Y-79857600D01*
X144018000Y-78486000D02*
X144018000Y-77216000D01*
X144018000Y-77216000D02*
X144018000Y-75946000D01*
D65*
X126746000Y-85217000D02*
X126746000Y-79502000D01*
X129036000Y-87507000D02*
X126746000Y-85217000D01*
X129036000Y-92456000D02*
X129036000Y-87507000D01*
X118922800Y-64008000D02*
X119662000Y-64008000D01*
X118872000Y-63957200D02*
X118922800Y-64008000D01*
X135331800Y-48569400D02*
X135331800Y-47945200D01*
X133146800Y-48971200D02*
X134930000Y-48971200D01*
X134930000Y-48971200D02*
X135331800Y-48569400D01*
X138562200Y-45486200D02*
X137281800Y-46766600D01*
X137281800Y-46766600D02*
X137281800Y-47945200D01*
X138562200Y-45466000D02*
X138562200Y-45486200D01*
D67*
X129364800Y-61569600D02*
X135280400Y-61569600D01*
X129274600Y-61479400D02*
X129364800Y-61569600D01*
D66*
X128203000Y-60407800D02*
X128203000Y-59349000D01*
X129274600Y-61479400D02*
X128203000Y-60407800D01*
D67*
X129274600Y-61479400D02*
X127000000Y-59204800D01*
D66*
X158419800Y-86006400D02*
X158445200Y-85981000D01*
X158419800Y-86766400D02*
X158419800Y-86006400D01*
X137873800Y-68774000D02*
X137873800Y-69951600D01*
X139080145Y-68774000D02*
X137873800Y-68774000D01*
D67*
X139724900Y-69951600D02*
X138833800Y-69951600D01*
D66*
X133934200Y-73204800D02*
X134469600Y-73204800D01*
D67*
X134724200Y-73355200D02*
X135156000Y-72923400D01*
D66*
X134469600Y-73204800D02*
X134620000Y-73355200D01*
X134620000Y-73355200D02*
X134724200Y-73355200D01*
D67*
X157734000Y-36862000D02*
X157734000Y-35001200D01*
D65*
X124866400Y-56438800D02*
X127203200Y-54102000D01*
X127203200Y-54102000D02*
X128778000Y-54102000D01*
X124866400Y-62128400D02*
X124866400Y-56438800D01*
X125512000Y-62774000D02*
X124866400Y-62128400D01*
X126278000Y-62774000D02*
X125512000Y-62774000D01*
X125627526Y-63774000D02*
X126278000Y-63774000D01*
X124307600Y-62454074D02*
X125627526Y-63774000D01*
X124307600Y-55930800D02*
X124307600Y-62454074D01*
X126796800Y-53441600D02*
X124307600Y-55930800D01*
X130098800Y-53238400D02*
X129895600Y-53441600D01*
X129895600Y-53441600D02*
X126796800Y-53441600D01*
X133884729Y-54965600D02*
X134681800Y-54168529D01*
X134681800Y-54168529D02*
X134681800Y-53670200D01*
X133756400Y-54965600D02*
X133884729Y-54965600D01*
X133197600Y-53441600D02*
X133803200Y-53441600D01*
X133803200Y-53441600D02*
X134031800Y-53670200D01*
X130203000Y-69441000D02*
X130203000Y-70699000D01*
X135940800Y-63703200D02*
X130203000Y-69441000D01*
X137871200Y-58674000D02*
X135940800Y-60604400D01*
X137871200Y-56083200D02*
X137871200Y-58674000D01*
X135940800Y-60604400D02*
X135940800Y-63703200D01*
X135331800Y-54965000D02*
X135331200Y-54965600D01*
X135331800Y-53670200D02*
X135331800Y-54965000D01*
X125405200Y-60401200D02*
X126278000Y-61274000D01*
X125425200Y-60381200D02*
X125405200Y-60401200D01*
X125425200Y-56896000D02*
X125425200Y-60381200D01*
X130302000Y-55016400D02*
X127304800Y-55016400D01*
X127304800Y-55016400D02*
X125425200Y-56896000D01*
X135981800Y-53670200D02*
X135981800Y-52822200D01*
X135981800Y-52822200D02*
X135585200Y-52425600D01*
X131876800Y-56363100D02*
X131876800Y-40180800D01*
X131876800Y-40180800D02*
X129288000Y-37592000D01*
X131851900Y-56388000D02*
X131876800Y-56363100D01*
X131318000Y-41654000D02*
X129288000Y-39624000D01*
X131318000Y-57479700D02*
X131318000Y-41654000D01*
X130657600Y-59303600D02*
X130703000Y-59349000D01*
X130860800Y-56692800D02*
X130657600Y-56896000D01*
X129692400Y-41402000D02*
X130860800Y-42570400D01*
X130657600Y-56896000D02*
X130657600Y-59303600D01*
X129288000Y-41402000D02*
X129692400Y-41402000D01*
X130860800Y-42570400D02*
X130860800Y-56692800D01*
X132384800Y-38148800D02*
X129288000Y-35052000D01*
X132384800Y-57251600D02*
X132384800Y-38148800D01*
X131362500Y-58273900D02*
X132384800Y-57251600D01*
X131362500Y-59189500D02*
X131362500Y-58273900D01*
X131203000Y-59349000D02*
X131362500Y-59189500D01*
X127252800Y-61774000D02*
X126278000Y-61774000D01*
X127508000Y-61112400D02*
X127508000Y-61518800D01*
X126136400Y-59740800D02*
X127508000Y-61112400D01*
X127508000Y-61518800D02*
X127252800Y-61774000D01*
X126136400Y-57200800D02*
X126136400Y-59740800D01*
X127000000Y-56337200D02*
X126136400Y-57200800D01*
X137281800Y-54640600D02*
X136601200Y-55321200D01*
X137281800Y-53670200D02*
X137281800Y-54640600D01*
X136631800Y-54477800D02*
X136631800Y-53670200D01*
X135432800Y-55676800D02*
X136631800Y-54477800D01*
X134768790Y-55676800D02*
X135432800Y-55676800D01*
X132703000Y-58698526D02*
X133032326Y-58369200D01*
X133032326Y-58369200D02*
X133032326Y-57413264D01*
X133032326Y-57413264D02*
X134768790Y-55676800D01*
X132703000Y-59349000D02*
X132703000Y-58698526D01*
X136702800Y-56032400D02*
X137931800Y-54803400D01*
X135026400Y-56032400D02*
X136702800Y-56032400D01*
X137931800Y-54803400D02*
X137931800Y-53670200D01*
X133703000Y-57355800D02*
X135026400Y-56032400D01*
X133703000Y-59349000D02*
X133703000Y-57355800D01*
X136601200Y-61397674D02*
X136977526Y-61774000D01*
X136601200Y-60756800D02*
X136601200Y-61397674D01*
X138277600Y-59080400D02*
X136601200Y-60756800D01*
X138277600Y-56896000D02*
X138277600Y-59080400D01*
X138581800Y-56591800D02*
X138277600Y-56896000D01*
X136977526Y-61774000D02*
X137628000Y-61774000D01*
X138581800Y-53670200D02*
X138581800Y-56591800D01*
X138014400Y-61274000D02*
X137628000Y-61274000D01*
X139903200Y-59385200D02*
X138014400Y-61274000D01*
X139903200Y-57150000D02*
X139903200Y-59385200D01*
X142341600Y-54711600D02*
X139903200Y-57150000D01*
X145286000Y-29972000D02*
X142341600Y-32916400D01*
X142341600Y-32916400D02*
X142341600Y-54711600D01*
X139231800Y-47051800D02*
X139231800Y-47945200D01*
X139649200Y-46634400D02*
X139231800Y-47051800D01*
X138581800Y-48443529D02*
X138581800Y-47945200D01*
X139160271Y-49022000D02*
X138581800Y-48443529D01*
X140766800Y-48743100D02*
X140487900Y-49022000D01*
X140487900Y-49022000D02*
X139160271Y-49022000D01*
X137931800Y-48794966D02*
X138356550Y-49219716D01*
X137931800Y-47945200D02*
X137931800Y-48794966D01*
D67*
X126365000Y-44958000D02*
X128016000Y-43307000D01*
X125730000Y-44958000D02*
X126365000Y-44958000D01*
X141603000Y-56263000D02*
X141600195Y-56263000D01*
X141600195Y-56263000D02*
X141224000Y-56639195D01*
X143205200Y-54660800D02*
X141603000Y-56263000D01*
X141224000Y-56639195D02*
X141224000Y-57912000D01*
X143205200Y-44145200D02*
X143205200Y-54660800D01*
D66*
X135257600Y-56743600D02*
X134648000Y-57353200D01*
X136448800Y-56743600D02*
X135257600Y-56743600D01*
D65*
X135703000Y-59064200D02*
X136296400Y-58470800D01*
X135703000Y-59349000D02*
X135703000Y-59064200D01*
X126399600Y-66395600D02*
X126278000Y-66274000D01*
X127508000Y-66395600D02*
X126399600Y-66395600D01*
X127558800Y-67310000D02*
X126314000Y-67310000D01*
X126314000Y-67310000D02*
X126278000Y-67274000D01*
X127250000Y-65274000D02*
X126278000Y-65274000D01*
X128371600Y-66395600D02*
X127250000Y-65274000D01*
X128371600Y-68605400D02*
X128371600Y-66395600D01*
X127254000Y-69723000D02*
X128371600Y-68605400D01*
X127254000Y-70866000D02*
X127254000Y-69723000D01*
X126746000Y-71374000D02*
X127254000Y-70866000D01*
X126746000Y-71501000D02*
X126746000Y-71374000D01*
X150366000Y-36068000D02*
X150874000Y-35560000D01*
X147574000Y-36068000D02*
X150366000Y-36068000D01*
X143205200Y-40436800D02*
X147574000Y-36068000D01*
X143205200Y-44145200D02*
X143205200Y-40436800D01*
X149540000Y-52618600D02*
X149540000Y-51429500D01*
X148971000Y-53187600D02*
X149540000Y-52618600D01*
X148031200Y-53187600D02*
X148971000Y-53187600D01*
X144487097Y-49469599D02*
X144487097Y-49643497D01*
X144487097Y-49643497D02*
X148031200Y-53187600D01*
X147441500Y-51429500D02*
X147640000Y-51429500D01*
X146431000Y-50419000D02*
X147441500Y-51429500D01*
X146685000Y-47117000D02*
X146685000Y-47498000D01*
X146685000Y-47498000D02*
X147640000Y-48453000D01*
X147640000Y-48453000D02*
X147640000Y-49154500D01*
X149540000Y-49348540D02*
X149540000Y-49154500D01*
X148825140Y-50063400D02*
X149540000Y-49348540D01*
X145669000Y-48387000D02*
X147345400Y-50063400D01*
X147345400Y-50063400D02*
X148825140Y-50063400D01*
X127127000Y-49530000D02*
X126746000Y-49911000D01*
X127127000Y-49149000D02*
X127127000Y-49530000D01*
X124526000Y-49479200D02*
X124526000Y-48900500D01*
X128682750Y-47593250D02*
X127127000Y-49149000D01*
X128746250Y-47593250D02*
X128682750Y-47593250D01*
X126746000Y-49911000D02*
X124957800Y-49911000D01*
X124957800Y-49911000D02*
X124526000Y-49479200D01*
X126746000Y-48580500D02*
X126426000Y-48900500D01*
X126746000Y-48260000D02*
X126746000Y-48580500D01*
X127254000Y-47752000D02*
X126746000Y-48260000D01*
X128397000Y-49149000D02*
X128397000Y-49204500D01*
X128397000Y-49204500D02*
X126426000Y-51175500D01*
D66*
X129316000Y-44353000D02*
X129316000Y-43307000D01*
X129476500Y-44513500D02*
X129316000Y-44353000D01*
X129476500Y-44612500D02*
X129004000Y-45085000D01*
X129476500Y-44513500D02*
X129476500Y-44612500D01*
X128044000Y-45847000D02*
X128044000Y-45085000D01*
X126365000Y-42418000D02*
X125730000Y-42418000D01*
X127381000Y-41402000D02*
X126365000Y-42418000D01*
X128268000Y-41402000D02*
X127381000Y-41402000D01*
X125984000Y-39624000D02*
X125730000Y-39878000D01*
X128268000Y-39624000D02*
X125984000Y-39624000D01*
D65*
X118262500Y-65151000D02*
X117373500Y-66040000D01*
X125418763Y-65774000D02*
X124795763Y-65151000D01*
X124795763Y-65151000D02*
X118262500Y-65151000D01*
X126278000Y-65774000D02*
X125418763Y-65774000D01*
X126974600Y-52857400D02*
X125229658Y-52857400D01*
X129794000Y-50038000D02*
X126974600Y-52857400D01*
X124526000Y-52153742D02*
X124526000Y-51175500D01*
X129794000Y-49784000D02*
X129794000Y-50038000D01*
X125229658Y-52857400D02*
X124526000Y-52153742D01*
X136631800Y-48920400D02*
X136403200Y-49149000D01*
X136631800Y-47945200D02*
X136631800Y-48920400D01*
X134625200Y-47888600D02*
X134681800Y-47945200D01*
X134625200Y-46760900D02*
X134625200Y-47888600D01*
X135981800Y-47446871D02*
X135981800Y-47945200D01*
X135895200Y-47360271D02*
X135981800Y-47446871D01*
X135895200Y-46736000D02*
X135895200Y-47360271D01*
X135387200Y-46228000D02*
X135895200Y-46736000D01*
D68*
X155321000Y-54991000D02*
X155321000Y-51689000D01*
X155321000Y-45466000D02*
X155321000Y-47498000D01*
D67*
X144018000Y-62484000D02*
X144018000Y-61214000D01*
X144018000Y-62484000D02*
X144018000Y-63754000D01*
D66*
X141528800Y-80378300D02*
X141528800Y-80035400D01*
X139573000Y-82334100D02*
X141528800Y-80378300D01*
X139573000Y-82423000D02*
X139573000Y-82334100D01*
X138430000Y-83820000D02*
X138430000Y-83566000D01*
X138430000Y-83566000D02*
X139573000Y-82423000D01*
X137160000Y-85090000D02*
X138430000Y-83820000D01*
X137160000Y-85344000D02*
X137160000Y-85090000D01*
X135890000Y-86614000D02*
X137160000Y-85344000D01*
X135890000Y-86868000D02*
X135890000Y-86614000D01*
X134366000Y-88392000D02*
X135890000Y-86868000D01*
X134366000Y-88646000D02*
X134366000Y-88392000D01*
X134366000Y-92456000D02*
X134366000Y-88646000D01*
X134366000Y-92710000D02*
X134366000Y-92456000D01*
X136144000Y-94488000D02*
X134366000Y-92710000D01*
X137033000Y-95377000D02*
X136144000Y-94488000D01*
X138811000Y-95377000D02*
X137033000Y-95377000D01*
D65*
X124866400Y-92044600D02*
X123185000Y-93726000D01*
X124841000Y-79502000D02*
X124866400Y-79527400D01*
X124866400Y-79527400D02*
X124866400Y-92044600D01*
X116741000Y-60805000D02*
X116967000Y-60579000D01*
X116741000Y-61468000D02*
X116741000Y-60805000D01*
X116745500Y-67467500D02*
X116842000Y-67564000D01*
X116745500Y-64612500D02*
X116745500Y-67467500D01*
X116842000Y-64516000D02*
X116745500Y-64612500D01*
X116720000Y-64394000D02*
X116842000Y-64516000D01*
X116720000Y-62449000D02*
X116720000Y-64394000D01*
X117701000Y-61468000D02*
X116720000Y-62449000D01*
X118618000Y-61468000D02*
X117701000Y-61468000D01*
X119632000Y-61468000D02*
X118618000Y-61468000D01*
X115798500Y-67540500D02*
X115822000Y-67564000D01*
X115798500Y-66040000D02*
X115798500Y-67540500D01*
X115773000Y-64467000D02*
X115822000Y-64516000D01*
X115773000Y-62992000D02*
X115773000Y-64467000D01*
X117348000Y-63500000D02*
X117348000Y-63246000D01*
X118622000Y-64774000D02*
X117348000Y-63500000D01*
X126278000Y-64774000D02*
X118622000Y-64774000D01*
X121636000Y-64008000D02*
X120622000Y-64008000D01*
X120622000Y-62738000D02*
X120622000Y-64008000D01*
X120622000Y-60480000D02*
X121730000Y-59372000D01*
X121730000Y-59372000D02*
X122600000Y-59372000D01*
X120622000Y-62738000D02*
X120622000Y-60480000D01*
X122600000Y-59372000D02*
X116840000Y-59372000D01*
X125222000Y-64274000D02*
X125222000Y-64262000D01*
X125222000Y-64262000D02*
X124968000Y-64008000D01*
X126278000Y-64274000D02*
X125222000Y-64274000D01*
X122656000Y-64008000D02*
X124968000Y-64008000D01*
X128016000Y-75946000D02*
X129286000Y-74676000D01*
X125478000Y-75946000D02*
X128016000Y-75946000D01*
D66*
X125984000Y-70358000D02*
X126238000Y-70612000D01*
X125448000Y-70358000D02*
X125984000Y-70358000D01*
D67*
X124206000Y-70358000D02*
X123698000Y-69850000D01*
X124488000Y-70358000D02*
X124206000Y-70358000D01*
X124234000Y-69314000D02*
X123698000Y-69850000D01*
X124460000Y-69314000D02*
X124234000Y-69314000D01*
D66*
X119126000Y-70866000D02*
X117430000Y-70866000D01*
D65*
X151358500Y-37109500D02*
X148590000Y-39878000D01*
X151358500Y-37084000D02*
X151358500Y-37109500D01*
X152933500Y-36599500D02*
X152933500Y-37084000D01*
X151894000Y-35560000D02*
X152933500Y-36599500D01*
D67*
X143002000Y-56896000D02*
X143002000Y-56592000D01*
X143002000Y-56592000D02*
X143521000Y-56073000D01*
X143002000Y-56896000D02*
X142014000Y-56896000D01*
X142014000Y-56896000D02*
X141986000Y-56924000D01*
D66*
X141224000Y-57912000D02*
X141958000Y-57912000D01*
X141958000Y-57912000D02*
X141986000Y-57884000D01*
X122600000Y-55372000D02*
X120650000Y-55372000D01*
X116840000Y-55372000D02*
X118872000Y-55372000D01*
D65*
X139220000Y-67028000D02*
X139192000Y-67056000D01*
X139220000Y-66040000D02*
X139220000Y-67028000D01*
D67*
X139220000Y-71854000D02*
X136116000Y-71854000D01*
X141986000Y-69088000D02*
X139220000Y-71854000D01*
X141986000Y-65868145D02*
X141986000Y-69088000D01*
X141986000Y-65868145D02*
X141986000Y-60556200D01*
D66*
X139080145Y-68774000D02*
X141986000Y-65868145D01*
X137628000Y-68774000D02*
X139080145Y-68774000D01*
D67*
X141986000Y-60556200D02*
X141986000Y-57884000D01*
D66*
X139852400Y-62689800D02*
X141986000Y-60556200D01*
D65*
X121330000Y-75946000D02*
X124458000Y-75946000D01*
D66*
X117430000Y-73406000D02*
X119126000Y-73406000D01*
X117430000Y-75946000D02*
X119126000Y-75946000D01*
D65*
X124458000Y-78486000D02*
X118700000Y-78486000D01*
X118700000Y-78486000D02*
X117430000Y-77216000D01*
X124458000Y-77216000D02*
X121330000Y-77216000D01*
X132703000Y-72275000D02*
X127762000Y-77216000D01*
X132703000Y-70699000D02*
X132703000Y-72275000D01*
X127762000Y-77216000D02*
X125478000Y-77216000D01*
D66*
X128203000Y-71187000D02*
X128203000Y-70699000D01*
D65*
X121330000Y-73406000D02*
X124458000Y-73406000D01*
X124204000Y-72136000D02*
X124458000Y-72390000D01*
X121330000Y-72136000D02*
X124204000Y-72136000D01*
X122936000Y-68580000D02*
X122426000Y-68070000D01*
X122936000Y-70090000D02*
X122936000Y-68580000D01*
X122160000Y-70866000D02*
X122936000Y-70090000D01*
X122426000Y-68070000D02*
X122426000Y-67564000D01*
D66*
X121330000Y-70866000D02*
X122160000Y-70866000D01*
D65*
X123611100Y-67729100D02*
X123446000Y-67564000D01*
X126233100Y-67729100D02*
X123611100Y-67729100D01*
D66*
X126278000Y-67774000D02*
X126233100Y-67729100D01*
X125170000Y-68326000D02*
X125222000Y-68274000D01*
X124488000Y-68326000D02*
X124460000Y-68354000D01*
X125170000Y-68326000D02*
X124488000Y-68326000D01*
X125222000Y-68274000D02*
X126278000Y-68274000D01*
X124488000Y-69088000D02*
X124460000Y-69060000D01*
X125790000Y-68774000D02*
X125476000Y-69088000D01*
X125476000Y-69088000D02*
X124488000Y-69088000D01*
X126278000Y-68774000D02*
X125790000Y-68774000D01*
D67*
X146530000Y-55146000D02*
X146304000Y-55372000D01*
X147320000Y-55146000D02*
X146530000Y-55146000D01*
X147320000Y-56888500D02*
X147706500Y-57275000D01*
X147320000Y-56106000D02*
X147320000Y-56888500D01*
X143432000Y-57884000D02*
X143521000Y-57973000D01*
X141986000Y-57884000D02*
X143432000Y-57884000D01*
D65*
X140180000Y-66774000D02*
X140208000Y-66802000D01*
X140180000Y-66040000D02*
X140180000Y-66774000D01*
X138954000Y-65774000D02*
X139220000Y-66040000D01*
X137628000Y-65774000D02*
X138954000Y-65774000D01*
D67*
X153066000Y-62834000D02*
X151511000Y-64389000D01*
X156354000Y-62834000D02*
X153066000Y-62834000D01*
X156360000Y-62840000D02*
X156354000Y-62834000D01*
X151511000Y-64389000D02*
X149479000Y-64389000D01*
X151511000Y-63119000D02*
X151384000Y-63246000D01*
X151511000Y-62230000D02*
X151511000Y-63119000D01*
X147706500Y-59841500D02*
X147717000Y-59852000D01*
X147706500Y-58295000D02*
X147706500Y-59841500D01*
X144018000Y-65278000D02*
X144018000Y-75946000D01*
X144018000Y-63754000D02*
X144018000Y-65278000D01*
X144780000Y-60452000D02*
X144018000Y-61214000D01*
X149606000Y-62230000D02*
X150150900Y-62774900D01*
X150150900Y-63282900D02*
X148994000Y-64439800D01*
X150551000Y-62882800D02*
X150150900Y-63282900D01*
X150150900Y-62774900D02*
X150150900Y-63282900D01*
D69*
X147828000Y-63273800D02*
X148994000Y-64439800D01*
X147828000Y-62230000D02*
X147828000Y-63273800D01*
X148994000Y-62334000D02*
X148994000Y-64439800D01*
D67*
X149098000Y-62230000D02*
X148994000Y-62334000D01*
X148994000Y-62126000D02*
X149098000Y-62230000D01*
D66*
X133703000Y-70699000D02*
X133703000Y-71953600D01*
X133703000Y-71953600D02*
X133934200Y-72184800D01*
X135703000Y-71441000D02*
X135703000Y-70699000D01*
X134703000Y-59349000D02*
X134703000Y-57408200D01*
X139768200Y-62774000D02*
X139852400Y-62689800D01*
D67*
X136116000Y-72923400D02*
X136116000Y-71854000D01*
D66*
X134703000Y-57408200D02*
X134648000Y-57353200D01*
X128058800Y-59204800D02*
X128203000Y-59349000D01*
X127203200Y-59204800D02*
X128058800Y-59204800D01*
X136116000Y-71854000D02*
X135703000Y-71441000D01*
X137628000Y-62774000D02*
X139768200Y-62774000D01*
X157683200Y-64109600D02*
X157378000Y-64414800D01*
D69*
X153289000Y-55372000D02*
X153289000Y-54483000D01*
D67*
X157810923Y-73593277D02*
X158343600Y-73060600D01*
D69*
X151130000Y-55372000D02*
X151130000Y-54356000D01*
D66*
X155418000Y-68176000D02*
X156868000Y-68176000D01*
D68*
X138814000Y-95380000D02*
X138811000Y-95377000D01*
D66*
X157318000Y-68626000D02*
X156868000Y-68176000D01*
X140467200Y-54991000D02*
X141102200Y-54356000D01*
D69*
X157541000Y-56515000D02*
X157541000Y-55311000D01*
D67*
X133466800Y-47945200D02*
X133456800Y-47955200D01*
D66*
X135203000Y-72010200D02*
X135178800Y-72034400D01*
D68*
X141224000Y-95380000D02*
X140081000Y-95380000D01*
D66*
X156868000Y-66726000D02*
X156868000Y-68176000D01*
D67*
X159004000Y-73721000D02*
X158343600Y-73060600D01*
D66*
X158318000Y-68176000D02*
X156868000Y-68176000D01*
D68*
X141592200Y-80098800D02*
X141528800Y-80035400D01*
D66*
X128703000Y-59349000D02*
X128703000Y-58421200D01*
D68*
X156144000Y-85471000D02*
X157200600Y-85471000D01*
D66*
X155418000Y-67276000D02*
X154779438Y-67276000D01*
D69*
X157607000Y-59624000D02*
X157541000Y-59690000D01*
D68*
X149428000Y-92037000D02*
X149428000Y-90424000D01*
D66*
X139014200Y-63652400D02*
X139849800Y-63652400D01*
D68*
X140081000Y-95380000D02*
X138814000Y-95380000D01*
X121412000Y-41656000D02*
X122047000Y-42291000D01*
D67*
X154686000Y-38328600D02*
X156159200Y-36855400D01*
D66*
X157710600Y-84961000D02*
X157200600Y-85471000D01*
D67*
X134031800Y-47945200D02*
X133466800Y-47945200D01*
X135178800Y-72034400D02*
X135178800Y-72900600D01*
D66*
X158445200Y-66550400D02*
X158445200Y-67148800D01*
X128242600Y-57960800D02*
X128242600Y-57632600D01*
X139849800Y-63652400D02*
X139852400Y-63649800D01*
X158445200Y-67148800D02*
X158318000Y-67276000D01*
X128703000Y-58421200D02*
X128242600Y-57960800D01*
X135379400Y-57581800D02*
X135608000Y-57353200D01*
D67*
X139881800Y-47945200D02*
X140431800Y-47945200D01*
D66*
X140213200Y-54991000D02*
X140467200Y-54991000D01*
D68*
X141224000Y-95380000D02*
X141227000Y-95377000D01*
D67*
X148590000Y-51429500D02*
X148590000Y-52476400D01*
X154686000Y-39436000D02*
X154686000Y-38328600D01*
D66*
X154841000Y-72009000D02*
X154813000Y-72009000D01*
D68*
X120838000Y-41656000D02*
X121412000Y-41656000D01*
D66*
X158780200Y-68626000D02*
X159105600Y-68300600D01*
X157020400Y-65636000D02*
X156868000Y-65788400D01*
X129036000Y-94996000D02*
X129036000Y-94992000D01*
X139324200Y-54737000D02*
X139578200Y-54991000D01*
X155418000Y-67276000D02*
X155418000Y-66675200D01*
D67*
X125476000Y-51175500D02*
X125476000Y-52298600D01*
D66*
X139578200Y-54991000D02*
X140213200Y-54991000D01*
X154531200Y-63604000D02*
X155092000Y-63604000D01*
D67*
X156165800Y-36862000D02*
X156159200Y-36855400D01*
X128242600Y-57632600D02*
X127431800Y-57632600D01*
X157734000Y-36862000D02*
X156165800Y-36862000D01*
D69*
X157541000Y-56515000D02*
X157541000Y-57973000D01*
D66*
X158318000Y-68626000D02*
X157318000Y-68626000D01*
D68*
X145999200Y-81051400D02*
X145999200Y-79933800D01*
D66*
X135178800Y-72900600D02*
X135156000Y-72923400D01*
D67*
X127431800Y-57632600D02*
X127254000Y-57454800D01*
D66*
X155344000Y-63856000D02*
X155138800Y-63856000D01*
D68*
X156144000Y-87630000D02*
X157251400Y-87630000D01*
D66*
X155418000Y-66675200D02*
X155090000Y-66347200D01*
X141102200Y-54356000D02*
X141102200Y-54201000D01*
X158318000Y-68626000D02*
X158780200Y-68626000D01*
X155418000Y-68176000D02*
X153972400Y-68176000D01*
X157378000Y-64414800D02*
X157378000Y-65278400D01*
X159105600Y-68300600D02*
X158981000Y-68176000D01*
X153972400Y-68176000D02*
X153769200Y-67972800D01*
D69*
X157541000Y-60640000D02*
X157734000Y-60833000D01*
D66*
X157378000Y-65278400D02*
X157020400Y-65636000D01*
X154779438Y-67276000D02*
X154470319Y-66966881D01*
X129036000Y-94992000D02*
X129794000Y-94234000D01*
X139231800Y-54644600D02*
X139324200Y-54737000D01*
X158981000Y-68176000D02*
X158318000Y-68176000D01*
D68*
X121158000Y-41656000D02*
X122047000Y-40767000D01*
D66*
X135203000Y-58212800D02*
X135203000Y-59349000D01*
D67*
X140431800Y-47945200D02*
X140441800Y-47955200D01*
D66*
X158445200Y-84961000D02*
X157710600Y-84961000D01*
D68*
X146088000Y-95377000D02*
X149428000Y-92037000D01*
D66*
X137628000Y-63274000D02*
X138635800Y-63274000D01*
X135379400Y-58036400D02*
X135379400Y-57581800D01*
D69*
X157607000Y-58039000D02*
X157607000Y-59624000D01*
X157541000Y-59690000D02*
X157541000Y-60640000D01*
D67*
X157810923Y-74015600D02*
X157810923Y-73593277D01*
D66*
X135203000Y-70699000D02*
X135203000Y-72010200D01*
X140337000Y-90170000D02*
X141097000Y-90170000D01*
D69*
X157541000Y-57973000D02*
X157607000Y-58039000D01*
D67*
X127254000Y-58194000D02*
X127203200Y-58244800D01*
D66*
X129286000Y-93726000D02*
X129794000Y-94234000D01*
D67*
X127254000Y-57454800D02*
X127254000Y-58194000D01*
D68*
X143789400Y-81051400D02*
X143789400Y-80086200D01*
D66*
X154813000Y-72009000D02*
X154305000Y-72517000D01*
X155092000Y-63604000D02*
X155344000Y-63856000D01*
X139231800Y-53670200D02*
X139231800Y-54644600D01*
D67*
X159004000Y-73914000D02*
X159004000Y-73721000D01*
D66*
X156868000Y-65788400D02*
X156868000Y-66726000D01*
D68*
X141227000Y-95377000D02*
X146088000Y-95377000D01*
X148183600Y-81041200D02*
X148183600Y-80035400D01*
X120838000Y-41656000D02*
X121158000Y-41656000D01*
D66*
X129006000Y-93726000D02*
X129286000Y-93726000D01*
X138635800Y-63274000D02*
X139014200Y-63652400D01*
D69*
X157541000Y-55311000D02*
X157607000Y-55245000D01*
D66*
X125476000Y-52298600D02*
X125450600Y-52324000D01*
D68*
X141592200Y-81051400D02*
X141592200Y-80098800D01*
D66*
X135379400Y-58036400D02*
X135203000Y-58212800D01*
X158269400Y-88798400D02*
X158445200Y-88622600D01*
D68*
X154244000Y-85471000D02*
X152654000Y-85471000D01*
X154244000Y-87630000D02*
X152781000Y-87630000D01*
D66*
X154244000Y-87899200D02*
X155143200Y-88798400D01*
X155143200Y-88798400D02*
X158269400Y-88798400D01*
X154244000Y-87503000D02*
X154244000Y-87899200D01*
X158419800Y-86766400D02*
X158419800Y-87450200D01*
X157808800Y-65831600D02*
X157782479Y-65831600D01*
X157318000Y-66726000D02*
X157318000Y-66202000D01*
X157318000Y-66296079D02*
X157318000Y-66726000D01*
X157782479Y-65831600D02*
X157318000Y-66296079D01*
X129203000Y-57692200D02*
X129262600Y-57632600D01*
X129203000Y-59349000D02*
X129203000Y-57692200D01*
X125730000Y-37465000D02*
X128141000Y-37465000D01*
X128141000Y-37465000D02*
X128268000Y-37592000D01*
X125730000Y-34925000D02*
X128141000Y-34925000D01*
X128141000Y-34925000D02*
X128268000Y-35052000D01*
X148590000Y-27305000D02*
X146433000Y-27305000D01*
X146433000Y-27305000D02*
X146306000Y-27432000D01*
X146433000Y-29845000D02*
X146306000Y-29972000D01*
X148590000Y-29845000D02*
X146433000Y-29845000D01*
D68*
X118938000Y-42606000D02*
X117094000Y-44450000D01*
X118938000Y-41656000D02*
X118938000Y-42606000D01*
D67*
X150551000Y-62230000D02*
X150551000Y-62882800D01*
D66*
X149479000Y-64389000D02*
X148740000Y-64389000D01*
D67*
X147706500Y-57275000D02*
X147736234Y-57275000D01*
X147736234Y-57275000D02*
X147738234Y-57277000D01*
D68*
X120523000Y-44450000D02*
X121600000Y-44450000D01*
D67*
X145796000Y-57023000D02*
X147454500Y-57023000D01*
X125476000Y-48342513D02*
X124984217Y-47850730D01*
X147738234Y-57277000D02*
X148209000Y-57277000D01*
X125476000Y-48900500D02*
X125476000Y-48342513D01*
D66*
X148590000Y-49154500D02*
X148590000Y-48615600D01*
D68*
X118938000Y-41656000D02*
X118938000Y-42865000D01*
D67*
X148994000Y-58062000D02*
X148994000Y-62126000D01*
D70*
X117094000Y-44450000D02*
X121600000Y-44450000D01*
D68*
X118938000Y-42865000D02*
X120523000Y-44450000D01*
D67*
X148209000Y-57277000D02*
X148994000Y-58062000D01*
X148590000Y-48615600D02*
X149428200Y-47777400D01*
X147454500Y-57023000D02*
X147706500Y-57275000D01*
D66*
X156358000Y-65128000D02*
X156358000Y-64116000D01*
X156358000Y-64116000D02*
X156360000Y-64114000D01*
X156418000Y-65188000D02*
X156358000Y-65128000D01*
X156418000Y-66726000D02*
X156418000Y-65188000D01*
X155968000Y-69626000D02*
X155968000Y-70092000D01*
X155968000Y-70092000D02*
X155829000Y-70231000D01*
X155829000Y-70862000D02*
X155833000Y-70866000D01*
X155829000Y-70231000D02*
X155829000Y-70862000D01*
X154813000Y-70866000D02*
X153761600Y-70866000D01*
X153761600Y-70866000D02*
X153543000Y-71084600D01*
D65*
X158064200Y-62992000D02*
X158771400Y-62992000D01*
D66*
X153310000Y-65860000D02*
X153340000Y-65890000D01*
X155418000Y-67726000D02*
X154386000Y-67726000D01*
X154386000Y-67726000D02*
X153340000Y-66680000D01*
X153310000Y-64264400D02*
X153310000Y-64874000D01*
X153310000Y-64874000D02*
X153310000Y-65860000D01*
X153340000Y-66680000D02*
X153340000Y-65890000D01*
X158771400Y-62992000D02*
X158800800Y-62962600D01*
X154330000Y-64874000D02*
X155342000Y-64874000D01*
X155342000Y-64874000D02*
X155344000Y-64876000D01*
X139317000Y-89255000D02*
X139954000Y-88618000D01*
X139014500Y-89867500D02*
X139317000Y-90170000D01*
X139317000Y-90170000D02*
X139317000Y-89255000D01*
X137856000Y-89867500D02*
X139014500Y-89867500D01*
D65*
X123885500Y-48260000D02*
X124526000Y-48900500D01*
X117094000Y-46990000D02*
X118364000Y-48260000D01*
X118364000Y-48260000D02*
X123885500Y-48260000D01*
X118364000Y-50800000D02*
X124404500Y-50800000D01*
X124404500Y-50800000D02*
X124526000Y-50921500D01*
X117094000Y-49530000D02*
X118364000Y-50800000D01*
X125984000Y-46990000D02*
X126426000Y-47432000D01*
X121600000Y-46990000D02*
X125984000Y-46990000D01*
X126426000Y-47432000D02*
X126426000Y-48646500D01*
X126426000Y-50607000D02*
X126085600Y-50266600D01*
X126085600Y-50266600D02*
X122336600Y-50266600D01*
X122336600Y-50266600D02*
X121600000Y-49530000D01*
X126426000Y-51175500D02*
X126426000Y-50607000D01*
X150409100Y-48285400D02*
X149540000Y-49154500D01*
X156184600Y-48285400D02*
X150409100Y-48285400D01*
X157480000Y-46990000D02*
X156184600Y-48285400D01*
X151130000Y-50800000D02*
X150622000Y-51308000D01*
X150622000Y-51308000D02*
X149661500Y-51308000D01*
X149661500Y-51308000D02*
X149540000Y-51429500D01*
X156210000Y-50800000D02*
X151130000Y-50800000D01*
X157480000Y-49530000D02*
X156210000Y-50800000D01*
X147640000Y-48473400D02*
X147640000Y-49154500D01*
X153035000Y-46990000D02*
X149123400Y-46990000D01*
X149123400Y-46990000D02*
X147640000Y-48473400D01*
X150418800Y-50393600D02*
X151282400Y-49530000D01*
X147640000Y-50734000D02*
X147980400Y-50393600D01*
X147980400Y-50393600D02*
X150418800Y-50393600D01*
X147640000Y-51429500D02*
X147640000Y-50734000D01*
X151282400Y-49530000D02*
X153035000Y-49530000D01*
D67*
X149225000Y-45085000D02*
X148590000Y-45085000D01*
X151354000Y-41148000D02*
X151354000Y-42956000D01*
X151354000Y-42956000D02*
X149225000Y-45085000D01*
D66*
X128016000Y-93756000D02*
X128046000Y-93726000D01*
X128016000Y-93696000D02*
X128046000Y-93726000D01*
X125725000Y-93726000D02*
X128046000Y-93726000D01*
X128016000Y-94996000D02*
X128016000Y-93756000D01*
X128016000Y-92456000D02*
X128016000Y-93696000D01*
D68*
X148994000Y-70489800D02*
X149949200Y-69534600D01*
D66*
X155418000Y-69076000D02*
X154698000Y-69076000D01*
X155418000Y-68626000D02*
X154627000Y-68626000D01*
X154698000Y-69076000D02*
X154531200Y-69242800D01*
X154627000Y-68626000D02*
X153718400Y-69534600D01*
D68*
X149949200Y-69534600D02*
X153718400Y-69534600D01*
X153718400Y-69534600D02*
X154239400Y-69534600D01*
X154239400Y-69534600D02*
X154531200Y-69242800D01*
X140081000Y-92580000D02*
X137743500Y-92580000D01*
X137743500Y-92580000D02*
X136906000Y-91742500D01*
%TA.AperFunction,Conductor*%
G36*
X157364972Y-69252560D02*
G01*
X157367923Y-69252948D01*
X157393000Y-69256250D01*
X157421026Y-69252559D01*
X157437212Y-69251499D01*
X157607675Y-69251499D01*
X157655129Y-69260938D01*
X157695358Y-69287819D01*
X157726048Y-69318510D01*
X157735201Y-69325533D01*
X157768456Y-69358788D01*
X157775469Y-69367927D01*
X157811159Y-69403619D01*
X157840694Y-69450850D01*
X157846572Y-69506244D01*
X157835673Y-69595999D01*
X157854507Y-69751107D01*
X157909912Y-69897198D01*
X157998671Y-70025788D01*
X158018573Y-70043419D01*
X158115622Y-70129397D01*
X158253971Y-70202008D01*
X158405677Y-70239400D01*
X158561922Y-70239400D01*
X158561923Y-70239400D01*
X158713629Y-70202008D01*
X158726947Y-70195018D01*
X158865310Y-70122400D01*
X158865400Y-70122571D01*
X158898803Y-70104288D01*
X158953868Y-70101400D01*
X159004737Y-70122669D01*
X159402503Y-70406788D01*
X159460074Y-70447910D01*
X159498257Y-70492073D01*
X159512000Y-70548813D01*
X159512000Y-71885000D01*
X159495387Y-71947000D01*
X159450000Y-71992387D01*
X159388000Y-72009000D01*
X157734000Y-72009000D01*
X157607252Y-72298180D01*
X157568608Y-72347205D01*
X157475678Y-72417677D01*
X157384237Y-72538259D01*
X157328723Y-72679032D01*
X157318100Y-72767501D01*
X157318100Y-72931917D01*
X157307670Y-72981695D01*
X155117799Y-77977999D01*
X154942066Y-88522033D01*
X154924425Y-88583743D01*
X154878295Y-88628367D01*
X154816034Y-88643950D01*
X151918914Y-88596064D01*
X151870876Y-88585515D01*
X151830717Y-88557120D01*
X150621999Y-87274399D01*
X150622001Y-87274399D01*
X141625069Y-87253951D01*
X141595678Y-87250348D01*
X141556125Y-87240600D01*
X141556123Y-87240600D01*
X141399877Y-87240600D01*
X141399875Y-87240600D01*
X141363013Y-87249685D01*
X141333058Y-87253288D01*
X139451565Y-87249012D01*
X139446000Y-87249000D01*
X139445999Y-87249000D01*
X137716048Y-88799036D01*
X137682963Y-88820305D01*
X137644881Y-88830142D01*
X137621303Y-88832353D01*
X137493115Y-88877207D01*
X137383849Y-88957849D01*
X137303206Y-89067117D01*
X137261839Y-89185337D01*
X137227545Y-89236734D01*
X136270999Y-90093799D01*
X136271000Y-90093800D01*
X136271000Y-91198641D01*
X136264041Y-91239596D01*
X136243947Y-91275954D01*
X136217090Y-91309630D01*
X136173608Y-91399922D01*
X136129048Y-91450358D01*
X136064705Y-91470088D01*
X135281466Y-91487889D01*
X135217929Y-91472037D01*
X135171326Y-91426033D01*
X135154655Y-91362708D01*
X135178361Y-88944709D01*
X135186126Y-88902723D01*
X135207672Y-88865860D01*
X138937307Y-84455819D01*
X138938713Y-84454186D01*
X140907558Y-82211199D01*
X140949600Y-82180041D01*
X141000750Y-82169000D01*
X149199600Y-82169000D01*
X149756106Y-79115000D01*
X150903323Y-79115000D01*
X150903323Y-79764625D01*
X150917827Y-79837543D01*
X150973083Y-79920239D01*
X151055779Y-79975495D01*
X151128698Y-79990000D01*
X151778323Y-79990000D01*
X151778323Y-79115000D01*
X152528323Y-79115000D01*
X152528323Y-79990000D01*
X153177948Y-79990000D01*
X153250866Y-79975495D01*
X153333562Y-79920239D01*
X153388818Y-79837543D01*
X153403323Y-79764625D01*
X153403323Y-79115000D01*
X152528323Y-79115000D01*
X151778323Y-79115000D01*
X150903323Y-79115000D01*
X149756106Y-79115000D01*
X149892773Y-78365000D01*
X150903323Y-78365000D01*
X151778323Y-78365000D01*
X151778323Y-77490000D01*
X152528323Y-77490000D01*
X152528323Y-78365000D01*
X153403323Y-78365000D01*
X153403323Y-77715375D01*
X153388818Y-77642456D01*
X153333562Y-77559760D01*
X153250866Y-77504504D01*
X153177948Y-77490000D01*
X152528323Y-77490000D01*
X151778323Y-77490000D01*
X151128698Y-77490000D01*
X151055779Y-77504504D01*
X150973083Y-77559760D01*
X150917827Y-77642456D01*
X150903323Y-77715375D01*
X150903323Y-78365000D01*
X149892773Y-78365000D01*
X150232337Y-76501535D01*
X150248733Y-76458761D01*
X150279540Y-76424859D01*
X155448000Y-72517000D01*
X155448000Y-71625000D01*
X155464613Y-71563000D01*
X155510000Y-71517613D01*
X155572000Y-71501000D01*
X156337000Y-71501000D01*
X156337000Y-71325212D01*
X156343213Y-71286453D01*
X156354957Y-71263719D01*
X156357379Y-71256796D01*
X156357381Y-71256794D01*
X156400741Y-71132879D01*
X156403500Y-71103457D01*
X156403499Y-70628544D01*
X156400741Y-70599121D01*
X156357381Y-70475206D01*
X156357380Y-70475204D01*
X156354957Y-70468280D01*
X156343213Y-70445547D01*
X156337000Y-70406788D01*
X156337000Y-70352743D01*
X156343223Y-70313955D01*
X156344351Y-70311772D01*
X156344053Y-70311668D01*
X156347526Y-70301739D01*
X156355635Y-70285673D01*
X156357513Y-70279583D01*
X156357515Y-70279581D01*
X156373470Y-70227851D01*
X156374912Y-70223471D01*
X156394902Y-70166347D01*
X156395500Y-70162829D01*
X156395500Y-70102328D01*
X156395587Y-70097695D01*
X156396376Y-70076587D01*
X156396783Y-70065701D01*
X156400210Y-70042975D01*
X156400210Y-69950590D01*
X156398705Y-69939158D01*
X156398705Y-69375500D01*
X156415318Y-69313500D01*
X156460705Y-69268113D01*
X156522705Y-69251500D01*
X157297383Y-69251499D01*
X157348786Y-69251499D01*
X157364972Y-69252560D01*
G37*
%TD.AperFunction*%
%TA.AperFunction,Conductor*%
G36*
X155637600Y-68620113D02*
G01*
X155682987Y-68665500D01*
X155699600Y-68727500D01*
X155699600Y-69008578D01*
X155690161Y-69056030D01*
X155663284Y-69096255D01*
X155618846Y-69140696D01*
X155612187Y-69147355D01*
X155572286Y-69216478D01*
X155567495Y-69228049D01*
X155567486Y-69228069D01*
X155556180Y-69255358D01*
X155536397Y-69287857D01*
X155507692Y-69312829D01*
X154335896Y-70050627D01*
X154319445Y-70059334D01*
X153713873Y-70323740D01*
X153664255Y-70334100D01*
X153251852Y-70334100D01*
X153167409Y-70344240D01*
X153033026Y-70397234D01*
X152917923Y-70484520D01*
X152830634Y-70599626D01*
X152797143Y-70684553D01*
X152771036Y-70725149D01*
X152731407Y-70752702D01*
X150783757Y-71603086D01*
X150722803Y-71612927D01*
X150664661Y-71592153D01*
X147548801Y-69484365D01*
X147508720Y-69439734D01*
X147494279Y-69381512D01*
X147508857Y-69323324D01*
X147549043Y-69278787D01*
X147605428Y-69258326D01*
X149702619Y-69039868D01*
X149707799Y-69039440D01*
X153007200Y-68836400D01*
X153529245Y-68735358D01*
X153552808Y-68733100D01*
X154226030Y-68733100D01*
X154285630Y-68727230D01*
X154333083Y-68717791D01*
X154390394Y-68700406D01*
X154443212Y-68672173D01*
X154483437Y-68645295D01*
X154500068Y-68631646D01*
X154536959Y-68610748D01*
X154578733Y-68603500D01*
X155353565Y-68603500D01*
X155450039Y-68603500D01*
X155575600Y-68603500D01*
X155637600Y-68620113D01*
G37*
%TD.AperFunction*%
%TA.AperFunction,Conductor*%
G36*
X156656000Y-54118613D02*
G01*
X156701387Y-54164000D01*
X156718000Y-54226000D01*
X156718000Y-61344000D01*
X156701387Y-61406000D01*
X156656000Y-61451387D01*
X156594000Y-61468000D01*
X151003000Y-61468000D01*
X151003000Y-61556469D01*
X150987189Y-61617058D01*
X150943789Y-61662197D01*
X150883868Y-61680373D01*
X150822705Y-61666953D01*
X150819277Y-61665206D01*
X150801000Y-61662311D01*
X150801000Y-62356000D01*
X150784387Y-62418000D01*
X150739000Y-62463387D01*
X150677000Y-62480000D01*
X150008560Y-62480000D01*
X150016205Y-62528275D01*
X150075167Y-62643996D01*
X150167003Y-62735832D01*
X150215054Y-62760315D01*
X150263456Y-62804357D01*
X150282699Y-62866905D01*
X150267422Y-62930537D01*
X150221881Y-62977532D01*
X150158760Y-62994800D01*
X149244000Y-62994800D01*
X149244000Y-64565800D01*
X149227387Y-64627800D01*
X149182000Y-64673187D01*
X149120000Y-64689800D01*
X148868000Y-64689800D01*
X148806000Y-64673187D01*
X148760613Y-64627800D01*
X148744000Y-64565800D01*
X148744000Y-62994801D01*
X147337277Y-62994801D01*
X147273371Y-62977065D01*
X147227747Y-62928931D01*
X147213455Y-62864168D01*
X147225250Y-62643996D01*
X147260821Y-61980000D01*
X150008560Y-61980000D01*
X150301000Y-61980000D01*
X150301000Y-61662312D01*
X150300999Y-61662312D01*
X150282723Y-61665206D01*
X150167003Y-61724167D01*
X150075167Y-61816003D01*
X150016205Y-61931724D01*
X150008560Y-61980000D01*
X147260821Y-61980000D01*
X147316543Y-60939863D01*
X147335257Y-60880709D01*
X147380290Y-60838024D01*
X147440364Y-60822500D01*
X148001016Y-60822500D01*
X148083651Y-60812576D01*
X148083651Y-60812575D01*
X148215159Y-60760716D01*
X148327799Y-60675299D01*
X148413216Y-60562659D01*
X148465076Y-60431151D01*
X148475000Y-60348512D01*
X148475000Y-59940000D01*
X154871000Y-59940000D01*
X154871000Y-60205716D01*
X154881034Y-60289275D01*
X154933475Y-60422254D01*
X155019846Y-60536153D01*
X155133745Y-60622524D01*
X155266724Y-60674965D01*
X155350284Y-60685000D01*
X155391000Y-60685000D01*
X155391000Y-59940000D01*
X155891000Y-59940000D01*
X155891000Y-60685000D01*
X155931716Y-60685000D01*
X156015275Y-60674965D01*
X156148254Y-60622524D01*
X156262153Y-60536153D01*
X156348524Y-60422254D01*
X156400965Y-60289275D01*
X156411000Y-60205716D01*
X156411000Y-59940000D01*
X155891000Y-59940000D01*
X155391000Y-59940000D01*
X154871000Y-59940000D01*
X148475000Y-59940000D01*
X148475000Y-59440000D01*
X154871000Y-59440000D01*
X155391000Y-59440000D01*
X155391000Y-58695000D01*
X155891000Y-58695000D01*
X155891000Y-59440000D01*
X156411000Y-59440000D01*
X156411000Y-59174284D01*
X156400965Y-59090724D01*
X156348524Y-58957745D01*
X156262153Y-58843846D01*
X156148254Y-58757475D01*
X156015275Y-58705034D01*
X155931716Y-58695000D01*
X155891000Y-58695000D01*
X155391000Y-58695000D01*
X155350284Y-58695000D01*
X155266724Y-58705034D01*
X155133745Y-58757475D01*
X155019846Y-58843846D01*
X154933475Y-58957745D01*
X154881034Y-59090724D01*
X154871000Y-59174284D01*
X154871000Y-59440000D01*
X148475000Y-59440000D01*
X148475000Y-59355488D01*
X148465076Y-59272849D01*
X148413216Y-59141341D01*
X148327799Y-59028701D01*
X148280075Y-58992511D01*
X148243945Y-58948868D01*
X148231000Y-58893707D01*
X148231000Y-58686655D01*
X148244515Y-58630360D01*
X148257829Y-58604230D01*
X148281961Y-58556868D01*
X148297000Y-58461916D01*
X148297000Y-58128084D01*
X148292678Y-58100799D01*
X148281961Y-58033131D01*
X148223646Y-57918681D01*
X148177292Y-57872327D01*
X148145198Y-57816740D01*
X148145198Y-57752552D01*
X148177292Y-57696965D01*
X148223235Y-57651021D01*
X148281479Y-57536710D01*
X148283334Y-57525000D01*
X147580500Y-57525000D01*
X147569304Y-57522000D01*
X150135000Y-57522000D01*
X150135000Y-57562716D01*
X150145034Y-57646275D01*
X150197475Y-57779254D01*
X150283846Y-57893153D01*
X150397745Y-57979524D01*
X150530724Y-58031965D01*
X150614284Y-58042000D01*
X150880000Y-58042000D01*
X150880000Y-57522000D01*
X150135000Y-57522000D01*
X147569304Y-57522000D01*
X147518500Y-57508387D01*
X147501293Y-57491180D01*
X147525478Y-57039743D01*
X147580500Y-57025000D01*
X148283334Y-57025000D01*
X148282859Y-57022000D01*
X150135000Y-57022000D01*
X150880000Y-57022000D01*
X150880000Y-56502000D01*
X151380000Y-56502000D01*
X151380000Y-58042000D01*
X151645716Y-58042000D01*
X151729275Y-58031965D01*
X151862254Y-57979524D01*
X151976153Y-57893153D01*
X152062524Y-57779254D01*
X152094146Y-57699069D01*
X152128007Y-57651099D01*
X152180141Y-57624085D01*
X152238859Y-57624085D01*
X152290993Y-57651099D01*
X152324854Y-57699069D01*
X152356475Y-57779254D01*
X152442846Y-57893153D01*
X152556745Y-57979524D01*
X152689724Y-58031965D01*
X152773284Y-58042000D01*
X153039000Y-58042000D01*
X153039000Y-57522000D01*
X153539000Y-57522000D01*
X153539000Y-58042000D01*
X153804716Y-58042000D01*
X153888275Y-58031965D01*
X154021254Y-57979524D01*
X154135153Y-57893153D01*
X154221524Y-57779254D01*
X154273965Y-57646275D01*
X154284000Y-57562716D01*
X154284000Y-57522000D01*
X153539000Y-57522000D01*
X153039000Y-57522000D01*
X153039000Y-56502000D01*
X153539000Y-56502000D01*
X153539000Y-57022000D01*
X154284000Y-57022000D01*
X154284000Y-56981284D01*
X154273965Y-56897724D01*
X154221625Y-56765000D01*
X154871000Y-56765000D01*
X154871000Y-57030716D01*
X154881034Y-57114275D01*
X154933475Y-57247254D01*
X155019846Y-57361153D01*
X155133745Y-57447524D01*
X155266724Y-57499965D01*
X155350284Y-57510000D01*
X155391000Y-57510000D01*
X155391000Y-56765000D01*
X155891000Y-56765000D01*
X155891000Y-57510000D01*
X155931716Y-57510000D01*
X156015275Y-57499965D01*
X156148254Y-57447524D01*
X156262153Y-57361153D01*
X156348524Y-57247254D01*
X156400965Y-57114275D01*
X156411000Y-57030716D01*
X156411000Y-56765000D01*
X155891000Y-56765000D01*
X155391000Y-56765000D01*
X154871000Y-56765000D01*
X154221625Y-56765000D01*
X154221524Y-56764745D01*
X154135153Y-56650846D01*
X154021254Y-56564475D01*
X153888275Y-56512034D01*
X153804716Y-56502000D01*
X153539000Y-56502000D01*
X153039000Y-56502000D01*
X152773284Y-56502000D01*
X152689724Y-56512034D01*
X152556745Y-56564475D01*
X152442846Y-56650846D01*
X152356474Y-56764745D01*
X152324854Y-56844930D01*
X152290993Y-56892901D01*
X152238859Y-56919914D01*
X152180141Y-56919914D01*
X152128007Y-56892901D01*
X152094146Y-56844930D01*
X152062525Y-56764745D01*
X151976153Y-56650846D01*
X151862254Y-56564475D01*
X151729275Y-56512034D01*
X151645716Y-56502000D01*
X151380000Y-56502000D01*
X150880000Y-56502000D01*
X150614284Y-56502000D01*
X150530724Y-56512034D01*
X150397745Y-56564475D01*
X150283846Y-56650846D01*
X150197475Y-56764745D01*
X150145034Y-56897724D01*
X150135000Y-56981284D01*
X150135000Y-57022000D01*
X148282859Y-57022000D01*
X148281479Y-57013289D01*
X148223235Y-56898978D01*
X148132521Y-56808264D01*
X148018210Y-56750020D01*
X147923374Y-56735000D01*
X147880191Y-56735000D01*
X147823896Y-56721485D01*
X147779873Y-56683885D01*
X147757718Y-56630398D01*
X147762260Y-56572682D01*
X147792510Y-56523319D01*
X147825832Y-56489996D01*
X147884794Y-56374276D01*
X147900000Y-56278271D01*
X147900000Y-56265000D01*
X154871000Y-56265000D01*
X155391000Y-56265000D01*
X155391000Y-55520000D01*
X155891000Y-55520000D01*
X155891000Y-56265000D01*
X156411000Y-56265000D01*
X156411000Y-55999284D01*
X156400965Y-55915724D01*
X156348524Y-55782745D01*
X156262153Y-55668846D01*
X156148254Y-55582475D01*
X156015275Y-55530034D01*
X155931716Y-55520000D01*
X155891000Y-55520000D01*
X155391000Y-55520000D01*
X155350284Y-55520000D01*
X155266724Y-55530034D01*
X155133745Y-55582475D01*
X155019846Y-55668846D01*
X154933475Y-55782745D01*
X154881034Y-55915724D01*
X154871000Y-55999284D01*
X154871000Y-56265000D01*
X147900000Y-56265000D01*
X147900000Y-56258000D01*
X147916613Y-56196000D01*
X147962000Y-56150613D01*
X148024000Y-56134000D01*
X150536048Y-56134000D01*
X150550831Y-56134884D01*
X150561425Y-56136157D01*
X150614243Y-56142500D01*
X150614246Y-56142500D01*
X151645754Y-56142500D01*
X151645757Y-56142500D01*
X151698574Y-56136157D01*
X151709168Y-56134884D01*
X151723952Y-56134000D01*
X152695048Y-56134000D01*
X152709831Y-56134884D01*
X152720425Y-56136157D01*
X152773243Y-56142500D01*
X152773246Y-56142500D01*
X153804754Y-56142500D01*
X153804757Y-56142500D01*
X153857574Y-56136157D01*
X153868168Y-56134884D01*
X153882952Y-56134000D01*
X154432000Y-56134000D01*
X154432000Y-54226000D01*
X154448613Y-54164000D01*
X154494000Y-54118613D01*
X154556000Y-54102000D01*
X156594000Y-54102000D01*
X156656000Y-54118613D01*
G37*
%TD.AperFunction*%
%TA.AperFunction,Conductor*%
G36*
X146752276Y-87773073D02*
G01*
X146797503Y-87817126D01*
X146815177Y-87877738D01*
X146937598Y-92529734D01*
X146928816Y-92578938D01*
X146901322Y-92620677D01*
X145578319Y-93943681D01*
X145538091Y-93970561D01*
X145490638Y-93980000D01*
X136643941Y-93980000D01*
X136583438Y-93964237D01*
X136538316Y-93920957D01*
X136520049Y-93861162D01*
X136426221Y-91609302D01*
X136430682Y-91570790D01*
X136446819Y-91535538D01*
X136448853Y-91532474D01*
X136448854Y-91532473D01*
X136471362Y-91485731D01*
X136479979Y-91470644D01*
X136482784Y-91466445D01*
X136482792Y-91466436D01*
X136511329Y-91423728D01*
X136531423Y-91387370D01*
X136565224Y-91290772D01*
X136572183Y-91249817D01*
X136576500Y-91198641D01*
X136576500Y-91056000D01*
X136593113Y-90994000D01*
X136638500Y-90948613D01*
X136700500Y-90932000D01*
X142113000Y-90932000D01*
X142113000Y-90799000D01*
X143188000Y-90799000D01*
X143188000Y-92428625D01*
X143202504Y-92501543D01*
X143257760Y-92584239D01*
X143340456Y-92639495D01*
X143413375Y-92654000D01*
X144053000Y-92654000D01*
X144053000Y-90799000D01*
X144803000Y-90799000D01*
X144803000Y-92654000D01*
X145442625Y-92654000D01*
X145515543Y-92639495D01*
X145598239Y-92584239D01*
X145653495Y-92501543D01*
X145668000Y-92428625D01*
X145668000Y-90799000D01*
X144803000Y-90799000D01*
X144053000Y-90799000D01*
X143188000Y-90799000D01*
X142113000Y-90799000D01*
X142113000Y-90049000D01*
X143188000Y-90049000D01*
X144053000Y-90049000D01*
X144053000Y-88194000D01*
X144803000Y-88194000D01*
X144803000Y-90049000D01*
X145668000Y-90049000D01*
X145668000Y-88419375D01*
X145653495Y-88346456D01*
X145598239Y-88263760D01*
X145515543Y-88208504D01*
X145442625Y-88194000D01*
X144803000Y-88194000D01*
X144053000Y-88194000D01*
X143413375Y-88194000D01*
X143340456Y-88208504D01*
X143257760Y-88263760D01*
X143202504Y-88346456D01*
X143188000Y-88419375D01*
X143188000Y-90049000D01*
X142113000Y-90049000D01*
X142113000Y-87999606D01*
X142113904Y-87984660D01*
X142127941Y-87869054D01*
X142131869Y-87869530D01*
X142138648Y-87827836D01*
X142184402Y-87776194D01*
X142250673Y-87757000D01*
X146691220Y-87757000D01*
X146752276Y-87773073D01*
G37*
%TD.AperFunction*%
%TA.AperFunction,Conductor*%
G36*
X156934622Y-67210614D02*
G01*
X156980380Y-67262789D01*
X156986831Y-67276623D01*
X157067376Y-67357168D01*
X157102305Y-67373455D01*
X157170612Y-67405307D01*
X157217651Y-67411500D01*
X157418348Y-67411499D01*
X157418349Y-67411499D01*
X157427755Y-67410260D01*
X157465388Y-67405307D01*
X157480653Y-67398188D01*
X157530382Y-67386600D01*
X157580568Y-67396035D01*
X157580813Y-67396137D01*
X157581028Y-67396226D01*
X157633002Y-67436749D01*
X157656873Y-67498179D01*
X157645896Y-67563163D01*
X157638693Y-67578610D01*
X157632500Y-67625650D01*
X157632500Y-67826344D01*
X157638693Y-67873390D01*
X157686831Y-67976623D01*
X157767376Y-68057168D01*
X157806838Y-68075569D01*
X157870612Y-68105307D01*
X157917651Y-68111500D01*
X158718348Y-68111499D01*
X158765388Y-68105307D01*
X158778641Y-68099127D01*
X158859082Y-68061618D01*
X158911486Y-68050000D01*
X158974843Y-68050000D01*
X158985649Y-68050471D01*
X159023074Y-68053746D01*
X159059394Y-68044013D01*
X159069896Y-68041685D01*
X159106924Y-68035157D01*
X159106927Y-68035155D01*
X159108023Y-68034962D01*
X159132525Y-68024814D01*
X159133440Y-68024173D01*
X159133441Y-68024173D01*
X159164214Y-68002624D01*
X159173344Y-67996808D01*
X159205876Y-67978027D01*
X159230034Y-67949234D01*
X159237310Y-67941294D01*
X159307820Y-67870783D01*
X159357183Y-67840536D01*
X159414898Y-67835994D01*
X159468386Y-67858149D01*
X159505985Y-67902172D01*
X159519500Y-67958467D01*
X159519500Y-68837000D01*
X159502887Y-68899000D01*
X159457500Y-68944387D01*
X159395500Y-68961000D01*
X159100892Y-68961000D01*
X159053438Y-68951561D01*
X159013209Y-68924680D01*
X158986330Y-68884450D01*
X158976656Y-68861094D01*
X158965455Y-68841693D01*
X158941987Y-68801043D01*
X158892957Y-68752013D01*
X158832908Y-68717345D01*
X158832909Y-68717345D01*
X158832905Y-68717343D01*
X158827369Y-68715050D01*
X158827375Y-68715052D01*
X158794641Y-68701494D01*
X158794639Y-68701493D01*
X158794638Y-68701493D01*
X158693000Y-68681277D01*
X158692998Y-68681277D01*
X158684260Y-68683015D01*
X158660072Y-68685397D01*
X157975927Y-68685397D01*
X157951739Y-68683015D01*
X157942999Y-68681276D01*
X157841363Y-68701493D01*
X157803092Y-68717344D01*
X157743041Y-68752014D01*
X157694014Y-68801041D01*
X157666702Y-68848347D01*
X157626013Y-68890880D01*
X157570294Y-68909859D01*
X157512102Y-68901006D01*
X156362400Y-68427600D01*
X156152517Y-68427600D01*
X156085888Y-68408178D01*
X156067854Y-68387611D01*
X156064629Y-68390837D01*
X155968625Y-68294833D01*
X155968080Y-68294579D01*
X155954790Y-68288382D01*
X155902616Y-68242626D01*
X155883196Y-68176000D01*
X155902616Y-68109374D01*
X155954790Y-68063617D01*
X155968623Y-68057168D01*
X156049168Y-67976623D01*
X156097307Y-67873388D01*
X156103500Y-67826349D01*
X156103499Y-67625652D01*
X156097307Y-67578612D01*
X156097306Y-67578610D01*
X156097306Y-67578608D01*
X156090105Y-67563165D01*
X156079135Y-67498103D01*
X156103089Y-67436625D01*
X156155184Y-67396138D01*
X156155497Y-67396008D01*
X156155644Y-67395948D01*
X156205733Y-67386603D01*
X156255348Y-67398189D01*
X156270612Y-67405307D01*
X156317651Y-67411500D01*
X156518348Y-67411499D01*
X156565388Y-67405307D01*
X156668623Y-67357168D01*
X156749168Y-67276623D01*
X156755617Y-67262792D01*
X156801371Y-67210617D01*
X156867996Y-67191196D01*
X156934622Y-67210614D01*
G37*
%TD.AperFunction*%
%TA.AperFunction,Conductor*%
G36*
X153319442Y-67226269D02*
G01*
X153368368Y-67256376D01*
X154068598Y-67956606D01*
X154155394Y-68043402D01*
X154174217Y-68052993D01*
X154190800Y-68063155D01*
X154207885Y-68075568D01*
X154207886Y-68075569D01*
X154227969Y-68082094D01*
X154245943Y-68089538D01*
X154264763Y-68099128D01*
X154285629Y-68102432D01*
X154304524Y-68106968D01*
X154324626Y-68113500D01*
X154324630Y-68113500D01*
X154333599Y-68116414D01*
X154386338Y-68150173D01*
X154415857Y-68205397D01*
X154414628Y-68268004D01*
X154382965Y-68322027D01*
X154313708Y-68391283D01*
X154273483Y-68418161D01*
X154226030Y-68427600D01*
X153262918Y-68427600D01*
X153200256Y-68410602D01*
X153154774Y-68364270D01*
X153138939Y-68301304D01*
X153152608Y-67563163D01*
X153156708Y-67341760D01*
X153171048Y-67286132D01*
X153208921Y-67242935D01*
X153262197Y-67221443D01*
X153319442Y-67226269D01*
G37*
%TD.AperFunction*%
%TA.AperFunction,Conductor*%
G36*
X157428288Y-63128439D02*
G01*
X157468516Y-63155319D01*
X157495396Y-63195547D01*
X157537131Y-63296304D01*
X157633850Y-63422350D01*
X157759896Y-63519069D01*
X157759897Y-63519069D01*
X157759898Y-63519070D01*
X157783377Y-63528795D01*
X157906681Y-63579869D01*
X158064200Y-63600607D01*
X158093905Y-63596696D01*
X158150716Y-63602479D01*
X158198912Y-63633108D01*
X158228270Y-63682089D01*
X158232565Y-63739032D01*
X158220300Y-63816475D01*
X158220300Y-64148730D01*
X158234967Y-64241338D01*
X158291845Y-64352968D01*
X158380431Y-64441554D01*
X158380433Y-64441555D01*
X158492060Y-64498432D01*
X158522930Y-64503321D01*
X158584670Y-64513100D01*
X158584672Y-64513100D01*
X158810000Y-64513100D01*
X158872000Y-64529713D01*
X158917387Y-64575100D01*
X158934000Y-64637100D01*
X158934000Y-67230677D01*
X158918714Y-67290320D01*
X158876624Y-67335258D01*
X158818108Y-67354412D01*
X158784453Y-67348097D01*
X158784310Y-67349184D01*
X158718350Y-67340500D01*
X158718349Y-67340500D01*
X158214237Y-67340500D01*
X158152237Y-67323887D01*
X158106850Y-67278500D01*
X158090237Y-67216500D01*
X158106850Y-67154500D01*
X158126655Y-67120197D01*
X158138386Y-67091875D01*
X158138387Y-67091874D01*
X158142507Y-67081927D01*
X158162723Y-66980289D01*
X158160985Y-66971549D01*
X158158603Y-66947361D01*
X158158603Y-66384906D01*
X158171391Y-66330062D01*
X158207117Y-66286530D01*
X158234415Y-66265583D01*
X158239150Y-66261950D01*
X158335869Y-66135904D01*
X158396669Y-65989119D01*
X158417407Y-65831600D01*
X158396669Y-65674081D01*
X158335869Y-65527297D01*
X158239150Y-65401250D01*
X158113104Y-65304531D01*
X158113103Y-65304530D01*
X158113101Y-65304529D01*
X157966319Y-65243731D01*
X157808799Y-65222992D01*
X157651280Y-65243731D01*
X157504496Y-65304531D01*
X157378449Y-65401249D01*
X157281731Y-65527296D01*
X157220931Y-65674081D01*
X157209339Y-65762122D01*
X157187663Y-65817501D01*
X157142695Y-65856419D01*
X157087394Y-65884596D01*
X157017181Y-65954810D01*
X156967818Y-65985060D01*
X156910102Y-65989602D01*
X156856615Y-65967447D01*
X156819015Y-65923424D01*
X156805500Y-65867129D01*
X156805500Y-65198429D01*
X156819014Y-65142136D01*
X156825432Y-65129540D01*
X156840100Y-65036928D01*
X156840100Y-64604672D01*
X156836232Y-64580253D01*
X156825432Y-64512061D01*
X156825432Y-64512060D01*
X156785939Y-64434552D01*
X156772595Y-64384747D01*
X156780661Y-64333819D01*
X156808743Y-64290578D01*
X156868955Y-64230367D01*
X156925832Y-64118740D01*
X156940500Y-64026128D01*
X156940500Y-63693872D01*
X156925832Y-63601260D01*
X156868955Y-63489633D01*
X156868954Y-63489631D01*
X156817004Y-63437681D01*
X156784910Y-63382094D01*
X156784910Y-63317906D01*
X156817004Y-63262319D01*
X156868955Y-63210367D01*
X156881013Y-63186704D01*
X156926708Y-63137272D01*
X156991497Y-63119000D01*
X157380835Y-63119000D01*
X157428288Y-63128439D01*
G37*
%TD.AperFunction*%
%TA.AperFunction,Conductor*%
G36*
X154923334Y-65334803D02*
G01*
X154951608Y-65349209D01*
X155035260Y-65391832D01*
X155076701Y-65398395D01*
X155113593Y-65410382D01*
X155144980Y-65433186D01*
X155595681Y-65883886D01*
X155622561Y-65924114D01*
X155632000Y-65971567D01*
X155632000Y-66138626D01*
X155615387Y-66200626D01*
X155609340Y-66211098D01*
X155607052Y-66216621D01*
X155607052Y-66216625D01*
X155593494Y-66249358D01*
X155573277Y-66351000D01*
X155575015Y-66359740D01*
X155577397Y-66383928D01*
X155577397Y-66947361D01*
X155575015Y-66971549D01*
X155573277Y-66980287D01*
X155593494Y-67081930D01*
X155607048Y-67114654D01*
X155607051Y-67114659D01*
X155609345Y-67120197D01*
X155629150Y-67154500D01*
X155645763Y-67216500D01*
X155629150Y-67278500D01*
X155583763Y-67323887D01*
X155521763Y-67340500D01*
X155470883Y-67340500D01*
X155451489Y-67338974D01*
X155448496Y-67338500D01*
X154597870Y-67338500D01*
X154550417Y-67329061D01*
X154510189Y-67302181D01*
X153763819Y-66555811D01*
X153736939Y-66515583D01*
X153727500Y-66468130D01*
X153727500Y-66430254D01*
X153736939Y-66382801D01*
X153763820Y-66342572D01*
X153808049Y-66298343D01*
X153808050Y-66298342D01*
X153865646Y-66185304D01*
X153880500Y-66091519D01*
X153880499Y-65688482D01*
X153865646Y-65594696D01*
X153860227Y-65584061D01*
X153846774Y-65523874D01*
X153863981Y-65464648D01*
X153907592Y-65421037D01*
X153966818Y-65403830D01*
X154027006Y-65417283D01*
X154071260Y-65439832D01*
X154102130Y-65444721D01*
X154163870Y-65454500D01*
X154163872Y-65454500D01*
X154496128Y-65454500D01*
X154496130Y-65454500D01*
X154542434Y-65447165D01*
X154588740Y-65439832D01*
X154700367Y-65382955D01*
X154748320Y-65335001D01*
X154803904Y-65302910D01*
X154868092Y-65302909D01*
X154923334Y-65334803D01*
G37*
%TD.AperFunction*%
%TA.AperFunction,Conductor*%
G36*
X155781195Y-63364311D02*
G01*
X155826333Y-63407710D01*
X155844510Y-63467632D01*
X155831091Y-63528795D01*
X155794167Y-63601261D01*
X155779500Y-63693870D01*
X155779500Y-64026130D01*
X155794167Y-64118740D01*
X155836650Y-64202117D01*
X155850104Y-64262306D01*
X155832897Y-64321532D01*
X155789287Y-64365143D01*
X155730061Y-64382350D01*
X155669871Y-64368896D01*
X155652740Y-64360167D01*
X155560130Y-64345500D01*
X155560128Y-64345500D01*
X155127872Y-64345500D01*
X155127870Y-64345500D01*
X155035261Y-64360167D01*
X154910872Y-64423546D01*
X154870089Y-64447091D01*
X154805903Y-64447089D01*
X154750319Y-64414997D01*
X154700367Y-64365045D01*
X154700366Y-64365044D01*
X154588738Y-64308167D01*
X154496130Y-64293500D01*
X154496128Y-64293500D01*
X154163872Y-64293500D01*
X154163869Y-64293500D01*
X154053090Y-64311045D01*
X153988246Y-64303944D01*
X153935979Y-64264914D01*
X153910755Y-64204759D01*
X153897869Y-64106881D01*
X153837069Y-63960097D01*
X153740350Y-63834050D01*
X153614304Y-63737331D01*
X153614302Y-63737330D01*
X153601352Y-63727393D01*
X153601376Y-63727361D01*
X153579321Y-63712626D01*
X153552440Y-63672396D01*
X153543000Y-63624942D01*
X153543000Y-63472500D01*
X153559613Y-63410500D01*
X153605000Y-63365113D01*
X153667000Y-63348500D01*
X155720606Y-63348500D01*
X155781195Y-63364311D01*
G37*
%TD.AperFunction*%
%TA.AperFunction,Conductor*%
G36*
X156496111Y-39710564D02*
G01*
X156545673Y-39756264D01*
X156564000Y-39821142D01*
X156564000Y-40612000D01*
X157860000Y-40612000D01*
X157922000Y-40628613D01*
X157967387Y-40674000D01*
X157984000Y-40736000D01*
X157984000Y-42382000D01*
X158424716Y-42382000D01*
X158508275Y-42371965D01*
X158641251Y-42319525D01*
X158678076Y-42291602D01*
X158741374Y-42266953D01*
X158808161Y-42279352D01*
X158858394Y-42325077D01*
X158877000Y-42390407D01*
X158877000Y-45443600D01*
X158860387Y-45505600D01*
X158815000Y-45550987D01*
X158753000Y-45567600D01*
X158703155Y-45567600D01*
X158650138Y-45555695D01*
X158607301Y-45522265D01*
X158582871Y-45473729D01*
X158581538Y-45419408D01*
X158600000Y-45326596D01*
X158600000Y-44700000D01*
X156360001Y-44700000D01*
X156360001Y-45326593D01*
X156378462Y-45419411D01*
X156377127Y-45473731D01*
X156352697Y-45522266D01*
X156309860Y-45555695D01*
X156256844Y-45567600D01*
X154258155Y-45567600D01*
X154205138Y-45555695D01*
X154162301Y-45522265D01*
X154137871Y-45473729D01*
X154136538Y-45419408D01*
X154155000Y-45326596D01*
X154155000Y-44700000D01*
X152909000Y-44700000D01*
X152847000Y-44683387D01*
X152801613Y-44638000D01*
X152785000Y-44576000D01*
X152785000Y-43330001D01*
X152158406Y-43330001D01*
X152152653Y-43331145D01*
X152107172Y-43330000D01*
X153285000Y-43330000D01*
X153285000Y-44200000D01*
X154154999Y-44200000D01*
X156360000Y-44200000D01*
X157230000Y-44200000D01*
X157230000Y-43330001D01*
X156603407Y-43330001D01*
X156524650Y-43345665D01*
X156435340Y-43405340D01*
X156375664Y-43494651D01*
X156360000Y-43573403D01*
X156360000Y-44200000D01*
X154154999Y-44200000D01*
X154154999Y-43573407D01*
X154139334Y-43494650D01*
X154079659Y-43405340D01*
X153990348Y-43345664D01*
X153911597Y-43330000D01*
X157730000Y-43330000D01*
X157730000Y-44200000D01*
X158599999Y-44200000D01*
X158599999Y-43573407D01*
X158584334Y-43494650D01*
X158524659Y-43405340D01*
X158435348Y-43345664D01*
X158356597Y-43330000D01*
X157730000Y-43330000D01*
X153911597Y-43330000D01*
X153285000Y-43330000D01*
X152107172Y-43330000D01*
X152098195Y-43329774D01*
X152049580Y-43305196D01*
X152016190Y-43262154D01*
X152004469Y-43208955D01*
X152008241Y-42390407D01*
X152011481Y-41687401D01*
X152013861Y-41663797D01*
X152017799Y-41644000D01*
X152017799Y-41586000D01*
X153691000Y-41586000D01*
X153691000Y-41626716D01*
X153701034Y-41710275D01*
X153753475Y-41843254D01*
X153839846Y-41957153D01*
X153953745Y-42043524D01*
X154086724Y-42095965D01*
X154170284Y-42106000D01*
X154436000Y-42106000D01*
X154436000Y-41586000D01*
X154936000Y-41586000D01*
X154936000Y-42106000D01*
X155201716Y-42106000D01*
X155285275Y-42095965D01*
X155418254Y-42043524D01*
X155532153Y-41957153D01*
X155618524Y-41843254D01*
X155670965Y-41710275D01*
X155681000Y-41626716D01*
X155681000Y-41586000D01*
X154936000Y-41586000D01*
X154436000Y-41586000D01*
X153691000Y-41586000D01*
X152017799Y-41586000D01*
X152017799Y-41208360D01*
X152019061Y-41190713D01*
X152020134Y-41183250D01*
X152020134Y-41112000D01*
X156564000Y-41112000D01*
X156564000Y-41902716D01*
X156574034Y-41986275D01*
X156626475Y-42119254D01*
X156712846Y-42233153D01*
X156826745Y-42319524D01*
X156959724Y-42371965D01*
X157043284Y-42382000D01*
X157484000Y-42382000D01*
X157484000Y-41112000D01*
X156564000Y-41112000D01*
X152020134Y-41112000D01*
X152020134Y-41104750D01*
X152019061Y-41097287D01*
X152018254Y-41086000D01*
X153691000Y-41086000D01*
X154436000Y-41086000D01*
X154436000Y-40566000D01*
X154936000Y-40566000D01*
X154936000Y-41086000D01*
X155681000Y-41086000D01*
X155681000Y-41045284D01*
X155670965Y-40961724D01*
X155618524Y-40828745D01*
X155532153Y-40714846D01*
X155418254Y-40628475D01*
X155285275Y-40576034D01*
X155201716Y-40566000D01*
X154936000Y-40566000D01*
X154436000Y-40566000D01*
X154170284Y-40566000D01*
X154086724Y-40576034D01*
X153953745Y-40628475D01*
X153839846Y-40714846D01*
X153753475Y-40828745D01*
X153701034Y-40961724D01*
X153691000Y-41045284D01*
X153691000Y-41086000D01*
X152018254Y-41086000D01*
X152017799Y-41079640D01*
X152017799Y-40708360D01*
X152019061Y-40690713D01*
X152020134Y-40683250D01*
X152020134Y-40604750D01*
X152019061Y-40597287D01*
X152017799Y-40579640D01*
X152017799Y-40316768D01*
X152017800Y-40316197D01*
X152018475Y-40169605D01*
X152033633Y-40110768D01*
X152074925Y-40066193D01*
X152132432Y-40046587D01*
X153664890Y-39922123D01*
X153725541Y-39932517D01*
X153773729Y-39970791D01*
X153839489Y-40057510D01*
X153953499Y-40143965D01*
X154070971Y-40190291D01*
X154086605Y-40196456D01*
X154170246Y-40206500D01*
X155201751Y-40206500D01*
X155201754Y-40206500D01*
X155285395Y-40196456D01*
X155418501Y-40143965D01*
X155532510Y-40057510D01*
X155618965Y-39943501D01*
X155663999Y-39829303D01*
X155705487Y-39775197D01*
X155769306Y-39751206D01*
X156429963Y-39697549D01*
X156496111Y-39710564D01*
G37*
%TD.AperFunction*%
M02*
