%TF.GenerationSoftware,KiCad,Pcbnew,7.0.1*%
%TF.CreationDate,2023-06-05T22:57:50+02:00*%
%TF.ProjectId,AxisPCB-STM32F411,41786973-5043-4422-9d53-544d33324634,1*%
%TF.SameCoordinates,Original*%
%TF.FileFunction,Copper,L4,Bot*%
%TF.FilePolarity,Positive*%
%FSLAX46Y46*%
G04 Gerber Fmt 4.6, Leading zero omitted, Abs format (unit mm)*
G04 Created by KiCad (PCBNEW 7.0.1) date 2023-06-05 22:57:50*
%MOMM*%
%LPD*%
G01*
G04 APERTURE LIST*
%TA.AperFunction,ConnectorPad*%
%ADD10C,5.600000*%
%TD*%
%TA.AperFunction,ComponentPad*%
%ADD11C,3.600000*%
%TD*%
%TA.AperFunction,ComponentPad*%
%ADD12R,1.980000X3.960000*%
%TD*%
%TA.AperFunction,ComponentPad*%
%ADD13O,1.980000X3.960000*%
%TD*%
%TA.AperFunction,ComponentPad*%
%ADD14R,2.000000X2.000000*%
%TD*%
%TA.AperFunction,ComponentPad*%
%ADD15C,2.000000*%
%TD*%
%TA.AperFunction,ComponentPad*%
%ADD16R,1.700000X1.700000*%
%TD*%
%TA.AperFunction,ComponentPad*%
%ADD17O,1.700000X1.700000*%
%TD*%
%TA.AperFunction,ComponentPad*%
%ADD18O,2.000000X1.600000*%
%TD*%
%TA.AperFunction,ComponentPad*%
%ADD19R,1.800000X1.800000*%
%TD*%
%TA.AperFunction,ComponentPad*%
%ADD20C,1.800000*%
%TD*%
%TA.AperFunction,ComponentPad*%
%ADD21C,0.500000*%
%TD*%
%TA.AperFunction,SMDPad,CuDef*%
%ADD22R,1.550000X1.550000*%
%TD*%
%TA.AperFunction,SMDPad,CuDef*%
%ADD23R,3.000000X3.000000*%
%TD*%
%TA.AperFunction,ViaPad*%
%ADD24C,0.685800*%
%TD*%
%TA.AperFunction,ViaPad*%
%ADD25C,0.889000*%
%TD*%
%TA.AperFunction,Conductor*%
%ADD26C,0.508000*%
%TD*%
%TA.AperFunction,Conductor*%
%ADD27C,0.127000*%
%TD*%
%TA.AperFunction,Conductor*%
%ADD28C,2.032000*%
%TD*%
%TA.AperFunction,Conductor*%
%ADD29C,1.016000*%
%TD*%
%TA.AperFunction,Conductor*%
%ADD30C,0.254000*%
%TD*%
%TA.AperFunction,Conductor*%
%ADD31C,1.600000*%
%TD*%
G04 APERTURE END LIST*
D10*
X156210000Y-30480000D03*
D11*
X156210000Y-30480000D03*
D12*
X144428000Y-90424000D03*
D13*
X149428000Y-90424000D03*
D14*
X152153323Y-78740000D03*
D15*
X157153323Y-78740000D03*
D16*
X121600000Y-44450000D03*
D17*
X121600000Y-46990000D03*
X121600000Y-49530000D03*
X121600000Y-52070000D03*
D11*
X156210000Y-92710000D03*
D10*
X156210000Y-92710000D03*
D14*
X125730000Y-27178000D03*
D18*
X125730000Y-29718000D03*
X125730000Y-32258000D03*
X125730000Y-34798000D03*
X125730000Y-37338000D03*
X125730000Y-39878000D03*
X125730000Y-42418000D03*
X125730000Y-44958000D03*
X148590000Y-44958000D03*
X148590000Y-42418000D03*
X148590000Y-39878000D03*
X148590000Y-37338000D03*
X148590000Y-34798000D03*
X148590000Y-32258000D03*
X148590000Y-29718000D03*
X148590000Y-27178000D03*
D16*
X157480000Y-44450000D03*
D17*
X157480000Y-46990000D03*
X157480000Y-49530000D03*
X157480000Y-52070000D03*
D16*
X117094000Y-44450000D03*
D17*
X117094000Y-46990000D03*
X117094000Y-49530000D03*
X117094000Y-52070000D03*
D19*
X123185000Y-93726000D03*
D20*
X125725000Y-93726000D03*
D21*
X156343000Y-68701000D03*
X157393000Y-68701000D03*
D22*
X156868000Y-68176000D03*
D21*
X156343000Y-67651000D03*
X157393000Y-67651000D03*
D14*
X122052477Y-84302600D03*
D15*
X117052477Y-84302600D03*
D11*
X118110000Y-92710000D03*
D10*
X118110000Y-92710000D03*
D11*
X118110000Y-30480000D03*
D10*
X118110000Y-30480000D03*
D16*
X153035000Y-44450000D03*
D17*
X153035000Y-46990000D03*
X153035000Y-49530000D03*
X153035000Y-52070000D03*
D23*
X119126000Y-41402000D03*
X152400000Y-60960000D03*
D24*
X145161000Y-72898000D03*
X146304000Y-72898000D03*
X140335000Y-52578000D03*
X119126000Y-72136000D03*
X115697000Y-72136000D03*
X129274600Y-61479400D03*
X137769600Y-60452000D03*
X136601200Y-69646800D03*
X134620000Y-73355200D03*
X131572000Y-75692000D03*
X125628400Y-71424800D03*
X127889000Y-72873100D03*
X129286000Y-69088000D03*
X128930400Y-66852800D03*
X127863600Y-64973200D03*
X135001000Y-63373000D03*
X134010400Y-60756800D03*
X150774400Y-34594800D03*
X157734000Y-35001200D03*
X157480000Y-75996800D03*
X157429200Y-82092800D03*
X121564400Y-60858400D03*
X127762000Y-55575200D03*
X134264400Y-45618400D03*
X143967200Y-55168800D03*
X142900400Y-59283600D03*
X141122400Y-59486800D03*
X139319000Y-56007000D03*
X133096000Y-56235600D03*
X132917700Y-54406800D03*
X128981200Y-52832000D03*
X128778000Y-54102000D03*
X133197600Y-53441600D03*
X137261600Y-57556400D03*
X137871200Y-56083200D03*
X135331200Y-54965600D03*
X129387600Y-55626000D03*
X133756400Y-54965600D03*
X130302000Y-55016400D03*
X135585200Y-52425600D03*
X130098800Y-53238400D03*
X127000000Y-56337200D03*
X136601200Y-55321200D03*
X139649200Y-46634400D03*
X140766800Y-48743100D03*
X130285402Y-43129200D03*
X130149600Y-45364400D03*
X144068800Y-44856400D03*
X139649200Y-44805600D03*
X139060818Y-57585982D03*
X136296400Y-58470800D03*
X130098800Y-57708800D03*
X132435600Y-57962800D03*
X127508000Y-66395600D03*
X131851900Y-56388000D03*
X127558800Y-67310000D03*
X131318000Y-57479700D03*
X136601200Y-46431200D03*
X126746000Y-52324000D03*
X128044000Y-45847000D03*
X129476500Y-44513500D03*
X129540000Y-48489100D03*
X136403200Y-49149000D03*
X129794000Y-49784000D03*
X128397000Y-49149000D03*
X133146800Y-48971200D03*
X134625200Y-46760900D03*
X128746250Y-47593250D03*
X127254000Y-47752000D03*
X135387200Y-46228000D03*
D25*
X155321000Y-51689000D03*
D24*
X155321000Y-47498000D03*
X151511000Y-74168000D03*
X148971000Y-77724000D03*
X139573000Y-82423000D03*
X127000000Y-92329000D03*
X123748800Y-79502000D03*
X124841000Y-79502000D03*
X124079000Y-88392000D03*
X124333000Y-74676000D03*
X127762000Y-79095600D03*
X125730000Y-79502000D03*
X126746000Y-79502000D03*
X126746000Y-71501000D03*
X116967000Y-60579000D03*
X118618000Y-61468000D03*
X118872000Y-63957200D03*
X126746000Y-46736000D03*
X123698000Y-43942000D03*
X136144000Y-94488000D03*
X141478000Y-87884000D03*
X138430000Y-83820000D03*
X137160000Y-85344000D03*
X135890000Y-86868000D03*
X134366000Y-88646000D03*
X134366000Y-92456000D03*
X150876000Y-72898000D03*
X149733000Y-72898000D03*
X148590000Y-72898000D03*
X147447000Y-72898000D03*
X146304000Y-62992000D03*
X146558000Y-61087000D03*
X151130000Y-44704000D03*
X128270000Y-74930000D03*
X126238000Y-70612000D03*
X119126000Y-70866000D03*
X123698000Y-69850000D03*
X143205200Y-44145200D03*
X137414000Y-49276000D03*
X144497563Y-48082700D03*
X144487097Y-49469599D03*
X138356550Y-49219716D03*
X136448800Y-56743600D03*
X141224000Y-57912000D03*
X138379200Y-46583600D03*
X145948400Y-49428400D03*
X145669000Y-47244000D03*
X146431000Y-50419000D03*
X145669000Y-48387000D03*
X138562200Y-45466000D03*
X146685000Y-47117000D03*
X141986000Y-58674000D03*
X135280400Y-61569600D03*
X120650000Y-55372000D03*
X118872000Y-55372000D03*
X139192000Y-67056000D03*
X129286000Y-74676000D03*
X115697000Y-75946000D03*
X115697000Y-73406000D03*
X119126000Y-73406000D03*
X119126000Y-75946000D03*
X125170000Y-68326000D03*
X146304000Y-55372000D03*
X143002000Y-56896000D03*
X140208000Y-66802000D03*
X151384000Y-63246000D03*
X144018000Y-78486000D03*
X144018000Y-77216000D03*
X144018000Y-75946000D03*
X144018000Y-74422000D03*
X144018000Y-72898000D03*
X144018000Y-71628000D03*
X144018000Y-70104000D03*
X144018000Y-68326000D03*
X144018000Y-66802000D03*
X144018000Y-65278000D03*
X144018000Y-63754000D03*
X144018000Y-62484000D03*
X144018000Y-61214000D03*
X144780000Y-60452000D03*
X149606000Y-62230000D03*
X147828000Y-62230000D03*
X148717000Y-62230000D03*
D25*
X152400000Y-58166000D03*
X149887523Y-56614477D03*
X122047000Y-40767000D03*
D24*
X157607000Y-55245000D03*
D25*
X154686000Y-38328600D03*
D24*
X135379400Y-58036400D03*
D25*
X156159200Y-36855400D03*
D24*
X140213200Y-54991000D03*
X135178800Y-72034400D03*
X141224000Y-95380000D03*
X138811000Y-95377000D03*
X125450600Y-52324000D03*
X159004000Y-73914000D03*
X157810923Y-74015600D03*
X129794000Y-94234000D03*
X154531200Y-63604000D03*
X157607000Y-58039000D03*
X127254000Y-57454800D03*
D25*
X122047000Y-42291000D03*
D24*
X154305000Y-72517000D03*
X148183600Y-80035400D03*
X145999200Y-79933800D03*
X143789400Y-80086200D03*
X155090000Y-66347200D03*
X148590000Y-52476400D03*
X159105600Y-68300600D03*
X151130000Y-54356000D03*
X153289000Y-54483000D03*
X154470319Y-66966881D03*
X157020400Y-65636000D03*
X157734000Y-60833000D03*
X157200600Y-85471000D03*
X157251400Y-87630000D03*
X141097000Y-90170000D03*
X158445200Y-66550400D03*
X139014200Y-63652400D03*
X140441800Y-47955200D03*
X133456800Y-47955200D03*
X141528800Y-80035400D03*
X139724900Y-69951600D03*
X157683200Y-64109600D03*
X153769200Y-67972800D03*
X146913600Y-84353400D03*
X136728200Y-89204800D03*
X152781000Y-87630000D03*
X157099000Y-70739000D03*
X135534400Y-91084400D03*
X152654000Y-85471000D03*
X142697200Y-84353400D03*
X157808800Y-65831600D03*
X158419800Y-86766400D03*
D25*
X155321000Y-54991000D03*
D24*
X155321000Y-45466000D03*
X155321000Y-44069000D03*
D25*
X153517600Y-42443400D03*
X155321000Y-58166000D03*
X149428200Y-47777400D03*
D24*
X155321000Y-42926000D03*
D25*
X156184600Y-41325800D03*
D24*
X124984217Y-47850730D03*
X158064200Y-62992000D03*
X153310000Y-64264400D03*
X154531200Y-69242800D03*
X158483800Y-69596000D03*
D26*
X154706600Y-69418200D02*
X154531200Y-69242800D01*
X158483800Y-69596000D02*
X158306000Y-69418200D01*
X158306000Y-69418200D02*
X154706600Y-69418200D01*
D27*
X137414000Y-58293000D02*
X136474200Y-58293000D01*
X136474200Y-58293000D02*
X136296400Y-58470800D01*
X137922000Y-57785000D02*
X137414000Y-58293000D01*
X138861800Y-57785000D02*
X137922000Y-57785000D01*
X139060818Y-57585982D02*
X138861800Y-57785000D01*
D26*
X140335000Y-52578000D02*
X140335000Y-50927000D01*
D28*
X140335000Y-50927000D02*
X131089400Y-50927000D01*
X144200046Y-50927000D02*
X140335000Y-50927000D01*
X131089400Y-50927000D02*
X130746500Y-51269900D01*
X130746500Y-51269900D02*
X128358900Y-51269900D01*
X147855523Y-54582477D02*
X144200046Y-50927000D01*
X128358900Y-51269900D02*
X124206000Y-47117000D01*
D27*
X128524000Y-49022000D02*
X128397000Y-49149000D01*
X133096000Y-49022000D02*
X128524000Y-49022000D01*
X133146800Y-48971200D02*
X133096000Y-49022000D01*
D26*
X135280400Y-61569600D02*
X138176000Y-58674000D01*
X135280400Y-61569600D02*
X127000000Y-69850000D01*
X138176000Y-58674000D02*
X141986000Y-58674000D01*
D27*
X129274600Y-61479400D02*
X129263200Y-61468000D01*
X129263200Y-61468000D02*
X118618000Y-61468000D01*
X145034000Y-45466000D02*
X138562200Y-45466000D01*
X146685000Y-47117000D02*
X145034000Y-45466000D01*
D29*
X124206000Y-47117000D02*
X124206000Y-47056000D01*
X124206000Y-47056000D02*
X121600000Y-44450000D01*
X124984217Y-47057017D02*
X124984217Y-47850730D01*
X121600000Y-44450000D02*
X122377200Y-44450000D01*
X122377200Y-44450000D02*
X124984217Y-47057017D01*
D26*
X141986000Y-58674000D02*
X141224000Y-57912000D01*
D27*
X132740400Y-53441600D02*
X133197600Y-53441600D01*
X132130800Y-54051200D02*
X132740400Y-53441600D01*
X128828800Y-54051200D02*
X132130800Y-54051200D01*
X128778000Y-54102000D02*
X128828800Y-54051200D01*
X132130800Y-52628800D02*
X135382000Y-52628800D01*
X131521200Y-53238400D02*
X132130800Y-52628800D01*
X130098800Y-53238400D02*
X131521200Y-53238400D01*
X135382000Y-52628800D02*
X135585200Y-52425600D01*
X133756400Y-54965600D02*
X133705600Y-55016400D01*
X133705600Y-55016400D02*
X130302000Y-55016400D01*
X135509000Y-54787800D02*
X135331200Y-54965600D01*
X136822142Y-54787800D02*
X135509000Y-54787800D01*
X137871200Y-55836858D02*
X136822142Y-54787800D01*
X137871200Y-56083200D02*
X137871200Y-55836858D01*
X127050800Y-56286400D02*
X127000000Y-56337200D01*
X129895600Y-56286400D02*
X127050800Y-56286400D01*
X136601200Y-55321200D02*
X136296400Y-55626000D01*
X136296400Y-55626000D02*
X130556000Y-55626000D01*
X130556000Y-55626000D02*
X129895600Y-56286400D01*
X130657600Y-63246000D02*
X127508000Y-66395600D01*
X130657600Y-56997600D02*
X130657600Y-63246000D01*
X131267200Y-56388000D02*
X130657600Y-56997600D01*
X131851900Y-56388000D02*
X131267200Y-56388000D01*
X127584200Y-67310000D02*
X127558800Y-67310000D01*
X131318000Y-57479700D02*
X131318000Y-63576200D01*
X131318000Y-63576200D02*
X127584200Y-67310000D01*
X140894300Y-48615600D02*
X140766800Y-48743100D01*
X145288000Y-49522342D02*
X145288000Y-49123600D01*
X146184658Y-50419000D02*
X145288000Y-49522342D01*
X145288000Y-49123600D02*
X144780000Y-48615600D01*
X144780000Y-48615600D02*
X140894300Y-48615600D01*
X146431000Y-50419000D02*
X146184658Y-50419000D01*
X143916400Y-46634400D02*
X145669000Y-48387000D01*
X139649200Y-46634400D02*
X143916400Y-46634400D01*
X144293498Y-49276000D02*
X144487097Y-49469599D01*
X138356550Y-49219716D02*
X138412834Y-49276000D01*
X138412834Y-49276000D02*
X144293498Y-49276000D01*
D26*
X130048000Y-43942000D02*
X129476500Y-44513500D01*
X142900400Y-43942000D02*
X130048000Y-43942000D01*
X143154400Y-44196000D02*
X142900400Y-43942000D01*
D30*
X140055600Y-56743600D02*
X141224000Y-57912000D01*
X136448800Y-56743600D02*
X140055600Y-56743600D01*
D27*
X129921000Y-49657000D02*
X135895200Y-49657000D01*
X129794000Y-49784000D02*
X129921000Y-49657000D01*
X134600300Y-46736000D02*
X134625200Y-46760900D01*
X128746250Y-47593250D02*
X129603500Y-46736000D01*
X129603500Y-46736000D02*
X134600300Y-46736000D01*
X128778000Y-46228000D02*
X135387200Y-46228000D01*
X127254000Y-47752000D02*
X128778000Y-46228000D01*
D30*
X143205200Y-44145200D02*
X143154400Y-44196000D01*
D27*
X134625200Y-46736000D02*
X134625200Y-46760900D01*
X135895200Y-49657000D02*
X136403200Y-49149000D01*
X124866400Y-70959850D02*
X124866400Y-79476600D01*
X124866400Y-79476600D02*
X124841000Y-79502000D01*
X125976250Y-69850000D02*
X124866400Y-70959850D01*
X127000000Y-69850000D02*
X125976250Y-69850000D01*
X126746000Y-71501000D02*
X126746000Y-79502000D01*
X139192000Y-72898000D02*
X139192000Y-67056000D01*
X137414000Y-74676000D02*
X139192000Y-72898000D01*
X129286000Y-74676000D02*
X137414000Y-74676000D01*
D30*
X122682000Y-70866000D02*
X119126000Y-70866000D01*
X123698000Y-69850000D02*
X122682000Y-70866000D01*
D26*
X127000000Y-69850000D02*
X123698000Y-69850000D01*
D29*
X147828000Y-58674000D02*
X147828000Y-54610000D01*
D28*
X152400000Y-58166000D02*
X148717000Y-58166000D01*
D29*
X148717000Y-58166000D02*
X148717000Y-57785000D01*
X148717000Y-62230000D02*
X148717000Y-58166000D01*
X149606000Y-62230000D02*
X149606000Y-59436000D01*
X149606000Y-59436000D02*
X149606000Y-56896000D01*
X152400000Y-58166000D02*
X152400000Y-60960000D01*
X148717000Y-55443954D02*
X148717000Y-57785000D01*
X147855523Y-54582477D02*
X148717000Y-55443954D01*
X147828000Y-54610000D02*
X147855523Y-54582477D01*
D28*
X149887523Y-56614477D02*
X147855523Y-54582477D01*
D29*
X147828000Y-58674000D02*
X149887523Y-56614477D01*
X147828000Y-62230000D02*
X147828000Y-58674000D01*
X148717000Y-57785000D02*
X149887523Y-56614477D01*
D26*
X149606000Y-56896000D02*
X149887523Y-56614477D01*
D29*
X150622000Y-62230000D02*
X152400000Y-60452000D01*
X149606000Y-62230000D02*
X150622000Y-62230000D01*
D28*
X155321000Y-58166000D02*
X152400000Y-58166000D01*
X152400000Y-58166000D02*
X151439046Y-58166000D01*
X151439046Y-58166000D02*
X149887523Y-56614477D01*
X122052477Y-88753077D02*
X123799600Y-90500200D01*
X142697200Y-84353400D02*
X141579600Y-84353400D01*
D29*
X152654000Y-85471000D02*
X152654000Y-87503000D01*
X152153323Y-77005477D02*
X152153323Y-78740000D01*
D28*
X144526000Y-84353400D02*
X146913600Y-84353400D01*
X146913600Y-84353400D02*
X151924723Y-84353400D01*
X151924723Y-84353400D02*
X152153323Y-84124800D01*
X135432800Y-90500200D02*
X136728200Y-89204800D01*
X134950200Y-90500200D02*
X135534400Y-91084400D01*
D29*
X152654000Y-87503000D02*
X152781000Y-87630000D01*
D28*
X142697200Y-84353400D02*
X144526000Y-84353400D01*
D29*
X152153323Y-84124800D02*
X152153323Y-84970323D01*
X152153323Y-84970323D02*
X152654000Y-85471000D01*
D28*
X141579600Y-84353400D02*
X136728200Y-89204800D01*
D29*
X157099000Y-70739000D02*
X157099000Y-72059800D01*
D28*
X122052477Y-84302600D02*
X122052477Y-88753077D01*
D29*
X157099000Y-72059800D02*
X152153323Y-77005477D01*
D28*
X123799600Y-90500200D02*
X134950200Y-90500200D01*
X152153323Y-78740000D02*
X152153323Y-84124800D01*
X134950200Y-90500200D02*
X135432800Y-90500200D01*
D30*
X159080200Y-72847200D02*
X158407323Y-73520077D01*
X159080200Y-69215000D02*
X159080200Y-72847200D01*
X158407323Y-86753923D02*
X158419800Y-86766400D01*
X157808800Y-66876800D02*
X157897000Y-66965000D01*
X157897000Y-68031800D02*
X159080200Y-69215000D01*
X158407323Y-73520077D02*
X158407323Y-86753923D01*
X157808800Y-65831600D02*
X157808800Y-66876800D01*
X157897000Y-66965000D02*
X157897000Y-68031800D01*
D29*
X121600000Y-43876000D02*
X119126000Y-41402000D01*
X117094000Y-43434000D02*
X119126000Y-41402000D01*
D30*
X152781000Y-44450000D02*
X153035000Y-44450000D01*
D31*
X155321000Y-45466000D02*
X155321000Y-58166000D01*
D29*
X157480000Y-44450000D02*
X156337000Y-44450000D01*
D30*
X149428200Y-47777400D02*
X149453600Y-47777400D01*
D26*
X149453600Y-47777400D02*
X152781000Y-44450000D01*
D29*
X117094000Y-44450000D02*
X117094000Y-43434000D01*
X121600000Y-44450000D02*
X121600000Y-43876000D01*
X156337000Y-44450000D02*
X155321000Y-45466000D01*
D30*
X153360800Y-64213600D02*
X153310000Y-64264400D01*
D27*
X158038800Y-62992000D02*
X156768800Y-64262000D01*
X153409200Y-64262000D02*
X153360800Y-64213600D01*
D30*
X158064200Y-62992000D02*
X158038800Y-62992000D01*
D27*
X156768800Y-64262000D02*
X153409200Y-64262000D01*
%TA.AperFunction,Conductor*%
G36*
X158813029Y-39617542D02*
G01*
X158859817Y-39663065D01*
X158877000Y-39726043D01*
X158877000Y-45443600D01*
X158860387Y-45505600D01*
X158815000Y-45550987D01*
X158753000Y-45567600D01*
X158703155Y-45567600D01*
X158650138Y-45555695D01*
X158607301Y-45522265D01*
X158582871Y-45473729D01*
X158581538Y-45419408D01*
X158600000Y-45326596D01*
X158600000Y-44700000D01*
X156360001Y-44700000D01*
X156360001Y-45326593D01*
X156378462Y-45419411D01*
X156377127Y-45473731D01*
X156352697Y-45522266D01*
X156309860Y-45555695D01*
X156256844Y-45567600D01*
X154258155Y-45567600D01*
X154205138Y-45555695D01*
X154162301Y-45522265D01*
X154137871Y-45473729D01*
X154136538Y-45419408D01*
X154155000Y-45326596D01*
X154155000Y-44700000D01*
X152909000Y-44700000D01*
X152847000Y-44683387D01*
X152801613Y-44638000D01*
X152785000Y-44576000D01*
X152785000Y-43330001D01*
X152158406Y-43330001D01*
X152152653Y-43331145D01*
X152107172Y-43330000D01*
X153285000Y-43330000D01*
X153285000Y-44200000D01*
X154154999Y-44200000D01*
X156360000Y-44200000D01*
X157230000Y-44200000D01*
X157230000Y-43330001D01*
X156603407Y-43330001D01*
X156524650Y-43345665D01*
X156435340Y-43405340D01*
X156375664Y-43494651D01*
X156360000Y-43573403D01*
X156360000Y-44200000D01*
X154154999Y-44200000D01*
X154154999Y-43573407D01*
X154139334Y-43494650D01*
X154079659Y-43405340D01*
X153990348Y-43345664D01*
X153911597Y-43330000D01*
X157730000Y-43330000D01*
X157730000Y-44200000D01*
X158599999Y-44200000D01*
X158599999Y-43573407D01*
X158584334Y-43494650D01*
X158524659Y-43405340D01*
X158435348Y-43345664D01*
X158356597Y-43330000D01*
X157730000Y-43330000D01*
X153911597Y-43330000D01*
X153285000Y-43330000D01*
X152107172Y-43330000D01*
X152098195Y-43329774D01*
X152049580Y-43305196D01*
X152016190Y-43262154D01*
X152004469Y-43208955D01*
X152018475Y-40169605D01*
X152033633Y-40110768D01*
X152074925Y-40066193D01*
X152132432Y-40046587D01*
X157019516Y-39649666D01*
X157026109Y-39649309D01*
X158749605Y-39602090D01*
X158813029Y-39617542D01*
G37*
%TD.AperFunction*%
%TA.AperFunction,Conductor*%
G36*
X152755107Y-63772699D02*
G01*
X152800839Y-63823155D01*
X152813030Y-63890153D01*
X152788004Y-63953485D01*
X152782931Y-63960096D01*
X152722131Y-64106880D01*
X152701392Y-64264399D01*
X152722131Y-64421919D01*
X152782929Y-64568701D01*
X152782930Y-64568703D01*
X152782931Y-64568704D01*
X152879650Y-64694750D01*
X153005696Y-64791469D01*
X153152481Y-64852269D01*
X153289260Y-64870276D01*
X153309999Y-64873007D01*
X153309999Y-64873006D01*
X153310000Y-64873007D01*
X153467519Y-64852269D01*
X153614304Y-64791469D01*
X153740350Y-64694750D01*
X153786570Y-64634514D01*
X153830103Y-64598788D01*
X153884947Y-64586000D01*
X156749243Y-64586000D01*
X156760049Y-64586471D01*
X156797474Y-64589746D01*
X156833794Y-64580013D01*
X156844296Y-64577685D01*
X156881324Y-64571157D01*
X156881327Y-64571155D01*
X156882423Y-64570962D01*
X156906925Y-64560814D01*
X156907840Y-64560173D01*
X156907841Y-64560173D01*
X156938614Y-64538624D01*
X156947744Y-64532808D01*
X156980276Y-64514027D01*
X157004433Y-64485236D01*
X157011721Y-64477283D01*
X157698685Y-63790318D01*
X157738913Y-63763439D01*
X157786366Y-63754000D01*
X159395500Y-63754000D01*
X159457500Y-63770613D01*
X159502887Y-63816000D01*
X159519500Y-63878000D01*
X159519500Y-68806929D01*
X159505985Y-68863224D01*
X159468385Y-68907247D01*
X159414898Y-68929402D01*
X159357182Y-68924860D01*
X159307819Y-68894610D01*
X159296581Y-68883372D01*
X159296574Y-68883367D01*
X158320819Y-67907611D01*
X158293939Y-67867383D01*
X158284500Y-67819930D01*
X158284500Y-66903628D01*
X158284500Y-66903626D01*
X158277969Y-66883527D01*
X158273432Y-66864629D01*
X158270128Y-66843763D01*
X158260538Y-66824943D01*
X158253094Y-66806969D01*
X158246569Y-66786886D01*
X158246568Y-66786885D01*
X158234155Y-66769800D01*
X158223989Y-66753210D01*
X158209814Y-66725388D01*
X158196300Y-66669096D01*
X158196300Y-66355980D01*
X158209088Y-66301135D01*
X158230075Y-66275563D01*
X158229212Y-66274901D01*
X158239150Y-66261950D01*
X158335869Y-66135904D01*
X158396669Y-65989119D01*
X158417407Y-65831600D01*
X158396669Y-65674081D01*
X158335869Y-65527297D01*
X158239150Y-65401250D01*
X158113104Y-65304531D01*
X158113103Y-65304530D01*
X158113101Y-65304529D01*
X157966319Y-65243731D01*
X157808799Y-65222992D01*
X157651280Y-65243731D01*
X157504496Y-65304531D01*
X157378449Y-65401249D01*
X157281731Y-65527296D01*
X157220931Y-65674080D01*
X157200192Y-65831599D01*
X157220931Y-65989119D01*
X157281729Y-66135901D01*
X157388388Y-66274901D01*
X157387524Y-66275563D01*
X157408512Y-66301135D01*
X157421300Y-66355980D01*
X157421300Y-66938176D01*
X157427826Y-66958263D01*
X157432366Y-66977173D01*
X157435671Y-66998035D01*
X157445259Y-67016853D01*
X157452705Y-67034829D01*
X157459231Y-67054916D01*
X157471646Y-67072004D01*
X157481809Y-67088588D01*
X157495983Y-67116404D01*
X157509500Y-67172702D01*
X157509500Y-68093176D01*
X157516026Y-68113263D01*
X157520566Y-68132173D01*
X157523871Y-68153035D01*
X157533459Y-68171853D01*
X157540905Y-68189829D01*
X157547431Y-68209916D01*
X157559846Y-68227004D01*
X157570009Y-68243589D01*
X157579596Y-68262404D01*
X157601432Y-68284240D01*
X158009212Y-68692019D01*
X158039462Y-68741382D01*
X158044004Y-68799098D01*
X158021849Y-68852585D01*
X157977826Y-68890185D01*
X157921531Y-68903700D01*
X155092718Y-68903700D01*
X155037874Y-68890912D01*
X154994341Y-68855185D01*
X154961550Y-68812450D01*
X154835501Y-68715729D01*
X154688719Y-68654931D01*
X154531199Y-68634192D01*
X154373680Y-68654931D01*
X154226896Y-68715731D01*
X154100849Y-68812449D01*
X154004131Y-68938496D01*
X153943331Y-69085280D01*
X153922592Y-69242799D01*
X153943331Y-69400319D01*
X154004129Y-69547101D01*
X154004130Y-69547103D01*
X154004131Y-69547104D01*
X154100850Y-69673150D01*
X154226896Y-69769869D01*
X154304340Y-69801947D01*
X154388764Y-69836917D01*
X154388595Y-69837324D01*
X154430531Y-69854553D01*
X154452067Y-69870885D01*
X154464224Y-69875679D01*
X154467023Y-69876783D01*
X154485958Y-69886188D01*
X154495323Y-69891882D01*
X154499696Y-69894542D01*
X154536285Y-69904793D01*
X154548287Y-69908830D01*
X154583639Y-69922771D01*
X154599632Y-69924415D01*
X154620405Y-69928363D01*
X154635883Y-69932700D01*
X154635884Y-69932700D01*
X154673869Y-69932700D01*
X154686547Y-69933349D01*
X154724331Y-69937234D01*
X154740171Y-69934502D01*
X154761240Y-69932700D01*
X156519113Y-69932700D01*
X156575408Y-69946215D01*
X156619431Y-69983815D01*
X156641586Y-70037302D01*
X156637044Y-70095018D01*
X156606794Y-70144381D01*
X156494361Y-70256813D01*
X156402224Y-70403449D01*
X156345026Y-70566913D01*
X156330500Y-70695837D01*
X156330500Y-71690115D01*
X156321061Y-71737568D01*
X156294181Y-71777796D01*
X154829296Y-73242681D01*
X154789068Y-73269561D01*
X154741615Y-73279000D01*
X143634000Y-73279000D01*
X143572000Y-73262387D01*
X143526613Y-73217000D01*
X143510000Y-73155000D01*
X143510000Y-63878000D01*
X143526613Y-63816000D01*
X143572000Y-63770613D01*
X143634000Y-63754000D01*
X152689627Y-63754000D01*
X152755107Y-63772699D01*
G37*
%TD.AperFunction*%
M02*
