%TF.GenerationSoftware,KiCad,Pcbnew,7.0.1*%
%TF.CreationDate,2023-06-05T22:57:50+02:00*%
%TF.ProjectId,AxisPCB-STM32F411,41786973-5043-4422-9d53-544d33324634,1*%
%TF.SameCoordinates,Original*%
%TF.FileFunction,Soldermask,Top*%
%TF.FilePolarity,Negative*%
%FSLAX46Y46*%
G04 Gerber Fmt 4.6, Leading zero omitted, Abs format (unit mm)*
G04 Created by KiCad (PCBNEW 7.0.1) date 2023-06-05 22:57:50*
%MOMM*%
%LPD*%
G01*
G04 APERTURE LIST*
G04 Aperture macros list*
%AMRoundRect*
0 Rectangle with rounded corners*
0 $1 Rounding radius*
0 $2 $3 $4 $5 $6 $7 $8 $9 X,Y pos of 4 corners*
0 Add a 4 corners polygon primitive as box body*
4,1,4,$2,$3,$4,$5,$6,$7,$8,$9,$2,$3,0*
0 Add four circle primitives for the rounded corners*
1,1,$1+$1,$2,$3*
1,1,$1+$1,$4,$5*
1,1,$1+$1,$6,$7*
1,1,$1+$1,$8,$9*
0 Add four rect primitives between the rounded corners*
20,1,$1+$1,$2,$3,$4,$5,0*
20,1,$1+$1,$4,$5,$6,$7,0*
20,1,$1+$1,$6,$7,$8,$9,0*
20,1,$1+$1,$8,$9,$2,$3,0*%
%AMFreePoly0*
4,1,19,0.500000,-0.750000,0.000000,-0.750000,0.000000,-0.744911,-0.071157,-0.744911,-0.207708,-0.704816,-0.327430,-0.627875,-0.420627,-0.520320,-0.479746,-0.390866,-0.500000,-0.250000,-0.500000,0.250000,-0.479746,0.390866,-0.420627,0.520320,-0.327430,0.627875,-0.207708,0.704816,-0.071157,0.744911,0.000000,0.744911,0.000000,0.750000,0.500000,0.750000,0.500000,-0.750000,0.500000,-0.750000,
$1*%
%AMFreePoly1*
4,1,19,0.000000,0.744911,0.071157,0.744911,0.207708,0.704816,0.327430,0.627875,0.420627,0.520320,0.479746,0.390866,0.500000,0.250000,0.500000,-0.250000,0.479746,-0.390866,0.420627,-0.520320,0.327430,-0.627875,0.207708,-0.704816,0.071157,-0.744911,0.000000,-0.744911,0.000000,-0.750000,-0.500000,-0.750000,-0.500000,0.750000,0.000000,0.750000,0.000000,0.744911,0.000000,0.744911,
$1*%
%AMFreePoly2*
4,1,14,0.289644,0.110355,0.410355,-0.010356,0.425000,-0.045711,0.425000,-0.075000,0.410355,-0.110355,0.375000,-0.125000,-0.375000,-0.125000,-0.410355,-0.110355,-0.425000,-0.075000,-0.425000,0.075000,-0.410355,0.110355,-0.375000,0.125000,0.254289,0.125000,0.289644,0.110355,0.289644,0.110355,$1*%
%AMFreePoly3*
4,1,14,0.410355,0.110355,0.425000,0.075000,0.425000,0.045711,0.410355,0.010356,0.289644,-0.110355,0.254289,-0.125000,-0.375000,-0.125000,-0.410355,-0.110355,-0.425000,-0.075000,-0.425000,0.075000,-0.410355,0.110355,-0.375000,0.125000,0.375000,0.125000,0.410355,0.110355,0.410355,0.110355,$1*%
%AMFreePoly4*
4,1,14,0.110355,0.410355,0.125000,0.375000,0.125000,-0.375000,0.110355,-0.410355,0.075000,-0.425000,-0.075000,-0.425000,-0.110355,-0.410355,-0.125000,-0.375000,-0.125000,0.254289,-0.110355,0.289644,0.010356,0.410355,0.045711,0.425000,0.075000,0.425000,0.110355,0.410355,0.110355,0.410355,$1*%
%AMFreePoly5*
4,1,14,-0.010356,0.410355,0.110355,0.289644,0.125000,0.254289,0.125000,-0.375000,0.110355,-0.410355,0.075000,-0.425000,-0.075000,-0.425000,-0.110355,-0.410355,-0.125000,-0.375000,-0.125000,0.375000,-0.110355,0.410355,-0.075000,0.425000,-0.045711,0.425000,-0.010356,0.410355,-0.010356,0.410355,$1*%
%AMFreePoly6*
4,1,14,0.410355,0.110355,0.425000,0.075000,0.425000,-0.075000,0.410355,-0.110355,0.375000,-0.125000,-0.254289,-0.125000,-0.289644,-0.110355,-0.410355,0.010356,-0.425000,0.045711,-0.425000,0.075000,-0.410355,0.110355,-0.375000,0.125000,0.375000,0.125000,0.410355,0.110355,0.410355,0.110355,$1*%
%AMFreePoly7*
4,1,14,0.410355,0.110355,0.425000,0.075000,0.425000,-0.075000,0.410355,-0.110355,0.375000,-0.125000,-0.375000,-0.125000,-0.410355,-0.110355,-0.425000,-0.075000,-0.425000,-0.045711,-0.410355,-0.010355,-0.289643,0.110355,-0.254289,0.125000,0.375000,0.125000,0.410355,0.110355,0.410355,0.110355,$1*%
%AMFreePoly8*
4,1,14,0.110355,0.410355,0.125000,0.375000,0.125000,-0.254289,0.110355,-0.289644,-0.010356,-0.410355,-0.045711,-0.425000,-0.075000,-0.425000,-0.110355,-0.410355,-0.125000,-0.375000,-0.125000,0.375000,-0.110355,0.410355,-0.075000,0.425000,0.075000,0.425000,0.110355,0.410355,0.110355,0.410355,$1*%
%AMFreePoly9*
4,1,14,0.110355,0.410355,0.125000,0.375000,0.125000,-0.375000,0.110355,-0.410355,0.075000,-0.425000,0.045711,-0.425000,0.010356,-0.410355,-0.110355,-0.289644,-0.125000,-0.254289,-0.125000,0.375000,-0.110355,0.410355,-0.075000,0.425000,0.075000,0.425000,0.110355,0.410355,0.110355,0.410355,$1*%
G04 Aperture macros list end*
%ADD10RoundRect,0.140000X0.140000X0.170000X-0.140000X0.170000X-0.140000X-0.170000X0.140000X-0.170000X0*%
%ADD11C,2.000000*%
%ADD12RoundRect,0.250000X0.475000X-0.250000X0.475000X0.250000X-0.475000X0.250000X-0.475000X-0.250000X0*%
%ADD13RoundRect,0.250000X-0.250000X-0.475000X0.250000X-0.475000X0.250000X0.475000X-0.250000X0.475000X0*%
%ADD14RoundRect,0.135000X-0.185000X0.135000X-0.185000X-0.135000X0.185000X-0.135000X0.185000X0.135000X0*%
%ADD15RoundRect,0.140000X-0.140000X-0.170000X0.140000X-0.170000X0.140000X0.170000X-0.140000X0.170000X0*%
%ADD16C,5.600000*%
%ADD17C,3.600000*%
%ADD18RoundRect,0.135000X0.135000X0.185000X-0.135000X0.185000X-0.135000X-0.185000X0.135000X-0.185000X0*%
%ADD19RoundRect,0.135000X0.185000X-0.135000X0.185000X0.135000X-0.185000X0.135000X-0.185000X-0.135000X0*%
%ADD20RoundRect,0.150000X-0.512500X-0.150000X0.512500X-0.150000X0.512500X0.150000X-0.512500X0.150000X0*%
%ADD21RoundRect,0.135000X-0.135000X-0.185000X0.135000X-0.185000X0.135000X0.185000X-0.135000X0.185000X0*%
%ADD22R,1.980000X3.960000*%
%ADD23O,1.980000X3.960000*%
%ADD24FreePoly0,180.000000*%
%ADD25FreePoly1,180.000000*%
%ADD26R,2.000000X2.000000*%
%ADD27R,3.500000X2.350000*%
%ADD28RoundRect,0.225000X-0.250000X0.225000X-0.250000X-0.225000X0.250000X-0.225000X0.250000X0.225000X0*%
%ADD29R,1.700000X1.700000*%
%ADD30O,1.700000X1.700000*%
%ADD31RoundRect,0.140000X0.170000X-0.140000X0.170000X0.140000X-0.170000X0.140000X-0.170000X-0.140000X0*%
%ADD32RoundRect,0.150000X0.150000X-0.512500X0.150000X0.512500X-0.150000X0.512500X-0.150000X-0.512500X0*%
%ADD33RoundRect,0.140000X-0.170000X0.140000X-0.170000X-0.140000X0.170000X-0.140000X0.170000X0.140000X0*%
%ADD34RoundRect,0.075000X0.700000X0.075000X-0.700000X0.075000X-0.700000X-0.075000X0.700000X-0.075000X0*%
%ADD35RoundRect,0.075000X0.075000X0.700000X-0.075000X0.700000X-0.075000X-0.700000X0.075000X-0.700000X0*%
%ADD36RoundRect,0.100000X-0.100000X0.637500X-0.100000X-0.637500X0.100000X-0.637500X0.100000X0.637500X0*%
%ADD37O,2.000000X1.600000*%
%ADD38R,2.750000X1.000000*%
%ADD39RoundRect,0.150000X-0.150000X0.587500X-0.150000X-0.587500X0.150000X-0.587500X0.150000X0.587500X0*%
%ADD40R,2.400000X0.740000*%
%ADD41R,1.800000X1.800000*%
%ADD42C,1.800000*%
%ADD43FreePoly2,90.000000*%
%ADD44RoundRect,0.062500X0.062500X-0.362500X0.062500X0.362500X-0.062500X0.362500X-0.062500X-0.362500X0*%
%ADD45FreePoly3,90.000000*%
%ADD46FreePoly4,90.000000*%
%ADD47RoundRect,0.062500X0.362500X-0.062500X0.362500X0.062500X-0.362500X0.062500X-0.362500X-0.062500X0*%
%ADD48FreePoly5,90.000000*%
%ADD49FreePoly6,90.000000*%
%ADD50FreePoly7,90.000000*%
%ADD51FreePoly8,90.000000*%
%ADD52FreePoly9,90.000000*%
%ADD53R,1.550000X1.550000*%
%ADD54RoundRect,0.218750X0.218750X0.256250X-0.218750X0.256250X-0.218750X-0.256250X0.218750X-0.256250X0*%
%ADD55RoundRect,0.250000X0.300000X-0.300000X0.300000X0.300000X-0.300000X0.300000X-0.300000X-0.300000X0*%
%ADD56RoundRect,0.250000X-0.475000X0.250000X-0.475000X-0.250000X0.475000X-0.250000X0.475000X0.250000X0*%
%ADD57RoundRect,0.218750X-0.218750X-0.256250X0.218750X-0.256250X0.218750X0.256250X-0.218750X0.256250X0*%
%ADD58RoundRect,0.250000X-0.650000X1.000000X-0.650000X-1.000000X0.650000X-1.000000X0.650000X1.000000X0*%
%ADD59RoundRect,0.243750X-0.243750X-0.456250X0.243750X-0.456250X0.243750X0.456250X-0.243750X0.456250X0*%
%ADD60RoundRect,0.250000X-0.600000X0.400000X-0.600000X-0.400000X0.600000X-0.400000X0.600000X0.400000X0*%
G04 APERTURE END LIST*
D10*
X129232600Y-57632600D03*
X128272600Y-57632600D03*
D11*
X151765000Y-94488000D03*
X127000000Y-88011000D03*
X151765000Y-27940000D03*
X116332000Y-35433000D03*
D12*
X143789400Y-82951400D03*
X143789400Y-81051400D03*
D10*
X155801000Y-72009000D03*
X154841000Y-72009000D03*
D13*
X118938000Y-41656000D03*
X120838000Y-41656000D03*
X155641000Y-56515000D03*
X157541000Y-56515000D03*
X154244000Y-85471000D03*
X156144000Y-85471000D03*
D10*
X136116000Y-72923400D03*
X135156000Y-72923400D03*
D14*
X147706500Y-57275000D03*
X147706500Y-58295000D03*
D15*
X150551000Y-62230000D03*
X151511000Y-62230000D03*
D14*
X133934200Y-72184800D03*
X133934200Y-73204800D03*
D16*
X156210000Y-30480000D03*
D17*
X156210000Y-30480000D03*
D15*
X137873800Y-69951600D03*
X138833800Y-69951600D03*
D18*
X146306000Y-29972000D03*
X145286000Y-29972000D03*
D19*
X158445200Y-85981000D03*
X158445200Y-84961000D03*
D20*
X145796000Y-57023000D03*
X143521000Y-57973000D03*
X143521000Y-56073000D03*
D21*
X139317000Y-90170000D03*
X140337000Y-90170000D03*
D22*
X144428000Y-90424000D03*
D23*
X149428000Y-90424000D03*
D12*
X153289000Y-57272000D03*
X153289000Y-55372000D03*
D24*
X152542000Y-40894000D03*
D25*
X151242000Y-40894000D03*
D18*
X123446000Y-67564000D03*
X122426000Y-67564000D03*
D15*
X124488000Y-70358000D03*
X125448000Y-70358000D03*
D26*
X152153323Y-78740000D03*
D11*
X157153323Y-78740000D03*
D21*
X156309600Y-64820800D03*
X157329600Y-64820800D03*
D18*
X129288000Y-35052000D03*
X128268000Y-35052000D03*
D27*
X148994000Y-70489800D03*
X148994000Y-64439800D03*
D18*
X129288000Y-37592000D03*
X128268000Y-37592000D03*
D21*
X153310000Y-64874000D03*
X154330000Y-64874000D03*
D12*
X148183600Y-82941200D03*
X148183600Y-81041200D03*
D28*
X153543000Y-69534600D03*
X153543000Y-71084600D03*
D14*
X156360000Y-62840000D03*
X156360000Y-63860000D03*
D29*
X121600000Y-44450000D03*
D30*
X121600000Y-46990000D03*
X121600000Y-49530000D03*
X121600000Y-52070000D03*
D19*
X158445200Y-87602600D03*
X158445200Y-88622600D03*
D12*
X141592200Y-82951400D03*
X141592200Y-81051400D03*
D21*
X145286000Y-27432000D03*
X146306000Y-27432000D03*
X128016000Y-92456000D03*
X129036000Y-92456000D03*
D18*
X122656000Y-64008000D03*
X121636000Y-64008000D03*
X129288000Y-39624000D03*
X128268000Y-39624000D03*
D31*
X141986000Y-57884000D03*
X141986000Y-56924000D03*
D32*
X124526000Y-51175500D03*
X125476000Y-51175500D03*
X126426000Y-51175500D03*
X126426000Y-48900500D03*
X125476000Y-48900500D03*
X124526000Y-48900500D03*
D33*
X139852400Y-62689800D03*
X139852400Y-63649800D03*
D10*
X129006000Y-93726000D03*
X128046000Y-93726000D03*
D17*
X156210000Y-92710000D03*
D16*
X156210000Y-92710000D03*
D33*
X127000000Y-58244800D03*
X127000000Y-59204800D03*
D19*
X155344000Y-64876000D03*
X155344000Y-63856000D03*
D34*
X137628000Y-68774000D03*
X137628000Y-68274000D03*
X137628000Y-67774000D03*
X137628000Y-67274000D03*
X137628000Y-66774000D03*
X137628000Y-66274000D03*
X137628000Y-65774000D03*
X137628000Y-65274000D03*
X137628000Y-64774000D03*
X137628000Y-64274000D03*
X137628000Y-63774000D03*
X137628000Y-63274000D03*
X137628000Y-62774000D03*
X137628000Y-62274000D03*
X137628000Y-61774000D03*
X137628000Y-61274000D03*
D35*
X135703000Y-59349000D03*
X135203000Y-59349000D03*
X134703000Y-59349000D03*
X134203000Y-59349000D03*
X133703000Y-59349000D03*
X133203000Y-59349000D03*
X132703000Y-59349000D03*
X132203000Y-59349000D03*
X131703000Y-59349000D03*
X131203000Y-59349000D03*
X130703000Y-59349000D03*
X130203000Y-59349000D03*
X129703000Y-59349000D03*
X129203000Y-59349000D03*
X128703000Y-59349000D03*
X128203000Y-59349000D03*
D34*
X126278000Y-61274000D03*
X126278000Y-61774000D03*
X126278000Y-62274000D03*
X126278000Y-62774000D03*
X126278000Y-63274000D03*
X126278000Y-63774000D03*
X126278000Y-64274000D03*
X126278000Y-64774000D03*
X126278000Y-65274000D03*
X126278000Y-65774000D03*
X126278000Y-66274000D03*
X126278000Y-66774000D03*
X126278000Y-67274000D03*
X126278000Y-67774000D03*
X126278000Y-68274000D03*
X126278000Y-68774000D03*
D35*
X128203000Y-70699000D03*
X128703000Y-70699000D03*
X129203000Y-70699000D03*
X129703000Y-70699000D03*
X130203000Y-70699000D03*
X130703000Y-70699000D03*
X131203000Y-70699000D03*
X131703000Y-70699000D03*
X132203000Y-70699000D03*
X132703000Y-70699000D03*
X133203000Y-70699000D03*
X133703000Y-70699000D03*
X134203000Y-70699000D03*
X134703000Y-70699000D03*
X135203000Y-70699000D03*
X135703000Y-70699000D03*
D21*
X120652000Y-61468000D03*
X119632000Y-61468000D03*
D12*
X145999200Y-82951400D03*
X145999200Y-81051400D03*
D36*
X139881800Y-53670200D03*
X139231800Y-53670200D03*
X138581800Y-53670200D03*
X137931800Y-53670200D03*
X137281800Y-53670200D03*
X136631800Y-53670200D03*
X135981800Y-53670200D03*
X135331800Y-53670200D03*
X134681800Y-53670200D03*
X134031800Y-53670200D03*
X134031800Y-47945200D03*
X134681800Y-47945200D03*
X135331800Y-47945200D03*
X135981800Y-47945200D03*
X136631800Y-47945200D03*
X137281800Y-47945200D03*
X137931800Y-47945200D03*
X138581800Y-47945200D03*
X139231800Y-47945200D03*
X139881800Y-47945200D03*
D26*
X125730000Y-27178000D03*
D37*
X125730000Y-29718000D03*
X125730000Y-32258000D03*
X125730000Y-34798000D03*
X125730000Y-37338000D03*
X125730000Y-39878000D03*
X125730000Y-42418000D03*
X125730000Y-44958000D03*
X148590000Y-44958000D03*
X148590000Y-42418000D03*
X148590000Y-39878000D03*
X148590000Y-37338000D03*
X148590000Y-34798000D03*
X148590000Y-32258000D03*
X148590000Y-29718000D03*
X148590000Y-27178000D03*
D18*
X125478000Y-75946000D03*
X124458000Y-75946000D03*
D29*
X157480000Y-44450000D03*
D30*
X157480000Y-46990000D03*
X157480000Y-49530000D03*
X157480000Y-52070000D03*
D38*
X116840000Y-55372000D03*
X122600000Y-55372000D03*
X116840000Y-59372000D03*
X122600000Y-59372000D03*
D15*
X153340000Y-65890000D03*
X154300000Y-65890000D03*
D33*
X141102200Y-53241000D03*
X141102200Y-54201000D03*
D18*
X116842000Y-64516000D03*
X115822000Y-64516000D03*
D39*
X137856000Y-89867500D03*
X135956000Y-89867500D03*
X136906000Y-91742500D03*
D18*
X151894000Y-35560000D03*
X150874000Y-35560000D03*
D40*
X117430000Y-69596000D03*
X121330000Y-69596000D03*
X117430000Y-70866000D03*
X121330000Y-70866000D03*
X117430000Y-72136000D03*
X121330000Y-72136000D03*
X117430000Y-73406000D03*
X121330000Y-73406000D03*
X117430000Y-74676000D03*
X121330000Y-74676000D03*
X117430000Y-75946000D03*
X121330000Y-75946000D03*
X117430000Y-77216000D03*
X121330000Y-77216000D03*
D29*
X117094000Y-44450000D03*
D30*
X117094000Y-46990000D03*
X117094000Y-49530000D03*
X117094000Y-52070000D03*
D41*
X123185000Y-93726000D03*
D42*
X125725000Y-93726000D03*
D43*
X155968000Y-69626000D03*
D44*
X156418000Y-69626000D03*
X156868000Y-69626000D03*
X157318000Y-69626000D03*
D45*
X157768000Y-69626000D03*
D46*
X158318000Y-69076000D03*
D47*
X158318000Y-68626000D03*
X158318000Y-68176000D03*
X158318000Y-67726000D03*
D48*
X158318000Y-67276000D03*
D49*
X157768000Y-66726000D03*
D44*
X157318000Y-66726000D03*
X156868000Y-66726000D03*
X156418000Y-66726000D03*
D50*
X155968000Y-66726000D03*
D51*
X155418000Y-67276000D03*
D47*
X155418000Y-67726000D03*
X155418000Y-68176000D03*
X155418000Y-68626000D03*
D52*
X155418000Y-69076000D03*
D53*
X156868000Y-68176000D03*
D54*
X117348000Y-62992000D03*
X115773000Y-62992000D03*
D18*
X155833000Y-70866000D03*
X154813000Y-70866000D03*
D10*
X129004000Y-45085000D03*
X128044000Y-45085000D03*
D21*
X128016000Y-94996000D03*
X129036000Y-94996000D03*
D13*
X155641000Y-59690000D03*
X157541000Y-59690000D03*
D21*
X124458000Y-77216000D03*
X125478000Y-77216000D03*
D18*
X125478000Y-72263000D03*
X124458000Y-72263000D03*
D14*
X158800800Y-62962600D03*
X158800800Y-63982600D03*
D21*
X115822000Y-67564000D03*
X116842000Y-67564000D03*
D55*
X140081000Y-95380000D03*
X140081000Y-92580000D03*
D18*
X125478000Y-73406000D03*
X124458000Y-73406000D03*
D32*
X147640000Y-51429500D03*
X148590000Y-51429500D03*
X149540000Y-51429500D03*
X149540000Y-49154500D03*
X148590000Y-49154500D03*
X147640000Y-49154500D03*
D31*
X147320000Y-56106000D03*
X147320000Y-55146000D03*
D56*
X158343600Y-71160600D03*
X158343600Y-73060600D03*
D57*
X151358500Y-37084000D03*
X152933500Y-37084000D03*
D12*
X151130000Y-57272000D03*
X151130000Y-55372000D03*
D26*
X122052477Y-84302600D03*
D11*
X117052477Y-84302600D03*
D10*
X117701000Y-61468000D03*
X116741000Y-61468000D03*
D12*
X154686000Y-41336000D03*
X154686000Y-39436000D03*
D21*
X124458000Y-78486000D03*
X125478000Y-78486000D03*
D24*
X129316000Y-43307000D03*
D25*
X128016000Y-43307000D03*
D58*
X157734000Y-36862000D03*
X157734000Y-40862000D03*
D15*
X139220000Y-66040000D03*
X140180000Y-66040000D03*
D13*
X154244000Y-87503000D03*
X156144000Y-87503000D03*
D31*
X124460000Y-69314000D03*
X124460000Y-68354000D03*
D59*
X145842000Y-59852000D03*
X147717000Y-59852000D03*
D54*
X117373500Y-66040000D03*
X115798500Y-66040000D03*
D15*
X134648000Y-57353200D03*
X135608000Y-57353200D03*
D10*
X120622000Y-64008000D03*
X119662000Y-64008000D03*
D17*
X118110000Y-92710000D03*
D16*
X118110000Y-92710000D03*
D17*
X118110000Y-30480000D03*
D16*
X118110000Y-30480000D03*
D29*
X153035000Y-44450000D03*
D30*
X153035000Y-46990000D03*
X153035000Y-49530000D03*
X153035000Y-52070000D03*
D60*
X139954000Y-85118000D03*
X139954000Y-88618000D03*
D18*
X129288000Y-41402000D03*
X128268000Y-41402000D03*
M02*
