M48
; DRILL file {KiCad 7.0.1} date Mon Jun  5 22:57:53 2023
; FORMAT={-:-/ absolute / metric / decimal}
; #@! TF.CreationDate,2023-06-05T22:57:53+02:00
; #@! TF.GenerationSoftware,Kicad,Pcbnew,7.0.1
; #@! TF.FileFunction,Plated,1,4,PTH
FMAT,2
METRIC
; #@! TA.AperFunction,Plated,PTH,ComponentDrill
T1C0.300
; #@! TA.AperFunction,Plated,PTH,ViaDrill
T2C0.330
; #@! TA.AperFunction,Plated,PTH,ViaDrill
T3C0.381
; #@! TA.AperFunction,Plated,PTH,ComponentDrill
T4C0.900
; #@! TA.AperFunction,Plated,PTH,ComponentDrill
T5C1.000
; #@! TA.AperFunction,Plated,PTH,ComponentDrill
T6C1.320
; #@! TA.AperFunction,Plated,PTH,ComponentDrill
T7C3.200
%
G90
G05
T1
X156.343Y-67.651
X156.343Y-68.701
X157.393Y-67.651
X157.393Y-68.701
T2
X115.697Y-72.136
X115.697Y-73.406
X115.697Y-75.946
X116.967Y-60.579
X118.618Y-61.468
X118.872Y-55.372
X118.872Y-63.957
X119.126Y-70.866
X119.126Y-72.136
X119.126Y-73.406
X119.126Y-75.946
X120.65Y-55.372
X121.564Y-60.858
X123.698Y-43.942
X123.698Y-69.85
X123.749Y-79.502
X124.079Y-88.392
X124.333Y-74.676
X124.841Y-79.502
X124.984Y-47.851
X125.17Y-68.326
X125.451Y-52.324
X125.628Y-71.425
X125.73Y-79.502
X126.238Y-70.612
X126.746Y-46.736
X126.746Y-52.324
X126.746Y-71.501
X126.746Y-79.502
X127.0Y-56.337
X127.0Y-92.329
X127.254Y-47.752
X127.254Y-57.455
X127.508Y-66.396
X127.559Y-67.31
X127.762Y-55.575
X127.762Y-79.096
X127.864Y-64.973
X127.889Y-72.873
X128.044Y-45.847
X128.27Y-74.93
X128.397Y-49.149
X128.746Y-47.593
X128.778Y-54.102
X128.93Y-66.853
X128.981Y-52.832
X129.275Y-61.479
X129.286Y-69.088
X129.286Y-74.676
X129.388Y-55.626
X129.476Y-44.514
X129.54Y-48.489
X129.794Y-49.784
X129.794Y-94.234
X130.099Y-53.238
X130.099Y-57.709
X130.15Y-45.364
X130.285Y-43.129
X130.302Y-55.016
X131.318Y-57.48
X131.572Y-75.692
X131.852Y-56.388
X132.436Y-57.963
X132.918Y-54.407
X133.096Y-56.236
X133.147Y-48.971
X133.198Y-53.442
X133.457Y-47.955
X133.756Y-54.966
X134.01Y-60.757
X134.264Y-45.618
X134.366Y-88.646
X134.366Y-92.456
X134.62Y-73.355
X134.625Y-46.761
X135.001Y-63.373
X135.179Y-72.034
X135.28Y-61.57
X135.331Y-54.966
X135.379Y-58.036
X135.387Y-46.228
X135.534Y-91.084
X135.585Y-52.426
X135.89Y-86.868
X136.144Y-94.488
X136.296Y-58.471
X136.403Y-49.149
X136.449Y-56.744
X136.601Y-46.431
X136.601Y-55.321
X136.601Y-69.647
X136.728Y-89.205
X137.16Y-85.344
X137.262Y-57.556
X137.414Y-49.276
X137.77Y-60.452
X137.871Y-56.083
X138.357Y-49.22
X138.379Y-46.584
X138.43Y-83.82
X138.562Y-45.466
X138.811Y-95.377
X139.014Y-63.652
X139.061Y-57.586
X139.192Y-67.056
X139.319Y-56.007
X139.573Y-82.423
X139.649Y-44.806
X139.649Y-46.634
X139.725Y-69.952
X140.208Y-66.802
X140.213Y-54.991
X140.335Y-52.578
X140.442Y-47.955
X140.767Y-48.743
X141.097Y-90.17
X141.122Y-59.487
X141.224Y-57.912
X141.224Y-95.38
X141.478Y-87.884
X141.529Y-80.035
X141.986Y-58.674
X142.697Y-84.353
X142.9Y-59.284
X143.002Y-56.896
X143.205Y-44.145
X143.789Y-80.086
X143.967Y-55.169
X144.018Y-61.214
X144.018Y-62.484
X144.018Y-63.754
X144.018Y-65.278
X144.018Y-66.802
X144.018Y-68.326
X144.018Y-70.104
X144.018Y-71.628
X144.018Y-72.898
X144.018Y-74.422
X144.018Y-75.946
X144.018Y-77.216
X144.018Y-78.486
X144.069Y-44.856
X144.487Y-49.47
X144.498Y-48.083
X144.78Y-60.452
X145.161Y-72.898
X145.669Y-47.244
X145.669Y-48.387
X145.948Y-49.428
X145.999Y-79.934
X146.304Y-55.372
X146.304Y-62.992
X146.304Y-72.898
X146.431Y-50.419
X146.558Y-61.087
X146.685Y-47.117
X146.914Y-84.353
X147.447Y-72.898
X147.828Y-62.23
X148.184Y-80.035
X148.59Y-52.476
X148.59Y-72.898
X148.717Y-62.23
X148.971Y-77.724
X149.606Y-62.23
X149.733Y-72.898
X150.774Y-34.595
X150.876Y-72.898
X151.13Y-44.704
X151.13Y-54.356
X151.384Y-63.246
X151.511Y-74.168
X152.654Y-85.471
X152.781Y-87.63
X153.289Y-54.483
X153.31Y-64.264
X153.769Y-67.973
X154.305Y-72.517
X154.47Y-66.967
X154.531Y-63.604
X154.531Y-69.243
X155.09Y-66.347
X155.321Y-42.926
X155.321Y-44.069
X155.321Y-45.466
X155.321Y-47.498
X157.02Y-65.636
X157.099Y-70.739
X157.201Y-85.471
X157.251Y-87.63
X157.429Y-82.093
X157.48Y-75.997
X157.607Y-55.245
X157.607Y-58.039
X157.683Y-64.11
X157.734Y-35.001
X157.734Y-60.833
X157.809Y-65.832
X157.811Y-74.016
X158.064Y-62.992
X158.42Y-86.766
X158.445Y-66.55
X158.484Y-69.596
X159.004Y-73.914
X159.106Y-68.301
T3
X122.047Y-40.767
X122.047Y-42.291
X149.428Y-47.777
X149.888Y-56.614
X152.4Y-58.166
X153.518Y-42.443
X154.686Y-38.329
X155.321Y-51.689
X155.321Y-54.991
X155.321Y-58.166
X156.159Y-36.855
X156.185Y-41.326
T4
X123.185Y-93.726
X125.725Y-93.726
T5
X117.052Y-84.303
X117.094Y-44.45
X117.094Y-46.99
X117.094Y-49.53
X117.094Y-52.07
X121.6Y-44.45
X121.6Y-46.99
X121.6Y-49.53
X121.6Y-52.07
X122.052Y-84.303
X125.73Y-27.178
X125.73Y-29.718
X125.73Y-32.258
X125.73Y-34.798
X125.73Y-37.338
X125.73Y-39.878
X125.73Y-42.418
X125.73Y-44.958
X148.59Y-27.178
X148.59Y-29.718
X148.59Y-32.258
X148.59Y-34.798
X148.59Y-37.338
X148.59Y-39.878
X148.59Y-42.418
X148.59Y-44.958
X152.153Y-78.74
X153.035Y-44.45
X153.035Y-46.99
X153.035Y-49.53
X153.035Y-52.07
X157.153Y-78.74
X157.48Y-44.45
X157.48Y-46.99
X157.48Y-49.53
X157.48Y-52.07
T6
X144.428Y-90.424
X149.428Y-90.424
T7
X118.11Y-30.48
X118.11Y-92.71
X156.21Y-30.48
X156.21Y-92.71
T0
M30
