%TF.GenerationSoftware,KiCad,Pcbnew,7.0.1*%
%TF.CreationDate,2023-06-05T22:57:51+02:00*%
%TF.ProjectId,AxisPCB-STM32F411,41786973-5043-4422-9d53-544d33324634,1*%
%TF.SameCoordinates,Original*%
%TF.FileFunction,Soldermask,Bot*%
%TF.FilePolarity,Negative*%
%FSLAX46Y46*%
G04 Gerber Fmt 4.6, Leading zero omitted, Abs format (unit mm)*
G04 Created by KiCad (PCBNEW 7.0.1) date 2023-06-05 22:57:51*
%MOMM*%
%LPD*%
G01*
G04 APERTURE LIST*
%ADD10C,5.600000*%
%ADD11C,3.600000*%
%ADD12R,1.980000X3.960000*%
%ADD13O,1.980000X3.960000*%
%ADD14R,2.000000X2.000000*%
%ADD15C,2.000000*%
%ADD16R,1.700000X1.700000*%
%ADD17O,1.700000X1.700000*%
%ADD18O,2.000000X1.600000*%
%ADD19R,1.800000X1.800000*%
%ADD20C,1.800000*%
%ADD21R,3.000000X3.000000*%
G04 APERTURE END LIST*
D10*
X156210000Y-30480000D03*
D11*
X156210000Y-30480000D03*
D12*
X144428000Y-90424000D03*
D13*
X149428000Y-90424000D03*
D14*
X152153323Y-78740000D03*
D15*
X157153323Y-78740000D03*
D16*
X121600000Y-44450000D03*
D17*
X121600000Y-46990000D03*
X121600000Y-49530000D03*
X121600000Y-52070000D03*
D11*
X156210000Y-92710000D03*
D10*
X156210000Y-92710000D03*
D14*
X125730000Y-27178000D03*
D18*
X125730000Y-29718000D03*
X125730000Y-32258000D03*
X125730000Y-34798000D03*
X125730000Y-37338000D03*
X125730000Y-39878000D03*
X125730000Y-42418000D03*
X125730000Y-44958000D03*
X148590000Y-44958000D03*
X148590000Y-42418000D03*
X148590000Y-39878000D03*
X148590000Y-37338000D03*
X148590000Y-34798000D03*
X148590000Y-32258000D03*
X148590000Y-29718000D03*
X148590000Y-27178000D03*
D16*
X157480000Y-44450000D03*
D17*
X157480000Y-46990000D03*
X157480000Y-49530000D03*
X157480000Y-52070000D03*
D16*
X117094000Y-44450000D03*
D17*
X117094000Y-46990000D03*
X117094000Y-49530000D03*
X117094000Y-52070000D03*
D19*
X123185000Y-93726000D03*
D20*
X125725000Y-93726000D03*
D14*
X122052477Y-84302600D03*
D15*
X117052477Y-84302600D03*
D11*
X118110000Y-92710000D03*
D10*
X118110000Y-92710000D03*
D11*
X118110000Y-30480000D03*
D10*
X118110000Y-30480000D03*
D16*
X153035000Y-44450000D03*
D17*
X153035000Y-46990000D03*
X153035000Y-49530000D03*
X153035000Y-52070000D03*
D21*
X119126000Y-41402000D03*
X152400000Y-60960000D03*
M02*
