%TF.GenerationSoftware,KiCad,Pcbnew,7.0.1*%
%TF.CreationDate,2023-06-05T22:57:50+02:00*%
%TF.ProjectId,AxisPCB-STM32F411,41786973-5043-4422-9d53-544d33324634,1*%
%TF.SameCoordinates,Original*%
%TF.FileFunction,Legend,Bot*%
%TF.FilePolarity,Positive*%
%FSLAX46Y46*%
G04 Gerber Fmt 4.6, Leading zero omitted, Abs format (unit mm)*
G04 Created by KiCad (PCBNEW 7.0.1) date 2023-06-05 22:57:50*
%MOMM*%
%LPD*%
G01*
G04 APERTURE LIST*
%ADD10C,0.400000*%
%ADD11C,0.304800*%
%ADD12C,0.152400*%
%ADD13C,0.120000*%
%ADD14C,5.600000*%
%ADD15C,3.600000*%
%ADD16R,1.980000X3.960000*%
%ADD17O,1.980000X3.960000*%
%ADD18R,2.000000X2.000000*%
%ADD19C,2.000000*%
%ADD20R,1.700000X1.700000*%
%ADD21O,1.700000X1.700000*%
%ADD22O,2.000000X1.600000*%
%ADD23R,1.800000X1.800000*%
%ADD24C,1.800000*%
%ADD25R,3.000000X3.000000*%
G04 APERTURE END LIST*
D10*
X156615000Y-76024619D02*
X156519761Y-75738905D01*
X156519761Y-75738905D02*
X156519761Y-75262714D01*
X156519761Y-75262714D02*
X156615000Y-75072238D01*
X156615000Y-75072238D02*
X156710238Y-74977000D01*
X156710238Y-74977000D02*
X156900714Y-74881762D01*
X156900714Y-74881762D02*
X157091190Y-74881762D01*
X157091190Y-74881762D02*
X157281666Y-74977000D01*
X157281666Y-74977000D02*
X157376904Y-75072238D01*
X157376904Y-75072238D02*
X157472142Y-75262714D01*
X157472142Y-75262714D02*
X157567380Y-75643667D01*
X157567380Y-75643667D02*
X157662619Y-75834143D01*
X157662619Y-75834143D02*
X157757857Y-75929381D01*
X157757857Y-75929381D02*
X157948333Y-76024619D01*
X157948333Y-76024619D02*
X158138809Y-76024619D01*
X158138809Y-76024619D02*
X158329285Y-75929381D01*
X158329285Y-75929381D02*
X158424523Y-75834143D01*
X158424523Y-75834143D02*
X158519761Y-75643667D01*
X158519761Y-75643667D02*
X158519761Y-75167476D01*
X158519761Y-75167476D02*
X158424523Y-74881762D01*
X157853095Y-74024619D02*
X155853095Y-74024619D01*
X157757857Y-74024619D02*
X157853095Y-73834143D01*
X157853095Y-73834143D02*
X157853095Y-73453190D01*
X157853095Y-73453190D02*
X157757857Y-73262714D01*
X157757857Y-73262714D02*
X157662619Y-73167476D01*
X157662619Y-73167476D02*
X157472142Y-73072238D01*
X157472142Y-73072238D02*
X156900714Y-73072238D01*
X156900714Y-73072238D02*
X156710238Y-73167476D01*
X156710238Y-73167476D02*
X156615000Y-73262714D01*
X156615000Y-73262714D02*
X156519761Y-73453190D01*
X156519761Y-73453190D02*
X156519761Y-73834143D01*
X156519761Y-73834143D02*
X156615000Y-74024619D01*
X156519761Y-72215095D02*
X157853095Y-72215095D01*
X158519761Y-72215095D02*
X158424523Y-72310333D01*
X158424523Y-72310333D02*
X158329285Y-72215095D01*
X158329285Y-72215095D02*
X158424523Y-72119857D01*
X158424523Y-72119857D02*
X158519761Y-72215095D01*
X158519761Y-72215095D02*
X158329285Y-72215095D01*
X157853095Y-71262714D02*
X156519761Y-71262714D01*
X157662619Y-71262714D02*
X157757857Y-71167476D01*
X157757857Y-71167476D02*
X157853095Y-70977000D01*
X157853095Y-70977000D02*
X157853095Y-70691285D01*
X157853095Y-70691285D02*
X157757857Y-70500809D01*
X157757857Y-70500809D02*
X157567380Y-70405571D01*
X157567380Y-70405571D02*
X156519761Y-70405571D01*
X157853095Y-69453190D02*
X156519761Y-69453190D01*
X157662619Y-69453190D02*
X157757857Y-69357952D01*
X157757857Y-69357952D02*
X157853095Y-69167476D01*
X157853095Y-69167476D02*
X157853095Y-68881761D01*
X157853095Y-68881761D02*
X157757857Y-68691285D01*
X157757857Y-68691285D02*
X157567380Y-68596047D01*
X157567380Y-68596047D02*
X156519761Y-68596047D01*
X156519761Y-67643666D02*
X157853095Y-67643666D01*
X158519761Y-67643666D02*
X158424523Y-67738904D01*
X158424523Y-67738904D02*
X158329285Y-67643666D01*
X158329285Y-67643666D02*
X158424523Y-67548428D01*
X158424523Y-67548428D02*
X158519761Y-67643666D01*
X158519761Y-67643666D02*
X158329285Y-67643666D01*
X157853095Y-66691285D02*
X156519761Y-66691285D01*
X157662619Y-66691285D02*
X157757857Y-66596047D01*
X157757857Y-66596047D02*
X157853095Y-66405571D01*
X157853095Y-66405571D02*
X157853095Y-66119856D01*
X157853095Y-66119856D02*
X157757857Y-65929380D01*
X157757857Y-65929380D02*
X157567380Y-65834142D01*
X157567380Y-65834142D02*
X156519761Y-65834142D01*
X157853095Y-64024618D02*
X156234047Y-64024618D01*
X156234047Y-64024618D02*
X156043571Y-64119856D01*
X156043571Y-64119856D02*
X155948333Y-64215094D01*
X155948333Y-64215094D02*
X155853095Y-64405571D01*
X155853095Y-64405571D02*
X155853095Y-64691285D01*
X155853095Y-64691285D02*
X155948333Y-64881761D01*
X156615000Y-64024618D02*
X156519761Y-64215094D01*
X156519761Y-64215094D02*
X156519761Y-64596047D01*
X156519761Y-64596047D02*
X156615000Y-64786523D01*
X156615000Y-64786523D02*
X156710238Y-64881761D01*
X156710238Y-64881761D02*
X156900714Y-64976999D01*
X156900714Y-64976999D02*
X157472142Y-64976999D01*
X157472142Y-64976999D02*
X157662619Y-64881761D01*
X157662619Y-64881761D02*
X157757857Y-64786523D01*
X157757857Y-64786523D02*
X157853095Y-64596047D01*
X157853095Y-64596047D02*
X157853095Y-64215094D01*
X157853095Y-64215094D02*
X157757857Y-64024618D01*
X153279761Y-71262714D02*
X153279761Y-72215095D01*
X153279761Y-72215095D02*
X155279761Y-72215095D01*
X154327380Y-70596047D02*
X154327380Y-69929380D01*
X153279761Y-69643666D02*
X153279761Y-70596047D01*
X153279761Y-70596047D02*
X155279761Y-70596047D01*
X155279761Y-70596047D02*
X155279761Y-69643666D01*
X153279761Y-68786523D02*
X155279761Y-68786523D01*
X155279761Y-68786523D02*
X155279761Y-68310333D01*
X155279761Y-68310333D02*
X155184523Y-68024618D01*
X155184523Y-68024618D02*
X154994047Y-67834142D01*
X154994047Y-67834142D02*
X154803571Y-67738904D01*
X154803571Y-67738904D02*
X154422619Y-67643666D01*
X154422619Y-67643666D02*
X154136904Y-67643666D01*
X154136904Y-67643666D02*
X153755952Y-67738904D01*
X153755952Y-67738904D02*
X153565476Y-67834142D01*
X153565476Y-67834142D02*
X153375000Y-68024618D01*
X153375000Y-68024618D02*
X153279761Y-68310333D01*
X153279761Y-68310333D02*
X153279761Y-68786523D01*
X117324000Y-69517380D02*
X117419238Y-69803094D01*
X117419238Y-69803094D02*
X117419238Y-70279285D01*
X117419238Y-70279285D02*
X117324000Y-70469761D01*
X117324000Y-70469761D02*
X117228761Y-70564999D01*
X117228761Y-70564999D02*
X117038285Y-70660237D01*
X117038285Y-70660237D02*
X116847809Y-70660237D01*
X116847809Y-70660237D02*
X116657333Y-70564999D01*
X116657333Y-70564999D02*
X116562095Y-70469761D01*
X116562095Y-70469761D02*
X116466857Y-70279285D01*
X116466857Y-70279285D02*
X116371619Y-69898332D01*
X116371619Y-69898332D02*
X116276380Y-69707856D01*
X116276380Y-69707856D02*
X116181142Y-69612618D01*
X116181142Y-69612618D02*
X115990666Y-69517380D01*
X115990666Y-69517380D02*
X115800190Y-69517380D01*
X115800190Y-69517380D02*
X115609714Y-69612618D01*
X115609714Y-69612618D02*
X115514476Y-69707856D01*
X115514476Y-69707856D02*
X115419238Y-69898332D01*
X115419238Y-69898332D02*
X115419238Y-70374523D01*
X115419238Y-70374523D02*
X115514476Y-70660237D01*
X116085904Y-71517380D02*
X118085904Y-71517380D01*
X116181142Y-71517380D02*
X116085904Y-71707856D01*
X116085904Y-71707856D02*
X116085904Y-72088809D01*
X116085904Y-72088809D02*
X116181142Y-72279285D01*
X116181142Y-72279285D02*
X116276380Y-72374523D01*
X116276380Y-72374523D02*
X116466857Y-72469761D01*
X116466857Y-72469761D02*
X117038285Y-72469761D01*
X117038285Y-72469761D02*
X117228761Y-72374523D01*
X117228761Y-72374523D02*
X117324000Y-72279285D01*
X117324000Y-72279285D02*
X117419238Y-72088809D01*
X117419238Y-72088809D02*
X117419238Y-71707856D01*
X117419238Y-71707856D02*
X117324000Y-71517380D01*
X117419238Y-73326904D02*
X116085904Y-73326904D01*
X115419238Y-73326904D02*
X115514476Y-73231666D01*
X115514476Y-73231666D02*
X115609714Y-73326904D01*
X115609714Y-73326904D02*
X115514476Y-73422142D01*
X115514476Y-73422142D02*
X115419238Y-73326904D01*
X115419238Y-73326904D02*
X115609714Y-73326904D01*
X116085904Y-74279285D02*
X117419238Y-74279285D01*
X116276380Y-74279285D02*
X116181142Y-74374523D01*
X116181142Y-74374523D02*
X116085904Y-74564999D01*
X116085904Y-74564999D02*
X116085904Y-74850714D01*
X116085904Y-74850714D02*
X116181142Y-75041190D01*
X116181142Y-75041190D02*
X116371619Y-75136428D01*
X116371619Y-75136428D02*
X117419238Y-75136428D01*
X116085904Y-76088809D02*
X117419238Y-76088809D01*
X116276380Y-76088809D02*
X116181142Y-76184047D01*
X116181142Y-76184047D02*
X116085904Y-76374523D01*
X116085904Y-76374523D02*
X116085904Y-76660238D01*
X116085904Y-76660238D02*
X116181142Y-76850714D01*
X116181142Y-76850714D02*
X116371619Y-76945952D01*
X116371619Y-76945952D02*
X117419238Y-76945952D01*
X117419238Y-77898333D02*
X116085904Y-77898333D01*
X115419238Y-77898333D02*
X115514476Y-77803095D01*
X115514476Y-77803095D02*
X115609714Y-77898333D01*
X115609714Y-77898333D02*
X115514476Y-77993571D01*
X115514476Y-77993571D02*
X115419238Y-77898333D01*
X115419238Y-77898333D02*
X115609714Y-77898333D01*
X116085904Y-78850714D02*
X117419238Y-78850714D01*
X116276380Y-78850714D02*
X116181142Y-78945952D01*
X116181142Y-78945952D02*
X116085904Y-79136428D01*
X116085904Y-79136428D02*
X116085904Y-79422143D01*
X116085904Y-79422143D02*
X116181142Y-79612619D01*
X116181142Y-79612619D02*
X116371619Y-79707857D01*
X116371619Y-79707857D02*
X117419238Y-79707857D01*
X116085904Y-81517381D02*
X117704952Y-81517381D01*
X117704952Y-81517381D02*
X117895428Y-81422143D01*
X117895428Y-81422143D02*
X117990666Y-81326905D01*
X117990666Y-81326905D02*
X118085904Y-81136428D01*
X118085904Y-81136428D02*
X118085904Y-80850714D01*
X118085904Y-80850714D02*
X117990666Y-80660238D01*
X117324000Y-81517381D02*
X117419238Y-81326905D01*
X117419238Y-81326905D02*
X117419238Y-80945952D01*
X117419238Y-80945952D02*
X117324000Y-80755476D01*
X117324000Y-80755476D02*
X117228761Y-80660238D01*
X117228761Y-80660238D02*
X117038285Y-80565000D01*
X117038285Y-80565000D02*
X116466857Y-80565000D01*
X116466857Y-80565000D02*
X116276380Y-80660238D01*
X116276380Y-80660238D02*
X116181142Y-80755476D01*
X116181142Y-80755476D02*
X116085904Y-80945952D01*
X116085904Y-80945952D02*
X116085904Y-81326905D01*
X116085904Y-81326905D02*
X116181142Y-81517381D01*
X120659238Y-74279285D02*
X120659238Y-73326904D01*
X120659238Y-73326904D02*
X118659238Y-73326904D01*
X119611619Y-74945952D02*
X119611619Y-75612619D01*
X120659238Y-75898333D02*
X120659238Y-74945952D01*
X120659238Y-74945952D02*
X118659238Y-74945952D01*
X118659238Y-74945952D02*
X118659238Y-75898333D01*
X120659238Y-76755476D02*
X118659238Y-76755476D01*
X118659238Y-76755476D02*
X118659238Y-77231666D01*
X118659238Y-77231666D02*
X118754476Y-77517381D01*
X118754476Y-77517381D02*
X118944952Y-77707857D01*
X118944952Y-77707857D02*
X119135428Y-77803095D01*
X119135428Y-77803095D02*
X119516380Y-77898333D01*
X119516380Y-77898333D02*
X119802095Y-77898333D01*
X119802095Y-77898333D02*
X120183047Y-77803095D01*
X120183047Y-77803095D02*
X120373523Y-77707857D01*
X120373523Y-77707857D02*
X120564000Y-77517381D01*
X120564000Y-77517381D02*
X120659238Y-77231666D01*
X120659238Y-77231666D02*
X120659238Y-76755476D01*
D11*
X158895142Y-58868491D02*
X158895142Y-57344491D01*
X158895142Y-57344491D02*
X158314571Y-57344491D01*
X158314571Y-57344491D02*
X158169428Y-57417062D01*
X158169428Y-57417062D02*
X158096857Y-57489634D01*
X158096857Y-57489634D02*
X158024285Y-57634777D01*
X158024285Y-57634777D02*
X158024285Y-57852491D01*
X158024285Y-57852491D02*
X158096857Y-57997634D01*
X158096857Y-57997634D02*
X158169428Y-58070205D01*
X158169428Y-58070205D02*
X158314571Y-58142777D01*
X158314571Y-58142777D02*
X158895142Y-58142777D01*
X157080857Y-57344491D02*
X156790571Y-57344491D01*
X156790571Y-57344491D02*
X156645428Y-57417062D01*
X156645428Y-57417062D02*
X156500285Y-57562205D01*
X156500285Y-57562205D02*
X156427714Y-57852491D01*
X156427714Y-57852491D02*
X156427714Y-58360491D01*
X156427714Y-58360491D02*
X156500285Y-58650777D01*
X156500285Y-58650777D02*
X156645428Y-58795920D01*
X156645428Y-58795920D02*
X156790571Y-58868491D01*
X156790571Y-58868491D02*
X157080857Y-58868491D01*
X157080857Y-58868491D02*
X157226000Y-58795920D01*
X157226000Y-58795920D02*
X157371142Y-58650777D01*
X157371142Y-58650777D02*
X157443714Y-58360491D01*
X157443714Y-58360491D02*
X157443714Y-57852491D01*
X157443714Y-57852491D02*
X157371142Y-57562205D01*
X157371142Y-57562205D02*
X157226000Y-57417062D01*
X157226000Y-57417062D02*
X157080857Y-57344491D01*
X155919714Y-57344491D02*
X155556857Y-58868491D01*
X155556857Y-58868491D02*
X155266571Y-57779920D01*
X155266571Y-57779920D02*
X154976286Y-58868491D01*
X154976286Y-58868491D02*
X154613429Y-57344491D01*
X154032857Y-58070205D02*
X153524857Y-58070205D01*
X153307143Y-58868491D02*
X154032857Y-58868491D01*
X154032857Y-58868491D02*
X154032857Y-57344491D01*
X154032857Y-57344491D02*
X153307143Y-57344491D01*
X151783143Y-58868491D02*
X152291143Y-58142777D01*
X152654000Y-58868491D02*
X152654000Y-57344491D01*
X152654000Y-57344491D02*
X152073429Y-57344491D01*
X152073429Y-57344491D02*
X151928286Y-57417062D01*
X151928286Y-57417062D02*
X151855715Y-57489634D01*
X151855715Y-57489634D02*
X151783143Y-57634777D01*
X151783143Y-57634777D02*
X151783143Y-57852491D01*
X151783143Y-57852491D02*
X151855715Y-57997634D01*
X151855715Y-57997634D02*
X151928286Y-58070205D01*
X151928286Y-58070205D02*
X152073429Y-58142777D01*
X152073429Y-58142777D02*
X152654000Y-58142777D01*
D12*
X152681528Y-39696571D02*
X152681528Y-39309523D01*
X152681528Y-39309523D02*
X151868728Y-39309523D01*
X152255776Y-39967504D02*
X152255776Y-40238438D01*
X152681528Y-40354552D02*
X152681528Y-39967504D01*
X152681528Y-39967504D02*
X151868728Y-39967504D01*
X151868728Y-39967504D02*
X151868728Y-40354552D01*
X152681528Y-40702894D02*
X151868728Y-40702894D01*
X151868728Y-40702894D02*
X151868728Y-40896418D01*
X151868728Y-40896418D02*
X151907433Y-41012532D01*
X151907433Y-41012532D02*
X151984843Y-41089942D01*
X151984843Y-41089942D02*
X152062252Y-41128647D01*
X152062252Y-41128647D02*
X152217071Y-41167351D01*
X152217071Y-41167351D02*
X152333185Y-41167351D01*
X152333185Y-41167351D02*
X152488004Y-41128647D01*
X152488004Y-41128647D02*
X152565414Y-41089942D01*
X152565414Y-41089942D02*
X152642824Y-41012532D01*
X152642824Y-41012532D02*
X152681528Y-40896418D01*
X152681528Y-40896418D02*
X152681528Y-40702894D01*
X152139662Y-41476990D02*
X152139662Y-42057561D01*
X151791319Y-41709218D02*
X152836347Y-41476990D01*
X152488004Y-41980151D02*
X152488004Y-41399580D01*
X152836347Y-41747923D02*
X151791319Y-41980151D01*
X151946138Y-42289790D02*
X151907433Y-42328494D01*
X151907433Y-42328494D02*
X151868728Y-42405904D01*
X151868728Y-42405904D02*
X151868728Y-42599428D01*
X151868728Y-42599428D02*
X151907433Y-42676837D01*
X151907433Y-42676837D02*
X151946138Y-42715542D01*
X151946138Y-42715542D02*
X152023547Y-42754247D01*
X152023547Y-42754247D02*
X152100957Y-42754247D01*
X152100957Y-42754247D02*
X152217071Y-42715542D01*
X152217071Y-42715542D02*
X152681528Y-42251085D01*
X152681528Y-42251085D02*
X152681528Y-42754247D01*
X158015528Y-39696571D02*
X158015528Y-39309523D01*
X158015528Y-39309523D02*
X157202728Y-39309523D01*
X157589776Y-39967504D02*
X157589776Y-40238438D01*
X158015528Y-40354552D02*
X158015528Y-39967504D01*
X158015528Y-39967504D02*
X157202728Y-39967504D01*
X157202728Y-39967504D02*
X157202728Y-40354552D01*
X158015528Y-40702894D02*
X157202728Y-40702894D01*
X157202728Y-40702894D02*
X157202728Y-40896418D01*
X157202728Y-40896418D02*
X157241433Y-41012532D01*
X157241433Y-41012532D02*
X157318843Y-41089942D01*
X157318843Y-41089942D02*
X157396252Y-41128647D01*
X157396252Y-41128647D02*
X157551071Y-41167351D01*
X157551071Y-41167351D02*
X157667185Y-41167351D01*
X157667185Y-41167351D02*
X157822004Y-41128647D01*
X157822004Y-41128647D02*
X157899414Y-41089942D01*
X157899414Y-41089942D02*
X157976824Y-41012532D01*
X157976824Y-41012532D02*
X158015528Y-40896418D01*
X158015528Y-40896418D02*
X158015528Y-40702894D01*
X157473662Y-41476990D02*
X157473662Y-42057561D01*
X157125319Y-41709218D02*
X158170347Y-41476990D01*
X157822004Y-41980151D02*
X157822004Y-41399580D01*
X158170347Y-41747923D02*
X157125319Y-41980151D01*
X158015528Y-42754247D02*
X158015528Y-42289790D01*
X158015528Y-42522018D02*
X157202728Y-42522018D01*
X157202728Y-42522018D02*
X157318843Y-42444609D01*
X157318843Y-42444609D02*
X157396252Y-42367199D01*
X157396252Y-42367199D02*
X157434957Y-42289790D01*
X123471528Y-39569571D02*
X123471528Y-39182523D01*
X123471528Y-39182523D02*
X122658728Y-39182523D01*
X123045776Y-39840504D02*
X123045776Y-40111438D01*
X123471528Y-40227552D02*
X123471528Y-39840504D01*
X123471528Y-39840504D02*
X122658728Y-39840504D01*
X122658728Y-39840504D02*
X122658728Y-40227552D01*
X123471528Y-40575894D02*
X122658728Y-40575894D01*
X122658728Y-40575894D02*
X122658728Y-40769418D01*
X122658728Y-40769418D02*
X122697433Y-40885532D01*
X122697433Y-40885532D02*
X122774843Y-40962942D01*
X122774843Y-40962942D02*
X122852252Y-41001647D01*
X122852252Y-41001647D02*
X123007071Y-41040351D01*
X123007071Y-41040351D02*
X123123185Y-41040351D01*
X123123185Y-41040351D02*
X123278004Y-41001647D01*
X123278004Y-41001647D02*
X123355414Y-40962942D01*
X123355414Y-40962942D02*
X123432824Y-40885532D01*
X123432824Y-40885532D02*
X123471528Y-40769418D01*
X123471528Y-40769418D02*
X123471528Y-40575894D01*
X122929662Y-41349990D02*
X122929662Y-41930561D01*
X122581319Y-41582218D02*
X123626347Y-41349990D01*
X123278004Y-41853151D02*
X123278004Y-41272580D01*
X123626347Y-41620923D02*
X122581319Y-41853151D01*
X122929662Y-42549837D02*
X123471528Y-42549837D01*
X122620024Y-42356313D02*
X123200595Y-42162790D01*
X123200595Y-42162790D02*
X123200595Y-42665951D01*
X116740528Y-39442571D02*
X116740528Y-39055523D01*
X116740528Y-39055523D02*
X115927728Y-39055523D01*
X116314776Y-39713504D02*
X116314776Y-39984438D01*
X116740528Y-40100552D02*
X116740528Y-39713504D01*
X116740528Y-39713504D02*
X115927728Y-39713504D01*
X115927728Y-39713504D02*
X115927728Y-40100552D01*
X116740528Y-40448894D02*
X115927728Y-40448894D01*
X115927728Y-40448894D02*
X115927728Y-40642418D01*
X115927728Y-40642418D02*
X115966433Y-40758532D01*
X115966433Y-40758532D02*
X116043843Y-40835942D01*
X116043843Y-40835942D02*
X116121252Y-40874647D01*
X116121252Y-40874647D02*
X116276071Y-40913351D01*
X116276071Y-40913351D02*
X116392185Y-40913351D01*
X116392185Y-40913351D02*
X116547004Y-40874647D01*
X116547004Y-40874647D02*
X116624414Y-40835942D01*
X116624414Y-40835942D02*
X116701824Y-40758532D01*
X116701824Y-40758532D02*
X116740528Y-40642418D01*
X116740528Y-40642418D02*
X116740528Y-40448894D01*
X116198662Y-41222990D02*
X116198662Y-41803561D01*
X115850319Y-41455218D02*
X116895347Y-41222990D01*
X116547004Y-41726151D02*
X116547004Y-41145580D01*
X116895347Y-41493923D02*
X115850319Y-41726151D01*
X115927728Y-41997085D02*
X115927728Y-42500247D01*
X115927728Y-42500247D02*
X116237366Y-42229313D01*
X116237366Y-42229313D02*
X116237366Y-42345428D01*
X116237366Y-42345428D02*
X116276071Y-42422837D01*
X116276071Y-42422837D02*
X116314776Y-42461542D01*
X116314776Y-42461542D02*
X116392185Y-42500247D01*
X116392185Y-42500247D02*
X116585709Y-42500247D01*
X116585709Y-42500247D02*
X116663119Y-42461542D01*
X116663119Y-42461542D02*
X116701824Y-42422837D01*
X116701824Y-42422837D02*
X116740528Y-42345428D01*
X116740528Y-42345428D02*
X116740528Y-42113199D01*
X116740528Y-42113199D02*
X116701824Y-42035790D01*
X116701824Y-42035790D02*
X116663119Y-41997085D01*
X141378528Y-87442523D02*
X140565728Y-87442523D01*
X140565728Y-87442523D02*
X141146300Y-87713457D01*
X141146300Y-87713457D02*
X140565728Y-87984390D01*
X140565728Y-87984390D02*
X141378528Y-87984390D01*
X141378528Y-88719780D02*
X140952776Y-88719780D01*
X140952776Y-88719780D02*
X140875366Y-88681075D01*
X140875366Y-88681075D02*
X140836662Y-88603666D01*
X140836662Y-88603666D02*
X140836662Y-88448847D01*
X140836662Y-88448847D02*
X140875366Y-88371437D01*
X141339824Y-88719780D02*
X141378528Y-88642371D01*
X141378528Y-88642371D02*
X141378528Y-88448847D01*
X141378528Y-88448847D02*
X141339824Y-88371437D01*
X141339824Y-88371437D02*
X141262414Y-88332733D01*
X141262414Y-88332733D02*
X141185004Y-88332733D01*
X141185004Y-88332733D02*
X141107595Y-88371437D01*
X141107595Y-88371437D02*
X141068890Y-88448847D01*
X141068890Y-88448847D02*
X141068890Y-88642371D01*
X141068890Y-88642371D02*
X141030185Y-88719780D01*
X141378528Y-89029418D02*
X140836662Y-89455170D01*
X140836662Y-89029418D02*
X141378528Y-89455170D01*
X141378528Y-90809837D02*
X141378528Y-90345380D01*
X141378528Y-90577608D02*
X140565728Y-90577608D01*
X140565728Y-90577608D02*
X140681843Y-90500199D01*
X140681843Y-90500199D02*
X140759252Y-90422789D01*
X140759252Y-90422789D02*
X140797957Y-90345380D01*
X140914071Y-91274294D02*
X140875366Y-91196884D01*
X140875366Y-91196884D02*
X140836662Y-91158179D01*
X140836662Y-91158179D02*
X140759252Y-91119475D01*
X140759252Y-91119475D02*
X140720547Y-91119475D01*
X140720547Y-91119475D02*
X140643138Y-91158179D01*
X140643138Y-91158179D02*
X140604433Y-91196884D01*
X140604433Y-91196884D02*
X140565728Y-91274294D01*
X140565728Y-91274294D02*
X140565728Y-91429113D01*
X140565728Y-91429113D02*
X140604433Y-91506522D01*
X140604433Y-91506522D02*
X140643138Y-91545227D01*
X140643138Y-91545227D02*
X140720547Y-91583932D01*
X140720547Y-91583932D02*
X140759252Y-91583932D01*
X140759252Y-91583932D02*
X140836662Y-91545227D01*
X140836662Y-91545227D02*
X140875366Y-91506522D01*
X140875366Y-91506522D02*
X140914071Y-91429113D01*
X140914071Y-91429113D02*
X140914071Y-91274294D01*
X140914071Y-91274294D02*
X140952776Y-91196884D01*
X140952776Y-91196884D02*
X140991481Y-91158179D01*
X140991481Y-91158179D02*
X141068890Y-91119475D01*
X141068890Y-91119475D02*
X141223709Y-91119475D01*
X141223709Y-91119475D02*
X141301119Y-91158179D01*
X141301119Y-91158179D02*
X141339824Y-91196884D01*
X141339824Y-91196884D02*
X141378528Y-91274294D01*
X141378528Y-91274294D02*
X141378528Y-91429113D01*
X141378528Y-91429113D02*
X141339824Y-91506522D01*
X141339824Y-91506522D02*
X141301119Y-91545227D01*
X141301119Y-91545227D02*
X141223709Y-91583932D01*
X141223709Y-91583932D02*
X141068890Y-91583932D01*
X141068890Y-91583932D02*
X140991481Y-91545227D01*
X140991481Y-91545227D02*
X140952776Y-91506522D01*
X140952776Y-91506522D02*
X140914071Y-91429113D01*
X140565728Y-91816160D02*
X141378528Y-92087093D01*
X141378528Y-92087093D02*
X140565728Y-92358027D01*
D11*
X158913285Y-35627491D02*
X158550428Y-37151491D01*
X158550428Y-37151491D02*
X158260142Y-36062920D01*
X158260142Y-36062920D02*
X157969857Y-37151491D01*
X157969857Y-37151491D02*
X157607000Y-35627491D01*
X157026428Y-37151491D02*
X157026428Y-35627491D01*
X155792714Y-36353205D02*
X156300714Y-36353205D01*
X156300714Y-37151491D02*
X156300714Y-35627491D01*
X156300714Y-35627491D02*
X155575000Y-35627491D01*
X154994428Y-37151491D02*
X154994428Y-35627491D01*
D12*
X151190476Y-44014474D02*
X150571200Y-44014474D01*
X150880838Y-44324112D02*
X150880838Y-43704836D01*
X151190476Y-46957584D02*
X151190476Y-46144784D01*
X151190476Y-46144784D02*
X150996952Y-46144784D01*
X150996952Y-46144784D02*
X150880838Y-46183489D01*
X150880838Y-46183489D02*
X150803428Y-46260899D01*
X150803428Y-46260899D02*
X150764723Y-46338308D01*
X150764723Y-46338308D02*
X150726019Y-46493127D01*
X150726019Y-46493127D02*
X150726019Y-46609241D01*
X150726019Y-46609241D02*
X150764723Y-46764060D01*
X150764723Y-46764060D02*
X150803428Y-46841470D01*
X150803428Y-46841470D02*
X150880838Y-46918880D01*
X150880838Y-46918880D02*
X150996952Y-46957584D01*
X150996952Y-46957584D02*
X151190476Y-46957584D01*
X150726019Y-49513647D02*
X150764723Y-49552352D01*
X150764723Y-49552352D02*
X150880838Y-49591056D01*
X150880838Y-49591056D02*
X150958247Y-49591056D01*
X150958247Y-49591056D02*
X151074361Y-49552352D01*
X151074361Y-49552352D02*
X151151771Y-49474942D01*
X151151771Y-49474942D02*
X151190476Y-49397532D01*
X151190476Y-49397532D02*
X151229180Y-49242713D01*
X151229180Y-49242713D02*
X151229180Y-49126599D01*
X151229180Y-49126599D02*
X151190476Y-48971780D01*
X151190476Y-48971780D02*
X151151771Y-48894371D01*
X151151771Y-48894371D02*
X151074361Y-48816961D01*
X151074361Y-48816961D02*
X150958247Y-48778256D01*
X150958247Y-48778256D02*
X150880838Y-48778256D01*
X150880838Y-48778256D02*
X150764723Y-48816961D01*
X150764723Y-48816961D02*
X150726019Y-48855666D01*
X151190476Y-51914890D02*
X150571200Y-51914890D01*
X124012476Y-44268474D02*
X123393200Y-44268474D01*
X123702838Y-44578112D02*
X123702838Y-43958836D01*
X124012476Y-47211584D02*
X124012476Y-46398784D01*
X124012476Y-46398784D02*
X123818952Y-46398784D01*
X123818952Y-46398784D02*
X123702838Y-46437489D01*
X123702838Y-46437489D02*
X123625428Y-46514899D01*
X123625428Y-46514899D02*
X123586723Y-46592308D01*
X123586723Y-46592308D02*
X123548019Y-46747127D01*
X123548019Y-46747127D02*
X123548019Y-46863241D01*
X123548019Y-46863241D02*
X123586723Y-47018060D01*
X123586723Y-47018060D02*
X123625428Y-47095470D01*
X123625428Y-47095470D02*
X123702838Y-47172880D01*
X123702838Y-47172880D02*
X123818952Y-47211584D01*
X123818952Y-47211584D02*
X124012476Y-47211584D01*
X123548019Y-49767647D02*
X123586723Y-49806352D01*
X123586723Y-49806352D02*
X123702838Y-49845056D01*
X123702838Y-49845056D02*
X123780247Y-49845056D01*
X123780247Y-49845056D02*
X123896361Y-49806352D01*
X123896361Y-49806352D02*
X123973771Y-49728942D01*
X123973771Y-49728942D02*
X124012476Y-49651532D01*
X124012476Y-49651532D02*
X124051180Y-49496713D01*
X124051180Y-49496713D02*
X124051180Y-49380599D01*
X124051180Y-49380599D02*
X124012476Y-49225780D01*
X124012476Y-49225780D02*
X123973771Y-49148371D01*
X123973771Y-49148371D02*
X123896361Y-49070961D01*
X123896361Y-49070961D02*
X123780247Y-49032256D01*
X123780247Y-49032256D02*
X123702838Y-49032256D01*
X123702838Y-49032256D02*
X123586723Y-49070961D01*
X123586723Y-49070961D02*
X123548019Y-49109666D01*
X124012476Y-52168890D02*
X123393200Y-52168890D01*
X119440476Y-44268474D02*
X118821200Y-44268474D01*
X119130838Y-44578112D02*
X119130838Y-43958836D01*
X119440476Y-47211584D02*
X119440476Y-46398784D01*
X119440476Y-46398784D02*
X119246952Y-46398784D01*
X119246952Y-46398784D02*
X119130838Y-46437489D01*
X119130838Y-46437489D02*
X119053428Y-46514899D01*
X119053428Y-46514899D02*
X119014723Y-46592308D01*
X119014723Y-46592308D02*
X118976019Y-46747127D01*
X118976019Y-46747127D02*
X118976019Y-46863241D01*
X118976019Y-46863241D02*
X119014723Y-47018060D01*
X119014723Y-47018060D02*
X119053428Y-47095470D01*
X119053428Y-47095470D02*
X119130838Y-47172880D01*
X119130838Y-47172880D02*
X119246952Y-47211584D01*
X119246952Y-47211584D02*
X119440476Y-47211584D01*
X118976019Y-49767647D02*
X119014723Y-49806352D01*
X119014723Y-49806352D02*
X119130838Y-49845056D01*
X119130838Y-49845056D02*
X119208247Y-49845056D01*
X119208247Y-49845056D02*
X119324361Y-49806352D01*
X119324361Y-49806352D02*
X119401771Y-49728942D01*
X119401771Y-49728942D02*
X119440476Y-49651532D01*
X119440476Y-49651532D02*
X119479180Y-49496713D01*
X119479180Y-49496713D02*
X119479180Y-49380599D01*
X119479180Y-49380599D02*
X119440476Y-49225780D01*
X119440476Y-49225780D02*
X119401771Y-49148371D01*
X119401771Y-49148371D02*
X119324361Y-49070961D01*
X119324361Y-49070961D02*
X119208247Y-49032256D01*
X119208247Y-49032256D02*
X119130838Y-49032256D01*
X119130838Y-49032256D02*
X119014723Y-49070961D01*
X119014723Y-49070961D02*
X118976019Y-49109666D01*
X119440476Y-52168890D02*
X118821200Y-52168890D01*
X155508476Y-44522474D02*
X154889200Y-44522474D01*
X155198838Y-44832112D02*
X155198838Y-44212836D01*
X155508476Y-47465584D02*
X155508476Y-46652784D01*
X155508476Y-46652784D02*
X155314952Y-46652784D01*
X155314952Y-46652784D02*
X155198838Y-46691489D01*
X155198838Y-46691489D02*
X155121428Y-46768899D01*
X155121428Y-46768899D02*
X155082723Y-46846308D01*
X155082723Y-46846308D02*
X155044019Y-47001127D01*
X155044019Y-47001127D02*
X155044019Y-47117241D01*
X155044019Y-47117241D02*
X155082723Y-47272060D01*
X155082723Y-47272060D02*
X155121428Y-47349470D01*
X155121428Y-47349470D02*
X155198838Y-47426880D01*
X155198838Y-47426880D02*
X155314952Y-47465584D01*
X155314952Y-47465584D02*
X155508476Y-47465584D01*
X155044019Y-50021647D02*
X155082723Y-50060352D01*
X155082723Y-50060352D02*
X155198838Y-50099056D01*
X155198838Y-50099056D02*
X155276247Y-50099056D01*
X155276247Y-50099056D02*
X155392361Y-50060352D01*
X155392361Y-50060352D02*
X155469771Y-49982942D01*
X155469771Y-49982942D02*
X155508476Y-49905532D01*
X155508476Y-49905532D02*
X155547180Y-49750713D01*
X155547180Y-49750713D02*
X155547180Y-49634599D01*
X155547180Y-49634599D02*
X155508476Y-49479780D01*
X155508476Y-49479780D02*
X155469771Y-49402371D01*
X155469771Y-49402371D02*
X155392361Y-49324961D01*
X155392361Y-49324961D02*
X155276247Y-49286256D01*
X155276247Y-49286256D02*
X155198838Y-49286256D01*
X155198838Y-49286256D02*
X155082723Y-49324961D01*
X155082723Y-49324961D02*
X155044019Y-49363666D01*
X155508476Y-52422890D02*
X154889200Y-52422890D01*
X126806476Y-95602890D02*
X126187200Y-95602890D01*
X122742476Y-95602890D02*
X122123200Y-95602890D01*
X122432838Y-95912528D02*
X122432838Y-95293252D01*
X150256723Y-94376433D02*
X150334133Y-94337728D01*
X150334133Y-94337728D02*
X150450247Y-94337728D01*
X150450247Y-94337728D02*
X150566361Y-94376433D01*
X150566361Y-94376433D02*
X150643771Y-94453843D01*
X150643771Y-94453843D02*
X150682476Y-94531252D01*
X150682476Y-94531252D02*
X150721180Y-94686071D01*
X150721180Y-94686071D02*
X150721180Y-94802185D01*
X150721180Y-94802185D02*
X150682476Y-94957004D01*
X150682476Y-94957004D02*
X150643771Y-95034414D01*
X150643771Y-95034414D02*
X150566361Y-95111824D01*
X150566361Y-95111824D02*
X150450247Y-95150528D01*
X150450247Y-95150528D02*
X150372838Y-95150528D01*
X150372838Y-95150528D02*
X150256723Y-95111824D01*
X150256723Y-95111824D02*
X150218019Y-95073119D01*
X150218019Y-95073119D02*
X150218019Y-94802185D01*
X150218019Y-94802185D02*
X150372838Y-94802185D01*
X149869676Y-95150528D02*
X149869676Y-94337728D01*
X149869676Y-94337728D02*
X149405219Y-95150528D01*
X149405219Y-95150528D02*
X149405219Y-94337728D01*
X149018171Y-95150528D02*
X149018171Y-94337728D01*
X149018171Y-94337728D02*
X148824647Y-94337728D01*
X148824647Y-94337728D02*
X148708533Y-94376433D01*
X148708533Y-94376433D02*
X148631123Y-94453843D01*
X148631123Y-94453843D02*
X148592418Y-94531252D01*
X148592418Y-94531252D02*
X148553714Y-94686071D01*
X148553714Y-94686071D02*
X148553714Y-94802185D01*
X148553714Y-94802185D02*
X148592418Y-94957004D01*
X148592418Y-94957004D02*
X148631123Y-95034414D01*
X148631123Y-95034414D02*
X148708533Y-95111824D01*
X148708533Y-95111824D02*
X148824647Y-95150528D01*
X148824647Y-95150528D02*
X149018171Y-95150528D01*
X149748723Y-82438433D02*
X149826133Y-82399728D01*
X149826133Y-82399728D02*
X149942247Y-82399728D01*
X149942247Y-82399728D02*
X150058361Y-82438433D01*
X150058361Y-82438433D02*
X150135771Y-82515843D01*
X150135771Y-82515843D02*
X150174476Y-82593252D01*
X150174476Y-82593252D02*
X150213180Y-82748071D01*
X150213180Y-82748071D02*
X150213180Y-82864185D01*
X150213180Y-82864185D02*
X150174476Y-83019004D01*
X150174476Y-83019004D02*
X150135771Y-83096414D01*
X150135771Y-83096414D02*
X150058361Y-83173824D01*
X150058361Y-83173824D02*
X149942247Y-83212528D01*
X149942247Y-83212528D02*
X149864838Y-83212528D01*
X149864838Y-83212528D02*
X149748723Y-83173824D01*
X149748723Y-83173824D02*
X149710019Y-83135119D01*
X149710019Y-83135119D02*
X149710019Y-82864185D01*
X149710019Y-82864185D02*
X149864838Y-82864185D01*
X149361676Y-83212528D02*
X149361676Y-82399728D01*
X149361676Y-82399728D02*
X148897219Y-83212528D01*
X148897219Y-83212528D02*
X148897219Y-82399728D01*
X148510171Y-83212528D02*
X148510171Y-82399728D01*
X148510171Y-82399728D02*
X148316647Y-82399728D01*
X148316647Y-82399728D02*
X148200533Y-82438433D01*
X148200533Y-82438433D02*
X148123123Y-82515843D01*
X148123123Y-82515843D02*
X148084418Y-82593252D01*
X148084418Y-82593252D02*
X148045714Y-82748071D01*
X148045714Y-82748071D02*
X148045714Y-82864185D01*
X148045714Y-82864185D02*
X148084418Y-83019004D01*
X148084418Y-83019004D02*
X148123123Y-83096414D01*
X148123123Y-83096414D02*
X148200533Y-83173824D01*
X148200533Y-83173824D02*
X148316647Y-83212528D01*
X148316647Y-83212528D02*
X148510171Y-83212528D01*
X150002723Y-85232433D02*
X150080133Y-85193728D01*
X150080133Y-85193728D02*
X150196247Y-85193728D01*
X150196247Y-85193728D02*
X150312361Y-85232433D01*
X150312361Y-85232433D02*
X150389771Y-85309843D01*
X150389771Y-85309843D02*
X150428476Y-85387252D01*
X150428476Y-85387252D02*
X150467180Y-85542071D01*
X150467180Y-85542071D02*
X150467180Y-85658185D01*
X150467180Y-85658185D02*
X150428476Y-85813004D01*
X150428476Y-85813004D02*
X150389771Y-85890414D01*
X150389771Y-85890414D02*
X150312361Y-85967824D01*
X150312361Y-85967824D02*
X150196247Y-86006528D01*
X150196247Y-86006528D02*
X150118838Y-86006528D01*
X150118838Y-86006528D02*
X150002723Y-85967824D01*
X150002723Y-85967824D02*
X149964019Y-85929119D01*
X149964019Y-85929119D02*
X149964019Y-85658185D01*
X149964019Y-85658185D02*
X150118838Y-85658185D01*
X149615676Y-86006528D02*
X149615676Y-85193728D01*
X149615676Y-85193728D02*
X149151219Y-86006528D01*
X149151219Y-86006528D02*
X149151219Y-85193728D01*
X148764171Y-86006528D02*
X148764171Y-85193728D01*
X148764171Y-85193728D02*
X148570647Y-85193728D01*
X148570647Y-85193728D02*
X148454533Y-85232433D01*
X148454533Y-85232433D02*
X148377123Y-85309843D01*
X148377123Y-85309843D02*
X148338418Y-85387252D01*
X148338418Y-85387252D02*
X148299714Y-85542071D01*
X148299714Y-85542071D02*
X148299714Y-85658185D01*
X148299714Y-85658185D02*
X148338418Y-85813004D01*
X148338418Y-85813004D02*
X148377123Y-85890414D01*
X148377123Y-85890414D02*
X148454533Y-85967824D01*
X148454533Y-85967824D02*
X148570647Y-86006528D01*
X148570647Y-86006528D02*
X148764171Y-86006528D01*
X145602476Y-82902890D02*
X144983200Y-82902890D01*
X145292838Y-83212528D02*
X145292838Y-82593252D01*
X144170399Y-83212528D02*
X144634856Y-83212528D01*
X144402628Y-83212528D02*
X144402628Y-82399728D01*
X144402628Y-82399728D02*
X144480037Y-82515843D01*
X144480037Y-82515843D02*
X144557447Y-82593252D01*
X144557447Y-82593252D02*
X144634856Y-82631957D01*
X143860761Y-82477138D02*
X143822057Y-82438433D01*
X143822057Y-82438433D02*
X143744647Y-82399728D01*
X143744647Y-82399728D02*
X143551123Y-82399728D01*
X143551123Y-82399728D02*
X143473714Y-82438433D01*
X143473714Y-82438433D02*
X143435009Y-82477138D01*
X143435009Y-82477138D02*
X143396304Y-82554547D01*
X143396304Y-82554547D02*
X143396304Y-82631957D01*
X143396304Y-82631957D02*
X143435009Y-82748071D01*
X143435009Y-82748071D02*
X143899466Y-83212528D01*
X143899466Y-83212528D02*
X143396304Y-83212528D01*
X143164076Y-82399728D02*
X142893143Y-83212528D01*
X142893143Y-83212528D02*
X142622209Y-82399728D01*
X145856476Y-85696890D02*
X145237200Y-85696890D01*
X145546838Y-86006528D02*
X145546838Y-85387252D01*
X144424399Y-86006528D02*
X144888856Y-86006528D01*
X144656628Y-86006528D02*
X144656628Y-85193728D01*
X144656628Y-85193728D02*
X144734037Y-85309843D01*
X144734037Y-85309843D02*
X144811447Y-85387252D01*
X144811447Y-85387252D02*
X144888856Y-85425957D01*
X144114761Y-85271138D02*
X144076057Y-85232433D01*
X144076057Y-85232433D02*
X143998647Y-85193728D01*
X143998647Y-85193728D02*
X143805123Y-85193728D01*
X143805123Y-85193728D02*
X143727714Y-85232433D01*
X143727714Y-85232433D02*
X143689009Y-85271138D01*
X143689009Y-85271138D02*
X143650304Y-85348547D01*
X143650304Y-85348547D02*
X143650304Y-85425957D01*
X143650304Y-85425957D02*
X143689009Y-85542071D01*
X143689009Y-85542071D02*
X144153466Y-86006528D01*
X144153466Y-86006528D02*
X143650304Y-86006528D01*
X143418076Y-85193728D02*
X143147143Y-86006528D01*
X143147143Y-86006528D02*
X142876209Y-85193728D01*
X146110476Y-94586890D02*
X145491200Y-94586890D01*
X145800838Y-94896528D02*
X145800838Y-94277252D01*
X144678399Y-94896528D02*
X145142856Y-94896528D01*
X144910628Y-94896528D02*
X144910628Y-94083728D01*
X144910628Y-94083728D02*
X144988037Y-94199843D01*
X144988037Y-94199843D02*
X145065447Y-94277252D01*
X145065447Y-94277252D02*
X145142856Y-94315957D01*
X144368761Y-94161138D02*
X144330057Y-94122433D01*
X144330057Y-94122433D02*
X144252647Y-94083728D01*
X144252647Y-94083728D02*
X144059123Y-94083728D01*
X144059123Y-94083728D02*
X143981714Y-94122433D01*
X143981714Y-94122433D02*
X143943009Y-94161138D01*
X143943009Y-94161138D02*
X143904304Y-94238547D01*
X143904304Y-94238547D02*
X143904304Y-94315957D01*
X143904304Y-94315957D02*
X143943009Y-94432071D01*
X143943009Y-94432071D02*
X144407466Y-94896528D01*
X144407466Y-94896528D02*
X143904304Y-94896528D01*
X143672076Y-94083728D02*
X143401143Y-94896528D01*
X143401143Y-94896528D02*
X143130209Y-94083728D01*
D11*
X121049142Y-58233491D02*
X121049142Y-56709491D01*
X121049142Y-56709491D02*
X120541142Y-57798062D01*
X120541142Y-57798062D02*
X120033142Y-56709491D01*
X120033142Y-56709491D02*
X120033142Y-58233491D01*
X119017143Y-56709491D02*
X118726857Y-56709491D01*
X118726857Y-56709491D02*
X118581714Y-56782062D01*
X118581714Y-56782062D02*
X118436571Y-56927205D01*
X118436571Y-56927205D02*
X118364000Y-57217491D01*
X118364000Y-57217491D02*
X118364000Y-57725491D01*
X118364000Y-57725491D02*
X118436571Y-58015777D01*
X118436571Y-58015777D02*
X118581714Y-58160920D01*
X118581714Y-58160920D02*
X118726857Y-58233491D01*
X118726857Y-58233491D02*
X119017143Y-58233491D01*
X119017143Y-58233491D02*
X119162286Y-58160920D01*
X119162286Y-58160920D02*
X119307428Y-58015777D01*
X119307428Y-58015777D02*
X119380000Y-57725491D01*
X119380000Y-57725491D02*
X119380000Y-57217491D01*
X119380000Y-57217491D02*
X119307428Y-56927205D01*
X119307428Y-56927205D02*
X119162286Y-56782062D01*
X119162286Y-56782062D02*
X119017143Y-56709491D01*
X117710857Y-58233491D02*
X117710857Y-56709491D01*
X117710857Y-56709491D02*
X117348000Y-56709491D01*
X117348000Y-56709491D02*
X117130286Y-56782062D01*
X117130286Y-56782062D02*
X116985143Y-56927205D01*
X116985143Y-56927205D02*
X116912572Y-57072348D01*
X116912572Y-57072348D02*
X116840000Y-57362634D01*
X116840000Y-57362634D02*
X116840000Y-57580348D01*
X116840000Y-57580348D02*
X116912572Y-57870634D01*
X116912572Y-57870634D02*
X116985143Y-58015777D01*
X116985143Y-58015777D02*
X117130286Y-58160920D01*
X117130286Y-58160920D02*
X117348000Y-58233491D01*
X117348000Y-58233491D02*
X117710857Y-58233491D01*
X116186857Y-57435205D02*
X115678857Y-57435205D01*
X115461143Y-58233491D02*
X116186857Y-58233491D01*
X116186857Y-58233491D02*
X116186857Y-56709491D01*
X116186857Y-56709491D02*
X115461143Y-56709491D01*
X122039642Y-62896205D02*
X121531642Y-62896205D01*
X121313928Y-63694491D02*
X122039642Y-63694491D01*
X122039642Y-63694491D02*
X122039642Y-62170491D01*
X122039642Y-62170491D02*
X121313928Y-62170491D01*
X119789928Y-63694491D02*
X120297928Y-62968777D01*
X120660785Y-63694491D02*
X120660785Y-62170491D01*
X120660785Y-62170491D02*
X120080214Y-62170491D01*
X120080214Y-62170491D02*
X119935071Y-62243062D01*
X119935071Y-62243062D02*
X119862500Y-62315634D01*
X119862500Y-62315634D02*
X119789928Y-62460777D01*
X119789928Y-62460777D02*
X119789928Y-62678491D01*
X119789928Y-62678491D02*
X119862500Y-62823634D01*
X119862500Y-62823634D02*
X119935071Y-62896205D01*
X119935071Y-62896205D02*
X120080214Y-62968777D01*
X120080214Y-62968777D02*
X120660785Y-62968777D01*
X118265928Y-63694491D02*
X118773928Y-62968777D01*
X119136785Y-63694491D02*
X119136785Y-62170491D01*
X119136785Y-62170491D02*
X118556214Y-62170491D01*
X118556214Y-62170491D02*
X118411071Y-62243062D01*
X118411071Y-62243062D02*
X118338500Y-62315634D01*
X118338500Y-62315634D02*
X118265928Y-62460777D01*
X118265928Y-62460777D02*
X118265928Y-62678491D01*
X118265928Y-62678491D02*
X118338500Y-62823634D01*
X118338500Y-62823634D02*
X118411071Y-62896205D01*
X118411071Y-62896205D02*
X118556214Y-62968777D01*
X118556214Y-62968777D02*
X119136785Y-62968777D01*
X117322500Y-62170491D02*
X117032214Y-62170491D01*
X117032214Y-62170491D02*
X116887071Y-62243062D01*
X116887071Y-62243062D02*
X116741928Y-62388205D01*
X116741928Y-62388205D02*
X116669357Y-62678491D01*
X116669357Y-62678491D02*
X116669357Y-63186491D01*
X116669357Y-63186491D02*
X116741928Y-63476777D01*
X116741928Y-63476777D02*
X116887071Y-63621920D01*
X116887071Y-63621920D02*
X117032214Y-63694491D01*
X117032214Y-63694491D02*
X117322500Y-63694491D01*
X117322500Y-63694491D02*
X117467643Y-63621920D01*
X117467643Y-63621920D02*
X117612785Y-63476777D01*
X117612785Y-63476777D02*
X117685357Y-63186491D01*
X117685357Y-63186491D02*
X117685357Y-62678491D01*
X117685357Y-62678491D02*
X117612785Y-62388205D01*
X117612785Y-62388205D02*
X117467643Y-62243062D01*
X117467643Y-62243062D02*
X117322500Y-62170491D01*
X115145357Y-63694491D02*
X115653357Y-62968777D01*
X116016214Y-63694491D02*
X116016214Y-62170491D01*
X116016214Y-62170491D02*
X115435643Y-62170491D01*
X115435643Y-62170491D02*
X115290500Y-62243062D01*
X115290500Y-62243062D02*
X115217929Y-62315634D01*
X115217929Y-62315634D02*
X115145357Y-62460777D01*
X115145357Y-62460777D02*
X115145357Y-62678491D01*
X115145357Y-62678491D02*
X115217929Y-62823634D01*
X115217929Y-62823634D02*
X115290500Y-62896205D01*
X115290500Y-62896205D02*
X115435643Y-62968777D01*
X115435643Y-62968777D02*
X116016214Y-62968777D01*
X124242285Y-66869491D02*
X124750285Y-66143777D01*
X125113142Y-66869491D02*
X125113142Y-65345491D01*
X125113142Y-65345491D02*
X124532571Y-65345491D01*
X124532571Y-65345491D02*
X124387428Y-65418062D01*
X124387428Y-65418062D02*
X124314857Y-65490634D01*
X124314857Y-65490634D02*
X124242285Y-65635777D01*
X124242285Y-65635777D02*
X124242285Y-65853491D01*
X124242285Y-65853491D02*
X124314857Y-65998634D01*
X124314857Y-65998634D02*
X124387428Y-66071205D01*
X124387428Y-66071205D02*
X124532571Y-66143777D01*
X124532571Y-66143777D02*
X125113142Y-66143777D01*
X123298857Y-65345491D02*
X123008571Y-65345491D01*
X123008571Y-65345491D02*
X122863428Y-65418062D01*
X122863428Y-65418062D02*
X122718285Y-65563205D01*
X122718285Y-65563205D02*
X122645714Y-65853491D01*
X122645714Y-65853491D02*
X122645714Y-66361491D01*
X122645714Y-66361491D02*
X122718285Y-66651777D01*
X122718285Y-66651777D02*
X122863428Y-66796920D01*
X122863428Y-66796920D02*
X123008571Y-66869491D01*
X123008571Y-66869491D02*
X123298857Y-66869491D01*
X123298857Y-66869491D02*
X123444000Y-66796920D01*
X123444000Y-66796920D02*
X123589142Y-66651777D01*
X123589142Y-66651777D02*
X123661714Y-66361491D01*
X123661714Y-66361491D02*
X123661714Y-65853491D01*
X123661714Y-65853491D02*
X123589142Y-65563205D01*
X123589142Y-65563205D02*
X123444000Y-65418062D01*
X123444000Y-65418062D02*
X123298857Y-65345491D01*
X122210286Y-65345491D02*
X121339429Y-65345491D01*
X121774857Y-66869491D02*
X121774857Y-65345491D01*
X120904000Y-66434062D02*
X120178286Y-66434062D01*
X121049143Y-66869491D02*
X120541143Y-65345491D01*
X120541143Y-65345491D02*
X120033143Y-66869491D01*
X119742857Y-65345491D02*
X118872000Y-65345491D01*
X119307428Y-66869491D02*
X119307428Y-65345491D01*
X118363999Y-66869491D02*
X118363999Y-65345491D01*
X117348000Y-65345491D02*
X117057714Y-65345491D01*
X117057714Y-65345491D02*
X116912571Y-65418062D01*
X116912571Y-65418062D02*
X116767428Y-65563205D01*
X116767428Y-65563205D02*
X116694857Y-65853491D01*
X116694857Y-65853491D02*
X116694857Y-66361491D01*
X116694857Y-66361491D02*
X116767428Y-66651777D01*
X116767428Y-66651777D02*
X116912571Y-66796920D01*
X116912571Y-66796920D02*
X117057714Y-66869491D01*
X117057714Y-66869491D02*
X117348000Y-66869491D01*
X117348000Y-66869491D02*
X117493143Y-66796920D01*
X117493143Y-66796920D02*
X117638285Y-66651777D01*
X117638285Y-66651777D02*
X117710857Y-66361491D01*
X117710857Y-66361491D02*
X117710857Y-65853491D01*
X117710857Y-65853491D02*
X117638285Y-65563205D01*
X117638285Y-65563205D02*
X117493143Y-65418062D01*
X117493143Y-65418062D02*
X117348000Y-65345491D01*
X116041714Y-66869491D02*
X116041714Y-65345491D01*
X116041714Y-65345491D02*
X115170857Y-66869491D01*
X115170857Y-66869491D02*
X115170857Y-65345491D01*
D13*
X120826000Y-43102000D02*
X120826000Y-39702000D01*
X120826000Y-39702000D02*
X117426000Y-39702000D01*
X117426000Y-43102000D02*
X120826000Y-43102000D01*
X117426000Y-39702000D02*
X117426000Y-43102000D01*
X154100000Y-62660000D02*
X154100000Y-59260000D01*
X154100000Y-59260000D02*
X150700000Y-59260000D01*
X150700000Y-62660000D02*
X154100000Y-62660000D01*
X150700000Y-59260000D02*
X150700000Y-62660000D01*
%LPC*%
D14*
X156210000Y-30480000D03*
D15*
X156210000Y-30480000D03*
D16*
X144428000Y-90424000D03*
D17*
X149428000Y-90424000D03*
D18*
X152153323Y-78740000D03*
D19*
X157153323Y-78740000D03*
D20*
X121600000Y-44450000D03*
D21*
X121600000Y-46990000D03*
X121600000Y-49530000D03*
X121600000Y-52070000D03*
D15*
X156210000Y-92710000D03*
D14*
X156210000Y-92710000D03*
D18*
X125730000Y-27178000D03*
D22*
X125730000Y-29718000D03*
X125730000Y-32258000D03*
X125730000Y-34798000D03*
X125730000Y-37338000D03*
X125730000Y-39878000D03*
X125730000Y-42418000D03*
X125730000Y-44958000D03*
X148590000Y-44958000D03*
X148590000Y-42418000D03*
X148590000Y-39878000D03*
X148590000Y-37338000D03*
X148590000Y-34798000D03*
X148590000Y-32258000D03*
X148590000Y-29718000D03*
X148590000Y-27178000D03*
D20*
X157480000Y-44450000D03*
D21*
X157480000Y-46990000D03*
X157480000Y-49530000D03*
X157480000Y-52070000D03*
D20*
X117094000Y-44450000D03*
D21*
X117094000Y-46990000D03*
X117094000Y-49530000D03*
X117094000Y-52070000D03*
D23*
X123185000Y-93726000D03*
D24*
X125725000Y-93726000D03*
D18*
X122052477Y-84302600D03*
D19*
X117052477Y-84302600D03*
D15*
X118110000Y-92710000D03*
D14*
X118110000Y-92710000D03*
D15*
X118110000Y-30480000D03*
D14*
X118110000Y-30480000D03*
D20*
X153035000Y-44450000D03*
D21*
X153035000Y-46990000D03*
X153035000Y-49530000D03*
X153035000Y-52070000D03*
D25*
X119126000Y-41402000D03*
X152400000Y-60960000D03*
M02*
